M48
; DRILL file {KiCad 7.0.11-7.0.11~ubuntu22.04.1} date Sat 06 Jul 2024 11:47:17 CEST
; FORMAT={-:-/ absolute / inch / decimal}
; #@! TF.CreationDate,2024-07-06T11:47:17+02:00
; #@! TF.GenerationSoftware,Kicad,Pcbnew,7.0.11-7.0.11~ubuntu22.04.1
; #@! TF.FileFunction,NonPlated,1,2,NPTH
FMAT,2
INCH
; #@! TA.AperFunction,NonPlated,NPTH,ComponentDrill
T1C0.0276
; #@! TA.AperFunction,NonPlated,NPTH,ComponentDrill
T2C0.0354
; #@! TA.AperFunction,NonPlated,NPTH,ComponentDrill
T3C0.0472
; #@! TA.AperFunction,NonPlated,NPTH,ComponentDrill
T4C0.0669
; #@! TA.AperFunction,NonPlated,NPTH,ComponentDrill
T5C0.0748
; #@! TA.AperFunction,NonPlated,NPTH,ComponentDrill
T6C0.0866
; #@! TA.AperFunction,NonPlated,NPTH,ComponentDrill
T7C0.1181
; #@! TA.AperFunction,NonPlated,NPTH,ComponentDrill
T8C0.1260
; #@! TA.AperFunction,NonPlated,NPTH,ComponentDrill
T9C0.1614
%
G90
G05
T1
X3.2382Y-2.5758
X3.2402Y-2.4577
T2
X3.2406Y-4.6667
X3.2406Y-4.8341
T3
X3.2441Y-5.0148
X3.2441Y-5.0837
X3.5197Y-5.0148
X3.5197Y-5.0837
T4
X3.2358Y-6.1447
X3.4864Y-5.8942
X3.872Y-5.5938
X4.1789Y-5.4166
X4.5893Y-2.819
X4.5893Y-3.5699
X4.5893Y-4.3208
X4.628Y-5.2261
X4.9436Y-2.819
X4.9436Y-3.5699
X4.9436Y-4.3208
X4.9702Y-5.1344
X5.3371Y-2.7009
X5.3371Y-3.4518
X5.3371Y-4.2027
X5.4532Y-5.0668
X5.6914Y-2.7009
X5.6914Y-3.4518
X5.6914Y-4.2027
X5.8075Y-5.0668
X6.0871Y-2.3466
X6.0871Y-3.0975
X6.0871Y-3.8483
X6.4414Y-2.3466
X6.4414Y-3.0975
X6.4414Y-3.8483
X6.8399Y-4.2427
X6.8923Y-3.4937
X6.9446Y-2.7446
X7.1934Y-4.2674
X7.2457Y-3.5184
X7.2981Y-2.7693
X7.5452Y-4.7759
X7.6756Y-4.0365
X7.806Y-3.297
X7.8942Y-4.8375
X8.0246Y-4.098
X8.1549Y-3.3585
X8.317Y-4.7121
X8.4473Y-3.9727
X8.6659Y-4.7737
X8.7963Y-4.0342
T5
X3.2197Y-6.1609
X3.5025Y-5.878
X3.8523Y-5.6052
X4.1987Y-5.4052
X4.5665Y-2.819
X4.5665Y-3.5699
X4.5665Y-4.3208
X4.6059Y-5.232
X4.9665Y-2.819
X4.9665Y-3.5699
X4.9665Y-4.3208
X4.9923Y-5.1285
X5.3142Y-2.7009
X5.3142Y-3.4518
X5.3142Y-4.2027
X5.4304Y-5.0668
X5.7142Y-2.7009
X5.7142Y-3.4518
X5.7142Y-4.2027
X5.8304Y-5.0668
X6.0642Y-2.3466
X6.0642Y-3.0975
X6.0642Y-3.8483
X6.4642Y-2.3466
X6.4642Y-3.0975
X6.4642Y-3.8483
X6.8171Y-4.2411
X6.8695Y-3.4921
X6.9219Y-2.743
X7.2161Y-4.269
X7.2685Y-3.52
X7.3209Y-2.7709
X7.5227Y-4.772
X7.6531Y-4.0325
X7.7835Y-3.293
X7.9167Y-4.8414
X8.047Y-4.102
X8.1774Y-3.3625
X8.2945Y-4.7082
X8.4249Y-3.9687
X8.6884Y-4.7776
X8.8188Y-4.0381
T6
X7.6083Y-2.9547
T7
X3.3258Y-6.1962
X3.4318Y-6.2316
X3.5379Y-5.9841
X3.5732Y-6.0902
X3.9456Y-5.6668
X4.0389Y-5.7284
X4.2054Y-5.5168
X4.2121Y-5.6284
X4.6165Y-2.919
X4.6165Y-3.6699
X4.6165Y-4.4208
X4.6665Y-3.019
X4.6665Y-3.7699
X4.6665Y-4.5208
X4.6801Y-5.3157
X4.7543Y-5.3993
X4.8665Y-3.019
X4.8665Y-3.7699
X4.8665Y-4.5208
X4.9165Y-2.919
X4.9165Y-3.6699
X4.9165Y-4.4208
X4.9475Y-5.3476
X4.9699Y-5.238
X5.3642Y-2.8009
X5.3642Y-3.5518
X5.3642Y-4.3027
X5.4142Y-2.9009
X5.4142Y-3.6518
X5.4142Y-4.4027
X5.4804Y-5.1668
X5.5304Y-5.2668
X5.6142Y-2.9009
X5.6142Y-3.6518
X5.6142Y-4.4027
X5.6642Y-2.8009
X5.6642Y-3.5518
X5.6642Y-4.3027
X5.7304Y-5.2668
X5.7804Y-5.1668
X6.1142Y-2.4466
X6.1142Y-3.1975
X6.1142Y-3.9483
X6.1642Y-2.5466
X6.1642Y-3.2975
X6.1642Y-4.0483
X6.3642Y-2.5466
X6.3642Y-3.2975
X6.3642Y-4.0483
X6.4142Y-2.4466
X6.4142Y-3.1975
X6.4142Y-3.9483
X6.86Y-4.3444
X6.9029Y-4.4476
X6.9124Y-3.5953
X6.9553Y-3.6986
X6.9648Y-2.8463
X7.0077Y-2.9495
X7.1024Y-4.4616
X7.1548Y-3.7125
X7.1593Y-4.3653
X7.2072Y-2.9635
X7.2117Y-3.6162
X7.264Y-2.8672
X7.5546Y-4.8791
X7.5865Y-4.9863
X7.685Y-4.1397
X7.7169Y-4.2468
X7.7834Y-5.021
X7.8154Y-3.4002
X7.8473Y-3.5073
X7.85Y-4.9312
X7.9138Y-4.2816
X7.9804Y-4.1918
X8.0442Y-3.5421
X8.1108Y-3.4523
X8.3263Y-4.8153
X8.3582Y-4.9225
X8.4567Y-4.0759
X8.4886Y-4.183
X8.5552Y-4.9572
X8.6218Y-4.8674
X8.6856Y-4.2177
X8.7522Y-4.1279
T8
X3.2803Y-2.1937
X3.2803Y-5.3209
X5.7244Y-2.1937
X6.5866Y-3.4665
X6.6909Y-4.7917
X6.8563Y-2.1937
X7.148Y-4.8217
X7.4406Y-2.2335
T9
X3.3611Y-6.0194
X4.0255Y-5.5052
X4.7665Y-2.819
X4.7665Y-3.5699
X4.7665Y-4.3208
X4.7991Y-5.1803
X5.5142Y-2.7009
X5.5142Y-3.4518
X5.5142Y-4.2027
X5.6304Y-5.0668
X6.2642Y-2.3466
X6.2642Y-3.0975
X6.2642Y-3.8483
X7.0166Y-4.2551
X7.069Y-3.506
X7.1214Y-2.757
X7.7197Y-4.8067
X7.8501Y-4.0672
X7.9805Y-3.3277
X8.4914Y-4.7429
X8.6218Y-4.0034
M30
