M48
; DRILL file {KiCad 8.0.4-8.0.4-0~ubuntu22.04.1} date 2024-09-04T00:25:36+0200
; FORMAT={-:-/ absolute / metric / decimal}
; #@! TF.CreationDate,2024-09-04T00:25:36+02:00
; #@! TF.GenerationSoftware,Kicad,Pcbnew,8.0.4-8.0.4-0~ubuntu22.04.1
; #@! TF.FileFunction,Plated,1,2,PTH
FMAT,2
METRIC
; #@! TA.AperFunction,Plated,PTH,ComponentDrill
T1C0.200
; #@! TA.AperFunction,Plated,PTH,ViaDrill
T2C0.300
; #@! TA.AperFunction,Plated,PTH,ComponentDrill
T3C0.400
; #@! TA.AperFunction,Plated,PTH,ComponentDrill
T4C0.500
; #@! TA.AperFunction,Plated,PTH,ComponentDrill
T5C0.750
; #@! TA.AperFunction,Plated,PTH,ComponentDrill
T6C0.813
; #@! TA.AperFunction,Plated,PTH,ComponentDrill
T7C0.850
; #@! TA.AperFunction,Plated,PTH,ComponentDrill
T8C1.000
; #@! TA.AperFunction,Plated,PTH,ComponentDrill
T9C1.500
; #@! TA.AperFunction,Plated,PTH,ComponentDrill
T10C2.200
%
G90
G05
T1
X81.26Y-118.81
X81.26Y-122.51
X83.21Y-119.435
X83.21Y-120.66
X83.21Y-121.885
T2
X72.885Y-152.73
X76.395Y-152.8
X81.184Y-63.838
X81.305Y-67.99
X81.395Y-60.06
X81.95Y-106.2
X82.125Y-149.79
X82.248Y-63.899
X82.4Y-101.5
X83.075Y-106.83
X83.117Y-63.894
X83.655Y-110.05
X85.015Y-159.74
X85.185Y-142.1
X85.755Y-159.16
X86.165Y-63.22
X86.556Y-64.941
X86.627Y-124.038
X86.703Y-72.603
X86.711Y-71.85
X87.01Y-61.404
X87.135Y-71.385
X87.15Y-69.65
X87.536Y-59.879
X88.1Y-118.5
X88.185Y-144.42
X88.385Y-134.74
X88.885Y-126.21
X89.521Y-125.364
X90.05Y-128.25
X90.325Y-100.05
X91.705Y-153.68
X91.8Y-128.25
X92.295Y-152.789
X92.535Y-149.3
X93.755Y-137.1
X94.275Y-156.18
X95.755Y-66.33
X95.885Y-72.64
X95.955Y-77.71
X96.404Y-101.987
X96.415Y-102.86
X96.5Y-100.05
X96.665Y-81.63
X96.795Y-75.24
X96.795Y-76.53
X96.815Y-71.47
X96.815Y-80.34
X96.845Y-70.13
X96.885Y-68.92
X96.905Y-73.9
X97.385Y-64.41
X97.575Y-78.99
X97.675Y-123.44
X98.45Y-100.05
X98.745Y-82.84
X98.765Y-85.39
X98.955Y-84.04
X98.995Y-67.63
X99.006Y-97.681
X99.071Y-96.871
X99.575Y-100.05
X99.655Y-136.15
X99.795Y-143.7
X100.185Y-103.53
X100.295Y-146.69
X100.975Y-100.05
X101.185Y-146.2
X102.142Y-63.106
X102.907Y-68.17
X102.911Y-73.255
X102.926Y-75.81
X102.934Y-70.738
X102.935Y-78.358
X102.941Y-85.984
X102.95Y-80.913
X102.977Y-83.481
X103.575Y-100.05
X104.745Y-130.63
X104.765Y-125.64
X104.855Y-122.27
X106.033Y-69.82
X106.61Y-120.595
X107.025Y-131.86
X107.235Y-139.53
X108.295Y-121.16
X108.335Y-142.18
X108.975Y-87.26
X109.095Y-80.27
X109.175Y-141.78
X109.695Y-124.1
X110.025Y-78.21
X110.475Y-69.35
X110.515Y-62.77
X111.295Y-114.36
X111.315Y-143.7
X111.335Y-91.47
X111.725Y-75.49
X111.745Y-138.57
X112.105Y-84.01
X112.135Y-102.06
X113.425Y-58.2
X114.005Y-86.87
X114.125Y-126.92
X114.385Y-125.42
X114.805Y-65.07
X114.815Y-103.11
X115.865Y-135.69
X116.315Y-76.67
X116.335Y-114.84
X116.425Y-95.74
X117.155Y-76.65
X117.235Y-95.7
X117.235Y-114.79
X117.385Y-121.767
X118.355Y-137.87
X119.375Y-137.55
X119.825Y-128.87
X120.195Y-121.71
X120.365Y-62.85
X120.865Y-86.51
X120.905Y-124.91
X121.065Y-103.89
X121.095Y-66.72
X121.125Y-117.5
X122.425Y-82.01
X122.645Y-99.5
X123.575Y-57.94
X124.375Y-92.56
X125.125Y-114.77
X125.265Y-76.65
X125.279Y-95.676
X125.965Y-114.85
X126.055Y-112.51
X126.115Y-122.06
X126.175Y-76.65
X126.189Y-95.676
X126.775Y-123.44
X127.065Y-135.55
X127.355Y-84.04
X127.685Y-80.25
X127.885Y-135.34
X128.105Y-119.46
X128.405Y-125.93
X128.705Y-134.68
X128.795Y-67.78
X128.815Y-83.0
X128.835Y-106.04
X129.155Y-73.03
X129.4Y-114.935
X129.915Y-114.02
X130.595Y-138.72
X131.155Y-125.37
X131.375Y-62.01
X131.825Y-129.82
X132.355Y-79.48
X132.365Y-66.3
X132.605Y-119.27
X133.205Y-83.91
X133.655Y-61.91
X134.535Y-100.11
X134.995Y-54.69
X135.115Y-90.55
X135.215Y-98.18
X135.375Y-124.07
X135.415Y-73.63
X135.475Y-92.71
X135.525Y-111.73
X135.765Y-117.35
X136.145Y-128.87
X136.255Y-73.65
X136.295Y-92.74
X136.38Y-111.721
X136.695Y-71.03
X138.295Y-133.81
X139.205Y-133.81
X139.915Y-57.98
X139.965Y-64.46
X140.125Y-130.38
X140.395Y-97.44
X140.425Y-76.77
X140.795Y-102.64
X140.955Y-84.76
X141.765Y-117.79
X143.215Y-90.42
X143.865Y-116.925
X144.099Y-111.836
X144.149Y-92.756
X144.235Y-73.54
X144.275Y-118.75
X144.755Y-70.94
X144.805Y-108.64
X144.835Y-79.23
X145.009Y-111.836
X145.059Y-92.756
X145.255Y-73.54
X145.875Y-81.0
X146.205Y-111.15
X146.234Y-113.06
X146.705Y-90.9
X146.857Y-116.598
X147.199Y-133.816
X147.235Y-86.93
X147.305Y-102.95
X147.915Y-64.86
X148.109Y-133.816
X148.505Y-126.26
X149.555Y-117.37
X149.615Y-112.79
X149.705Y-61.15
X149.705Y-66.08
X151.345Y-136.31
X151.405Y-57.62
X151.885Y-50.1
X152.145Y-129.81
X152.315Y-71.92
X154.435Y-64.62
X154.475Y-102.84
X154.515Y-83.73
X154.585Y-80.99
X155.1Y-68.1
X155.295Y-64.62
X155.295Y-102.81
X155.345Y-83.73
X155.435Y-61.87
X157.765Y-123.22
X159.025Y-72.52
X159.065Y-91.33
X159.425Y-55.15
X159.905Y-71.59
X161.845Y-86.49
X162.775Y-110.29
X163.105Y-58.7
X163.119Y-83.746
X163.229Y-102.826
X163.249Y-64.616
X163.555Y-62.0
X164.029Y-83.746
X164.139Y-102.826
X164.159Y-64.616
X164.745Y-65.929
X164.805Y-91.11
X165.075Y-71.91
X165.595Y-53.03
X165.835Y-50.26
X165.905Y-93.96
X166.245Y-74.92
X166.245Y-77.55
X166.925Y-60.33
X166.935Y-81.53
X167.195Y-55.76
X168.835Y-55.8
X169.235Y-113.5
X169.625Y-109.04
X170.165Y-61.98
X170.225Y-80.01
X171.745Y-93.1
X172.305Y-69.55
X172.445Y-101.02
X172.975Y-112.77
X173.835Y-112.82
X174.235Y-93.76
X175.125Y-124.07
X175.175Y-93.82
X175.585Y-74.75
X175.755Y-90.63
X176.665Y-74.81
X177.505Y-120.07
X180.005Y-83.75
X180.595Y-115.33
X180.695Y-54.73
X181.475Y-111.07
X181.905Y-113.42
X182.365Y-57.94
X182.815Y-113.51
X183.295Y-94.43
X184.095Y-94.49
X184.665Y-75.36
X184.875Y-91.41
X185.405Y-101.9
X185.415Y-72.59
X185.525Y-75.39
X185.705Y-97.09
X185.725Y-116.74
X186.235Y-104.91
X186.565Y-61.89
X186.615Y-82.83
X186.635Y-85.8
X186.815Y-63.72
X187.255Y-124.88
X187.285Y-87.0
X187.405Y-79.13
X187.805Y-69.5
X187.955Y-93.21
X188.115Y-66.88
X188.795Y-118.03
X189.045Y-74.34
X189.165Y-100.75
X189.315Y-108.89
X189.505Y-96.06
X190.215Y-87.34
X190.445Y-126.24
X191.025Y-78.66
X191.245Y-126.39
X191.435Y-102.84
X191.565Y-114.67
X191.935Y-94.22
X192.115Y-66.15
X192.215Y-83.8
X193.385Y-98.41
X193.665Y-58.89
X193.685Y-107.41
X194.565Y-107.57
X195.495Y-105.26
X196.275Y-94.59
X196.275Y-119.02
X196.415Y-73.75
X196.975Y-88.61
X197.815Y-88.75
X197.875Y-125.43
X198.025Y-86.41
X199.235Y-127.82
X199.545Y-111.07
X200.075Y-127.97
X200.545Y-131.81
X200.995Y-96.79
X201.155Y-122.79
X201.285Y-58.9
X201.635Y-76.18
X202.595Y-109.05
X202.815Y-108.01
X203.135Y-115.6
X203.415Y-106.12
X203.655Y-92.36
X203.665Y-128.4
X204.085Y-119.66
X205.125Y-87.25
X205.195Y-93.92
X205.435Y-59.75
X205.945Y-90.31
X206.265Y-109.59
X206.325Y-112.39
X206.425Y-58.91
X206.715Y-97.83
X206.735Y-90.5
X206.905Y-113.4
X208.545Y-70.76
X209.265Y-57.17
X209.415Y-93.07
X209.505Y-96.61
X209.645Y-79.03
X210.075Y-124.74
X210.295Y-82.1
X210.665Y-122.58
X210.905Y-124.88
X210.965Y-89.87
X212.605Y-78.39
X213.475Y-105.94
X213.595Y-101.77
X213.845Y-91.81
X214.295Y-106.08
X218.745Y-126.34
X219.435Y-123.68
X220.705Y-128.98
X220.745Y-93.06
X222.145Y-107.53
X222.385Y-114.82
X222.945Y-107.68
X222.985Y-125.27
X223.225Y-110.21
X224.005Y-112.72
X225.895Y-96.19
X226.805Y-99.24
X227.445Y-104.35
X228.065Y-95.54
T3
X81.275Y-160.9
X83.679Y-163.304
X96.118Y-146.288
X97.818Y-149.232
X99.18Y-106.96
X102.58Y-106.96
X114.247Y-136.297
X115.1Y-118.29
X115.127Y-139.581
X115.3Y-80.1
X115.3Y-99.2
X118.5Y-118.29
X118.7Y-80.1
X118.7Y-99.2
X134.3Y-77.1
X134.545Y-131.5
X134.545Y-134.9
X135.297Y-96.197
X137.7Y-77.1
X138.697Y-96.197
X147.895Y-106.58
X147.895Y-109.98
X153.3Y-106.3
X153.379Y-87.185
X153.4Y-68.1
X156.7Y-106.3
X156.779Y-87.185
X156.8Y-68.1
X172.9Y-116.2
X172.908Y-97.163
X174.3Y-78.1
X176.292Y-116.437
X176.3Y-97.4
X177.692Y-78.337
X188.626Y-129.405
X191.952Y-110.71
X191.974Y-129.995
X195.252Y-91.91
X195.3Y-111.3
X198.6Y-92.5
X208.901Y-127.685
X212.081Y-108.875
X212.249Y-128.275
X215.429Y-109.465
T4
X153.295Y-116.29
X166.495Y-116.29
T5
X82.35Y-102.8
X82.35Y-104.8
T6
X88.78Y-56.84
X88.78Y-59.38
X88.78Y-61.92
X88.78Y-64.46
X88.78Y-67.0
X88.78Y-69.54
X88.78Y-72.08
X88.78Y-74.62
X88.78Y-77.16
X88.78Y-79.7
X88.78Y-82.24
X88.78Y-84.78
X90.079Y-58.036
X90.079Y-60.576
X90.079Y-63.116
X90.079Y-65.656
X90.079Y-68.196
X90.079Y-70.736
X90.079Y-73.276
X90.079Y-75.816
X90.079Y-78.356
X90.079Y-80.896
X90.079Y-83.436
X90.079Y-85.976
X104.02Y-56.84
X104.02Y-59.38
X104.02Y-61.92
X104.02Y-64.46
X104.02Y-67.0
X104.02Y-69.54
X104.02Y-72.08
X104.02Y-74.62
X104.02Y-77.16
X104.02Y-79.7
X104.02Y-82.24
X104.02Y-84.78
X105.319Y-58.036
X105.319Y-60.576
X105.319Y-63.116
X105.319Y-65.656
X105.319Y-68.196
X105.319Y-70.736
X105.319Y-73.276
X105.319Y-75.816
X105.319Y-78.356
X105.319Y-80.896
X105.319Y-83.436
X105.319Y-85.976
T7
X137.95Y-120.1
X140.49Y-120.1
X143.03Y-120.1
X145.57Y-120.1
X148.11Y-120.1
T8
X82.595Y-111.4
X82.595Y-115.0
X88.09Y-111.45
X88.09Y-113.95
X88.09Y-116.45
X92.629Y-98.455
X95.169Y-98.455
X97.709Y-98.455
X100.249Y-98.455
X102.59Y-111.45
X102.59Y-116.45
X194.92Y-55.05
X197.46Y-55.05
X200.0Y-55.05
X202.54Y-55.05
X205.08Y-55.05
T10
X130.525Y-96.86
X149.575Y-77.81
X168.625Y-96.86
T8
G00X83.95Y-125.275
M15
G01X84.45Y-125.275
M16
G05
G00X83.95Y-131.225
M15
G01X84.45Y-131.225
M16
G05
G00X86.95Y-125.275
M15
G01X87.45Y-125.275
M16
G05
G00X86.95Y-131.225
M15
G01X87.45Y-131.225
M16
G05
G00X90.95Y-125.275
M15
G01X91.45Y-125.275
M16
G05
G00X90.95Y-131.225
M15
G01X91.45Y-131.225
M16
G05
G00X92.45Y-127.025
M15
G01X92.95Y-127.025
M16
G05
G00X92.45Y-129.475
M15
G01X92.95Y-129.475
M16
G05
T9
G00X94.94Y-108.35
M15
G01X96.24Y-108.35
M16
G05
G00X94.94Y-119.55
M15
G01X96.24Y-119.55
M16
G05
M30
