G04 #@! TF.GenerationSoftware,KiCad,Pcbnew,8.0.4-8.0.4-0~ubuntu22.04.1*
G04 #@! TF.CreationDate,2024-08-27T17:00:24+02:00*
G04 #@! TF.ProjectId,klor1_4,6b6c6f72-315f-4342-9e6b-696361645f70,v1.4.0 LP KS33*
G04 #@! TF.SameCoordinates,Original*
G04 #@! TF.FileFunction,Paste,Bot*
G04 #@! TF.FilePolarity,Positive*
%FSLAX46Y46*%
G04 Gerber Fmt 4.6, Leading zero omitted, Abs format (unit mm)*
G04 Created by KiCad (PCBNEW 8.0.4-8.0.4-0~ubuntu22.04.1) date 2024-08-27 17:00:24*
%MOMM*%
%LPD*%
G01*
G04 APERTURE LIST*
G04 Aperture macros list*
%AMRoundRect*
0 Rectangle with rounded corners*
0 $1 Rounding radius*
0 $2 $3 $4 $5 $6 $7 $8 $9 X,Y pos of 4 corners*
0 Add a 4 corners polygon primitive as box body*
4,1,4,$2,$3,$4,$5,$6,$7,$8,$9,$2,$3,0*
0 Add four circle primitives for the rounded corners*
1,1,$1+$1,$2,$3*
1,1,$1+$1,$4,$5*
1,1,$1+$1,$6,$7*
1,1,$1+$1,$8,$9*
0 Add four rect primitives between the rounded corners*
20,1,$1+$1,$2,$3,$4,$5,0*
20,1,$1+$1,$4,$5,$6,$7,0*
20,1,$1+$1,$6,$7,$8,$9,0*
20,1,$1+$1,$8,$9,$2,$3,0*%
%AMRotRect*
0 Rectangle, with rotation*
0 The origin of the aperture is its center*
0 $1 length*
0 $2 width*
0 $3 Rotation angle, in degrees counterclockwise*
0 Add horizontal line*
21,1,$1,$2,0,0,$3*%
%AMFreePoly0*
4,1,18,-0.410000,0.593000,-0.403758,0.624380,-0.385983,0.650983,-0.359380,0.668758,-0.328000,0.675000,0.000001,0.675000,0.410000,0.265000,0.410000,-0.593000,0.403758,-0.624380,0.385983,-0.650983,0.359380,-0.668758,0.328000,-0.675000,-0.327999,-0.675000,-0.359380,-0.668758,-0.385983,-0.650983,-0.403758,-0.624380,-0.410000,-0.593000,-0.410000,0.593000,-0.410000,0.593000,$1*%
G04 Aperture macros list end*
%ADD10RoundRect,0.082000X0.527034X-0.425990X0.640948X0.220044X-0.527034X0.425990X-0.640948X-0.220044X0*%
%ADD11FreePoly0,80.000000*%
%ADD12RoundRect,0.255000X1.230865X0.818700X-0.876623X1.190307X-1.230865X-0.818700X0.876623X-1.190307X0*%
%ADD13RotRect,1.200000X2.550000X350.000000*%
%ADD14RotRect,1.200000X2.550000X170.000000*%
%ADD15RoundRect,0.082000X0.593000X-0.328000X0.593000X0.328000X-0.593000X0.328000X-0.593000X-0.328000X0*%
%ADD16FreePoly0,90.000000*%
%ADD17RoundRect,0.255000X1.070000X1.020000X-1.070000X1.020000X-1.070000X-1.020000X1.070000X-1.020000X0*%
%ADD18R,1.200000X2.550000*%
%ADD19RoundRect,0.082000X0.568675X-0.368567X0.614436X0.285835X-0.568675X0.368567X-0.614436X-0.285835X0*%
%ADD20FreePoly0,86.000000*%
%ADD21RoundRect,0.255000X1.138545X0.942876X-0.996242X1.092155X-1.138545X-0.942876X0.996242X-1.092155X0*%
%ADD22RotRect,1.200000X2.550000X356.000000*%
%ADD23RotRect,1.200000X2.550000X176.000000*%
%ADD24RoundRect,0.082000X0.657687X-0.163344X0.487901X0.470303X-0.657687X0.163344X-0.487901X-0.470303X0*%
%ADD25FreePoly0,105.000000*%
%ADD26RoundRect,0.255000X0.769545X1.262181X-1.297536X0.708308X-0.769545X-1.262181X1.297536X-0.708308X0*%
%ADD27RotRect,1.200000X2.550000X15.000000*%
%ADD28RotRect,1.200000X2.550000X195.000000*%
%ADD29RoundRect,0.082000X0.677553X0.012444X0.349553X0.580556X-0.677553X-0.012444X-0.349553X-0.580556X0*%
%ADD30FreePoly0,120.000000*%
%ADD31RoundRect,0.255000X0.416647X1.418346X-1.436647X0.348346X-0.416647X-1.418346X1.436647X-0.348346X0*%
%ADD32RotRect,1.200000X2.550000X30.000000*%
%ADD33RotRect,1.200000X2.550000X210.000000*%
%ADD34RotRect,1.800000X1.500000X350.000000*%
%ADD35R,1.800000X1.500000*%
%ADD36RotRect,1.800000X1.500000X356.000000*%
%ADD37RotRect,1.800000X1.500000X105.000000*%
%ADD38R,2.200000X2.200000*%
%ADD39RotRect,1.800000X1.500000X120.000000*%
%ADD40RoundRect,0.187500X-0.712500X0.187500X-0.712500X-0.187500X0.712500X-0.187500X0.712500X0.187500X0*%
%ADD41RoundRect,0.150000X-0.750000X0.150000X-0.750000X-0.150000X0.750000X-0.150000X0.750000X0.150000X0*%
%ADD42RoundRect,0.225000X-0.225000X0.425000X-0.225000X-0.425000X0.225000X-0.425000X0.225000X0.425000X0*%
%ADD43RotRect,1.800000X1.500000X135.000000*%
%ADD44R,1.500000X1.800000*%
%ADD45R,1.000000X0.700000*%
%ADD46R,2.800000X1.000000*%
%ADD47RoundRect,0.082000X0.651245X0.187383X0.187383X0.651245X-0.651245X-0.187383X-0.187383X-0.651245X0*%
%ADD48FreePoly0,135.000000*%
%ADD49RoundRect,0.255000X0.035355X1.477853X-1.477853X-0.035355X-0.035355X-1.477853X1.477853X0.035355X0*%
%ADD50RotRect,1.200000X2.550000X45.000000*%
%ADD51RotRect,1.200000X2.550000X225.000000*%
G04 APERTURE END LIST*
D10*
X204629828Y-89316856D03*
D11*
X199262625Y-88370473D03*
D10*
X199002153Y-89847685D03*
X204369355Y-90794068D03*
D12*
X197957276Y-77932382D03*
D13*
X199626525Y-78226715D03*
D14*
X209390753Y-81014610D03*
D12*
X211060002Y-81308944D03*
D10*
X217609828Y-125196856D03*
D11*
X212242625Y-124250473D03*
D10*
X211982153Y-125727685D03*
X217349355Y-126674068D03*
D12*
X210937276Y-113812382D03*
D13*
X212606525Y-114106715D03*
D14*
X222370753Y-116894610D03*
D12*
X224040002Y-117188944D03*
D15*
X142764473Y-111050699D03*
D16*
X137314473Y-111050699D03*
D15*
X137314473Y-112550699D03*
X142764473Y-112550699D03*
D17*
X134216399Y-100997857D03*
D18*
X135911399Y-100997857D03*
X146011399Y-102047857D03*
D17*
X147706399Y-102047857D03*
D15*
X142778074Y-92032842D03*
D16*
X137328074Y-92032842D03*
D15*
X137328074Y-93532842D03*
X142778074Y-93532842D03*
D17*
X134230000Y-81980000D03*
D18*
X135925000Y-81980000D03*
X146025000Y-83030000D03*
D17*
X147720000Y-83030000D03*
D15*
X123748074Y-114102842D03*
D16*
X118298074Y-114102842D03*
D15*
X118298074Y-115602842D03*
X123748074Y-115602842D03*
D17*
X115200000Y-104050000D03*
D18*
X116895000Y-104050000D03*
X126995000Y-105100000D03*
D17*
X128690000Y-105100000D03*
D15*
X123765105Y-94987582D03*
D16*
X118315105Y-94987582D03*
D15*
X118315105Y-96487582D03*
X123765105Y-96487582D03*
D17*
X115217031Y-84934740D03*
D18*
X116912031Y-84934740D03*
X127012031Y-85984740D03*
D17*
X128707031Y-85984740D03*
D10*
X201306893Y-108014410D03*
D11*
X195939690Y-107068027D03*
D10*
X195679218Y-108545239D03*
X201046420Y-109491622D03*
D12*
X194634341Y-96629936D03*
D13*
X196303590Y-96924269D03*
D14*
X206067818Y-99712164D03*
D12*
X207737067Y-100006498D03*
D19*
X181941338Y-93570917D03*
D20*
X176504614Y-93190745D03*
D19*
X176399980Y-94687091D03*
X181836704Y-95067263D03*
D21*
X174115338Y-82946280D03*
D22*
X175806209Y-83064517D03*
D23*
X185808362Y-84816500D03*
D21*
X187499233Y-84934737D03*
D10*
X198019828Y-126876856D03*
D11*
X192652625Y-125930473D03*
D10*
X192392153Y-127407685D03*
X197759355Y-128354068D03*
D12*
X191347276Y-115492382D03*
D13*
X193016525Y-115786715D03*
D14*
X202780753Y-118574610D03*
D12*
X204450002Y-118868944D03*
D19*
X183301338Y-74590917D03*
D20*
X177864614Y-74210745D03*
D19*
X177759980Y-75707091D03*
X183196704Y-76087263D03*
D21*
X175475338Y-63966280D03*
D22*
X177166209Y-64084517D03*
D23*
X187168362Y-65836500D03*
D21*
X188859233Y-65954737D03*
D15*
X161814473Y-102050699D03*
D16*
X156364473Y-102050699D03*
D15*
X156364473Y-103550699D03*
X161814473Y-103550699D03*
D17*
X153266399Y-91997857D03*
D18*
X154961399Y-91997857D03*
X165061399Y-93047857D03*
D17*
X166756399Y-93047857D03*
D19*
X180681338Y-112600917D03*
D20*
X175244614Y-112220745D03*
D19*
X175139980Y-113717091D03*
X180576704Y-114097263D03*
D21*
X172855338Y-101976280D03*
D22*
X174546209Y-102094517D03*
D23*
X184548362Y-103846500D03*
D21*
X186239233Y-103964737D03*
D15*
X142788074Y-72952842D03*
D16*
X137338074Y-72952842D03*
D15*
X137338074Y-74452842D03*
X142788074Y-74452842D03*
D17*
X134240000Y-62900000D03*
D18*
X135935000Y-62900000D03*
X146035000Y-63950000D03*
D17*
X147730000Y-63950000D03*
D15*
X145728074Y-133072842D03*
D16*
X140278074Y-133072842D03*
D15*
X140278074Y-134572842D03*
X145728074Y-134572842D03*
D17*
X137180000Y-123020000D03*
D18*
X138875000Y-123020000D03*
X148975000Y-124070000D03*
D17*
X150670000Y-124070000D03*
D15*
X161828074Y-63972842D03*
D16*
X156378074Y-63972842D03*
D15*
X156378074Y-65472842D03*
X161828074Y-65472842D03*
D17*
X153280000Y-53920000D03*
D18*
X154975000Y-53920000D03*
X165075000Y-54970000D03*
D17*
X166770000Y-54970000D03*
D15*
X123788074Y-75932842D03*
D16*
X118338074Y-75932842D03*
D15*
X118338074Y-77432842D03*
X123788074Y-77432842D03*
D17*
X115240000Y-65880000D03*
D18*
X116935000Y-65880000D03*
X127035000Y-66930000D03*
D17*
X128730000Y-66930000D03*
D24*
X125639626Y-135096619D03*
D25*
X120375331Y-136507183D03*
D24*
X120763559Y-137956072D03*
X126027855Y-136545508D03*
D26*
X114780954Y-127598724D03*
D27*
X116418198Y-127160026D03*
D28*
X126445809Y-125560175D03*
D26*
X128083053Y-125121477D03*
D29*
X106735198Y-142203097D03*
D30*
X102015359Y-144928097D03*
D29*
X102765359Y-146227136D03*
X107485198Y-143502136D03*
D31*
X94305928Y-137771118D03*
D32*
X95773841Y-136923618D03*
D33*
X105045697Y-132782945D03*
D31*
X106513610Y-131935445D03*
D34*
X191951654Y-110709596D03*
X195300000Y-111300000D03*
D35*
X135297000Y-96197000D03*
X138697000Y-96197000D03*
D36*
X172900000Y-116200000D03*
X176291718Y-116437172D03*
D37*
X115126992Y-139581074D03*
X114247008Y-136296926D03*
D38*
X153295000Y-116290000D03*
X166495000Y-116290000D03*
D35*
X153300000Y-106300000D03*
X156700000Y-106300000D03*
X115300000Y-99200000D03*
X118700000Y-99200000D03*
D34*
X195251654Y-91909596D03*
X198600000Y-92500000D03*
D39*
X97818000Y-149232486D03*
X96118000Y-146288000D03*
D40*
X83209995Y-119435008D03*
X83209995Y-121885008D03*
D41*
X83209995Y-120660008D03*
D42*
X81259995Y-118810008D03*
X81259995Y-122510008D03*
D34*
X212080827Y-108874798D03*
X215429173Y-109465202D03*
D35*
X134300000Y-77100000D03*
X137700000Y-77100000D03*
X153400000Y-68100000D03*
X156800000Y-68100000D03*
X153379000Y-87185000D03*
X156779000Y-87185000D03*
D34*
X188625827Y-129404798D03*
X191974173Y-129995202D03*
D35*
X99180000Y-106960000D03*
X102580000Y-106960000D03*
D36*
X172908282Y-97162828D03*
X176300000Y-97400000D03*
X174300000Y-78100000D03*
X177691718Y-78337172D03*
D43*
X83679164Y-163304164D03*
X81275000Y-160900000D03*
D44*
X147895000Y-109980000D03*
X147895000Y-106580000D03*
D35*
X115300000Y-80100000D03*
X118700000Y-80100000D03*
D45*
X84101228Y-66176228D03*
X84101228Y-63176228D03*
X84101228Y-61676228D03*
D46*
X82201228Y-68026228D03*
X82201228Y-60076228D03*
D35*
X115100000Y-118290000D03*
X118500000Y-118290000D03*
D34*
X208900827Y-127684798D03*
X212249173Y-128275202D03*
D44*
X134545000Y-134900000D03*
X134545000Y-131500000D03*
D47*
X90348931Y-154011207D03*
D48*
X86495199Y-157864939D03*
D47*
X87555859Y-158925599D03*
X91409591Y-155071867D03*
D49*
X77196097Y-152947175D03*
D50*
X78394643Y-151748629D03*
D51*
X86278883Y-145349313D03*
D49*
X87477429Y-144150767D03*
D10*
X220889828Y-106396856D03*
D11*
X215522625Y-105450473D03*
D10*
X215262153Y-106927685D03*
X220629355Y-107874068D03*
D12*
X214217276Y-95012382D03*
D13*
X215886525Y-95306715D03*
D14*
X225650753Y-98094610D03*
D12*
X227320002Y-98388944D03*
D15*
X161814473Y-82978102D03*
D16*
X156364473Y-82978102D03*
D15*
X156364473Y-84478102D03*
X161814473Y-84478102D03*
D17*
X153266399Y-72925260D03*
D18*
X154961399Y-72925260D03*
X165061399Y-73975260D03*
D17*
X166756399Y-73975260D03*
M02*
