M48
; DRILL file {KiCad 8.0.4-8.0.4-0~ubuntu22.04.1} date 2024-08-28T05:36:26+0200
; FORMAT={-:-/ absolute / metric / decimal}
; #@! TF.CreationDate,2024-08-28T05:36:26+02:00
; #@! TF.GenerationSoftware,Kicad,Pcbnew,8.0.4-8.0.4-0~ubuntu22.04.1
; #@! TF.FileFunction,NonPlated,1,2,NPTH
FMAT,2
METRIC
; #@! TA.AperFunction,NonPlated,NPTH,ComponentDrill
T1C0.700
; #@! TA.AperFunction,NonPlated,NPTH,ComponentDrill
T2C0.900
; #@! TA.AperFunction,NonPlated,NPTH,ComponentDrill
T3C1.200
; #@! TA.AperFunction,NonPlated,NPTH,ComponentDrill
T4C2.200
; #@! TA.AperFunction,NonPlated,NPTH,ComponentDrill
T5C3.200
; #@! TA.AperFunction,NonPlated,NPTH,ComponentDrill
T6C3.300
; #@! TA.AperFunction,NonPlated,NPTH,ComponentDrill
T7C5.250
%
G90
G05
T1
X82.251Y-65.426
X82.301Y-62.426
T2
X82.31Y-118.535
X82.31Y-122.785
T3
X82.4Y-127.375
X82.4Y-129.125
X89.4Y-127.375
X89.4Y-129.125
T4
X193.25Y-74.45
T5
X83.32Y-55.72
X83.32Y-135.15
X145.4Y-55.72
X167.3Y-88.05
X169.95Y-121.71
X174.15Y-55.72
X181.56Y-122.47
X188.99Y-56.73
T6
X78.957Y-152.671
X79.491Y-150.653
X83.164Y-146.979
X85.183Y-146.445
X96.078Y-137.96
X97.116Y-136.149
X101.615Y-133.551
X103.703Y-133.558
X116.444Y-128.24
X116.64Y-105.1
X116.657Y-85.985
X116.68Y-66.93
X117.915Y-126.759
X118.445Y-104.05
X118.462Y-84.935
X118.485Y-65.88
X122.933Y-125.414
X123.64Y-104.05
X123.657Y-84.935
X123.68Y-65.88
X124.949Y-125.961
X125.445Y-105.1
X125.462Y-85.985
X125.485Y-66.93
X135.656Y-102.048
X135.67Y-83.03
X135.68Y-63.95
X137.461Y-100.998
X137.475Y-81.98
X137.485Y-62.9
X138.62Y-124.07
X140.425Y-123.02
X142.656Y-100.998
X142.67Y-81.98
X142.68Y-62.9
X144.461Y-102.048
X144.475Y-83.03
X144.485Y-63.95
X145.62Y-123.02
X147.425Y-124.07
X154.706Y-73.975
X154.706Y-93.048
X154.72Y-54.97
X156.511Y-72.925
X156.511Y-91.998
X156.525Y-53.92
X161.706Y-72.925
X161.706Y-91.998
X161.72Y-53.92
X163.511Y-73.975
X163.511Y-93.048
X163.525Y-54.97
X174.219Y-103.124
X175.479Y-84.094
X176.092Y-102.203
X176.839Y-65.114
X177.352Y-83.173
X178.712Y-64.193
X181.275Y-102.565
X182.535Y-83.535
X183.002Y-103.738
X183.895Y-64.555
X184.262Y-84.708
X185.622Y-65.728
X192.583Y-116.776
X194.543Y-116.056
X195.87Y-97.914
X197.83Y-97.193
X199.193Y-79.216
X199.659Y-116.958
X201.153Y-78.496
X201.254Y-118.305
X202.946Y-98.096
X204.541Y-99.443
X206.269Y-79.398
X207.864Y-80.745
X212.173Y-115.096
X214.133Y-114.376
X215.453Y-96.296
X217.413Y-95.576
X219.249Y-115.278
X220.844Y-116.625
X222.529Y-96.478
X224.124Y-97.825
T7
X85.391Y-152.884
X85.395Y-152.88
X102.239Y-139.831
X102.243Y-139.828
X121.04Y-109.8
X121.045Y-109.8
X121.057Y-90.685
X121.062Y-90.685
X121.08Y-71.63
X121.085Y-71.63
X121.91Y-131.641
X121.915Y-131.64
X140.056Y-106.748
X140.061Y-106.748
X140.07Y-87.73
X140.075Y-87.73
X140.08Y-68.65
X140.085Y-68.65
X143.02Y-128.77
X143.025Y-128.77
X159.106Y-78.675
X159.106Y-97.748
X159.111Y-78.675
X159.111Y-97.748
X159.12Y-59.67
X159.125Y-59.67
X178.28Y-108.12
X178.285Y-108.12
X179.54Y-89.09
X179.545Y-89.09
X180.9Y-70.11
X180.905Y-70.11
X196.1Y-122.169
X196.105Y-122.17
X199.387Y-103.307
X199.392Y-103.308
X202.71Y-84.609
X202.715Y-84.61
X215.69Y-120.489
X215.695Y-120.49
X218.97Y-101.689
X218.975Y-101.69
M30
