M48
; DRILL file {KiCad 8.0.4-8.0.4-0~ubuntu22.04.1} date 2024-09-04T00:25:36+0200
; FORMAT={-:-/ absolute / metric / decimal}
; #@! TF.CreationDate,2024-09-04T00:25:36+02:00
; #@! TF.GenerationSoftware,Kicad,Pcbnew,8.0.4-8.0.4-0~ubuntu22.04.1
; #@! TF.FileFunction,NonPlated,1,2,NPTH
FMAT,2
METRIC
; #@! TA.AperFunction,NonPlated,NPTH,ComponentDrill
T1C0.700
; #@! TA.AperFunction,NonPlated,NPTH,ComponentDrill
T2C0.900
; #@! TA.AperFunction,NonPlated,NPTH,ComponentDrill
T3C1.200
; #@! TA.AperFunction,NonPlated,NPTH,ComponentDrill
T4C2.200
; #@! TA.AperFunction,NonPlated,NPTH,ComponentDrill
T5C3.000
; #@! TA.AperFunction,NonPlated,NPTH,ComponentDrill
T6C3.200
; #@! TA.AperFunction,NonPlated,NPTH,ComponentDrill
T7C5.100
%
G90
G05
T1
X82.251Y-65.426
X82.301Y-62.426
T2
X82.31Y-118.535
X82.31Y-122.785
T3
X82.4Y-127.375
X82.4Y-129.125
X89.4Y-127.375
X89.4Y-129.125
T4
X193.25Y-74.45
T5
X78.96Y-152.668
X79.491Y-150.653
X83.168Y-146.976
X85.183Y-146.445
X96.082Y-137.958
X97.116Y-136.149
X101.62Y-133.549
X103.703Y-133.558
X116.448Y-128.239
X116.645Y-105.1
X116.662Y-85.985
X116.685Y-66.93
X117.915Y-126.759
X118.445Y-104.05
X118.462Y-84.935
X118.485Y-65.88
X122.938Y-125.413
X123.645Y-104.05
X123.662Y-84.935
X123.685Y-65.88
X124.949Y-125.961
X125.445Y-105.1
X125.462Y-85.985
X125.485Y-66.93
X135.661Y-102.048
X135.675Y-83.03
X135.685Y-63.95
X137.461Y-100.998
X137.475Y-81.98
X137.485Y-62.9
X138.625Y-124.07
X140.425Y-123.02
X142.661Y-100.998
X142.675Y-81.98
X142.685Y-62.9
X144.461Y-102.048
X144.475Y-83.03
X144.485Y-63.95
X145.625Y-123.02
X147.425Y-124.07
X154.711Y-73.975
X154.711Y-93.048
X154.725Y-54.97
X156.511Y-72.925
X156.511Y-91.998
X156.525Y-53.92
X161.711Y-72.925
X161.711Y-91.998
X161.725Y-53.92
X163.511Y-73.975
X163.511Y-93.048
X163.525Y-54.97
X174.224Y-103.125
X175.484Y-84.095
X176.092Y-102.203
X176.844Y-65.115
X177.352Y-83.173
X178.712Y-64.193
X181.28Y-102.565
X182.54Y-83.535
X183.002Y-103.738
X183.9Y-64.555
X184.262Y-84.708
X185.622Y-65.728
X192.588Y-116.777
X194.543Y-116.056
X195.875Y-97.915
X197.83Y-97.193
X199.198Y-79.217
X199.664Y-116.959
X201.153Y-78.496
X201.254Y-118.305
X202.951Y-98.096
X204.541Y-99.443
X206.274Y-79.399
X207.864Y-80.745
X212.178Y-115.097
X214.133Y-114.376
X215.458Y-96.297
X217.413Y-95.576
X219.254Y-115.279
X220.844Y-116.625
X222.534Y-96.479
X224.124Y-97.825
T6
X83.32Y-55.72
X83.32Y-135.15
X145.4Y-55.72
X167.3Y-88.05
X169.95Y-121.71
X174.15Y-55.72
X181.56Y-122.47
X188.99Y-56.73
T7
X85.395Y-152.88
X85.395Y-152.88
X102.243Y-139.828
X102.243Y-139.828
X121.045Y-109.8
X121.045Y-109.8
X121.062Y-90.685
X121.062Y-90.685
X121.085Y-71.63
X121.085Y-71.63
X121.915Y-131.64
X121.915Y-131.64
X140.061Y-106.748
X140.061Y-106.748
X140.075Y-87.73
X140.075Y-87.73
X140.085Y-68.65
X140.085Y-68.65
X143.025Y-128.77
X143.025Y-128.77
X159.111Y-78.675
X159.111Y-78.675
X159.111Y-97.748
X159.111Y-97.748
X159.125Y-59.67
X159.125Y-59.67
X178.285Y-108.12
X178.285Y-108.12
X179.545Y-89.09
X179.545Y-89.09
X180.905Y-70.11
X180.905Y-70.11
X196.105Y-122.17
X196.105Y-122.17
X199.392Y-103.308
X199.392Y-103.308
X202.715Y-84.61
X202.715Y-84.61
X215.695Y-120.49
X215.695Y-120.49
X218.975Y-101.69
X218.975Y-101.69
M30
