G04 #@! TF.GenerationSoftware,KiCad,Pcbnew,8.0.4-8.0.4-0~ubuntu22.04.1*
G04 #@! TF.CreationDate,2024-09-04T00:25:38+02:00*
G04 #@! TF.ProjectId,klor1_4_LP_KS33,6b6c6f72-315f-4345-9f4c-505f4b533333,v1.4.0 LP KS33*
G04 #@! TF.SameCoordinates,Original*
G04 #@! TF.FileFunction,Paste,Top*
G04 #@! TF.FilePolarity,Positive*
%FSLAX46Y46*%
G04 Gerber Fmt 4.6, Leading zero omitted, Abs format (unit mm)*
G04 Created by KiCad (PCBNEW 8.0.4-8.0.4-0~ubuntu22.04.1) date 2024-09-04 00:25:38*
%MOMM*%
%LPD*%
G01*
G04 APERTURE LIST*
G04 Aperture macros list*
%AMRoundRect*
0 Rectangle with rounded corners*
0 $1 Rounding radius*
0 $2 $3 $4 $5 $6 $7 $8 $9 X,Y pos of 4 corners*
0 Add a 4 corners polygon primitive as box body*
4,1,4,$2,$3,$4,$5,$6,$7,$8,$9,$2,$3,0*
0 Add four circle primitives for the rounded corners*
1,1,$1+$1,$2,$3*
1,1,$1+$1,$4,$5*
1,1,$1+$1,$6,$7*
1,1,$1+$1,$8,$9*
0 Add four rect primitives between the rounded corners*
20,1,$1+$1,$2,$3,$4,$5,0*
20,1,$1+$1,$4,$5,$6,$7,0*
20,1,$1+$1,$6,$7,$8,$9,0*
20,1,$1+$1,$8,$9,$2,$3,0*%
%AMRotRect*
0 Rectangle, with rotation*
0 The origin of the aperture is its center*
0 $1 length*
0 $2 width*
0 $3 Rotation angle, in degrees counterclockwise*
0 Add horizontal line*
21,1,$1,$2,0,0,$3*%
%AMFreePoly0*
4,1,18,-0.410000,0.265000,0.000000,0.675000,0.328000,0.675000,0.359380,0.668758,0.385983,0.650983,0.403758,0.624380,0.410000,0.593000,0.410000,-0.593000,0.403758,-0.624380,0.385983,-0.650983,0.359380,-0.668758,0.328000,-0.675000,-0.328000,-0.675000,-0.359380,-0.668758,-0.385983,-0.650983,-0.403758,-0.624380,-0.410000,-0.593000,-0.410000,0.265000,-0.410000,0.265000,$1*%
G04 Aperture macros list end*
%ADD10RoundRect,0.082000X0.651245X0.187383X0.187383X0.651245X-0.651245X-0.187383X-0.187383X-0.651245X0*%
%ADD11FreePoly0,135.000000*%
%ADD12RotRect,1.200000X2.550000X45.000000*%
%ADD13RoundRect,0.255000X0.035355X1.477853X-1.477853X-0.035355X-0.035355X-1.477853X1.477853X0.035355X0*%
%ADD14RotRect,1.200000X2.550000X225.000000*%
%ADD15RoundRect,0.082000X0.593000X-0.328000X0.593000X0.328000X-0.593000X0.328000X-0.593000X-0.328000X0*%
%ADD16FreePoly0,90.000000*%
%ADD17R,1.200000X2.550000*%
%ADD18RoundRect,0.255000X1.070000X1.020000X-1.070000X1.020000X-1.070000X-1.020000X1.070000X-1.020000X0*%
%ADD19RoundRect,0.082000X0.568675X-0.368567X0.614436X0.285835X-0.568675X0.368567X-0.614436X-0.285835X0*%
%ADD20FreePoly0,86.000000*%
%ADD21RotRect,1.200000X2.550000X356.000000*%
%ADD22RoundRect,0.255000X1.138545X0.942876X-0.996242X1.092155X-1.138545X-0.942876X0.996242X-1.092155X0*%
%ADD23RotRect,1.200000X2.550000X176.000000*%
%ADD24RoundRect,0.082000X0.657687X-0.163344X0.487901X0.470303X-0.657687X0.163344X-0.487901X-0.470303X0*%
%ADD25FreePoly0,105.000000*%
%ADD26RotRect,1.200000X2.550000X15.000000*%
%ADD27RoundRect,0.255000X0.769545X1.262181X-1.297536X0.708308X-0.769545X-1.262181X1.297536X-0.708308X0*%
%ADD28RotRect,1.200000X2.550000X195.000000*%
%ADD29RoundRect,0.082000X0.527034X-0.425990X0.640948X0.220044X-0.527034X0.425990X-0.640948X-0.220044X0*%
%ADD30FreePoly0,80.000000*%
%ADD31RotRect,1.200000X2.550000X350.000000*%
%ADD32RoundRect,0.255000X1.230865X0.818700X-0.876623X1.190307X-1.230865X-0.818700X0.876623X-1.190307X0*%
%ADD33RotRect,1.200000X2.550000X170.000000*%
%ADD34RoundRect,0.082000X0.677553X0.012444X0.349553X0.580556X-0.677553X-0.012444X-0.349553X-0.580556X0*%
%ADD35FreePoly0,120.000000*%
%ADD36RotRect,1.200000X2.550000X30.000000*%
%ADD37RoundRect,0.255000X0.416647X1.418346X-1.436647X0.348346X-0.416647X-1.418346X1.436647X-0.348346X0*%
%ADD38RotRect,1.200000X2.550000X210.000000*%
%ADD39RotRect,1.800000X1.500000X350.000000*%
%ADD40R,1.800000X1.500000*%
%ADD41RotRect,1.800000X1.500000X356.000000*%
%ADD42RotRect,1.800000X1.500000X105.000000*%
%ADD43R,2.200000X2.200000*%
%ADD44RotRect,1.800000X1.500000X120.000000*%
%ADD45RoundRect,0.187500X-0.712500X0.187500X-0.712500X-0.187500X0.712500X-0.187500X0.712500X0.187500X0*%
%ADD46RoundRect,0.150000X-0.750000X0.150000X-0.750000X-0.150000X0.750000X-0.150000X0.750000X0.150000X0*%
%ADD47RoundRect,0.225000X-0.225000X0.425000X-0.225000X-0.425000X0.225000X-0.425000X0.225000X0.425000X0*%
%ADD48RotRect,1.800000X1.500000X135.000000*%
%ADD49R,1.500000X1.800000*%
%ADD50R,1.000000X0.700000*%
%ADD51R,2.800000X1.000000*%
G04 APERTURE END LIST*
D10*
X91409592Y-155071868D03*
D11*
X87555860Y-158925600D03*
D10*
X86495200Y-157864940D03*
X90348932Y-154011208D03*
D12*
X84263629Y-145879643D03*
D13*
X85462175Y-144681097D03*
X76665767Y-154962429D03*
D14*
X77864313Y-153763883D03*
D15*
X145728074Y-134572844D03*
D16*
X140278074Y-134572844D03*
D15*
X140278074Y-133072844D03*
X145728074Y-133072844D03*
D17*
X147175000Y-123020000D03*
D18*
X148870000Y-123020000D03*
X135380000Y-124070000D03*
D17*
X137075000Y-124070000D03*
D19*
X183196704Y-76087265D03*
D20*
X177759979Y-75707093D03*
D19*
X177864614Y-74210747D03*
X183301338Y-74590919D03*
D21*
X185445991Y-64663496D03*
D22*
X187136862Y-64781733D03*
X173606478Y-64888161D03*
D23*
X175297349Y-65006398D03*
D24*
X126027856Y-136545510D03*
D25*
X120763560Y-137956074D03*
D24*
X120375331Y-136507185D03*
X125639627Y-135096621D03*
D26*
X124435383Y-125011827D03*
D27*
X126072627Y-124573129D03*
X113314048Y-129078820D03*
D28*
X114951292Y-128640122D03*
D15*
X161814473Y-84478104D03*
D16*
X156364473Y-84478104D03*
D15*
X156364473Y-82978104D03*
X161814473Y-82978104D03*
D17*
X163261399Y-72925260D03*
D18*
X164956399Y-72925260D03*
X151466399Y-73975260D03*
D17*
X153161399Y-73975260D03*
D29*
X220629355Y-107874070D03*
D30*
X215262153Y-106927687D03*
D29*
X215522625Y-105450475D03*
X220889827Y-106396858D03*
D31*
X224060429Y-96747995D03*
D32*
X225729678Y-97042329D03*
X212262291Y-95733863D03*
D33*
X213931540Y-96028197D03*
D19*
X180576704Y-114097265D03*
D20*
X175139979Y-113717093D03*
D19*
X175244614Y-112220747D03*
X180681338Y-112600919D03*
D21*
X182825991Y-102673496D03*
D22*
X184516862Y-102791733D03*
X170986478Y-102898161D03*
D23*
X172677349Y-103016398D03*
D15*
X123765105Y-96487584D03*
D16*
X118315105Y-96487584D03*
D15*
X118315105Y-94987584D03*
X123765105Y-94987584D03*
D17*
X125212031Y-84934740D03*
D18*
X126907031Y-84934740D03*
X113417031Y-85984740D03*
D17*
X115112031Y-85984740D03*
D29*
X217349355Y-126674070D03*
D30*
X211982153Y-125727687D03*
D29*
X212242625Y-124250475D03*
X217609827Y-125196858D03*
D31*
X220780429Y-115547995D03*
D32*
X222449678Y-115842329D03*
X208982291Y-114533863D03*
D33*
X210651540Y-114828197D03*
D15*
X123748074Y-115602844D03*
D16*
X118298074Y-115602844D03*
D15*
X118298074Y-114102844D03*
X123748074Y-114102844D03*
D17*
X125195000Y-104050000D03*
D18*
X126890000Y-104050000D03*
X113400000Y-105100000D03*
D17*
X115095000Y-105100000D03*
D15*
X123788074Y-77432844D03*
D16*
X118338074Y-77432844D03*
D15*
X118338074Y-75932844D03*
X123788074Y-75932844D03*
D17*
X125235000Y-65880000D03*
D18*
X126930000Y-65880000D03*
X113440000Y-66930000D03*
D17*
X115135000Y-66930000D03*
D19*
X181836704Y-95067265D03*
D20*
X176399979Y-94687093D03*
D19*
X176504614Y-93190747D03*
X181941338Y-93570919D03*
D21*
X184085991Y-83643496D03*
D22*
X185776862Y-83761733D03*
X172246478Y-83868161D03*
D23*
X173937349Y-83986398D03*
D15*
X161828074Y-65472844D03*
D16*
X156378074Y-65472844D03*
D15*
X156378074Y-63972844D03*
X161828074Y-63972844D03*
D17*
X163275000Y-53920000D03*
D18*
X164970000Y-53920000D03*
X151480000Y-54970000D03*
D17*
X153175000Y-54970000D03*
D34*
X107485199Y-143502137D03*
D35*
X102765360Y-146227137D03*
D34*
X102015360Y-144928099D03*
X106735199Y-142203099D03*
D36*
X102961851Y-132773618D03*
D37*
X104429764Y-131926118D03*
X93272082Y-139580445D03*
D38*
X94739995Y-138732945D03*
D29*
X197759355Y-128354070D03*
D30*
X192392153Y-127407687D03*
D29*
X192652625Y-125930475D03*
X198019827Y-126876858D03*
D31*
X201190429Y-117227995D03*
D32*
X202859678Y-117522329D03*
X189392291Y-116213863D03*
D33*
X191061540Y-116508197D03*
D15*
X142764473Y-112550701D03*
D16*
X137314473Y-112550701D03*
D15*
X137314473Y-111050701D03*
X142764473Y-111050701D03*
D17*
X144211399Y-100997857D03*
D18*
X145906399Y-100997857D03*
X132416399Y-102047857D03*
D17*
X134111399Y-102047857D03*
D15*
X142778074Y-93532844D03*
D16*
X137328074Y-93532844D03*
D15*
X137328074Y-92032844D03*
X142778074Y-92032844D03*
D17*
X144225000Y-81980000D03*
D18*
X145920000Y-81980000D03*
X132430000Y-83030000D03*
D17*
X134125000Y-83030000D03*
D29*
X204369355Y-90794070D03*
D30*
X199002153Y-89847687D03*
D29*
X199262625Y-88370475D03*
X204629827Y-89316858D03*
D31*
X207800429Y-79667995D03*
D32*
X209469678Y-79962329D03*
X196002291Y-78653863D03*
D33*
X197671540Y-78948197D03*
D15*
X161814473Y-103550701D03*
D16*
X156364473Y-103550701D03*
D15*
X156364473Y-102050701D03*
X161814473Y-102050701D03*
D17*
X163261399Y-91997857D03*
D18*
X164956399Y-91997857D03*
X151466399Y-93047857D03*
D17*
X153161399Y-93047857D03*
D29*
X201046420Y-109491624D03*
D30*
X195679218Y-108545241D03*
D29*
X195939690Y-107068029D03*
X201306892Y-108014412D03*
D31*
X204477494Y-98365549D03*
D32*
X206146743Y-98659883D03*
X192679356Y-97351417D03*
D33*
X194348605Y-97645751D03*
D15*
X142788074Y-74452844D03*
D16*
X137338074Y-74452844D03*
D15*
X137338074Y-72952844D03*
X142788074Y-72952844D03*
D17*
X144235000Y-62900000D03*
D18*
X145930000Y-62900000D03*
X132440000Y-63950000D03*
D17*
X134135000Y-63950000D03*
D39*
X191951654Y-110709596D03*
X195300000Y-111300000D03*
D40*
X135297000Y-96197000D03*
X138697000Y-96197000D03*
D41*
X172900000Y-116200000D03*
X176291718Y-116437172D03*
D42*
X115126992Y-139581074D03*
X114247008Y-136296926D03*
D43*
X153295000Y-116290000D03*
X166495000Y-116290000D03*
D40*
X153300000Y-106300000D03*
X156700000Y-106300000D03*
X115300000Y-99200000D03*
X118700000Y-99200000D03*
D39*
X195251654Y-91909596D03*
X198600000Y-92500000D03*
D44*
X97818000Y-149232486D03*
X96118000Y-146288000D03*
D45*
X83209995Y-119435008D03*
X83209995Y-121885008D03*
D46*
X83209995Y-120660008D03*
D47*
X81259995Y-118810008D03*
X81259995Y-122510008D03*
D39*
X212080827Y-108874798D03*
X215429173Y-109465202D03*
D40*
X134300000Y-77100000D03*
X137700000Y-77100000D03*
X153400000Y-68100000D03*
X156800000Y-68100000D03*
X153379000Y-87185000D03*
X156779000Y-87185000D03*
D39*
X188625827Y-129404798D03*
X191974173Y-129995202D03*
D40*
X99180000Y-106960000D03*
X102580000Y-106960000D03*
D41*
X172908282Y-97162828D03*
X176300000Y-97400000D03*
X174300000Y-78100000D03*
X177691718Y-78337172D03*
D48*
X83679164Y-163304164D03*
X81275000Y-160900000D03*
D49*
X147895000Y-109980000D03*
X147895000Y-106580000D03*
D40*
X115300000Y-80100000D03*
X118700000Y-80100000D03*
D50*
X84101228Y-61676228D03*
X84101228Y-64676228D03*
X84101228Y-66176228D03*
D51*
X82201228Y-60076228D03*
X82201228Y-68026228D03*
D40*
X115100000Y-118290000D03*
X118500000Y-118290000D03*
D39*
X208900827Y-127684798D03*
X212249173Y-128275202D03*
D49*
X134545000Y-134900000D03*
X134545000Y-131500000D03*
M02*
