G04 #@! TF.GenerationSoftware,KiCad,Pcbnew,7.0.11-7.0.11~ubuntu22.04.1*
G04 #@! TF.CreationDate,2024-07-26T08:26:57+02:00*
G04 #@! TF.ProjectId,klor1_4,6b6c6f72-315f-4342-9e6b-696361645f70,v1.4.0*
G04 #@! TF.SameCoordinates,Original*
G04 #@! TF.FileFunction,Paste,Top*
G04 #@! TF.FilePolarity,Positive*
%FSLAX46Y46*%
G04 Gerber Fmt 4.6, Leading zero omitted, Abs format (unit mm)*
G04 Created by KiCad (PCBNEW 7.0.11-7.0.11~ubuntu22.04.1) date 2024-07-26 08:26:57*
%MOMM*%
%LPD*%
G01*
G04 APERTURE LIST*
G04 Aperture macros list*
%AMRoundRect*
0 Rectangle with rounded corners*
0 $1 Rounding radius*
0 $2 $3 $4 $5 $6 $7 $8 $9 X,Y pos of 4 corners*
0 Add a 4 corners polygon primitive as box body*
4,1,4,$2,$3,$4,$5,$6,$7,$8,$9,$2,$3,0*
0 Add four circle primitives for the rounded corners*
1,1,$1+$1,$2,$3*
1,1,$1+$1,$4,$5*
1,1,$1+$1,$6,$7*
1,1,$1+$1,$8,$9*
0 Add four rect primitives between the rounded corners*
20,1,$1+$1,$2,$3,$4,$5,0*
20,1,$1+$1,$4,$5,$6,$7,0*
20,1,$1+$1,$6,$7,$8,$9,0*
20,1,$1+$1,$8,$9,$2,$3,0*%
%AMRotRect*
0 Rectangle, with rotation*
0 The origin of the aperture is its center*
0 $1 length*
0 $2 width*
0 $3 Rotation angle, in degrees counterclockwise*
0 Add horizontal line*
21,1,$1,$2,0,0,$3*%
%AMFreePoly0*
4,1,18,-0.410000,0.265000,0.000000,0.675000,0.328000,0.675000,0.359380,0.668758,0.385983,0.650983,0.403758,0.624380,0.410000,0.593000,0.410000,-0.593000,0.403758,-0.624380,0.385983,-0.650983,0.359380,-0.668758,0.328000,-0.675000,-0.328000,-0.675000,-0.359380,-0.668758,-0.385983,-0.650983,-0.403758,-0.624380,-0.410000,-0.593000,-0.410000,0.265000,-0.410000,0.265000,$1*%
G04 Aperture macros list end*
%ADD10RoundRect,0.082000X0.651245X0.187383X0.187383X0.651245X-0.651245X-0.187383X-0.187383X-0.651245X0*%
%ADD11FreePoly0,135.000000*%
%ADD12RotRect,2.300000X2.000000X225.000000*%
%ADD13RoundRect,0.082000X0.593000X-0.328000X0.593000X0.328000X-0.593000X0.328000X-0.593000X-0.328000X0*%
%ADD14FreePoly0,90.000000*%
%ADD15R,2.300000X2.000000*%
%ADD16RoundRect,0.082000X0.568675X-0.368567X0.614436X0.285835X-0.568675X0.368567X-0.614436X-0.285835X0*%
%ADD17FreePoly0,86.000000*%
%ADD18RotRect,2.300000X2.000000X176.000000*%
%ADD19RoundRect,0.082000X0.657687X-0.163344X0.487901X0.470303X-0.657687X0.163344X-0.487901X-0.470303X0*%
%ADD20FreePoly0,105.000000*%
%ADD21RotRect,2.300000X2.000000X195.000000*%
%ADD22RoundRect,0.082000X0.527034X-0.425990X0.640948X0.220044X-0.527034X0.425990X-0.640948X-0.220044X0*%
%ADD23FreePoly0,80.000000*%
%ADD24RotRect,2.300000X2.000000X170.000000*%
%ADD25RoundRect,0.082000X0.677553X0.012444X0.349553X0.580556X-0.677553X-0.012444X-0.349553X-0.580556X0*%
%ADD26FreePoly0,120.000000*%
%ADD27RotRect,2.300000X2.000000X210.000000*%
%ADD28R,1.000000X0.700000*%
%ADD29R,2.800000X1.000000*%
G04 APERTURE END LIST*
D10*
X91409592Y-155071868D03*
D11*
X87555860Y-158925600D03*
D10*
X86495200Y-157864940D03*
X90348932Y-154011208D03*
D12*
X88520412Y-146105917D03*
D13*
X145728074Y-134572844D03*
D14*
X140278074Y-134572844D03*
D13*
X140278074Y-133072844D03*
X145728074Y-133072844D03*
D15*
X150025000Y-126190000D03*
D16*
X183196704Y-76087265D03*
D17*
X177759979Y-75707093D03*
D16*
X177864614Y-74210747D03*
X183301338Y-74590919D03*
D18*
X188067920Y-68024580D03*
D19*
X126027856Y-136545510D03*
D20*
X120763560Y-137956074D03*
D19*
X120375331Y-136507185D03*
X125639627Y-135096621D03*
D21*
X128008728Y-127336178D03*
D13*
X161814473Y-84478104D03*
D14*
X156364473Y-84478104D03*
D13*
X156364473Y-82978104D03*
X161814473Y-82978104D03*
D15*
X166111399Y-76095260D03*
D22*
X220629355Y-107874070D03*
D23*
X215262153Y-106927687D03*
D22*
X215522625Y-105450475D03*
X220889827Y-106396858D03*
D24*
X226316667Y-100364733D03*
D16*
X180576704Y-114097265D03*
D17*
X175139979Y-113717093D03*
D16*
X175244614Y-112220747D03*
X180681338Y-112600919D03*
D18*
X185447920Y-106034580D03*
D13*
X123765105Y-96487584D03*
D14*
X118315105Y-96487584D03*
D13*
X118315105Y-94987584D03*
X123765105Y-94987584D03*
D15*
X128062031Y-88104740D03*
D22*
X217349355Y-126674070D03*
D23*
X211982153Y-125727687D03*
D22*
X212242625Y-124250475D03*
X217609827Y-125196858D03*
D24*
X223036667Y-119164733D03*
D13*
X123748074Y-115602844D03*
D14*
X118298074Y-115602844D03*
D13*
X118298074Y-114102844D03*
X123748074Y-114102844D03*
D15*
X128045000Y-107220000D03*
D13*
X123788074Y-77432844D03*
D14*
X118338074Y-77432844D03*
D13*
X118338074Y-75932844D03*
X123788074Y-75932844D03*
D15*
X128085000Y-69050000D03*
D16*
X181836704Y-95067265D03*
D17*
X176399979Y-94687093D03*
D16*
X176504614Y-93190747D03*
X181941338Y-93570919D03*
D18*
X186707920Y-87004580D03*
D13*
X161828074Y-65472844D03*
D14*
X156378074Y-65472844D03*
D13*
X156378074Y-63972844D03*
X161828074Y-63972844D03*
D15*
X166125000Y-57090000D03*
D25*
X107485199Y-143502137D03*
D26*
X102765360Y-146227137D03*
D25*
X102015360Y-144928099D03*
X106735199Y-142203099D03*
D27*
X107015024Y-134093918D03*
D22*
X197759355Y-128354070D03*
D23*
X192392153Y-127407687D03*
D22*
X192652625Y-125930475D03*
X198019827Y-126876858D03*
D24*
X203446667Y-120844733D03*
D13*
X142764473Y-112550701D03*
D14*
X137314473Y-112550701D03*
D13*
X137314473Y-111050701D03*
X142764473Y-111050701D03*
D15*
X147061399Y-104167857D03*
D13*
X142778074Y-93532844D03*
D14*
X137328074Y-93532844D03*
D13*
X137328074Y-92032844D03*
X142778074Y-92032844D03*
D15*
X147075000Y-85150000D03*
D22*
X204369355Y-90794070D03*
D23*
X199002153Y-89847687D03*
D22*
X199262625Y-88370475D03*
X204629827Y-89316858D03*
D24*
X210056667Y-83284733D03*
D28*
X84101228Y-61676228D03*
X84101228Y-64676228D03*
X84101228Y-66176228D03*
D29*
X82201228Y-60076228D03*
X82201228Y-68026228D03*
D13*
X161814473Y-103550701D03*
D14*
X156364473Y-103550701D03*
D13*
X156364473Y-102050701D03*
X161814473Y-102050701D03*
D15*
X166111399Y-95167857D03*
D22*
X201046420Y-109491624D03*
D23*
X195679218Y-108545241D03*
D22*
X195939690Y-107068029D03*
X201306892Y-108014412D03*
D24*
X206733732Y-101982287D03*
D13*
X142788074Y-74452844D03*
D14*
X137338074Y-74452844D03*
D13*
X137338074Y-72952844D03*
X142788074Y-72952844D03*
D15*
X147085000Y-66070000D03*
M02*
