M48
; DRILL file {KiCad 7.0.11-7.0.11~ubuntu22.04.1} date Fri 26 Jul 2024 08:26:55 CEST
; FORMAT={-:-/ absolute / inch / decimal}
; #@! TF.CreationDate,2024-07-26T08:26:55+02:00
; #@! TF.GenerationSoftware,Kicad,Pcbnew,7.0.11-7.0.11~ubuntu22.04.1
; #@! TF.FileFunction,NonPlated,1,2,NPTH
FMAT,2
INCH
; #@! TA.AperFunction,NonPlated,NPTH,ComponentDrill
T1C0.0276
; #@! TA.AperFunction,NonPlated,NPTH,ComponentDrill
T2C0.0354
; #@! TA.AperFunction,NonPlated,NPTH,ComponentDrill
T3C0.0472
; #@! TA.AperFunction,NonPlated,NPTH,ComponentDrill
T4C0.0669
; #@! TA.AperFunction,NonPlated,NPTH,ComponentDrill
T5C0.0748
; #@! TA.AperFunction,NonPlated,NPTH,ComponentDrill
T6C0.0866
; #@! TA.AperFunction,NonPlated,NPTH,ComponentDrill
T7C0.1181
; #@! TA.AperFunction,NonPlated,NPTH,ComponentDrill
T8C0.1260
; #@! TA.AperFunction,NonPlated,NPTH,ComponentDrill
T9C0.1614
%
G90
G05
T1
X3.2382Y-2.5758
X3.2402Y-2.4577
T2
X3.2406Y-4.6667
X3.2406Y-4.8341
T3
X3.2441Y-5.0148
X3.2441Y-5.0837
X3.5197Y-5.0148
X3.5197Y-5.0837
T4
X3.2367Y-6.1442
X3.4873Y-5.8936
X3.8719Y-5.5936
X4.1787Y-5.4165
X4.5884Y-4.3228
X4.5891Y-3.5703
X4.59Y-2.8201
X4.6287Y-5.2285
X4.9427Y-4.3228
X4.9434Y-3.5703
X4.9443Y-2.8201
X4.9709Y-5.1368
X5.3371Y-4.2027
X5.3376Y-3.4539
X5.338Y-2.7028
X5.4537Y-5.0697
X5.6914Y-4.2027
X5.6919Y-3.4539
X5.6923Y-2.7028
X5.8081Y-5.0697
X6.0871Y-3.0975
X6.0871Y-3.8483
X6.0876Y-2.3492
X6.4414Y-3.0975
X6.4414Y-3.8483
X6.4419Y-2.3492
X6.8424Y-4.2443
X6.892Y-3.4951
X6.9455Y-2.7479
X7.1958Y-4.2691
X7.2454Y-3.5198
X7.299Y-2.7726
X7.5462Y-4.7791
X7.6756Y-4.0365
X7.8064Y-3.3003
X7.8951Y-4.8406
X8.0246Y-4.098
X8.1554Y-3.3619
X8.3175Y-4.7129
X8.4466Y-3.9728
X8.6664Y-4.7745
X8.7955Y-4.0343
T5
X3.2206Y-6.1603
X3.5034Y-5.8775
X3.8521Y-5.605
X4.1985Y-5.405
X4.5656Y-4.3228
X4.5662Y-3.5703
X4.5671Y-2.8201
X4.6066Y-5.2344
X4.9656Y-4.3228
X4.9662Y-3.5703
X4.9671Y-2.8201
X4.993Y-5.1309
X5.3142Y-4.2027
X5.3148Y-3.4539
X5.3152Y-2.7028
X5.4309Y-5.0697
X5.7142Y-4.2027
X5.7148Y-3.4539
X5.7152Y-2.7028
X5.8309Y-5.0697
X6.0642Y-3.0975
X6.0642Y-3.8483
X6.0648Y-2.3492
X6.4642Y-3.0975
X6.4642Y-3.8483
X6.4648Y-2.3492
X6.8196Y-4.2427
X6.8692Y-3.4935
X6.9227Y-2.7463
X7.2186Y-4.2706
X7.2682Y-3.5214
X7.3218Y-2.7742
X7.5237Y-4.7751
X7.6531Y-4.0325
X7.7839Y-3.2964
X7.9176Y-4.8446
X8.047Y-4.102
X8.1779Y-3.3658
X8.295Y-4.709
X8.4241Y-3.9688
X8.6889Y-4.7784
X8.818Y-4.0383
T6
X7.6083Y-2.9547
T7
X3.1499Y-5.9482
X3.1852Y-6.0543
X3.2913Y-5.8068
X3.3974Y-5.8421
X3.8387Y-5.3818
X3.8454Y-5.4934
X4.0119Y-5.2818
X4.1052Y-5.3434
X4.6156Y-4.2228
X4.6162Y-3.4703
X4.6171Y-2.7201
X4.629Y-5.1249
X4.6514Y-5.0154
X4.6656Y-4.1228
X4.6662Y-3.3703
X4.6671Y-2.6201
X4.8446Y-4.9636
X4.8656Y-4.1228
X4.8662Y-3.3703
X4.8671Y-2.6201
X4.9156Y-4.2228
X4.9162Y-3.4703
X4.9171Y-2.7201
X4.9188Y-5.0473
X5.3642Y-4.1027
X5.3648Y-3.3539
X5.3652Y-2.6028
X5.4142Y-4.0027
X5.4148Y-3.2539
X5.4152Y-2.5028
X5.4809Y-4.9697
X5.5309Y-4.8697
X5.6142Y-4.0027
X5.6148Y-3.2539
X5.6152Y-2.5028
X5.6642Y-4.1027
X5.6648Y-3.3539
X5.6652Y-2.6028
X5.7309Y-4.8697
X5.7809Y-4.9697
X6.1142Y-2.9975
X6.1142Y-3.7483
X6.1148Y-2.2492
X6.1642Y-2.8975
X6.1642Y-3.6483
X6.1648Y-2.1492
X6.3642Y-2.8975
X6.3642Y-3.6483
X6.3648Y-2.1492
X6.4142Y-2.9975
X6.4142Y-3.7483
X6.4148Y-2.2492
X6.8764Y-4.1465
X6.926Y-3.3973
X6.9333Y-4.0502
X6.9796Y-2.65
X6.9829Y-3.301
X7.0364Y-2.5537
X7.1328Y-4.0642
X7.1757Y-4.1674
X7.1824Y-3.3149
X7.2253Y-3.4182
X7.236Y-2.5677
X7.2789Y-2.6709
X7.5903Y-4.6853
X7.6569Y-4.5955
X7.7197Y-3.9427
X7.7863Y-3.8529
X7.8505Y-3.2066
X7.8539Y-4.6302
X7.8858Y-4.7374
X7.9172Y-3.1168
X7.9833Y-3.8876
X8.0152Y-3.9948
X8.1141Y-3.1515
X8.146Y-3.2587
X8.3616Y-4.6192
X8.4282Y-4.5294
X8.4907Y-3.879
X8.5573Y-3.7892
X8.6251Y-4.5641
X8.657Y-4.6713
X8.7543Y-3.8239
X8.7861Y-3.9311
T8
X3.2803Y-2.1937
X3.2803Y-5.3209
X5.7244Y-2.1937
X6.5866Y-3.4665
X6.6909Y-4.7917
X6.8563Y-2.1937
X7.148Y-4.8217
X7.4406Y-2.2335
T9
X3.362Y-6.0189
X4.0253Y-5.505
X4.7656Y-4.3228
X4.7662Y-3.5703
X4.7671Y-2.8201
X4.7998Y-5.1827
X5.5142Y-4.2027
X5.5148Y-3.4539
X5.5152Y-2.7028
X5.6309Y-5.0697
X6.2642Y-3.0975
X6.2642Y-3.8483
X6.2648Y-2.3492
X7.0191Y-4.2567
X7.0687Y-3.5075
X7.1222Y-2.7602
X7.7207Y-4.8098
X7.8501Y-4.0672
X7.9809Y-3.3311
X8.4919Y-4.7437
X8.6211Y-4.0035
M30
