M48
; DRILL file {KiCad 7.0.11-7.0.11~ubuntu22.04.1} date Thu Jul 25 08:20:11 2024
; FORMAT={-:-/ absolute / inch / decimal}
; #@! TF.CreationDate,2024-07-25T08:20:11+02:00
; #@! TF.GenerationSoftware,Kicad,Pcbnew,7.0.11-7.0.11~ubuntu22.04.1
; #@! TF.FileFunction,NonPlated,1,2,NPTH
FMAT,2
INCH
; #@! TA.AperFunction,NonPlated,NPTH,ComponentDrill
T1C0.0276
; #@! TA.AperFunction,NonPlated,NPTH,ComponentDrill
T2C0.0354
; #@! TA.AperFunction,NonPlated,NPTH,ComponentDrill
T3C0.0472
; #@! TA.AperFunction,NonPlated,NPTH,ComponentDrill
T4C0.0669
; #@! TA.AperFunction,NonPlated,NPTH,ComponentDrill
T5C0.0748
; #@! TA.AperFunction,NonPlated,NPTH,ComponentDrill
T6C0.0866
; #@! TA.AperFunction,NonPlated,NPTH,ComponentDrill
T7C0.1181
; #@! TA.AperFunction,NonPlated,NPTH,ComponentDrill
T8C0.1260
; #@! TA.AperFunction,NonPlated,NPTH,ComponentDrill
T9C0.1614
%
G90
G05
T1
X3.2382Y-2.5758
X3.2402Y-2.4577
T2
X3.2406Y-4.6667
X3.2406Y-4.8341
T3
X3.2441Y-5.0148
X3.2441Y-5.0837
X3.5197Y-5.0148
X3.5197Y-5.0837
T4
X3.2272Y-6.1447
X3.4778Y-5.8942
X3.8719Y-5.5936
X4.1787Y-5.4165
X4.5891Y-2.8188
X4.5891Y-3.5703
X4.5891Y-4.321
X4.6291Y-5.2281
X4.9434Y-2.8188
X4.9434Y-3.5703
X4.9434Y-4.321
X4.9714Y-5.1364
X5.3371Y-3.4518
X5.3371Y-4.2027
X5.3373Y-2.7007
X5.4582Y-5.0711
X5.6914Y-3.4518
X5.6914Y-4.2027
X5.6917Y-2.7007
X5.8125Y-5.0711
X6.0871Y-2.3466
X6.0871Y-3.0975
X6.0871Y-3.8483
X6.4414Y-2.3466
X6.4414Y-3.0975
X6.4414Y-3.8483
X6.8399Y-4.2427
X6.8923Y-3.4937
X6.9446Y-2.7446
X7.1934Y-4.2674
X7.2457Y-3.5184
X7.2981Y-2.7693
X7.5452Y-4.7759
X7.6756Y-4.0365
X7.806Y-3.297
X7.8942Y-4.8375
X8.0246Y-4.098
X8.1549Y-3.3585
X8.3205Y-4.7179
X8.4514Y-3.9776
X8.6694Y-4.7794
X8.8004Y-4.0391
T5
X3.2111Y-6.1609
X3.4939Y-5.878
X3.8521Y-5.605
X4.1985Y-5.405
X4.5662Y-2.8188
X4.5662Y-3.5703
X4.5662Y-4.321
X4.6071Y-5.234
X4.9662Y-2.8188
X4.9662Y-3.5703
X4.9662Y-4.321
X4.9934Y-5.1305
X5.3142Y-3.4518
X5.3142Y-4.2027
X5.3145Y-2.7007
X5.4353Y-5.0711
X5.7142Y-3.4518
X5.7142Y-4.2027
X5.7145Y-2.7007
X5.8353Y-5.0711
X6.0642Y-2.3466
X6.0642Y-3.0975
X6.0642Y-3.8483
X6.4642Y-2.3466
X6.4642Y-3.0975
X6.4642Y-3.8483
X6.8171Y-4.2411
X6.8695Y-3.4921
X6.9219Y-2.743
X7.2161Y-4.269
X7.2685Y-3.52
X7.3209Y-2.7709
X7.5227Y-4.772
X7.6531Y-4.0325
X7.7835Y-3.293
X7.9167Y-4.8414
X8.047Y-4.102
X8.1774Y-3.3625
X8.298Y-4.7139
X8.4289Y-3.9736
X8.6919Y-4.7833
X8.8229Y-4.043
T6
X7.6083Y-2.9547
T7
X3.1404Y-5.9487
X3.1757Y-6.0548
X3.2818Y-5.8073
X3.3878Y-5.8427
X3.8387Y-5.3818
X3.8454Y-5.4934
X4.0119Y-5.2818
X4.1052Y-5.3434
X4.6162Y-2.7188
X4.6162Y-3.4703
X4.6162Y-4.221
X4.6295Y-5.1245
X4.6519Y-5.015
X4.6662Y-2.6188
X4.6662Y-3.3703
X4.6662Y-4.121
X4.8451Y-4.9632
X4.8662Y-2.6188
X4.8662Y-3.3703
X4.8662Y-4.121
X4.9162Y-2.7188
X4.9162Y-3.4703
X4.9162Y-4.221
X4.9192Y-5.0469
X5.3642Y-3.3518
X5.3642Y-4.1027
X5.3645Y-2.6007
X5.4142Y-3.2518
X5.4142Y-4.0027
X5.4145Y-2.5007
X5.4853Y-4.9711
X5.5353Y-4.8711
X5.6142Y-3.2518
X5.6142Y-4.0027
X5.6145Y-2.5007
X5.6642Y-3.3518
X5.6642Y-4.1027
X5.6645Y-2.6007
X5.7353Y-4.8711
X5.7853Y-4.9711
X6.1142Y-2.2466
X6.1142Y-2.9975
X6.1142Y-3.7483
X6.1642Y-2.1466
X6.1642Y-2.8975
X6.1642Y-3.6483
X6.3642Y-2.1466
X6.3642Y-2.8975
X6.3642Y-3.6483
X6.4142Y-2.2466
X6.4142Y-2.9975
X6.4142Y-3.7483
X6.874Y-4.1449
X6.9263Y-3.3958
X6.9308Y-4.0486
X6.9787Y-2.6467
X6.9832Y-3.2995
X7.0356Y-2.5505
X7.1303Y-4.0625
X7.1732Y-4.1658
X7.1827Y-3.3135
X7.2256Y-3.4167
X7.2351Y-2.5644
X7.278Y-2.6677
X7.5893Y-4.6822
X7.6559Y-4.5924
X7.7197Y-3.9427
X7.7863Y-3.8529
X7.8501Y-3.2032
X7.8529Y-4.6271
X7.8848Y-4.7343
X7.9167Y-3.1134
X7.9833Y-3.8876
X8.0152Y-3.9948
X8.1137Y-3.1481
X8.1456Y-3.2553
X8.3646Y-4.6241
X8.4312Y-4.5343
X8.4955Y-3.8838
X8.5621Y-3.794
X8.6282Y-4.569
X8.66Y-4.6762
X8.7591Y-3.8287
X8.791Y-3.9359
T8
X3.2803Y-2.1937
X3.2803Y-5.3209
X5.7244Y-2.1937
X6.5866Y-3.4665
X6.6909Y-4.7917
X6.8563Y-2.1937
X7.148Y-4.8217
X7.4406Y-2.2335
T9
X3.3525Y-6.0194
X4.0253Y-5.505
X4.7662Y-2.8188
X4.7662Y-3.5703
X4.7662Y-4.321
X4.8002Y-5.1823
X5.5142Y-3.4518
X5.5142Y-4.2027
X5.5145Y-2.7007
X5.6353Y-5.0711
X6.2642Y-2.3466
X6.2642Y-3.0975
X6.2642Y-3.8483
X7.0166Y-4.2551
X7.069Y-3.506
X7.1214Y-2.757
X7.7197Y-4.8067
X7.8501Y-4.0672
X7.9805Y-3.3277
X8.4949Y-4.7486
X8.6259Y-4.0083
M30
