G04 #@! TF.GenerationSoftware,KiCad,Pcbnew,8.0.4*
G04 #@! TF.CreationDate,2024-07-30T12:00:11+02:00*
G04 #@! TF.ProjectId,klor1_4,6b6c6f72-315f-4342-9e6b-696361645f70,v1.4.0*
G04 #@! TF.SameCoordinates,Original*
G04 #@! TF.FileFunction,Soldermask,Top*
G04 #@! TF.FilePolarity,Negative*
%FSLAX46Y46*%
G04 Gerber Fmt 4.6, Leading zero omitted, Abs format (unit mm)*
G04 Created by KiCad (PCBNEW 8.0.4) date 2024-07-30 12:00:11*
%MOMM*%
%LPD*%
G01*
G04 APERTURE LIST*
G04 Aperture macros list*
%AMRoundRect*
0 Rectangle with rounded corners*
0 $1 Rounding radius*
0 $2 $3 $4 $5 $6 $7 $8 $9 X,Y pos of 4 corners*
0 Add a 4 corners polygon primitive as box body*
4,1,4,$2,$3,$4,$5,$6,$7,$8,$9,$2,$3,0*
0 Add four circle primitives for the rounded corners*
1,1,$1+$1,$2,$3*
1,1,$1+$1,$4,$5*
1,1,$1+$1,$6,$7*
1,1,$1+$1,$8,$9*
0 Add four rect primitives between the rounded corners*
20,1,$1+$1,$2,$3,$4,$5,0*
20,1,$1+$1,$4,$5,$6,$7,0*
20,1,$1+$1,$6,$7,$8,$9,0*
20,1,$1+$1,$8,$9,$2,$3,0*%
%AMRotRect*
0 Rectangle, with rotation*
0 The origin of the aperture is its center*
0 $1 length*
0 $2 width*
0 $3 Rotation angle, in degrees counterclockwise*
0 Add horizontal line*
21,1,$1,$2,0,0,$3*%
%AMFreePoly0*
4,1,6,1.000000,0.000000,0.500000,-0.750000,-0.500000,-0.750000,-0.500000,0.750000,0.500000,0.750000,1.000000,0.000000,1.000000,0.000000,$1*%
%AMFreePoly1*
4,1,6,0.500000,-0.750000,-0.650000,-0.750000,-0.150000,0.000000,-0.650000,0.750000,0.500000,0.750000,0.500000,-0.750000,0.500000,-0.750000,$1*%
%AMFreePoly2*
4,1,18,-0.410000,0.265000,0.000000,0.675000,0.328000,0.675000,0.359380,0.668758,0.385983,0.650983,0.403758,0.624380,0.410000,0.593000,0.410000,-0.593000,0.403758,-0.624380,0.385983,-0.650983,0.359380,-0.668758,0.328000,-0.675000,-0.328000,-0.675000,-0.359380,-0.668758,-0.385983,-0.650983,-0.403758,-0.624380,-0.410000,-0.593000,-0.410000,0.265000,-0.410000,0.265000,$1*%
G04 Aperture macros list end*
%ADD10C,0.150000*%
%ADD11C,0.000001*%
%ADD12C,0.000000*%
%ADD13FreePoly0,270.000000*%
%ADD14FreePoly1,270.000000*%
%ADD15C,1.900000*%
%ADD16C,1.700000*%
%ADD17C,3.000000*%
%ADD18C,4.100000*%
%ADD19RoundRect,0.082000X0.651245X0.187383X0.187383X0.651245X-0.651245X-0.187383X-0.187383X-0.651245X0*%
%ADD20FreePoly2,135.000000*%
%ADD21RotRect,2.300000X2.000000X225.000000*%
%ADD22RoundRect,0.082000X0.593000X-0.328000X0.593000X0.328000X-0.593000X0.328000X-0.593000X-0.328000X0*%
%ADD23FreePoly2,90.000000*%
%ADD24R,2.300000X2.000000*%
%ADD25RoundRect,0.082000X0.568675X-0.368567X0.614436X0.285835X-0.568675X0.368567X-0.614436X-0.285835X0*%
%ADD26FreePoly2,86.000000*%
%ADD27RotRect,2.300000X2.000000X176.000000*%
%ADD28C,3.200000*%
%ADD29RotRect,1.800000X1.500000X350.000000*%
%ADD30R,1.800000X1.500000*%
%ADD31RotRect,1.800000X1.500000X356.000000*%
%ADD32RoundRect,0.082000X0.657687X-0.163344X0.487901X0.470303X-0.657687X0.163344X-0.487901X-0.470303X0*%
%ADD33FreePoly2,105.000000*%
%ADD34RotRect,2.300000X2.000000X195.000000*%
%ADD35FreePoly0,90.000000*%
%ADD36FreePoly1,90.000000*%
%ADD37RoundRect,0.082000X0.527034X-0.425990X0.640948X0.220044X-0.527034X0.425990X-0.640948X-0.220044X0*%
%ADD38FreePoly2,80.000000*%
%ADD39RotRect,2.300000X2.000000X170.000000*%
%ADD40RotRect,1.800000X1.500000X105.000000*%
%ADD41R,2.200000X2.200000*%
%ADD42C,2.200000*%
%ADD43C,2.000000*%
%ADD44R,3.200000X2.000000*%
%ADD45O,1.600000X2.000000*%
%ADD46C,1.200000*%
%ADD47O,2.500000X1.700000*%
%ADD48RotRect,1.800000X1.500000X120.000000*%
%ADD49O,1.750000X1.200000*%
%ADD50C,0.900000*%
%ADD51RoundRect,0.187500X-0.712500X0.187500X-0.712500X-0.187500X0.712500X-0.187500X0.712500X0.187500X0*%
%ADD52RoundRect,0.150000X-0.750000X0.150000X-0.750000X-0.150000X0.750000X-0.150000X0.750000X0.150000X0*%
%ADD53RoundRect,0.225000X-0.225000X0.425000X-0.225000X-0.425000X0.225000X-0.425000X0.225000X0.425000X0*%
%ADD54C,4.400000*%
%ADD55RoundRect,0.082000X0.677553X0.012444X0.349553X0.580556X-0.677553X-0.012444X-0.349553X-0.580556X0*%
%ADD56FreePoly2,120.000000*%
%ADD57RotRect,2.300000X2.000000X210.000000*%
%ADD58RotRect,1.800000X1.500000X135.000000*%
%ADD59R,1.500000X1.800000*%
%ADD60RoundRect,0.142858X-0.857142X0.857142X-0.857142X-0.857142X0.857142X-0.857142X0.857142X0.857142X0*%
%ADD61R,1.000000X0.700000*%
%ADD62R,2.800000X1.000000*%
%ADD63R,1.524000X1.524000*%
%ADD64C,1.800000*%
%ADD65C,1.524000*%
%ADD66O,1.700000X1.700000*%
G04 APERTURE END LIST*
D10*
X107458484Y-53704798D02*
X107458484Y-55795204D01*
X110576959Y-53704797D02*
X110733523Y-53716642D01*
X110882674Y-53751016D01*
X111022668Y-53806175D01*
X111192068Y-53909037D01*
X111337953Y-54041615D01*
X111456190Y-54199774D01*
X111542644Y-54379381D01*
X111584140Y-54525674D01*
X111603689Y-54679961D01*
X111605027Y-54732866D01*
X109548890Y-54732866D02*
X109560735Y-54576301D01*
X109595109Y-54427149D01*
X109650268Y-54287155D01*
X109753130Y-54117755D01*
X109885708Y-53971870D01*
X110043867Y-53853633D01*
X110223474Y-53767179D01*
X110369767Y-53725683D01*
X110524054Y-53706134D01*
X110576959Y-53704797D01*
X108829242Y-53704798D02*
X108829242Y-55760935D01*
D11*
X159631126Y-113639059D02*
X159433632Y-113836542D01*
X159453668Y-113851659D01*
X159472749Y-113867881D01*
X159490827Y-113885157D01*
X159507857Y-113903435D01*
X159523792Y-113922664D01*
X159538585Y-113942791D01*
X159552190Y-113963766D01*
X159564560Y-113985536D01*
X159575649Y-114008050D01*
X159585410Y-114031256D01*
X159593797Y-114055103D01*
X159600763Y-114079539D01*
X159606263Y-114104512D01*
X159610248Y-114129970D01*
X159612674Y-114155863D01*
X159613492Y-114182137D01*
X159613492Y-115557464D01*
X159331358Y-115557464D01*
X159634652Y-115860742D01*
X159542959Y-115952430D01*
X159147970Y-115557464D01*
X158403840Y-115557464D01*
X158403840Y-115426985D01*
X159017483Y-115426985D01*
X158428527Y-114838063D01*
X157839571Y-115426985D01*
X158396787Y-115426985D01*
X158396787Y-115557464D01*
X157709084Y-115557464D01*
X157314096Y-115952430D01*
X157222402Y-115860742D01*
X157525697Y-115557464D01*
X157165975Y-115557464D01*
X157165975Y-115493988D01*
X157167093Y-115445324D01*
X157168116Y-115430511D01*
X157168359Y-115426985D01*
X157296462Y-115426985D01*
X157296462Y-115430511D01*
X157652657Y-115430511D01*
X158333307Y-114749901D01*
X158329780Y-114746374D01*
X158523747Y-114746374D01*
X159200870Y-115426985D01*
X159483005Y-115426985D01*
X159483005Y-114577103D01*
X158693029Y-114577103D01*
X158523747Y-114746374D01*
X158329780Y-114746374D01*
X158164026Y-114580629D01*
X158120980Y-114583618D01*
X158078497Y-114588585D01*
X158036624Y-114595484D01*
X157995406Y-114604268D01*
X157954892Y-114614891D01*
X157915126Y-114627307D01*
X157876156Y-114641469D01*
X157838028Y-114657330D01*
X157800789Y-114674845D01*
X157764485Y-114693966D01*
X157729162Y-114714647D01*
X157694867Y-114736842D01*
X157661647Y-114760503D01*
X157629548Y-114785586D01*
X157598616Y-114812042D01*
X157568898Y-114839826D01*
X157540441Y-114868891D01*
X157513291Y-114899191D01*
X157487495Y-114930678D01*
X157463098Y-114963308D01*
X157440148Y-114997032D01*
X157418691Y-115031805D01*
X157398773Y-115067581D01*
X157380441Y-115104312D01*
X157363742Y-115141952D01*
X157348722Y-115180455D01*
X157335427Y-115219774D01*
X157323904Y-115259863D01*
X157314200Y-115300675D01*
X157306360Y-115342163D01*
X157300432Y-115384282D01*
X157296462Y-115426985D01*
X157168359Y-115426985D01*
X157170413Y-115397227D01*
X157175887Y-115349744D01*
X157183464Y-115302924D01*
X157193094Y-115256818D01*
X157204728Y-115211473D01*
X157218316Y-115166940D01*
X157233809Y-115123267D01*
X157251156Y-115080503D01*
X157270307Y-115038697D01*
X157291215Y-114997898D01*
X157313827Y-114958156D01*
X157338095Y-114919519D01*
X157363969Y-114882037D01*
X157391400Y-114845758D01*
X157420337Y-114810732D01*
X157450731Y-114777008D01*
X157482532Y-114744635D01*
X157515690Y-114713662D01*
X157550156Y-114684137D01*
X157585880Y-114656111D01*
X157622812Y-114629632D01*
X157660903Y-114604749D01*
X157700102Y-114581511D01*
X157708339Y-114577103D01*
X158347413Y-114577103D01*
X158428527Y-114658212D01*
X158509641Y-114577103D01*
X158347413Y-114577103D01*
X157708339Y-114577103D01*
X157740360Y-114559968D01*
X157781628Y-114540168D01*
X157823855Y-114522161D01*
X157866993Y-114505995D01*
X157910990Y-114491720D01*
X157955798Y-114479384D01*
X158001366Y-114469038D01*
X158047645Y-114460729D01*
X158037020Y-114450150D01*
X158819989Y-114450150D01*
X159479478Y-114450150D01*
X159479478Y-114185664D01*
X159479314Y-114175467D01*
X159478824Y-114165378D01*
X159478014Y-114155400D01*
X159476888Y-114145536D01*
X159475453Y-114135792D01*
X159473713Y-114126170D01*
X159471673Y-114116675D01*
X159469339Y-114107310D01*
X159466716Y-114098079D01*
X159463808Y-114088987D01*
X159460621Y-114080037D01*
X159457161Y-114071232D01*
X159453432Y-114062578D01*
X159449439Y-114054077D01*
X159445189Y-114045734D01*
X159440685Y-114037552D01*
X159435933Y-114029535D01*
X159430938Y-114021688D01*
X159425706Y-114014013D01*
X159420241Y-114006516D01*
X159408635Y-113992067D01*
X159396160Y-113978373D01*
X159382860Y-113965464D01*
X159368773Y-113953371D01*
X159353944Y-113942125D01*
X159338411Y-113931757D01*
X158819989Y-114450150D01*
X158037020Y-114450150D01*
X157222402Y-113639059D01*
X157314096Y-113547371D01*
X158216926Y-114446623D01*
X158636601Y-114446623D01*
X159197344Y-113885913D01*
X157895998Y-113885913D01*
X157895998Y-113755433D01*
X159183237Y-113755433D01*
X159191792Y-113755516D01*
X159200265Y-113755764D01*
X159208654Y-113756177D01*
X159216961Y-113756756D01*
X159225185Y-113757500D01*
X159233327Y-113758409D01*
X159241386Y-113759483D01*
X159249362Y-113760723D01*
X159257256Y-113762128D01*
X159265067Y-113763698D01*
X159272796Y-113765434D01*
X159280441Y-113767335D01*
X159288004Y-113769401D01*
X159295485Y-113771633D01*
X159302883Y-113774030D01*
X159310198Y-113776592D01*
X159539432Y-113547371D01*
X159631126Y-113639059D01*
G36*
X159631126Y-113639059D02*
G01*
X159433632Y-113836542D01*
X159453668Y-113851659D01*
X159472749Y-113867881D01*
X159490827Y-113885157D01*
X159507857Y-113903435D01*
X159523792Y-113922664D01*
X159538585Y-113942791D01*
X159552190Y-113963766D01*
X159564560Y-113985536D01*
X159575649Y-114008050D01*
X159585410Y-114031256D01*
X159593797Y-114055103D01*
X159600763Y-114079539D01*
X159606263Y-114104512D01*
X159610248Y-114129970D01*
X159612674Y-114155863D01*
X159613492Y-114182137D01*
X159613492Y-115557464D01*
X159331358Y-115557464D01*
X159634652Y-115860742D01*
X159542959Y-115952430D01*
X159147970Y-115557464D01*
X158403840Y-115557464D01*
X158403840Y-115426985D01*
X159017483Y-115426985D01*
X158428527Y-114838063D01*
X157839571Y-115426985D01*
X158396787Y-115426985D01*
X158396787Y-115557464D01*
X157709084Y-115557464D01*
X157314096Y-115952430D01*
X157222402Y-115860742D01*
X157525697Y-115557464D01*
X157165975Y-115557464D01*
X157165975Y-115493988D01*
X157167093Y-115445324D01*
X157168116Y-115430511D01*
X157168359Y-115426985D01*
X157296462Y-115426985D01*
X157296462Y-115430511D01*
X157652657Y-115430511D01*
X158333307Y-114749901D01*
X158329780Y-114746374D01*
X158523747Y-114746374D01*
X159200870Y-115426985D01*
X159483005Y-115426985D01*
X159483005Y-114577103D01*
X158693029Y-114577103D01*
X158523747Y-114746374D01*
X158329780Y-114746374D01*
X158164026Y-114580629D01*
X158120980Y-114583618D01*
X158078497Y-114588585D01*
X158036624Y-114595484D01*
X157995406Y-114604268D01*
X157954892Y-114614891D01*
X157915126Y-114627307D01*
X157876156Y-114641469D01*
X157838028Y-114657330D01*
X157800789Y-114674845D01*
X157764485Y-114693966D01*
X157729162Y-114714647D01*
X157694867Y-114736842D01*
X157661647Y-114760503D01*
X157629548Y-114785586D01*
X157598616Y-114812042D01*
X157568898Y-114839826D01*
X157540441Y-114868891D01*
X157513291Y-114899191D01*
X157487495Y-114930678D01*
X157463098Y-114963308D01*
X157440148Y-114997032D01*
X157418691Y-115031805D01*
X157398773Y-115067581D01*
X157380441Y-115104312D01*
X157363742Y-115141952D01*
X157348722Y-115180455D01*
X157335427Y-115219774D01*
X157323904Y-115259863D01*
X157314200Y-115300675D01*
X157306360Y-115342163D01*
X157300432Y-115384282D01*
X157296462Y-115426985D01*
X157168359Y-115426985D01*
X157170413Y-115397227D01*
X157175887Y-115349744D01*
X157183464Y-115302924D01*
X157193094Y-115256818D01*
X157204728Y-115211473D01*
X157218316Y-115166940D01*
X157233809Y-115123267D01*
X157251156Y-115080503D01*
X157270307Y-115038697D01*
X157291215Y-114997898D01*
X157313827Y-114958156D01*
X157338095Y-114919519D01*
X157363969Y-114882037D01*
X157391400Y-114845758D01*
X157420337Y-114810732D01*
X157450731Y-114777008D01*
X157482532Y-114744635D01*
X157515690Y-114713662D01*
X157550156Y-114684137D01*
X157585880Y-114656111D01*
X157622812Y-114629632D01*
X157660903Y-114604749D01*
X157700102Y-114581511D01*
X157708339Y-114577103D01*
X158347413Y-114577103D01*
X158428527Y-114658212D01*
X158509641Y-114577103D01*
X158347413Y-114577103D01*
X157708339Y-114577103D01*
X157740360Y-114559968D01*
X157781628Y-114540168D01*
X157823855Y-114522161D01*
X157866993Y-114505995D01*
X157910990Y-114491720D01*
X157955798Y-114479384D01*
X158001366Y-114469038D01*
X158047645Y-114460729D01*
X158037020Y-114450150D01*
X158819989Y-114450150D01*
X159479478Y-114450150D01*
X159479478Y-114185664D01*
X159479314Y-114175467D01*
X159478824Y-114165378D01*
X159478014Y-114155400D01*
X159476888Y-114145536D01*
X159475453Y-114135792D01*
X159473713Y-114126170D01*
X159471673Y-114116675D01*
X159469339Y-114107310D01*
X159466716Y-114098079D01*
X159463808Y-114088987D01*
X159460621Y-114080037D01*
X159457161Y-114071232D01*
X159453432Y-114062578D01*
X159449439Y-114054077D01*
X159445189Y-114045734D01*
X159440685Y-114037552D01*
X159435933Y-114029535D01*
X159430938Y-114021688D01*
X159425706Y-114014013D01*
X159420241Y-114006516D01*
X159408635Y-113992067D01*
X159396160Y-113978373D01*
X159382860Y-113965464D01*
X159368773Y-113953371D01*
X159353944Y-113942125D01*
X159338411Y-113931757D01*
X158819989Y-114450150D01*
X158037020Y-114450150D01*
X157222402Y-113639059D01*
X157314096Y-113547371D01*
X158216926Y-114446623D01*
X158636601Y-114446623D01*
X159197344Y-113885913D01*
X157895998Y-113885913D01*
X157895998Y-113755433D01*
X159183237Y-113755433D01*
X159191792Y-113755516D01*
X159200265Y-113755764D01*
X159208654Y-113756177D01*
X159216961Y-113756756D01*
X159225185Y-113757500D01*
X159233327Y-113758409D01*
X159241386Y-113759483D01*
X159249362Y-113760723D01*
X159257256Y-113762128D01*
X159265067Y-113763698D01*
X159272796Y-113765434D01*
X159280441Y-113767335D01*
X159288004Y-113769401D01*
X159295485Y-113771633D01*
X159302883Y-113774030D01*
X159310198Y-113776592D01*
X159539432Y-113547371D01*
X159631126Y-113639059D01*
G37*
D10*
X112907248Y-54767135D02*
X111913449Y-54767135D01*
D12*
G36*
X99560346Y-86763412D02*
G01*
X98161230Y-88835100D01*
X97707734Y-88407533D01*
X97715879Y-88396420D01*
X97828384Y-88396420D01*
X98145884Y-88695929D01*
X99441284Y-86777700D01*
X99185167Y-86545395D01*
X97828384Y-88396420D01*
X97715879Y-88396420D01*
X99171409Y-86410458D01*
X99560346Y-86763412D01*
G37*
D11*
X163187462Y-114185720D02*
X163186020Y-114185664D01*
X163189548Y-114185664D01*
X163187462Y-114185720D01*
G36*
X163187462Y-114185720D02*
G01*
X163186020Y-114185664D01*
X163189548Y-114185664D01*
X163187462Y-114185720D01*
G37*
D10*
X107458484Y-55795204D02*
X108486553Y-53704798D01*
X111879180Y-55795204D02*
X111879180Y-54767135D01*
D11*
X159631126Y-116710623D02*
X159299617Y-117042112D01*
X159333786Y-117081278D01*
X159366163Y-117122030D01*
X159396690Y-117164300D01*
X159425311Y-117208022D01*
X159451968Y-117253129D01*
X159476606Y-117299552D01*
X159499167Y-117347226D01*
X159519594Y-117396083D01*
X159537831Y-117446055D01*
X159553821Y-117497076D01*
X159567507Y-117549079D01*
X159578831Y-117601996D01*
X159587739Y-117655760D01*
X159594171Y-117710305D01*
X159598072Y-117765562D01*
X159599385Y-117821464D01*
X159598072Y-117877328D01*
X159594171Y-117932480D01*
X159587739Y-117986866D01*
X159578831Y-118040437D01*
X159567507Y-118093139D01*
X159553821Y-118144922D01*
X159537831Y-118195734D01*
X159519594Y-118245524D01*
X159499167Y-118294238D01*
X159476606Y-118341827D01*
X159451968Y-118388238D01*
X159425311Y-118433419D01*
X159396690Y-118477319D01*
X159366163Y-118519887D01*
X159333786Y-118561070D01*
X159299617Y-118600817D01*
X159631126Y-118932305D01*
X159539432Y-119023994D01*
X159207924Y-118692505D01*
X159168756Y-118726672D01*
X159128002Y-118759047D01*
X159085729Y-118789572D01*
X159042004Y-118818191D01*
X158996895Y-118844847D01*
X158950469Y-118869484D01*
X158902793Y-118892043D01*
X158853933Y-118912469D01*
X158803958Y-118930705D01*
X158752934Y-118946694D01*
X158700928Y-118960379D01*
X158648008Y-118971703D01*
X158594241Y-118980610D01*
X158539693Y-118987042D01*
X158484433Y-118990943D01*
X158428527Y-118992256D01*
X158372660Y-118990943D01*
X158317506Y-118987042D01*
X158263116Y-118980610D01*
X158209542Y-118971703D01*
X158156837Y-118960379D01*
X158105050Y-118946694D01*
X158054236Y-118930705D01*
X158004444Y-118912469D01*
X157955726Y-118892043D01*
X157908135Y-118869483D01*
X157861721Y-118844847D01*
X157816538Y-118818191D01*
X157772635Y-118789572D01*
X157730065Y-118759047D01*
X157688880Y-118726672D01*
X157649130Y-118692505D01*
X157317622Y-119023994D01*
X157225929Y-118932305D01*
X157557437Y-118600817D01*
X157740824Y-118600817D01*
X157775863Y-118630480D01*
X157812177Y-118658604D01*
X157849722Y-118685137D01*
X157888449Y-118710027D01*
X157928313Y-118733223D01*
X157969266Y-118754673D01*
X158011264Y-118774325D01*
X158054258Y-118792128D01*
X158098203Y-118808030D01*
X158143052Y-118821979D01*
X158188758Y-118833924D01*
X158235276Y-118843813D01*
X158282558Y-118851595D01*
X158330558Y-118857217D01*
X158379230Y-118860628D01*
X158428527Y-118861776D01*
X158432054Y-118861776D01*
X158480770Y-118860628D01*
X158529010Y-118857217D01*
X158576713Y-118851595D01*
X158623817Y-118843813D01*
X158670260Y-118833924D01*
X158715979Y-118821979D01*
X158760913Y-118808030D01*
X158805000Y-118792128D01*
X158848178Y-118774325D01*
X158890385Y-118754673D01*
X158931558Y-118733223D01*
X158971636Y-118710027D01*
X159010557Y-118685137D01*
X159048259Y-118658604D01*
X159084679Y-118630480D01*
X159119757Y-118600817D01*
X158428527Y-117913153D01*
X157740824Y-118600817D01*
X157557437Y-118600817D01*
X157523268Y-118561651D01*
X157490891Y-118520899D01*
X157460364Y-118478629D01*
X157431744Y-118434907D01*
X157405086Y-118389800D01*
X157380448Y-118343377D01*
X157357887Y-118295703D01*
X157337460Y-118246846D01*
X157319223Y-118196874D01*
X157303233Y-118145852D01*
X157289547Y-118093850D01*
X157278223Y-118040933D01*
X157269316Y-117987169D01*
X157262883Y-117932624D01*
X157258982Y-117877367D01*
X157257669Y-117821465D01*
X157388156Y-117821465D01*
X157389305Y-117870178D01*
X157392716Y-117918415D01*
X157398338Y-117966116D01*
X157406120Y-118013217D01*
X157416010Y-118059657D01*
X157427955Y-118105374D01*
X157441905Y-118150305D01*
X157457808Y-118194390D01*
X157475612Y-118237565D01*
X157495265Y-118279769D01*
X157516716Y-118320940D01*
X157539913Y-118361016D01*
X157564805Y-118399935D01*
X157591340Y-118437634D01*
X157619465Y-118474053D01*
X157649130Y-118509128D01*
X158336834Y-117821465D01*
X158333307Y-117817938D01*
X158520221Y-117817938D01*
X159211451Y-118509128D01*
X159241116Y-118473471D01*
X159269241Y-118436615D01*
X159295776Y-118398602D01*
X159320668Y-118359473D01*
X159343865Y-118319270D01*
X159365316Y-118278034D01*
X159384969Y-118235805D01*
X159402773Y-118192627D01*
X159418676Y-118148539D01*
X159432626Y-118103583D01*
X159444571Y-118057801D01*
X159454461Y-118011233D01*
X159462243Y-117963922D01*
X159467865Y-117915908D01*
X159471276Y-117867233D01*
X159472425Y-117817938D01*
X159472425Y-117814412D01*
X159471276Y-117765699D01*
X159467865Y-117717461D01*
X159462243Y-117669761D01*
X159454461Y-117622659D01*
X159444571Y-117576219D01*
X159432626Y-117530503D01*
X159418676Y-117485571D01*
X159402773Y-117441487D01*
X159384969Y-117398311D01*
X159365316Y-117356107D01*
X159343865Y-117314936D01*
X159320668Y-117274860D01*
X159295776Y-117235942D01*
X159269241Y-117198242D01*
X159241116Y-117161823D01*
X159211451Y-117126748D01*
X158520221Y-117817938D01*
X158333307Y-117817938D01*
X157649130Y-117133801D01*
X157619465Y-117168876D01*
X157591340Y-117205295D01*
X157564805Y-117242995D01*
X157539913Y-117281913D01*
X157516716Y-117321989D01*
X157495265Y-117363160D01*
X157475612Y-117405364D01*
X157457808Y-117448539D01*
X157441905Y-117492624D01*
X157427955Y-117537556D01*
X157416010Y-117583272D01*
X157406120Y-117629712D01*
X157398338Y-117676814D01*
X157392716Y-117724514D01*
X157389305Y-117772752D01*
X157388156Y-117821465D01*
X157257669Y-117821465D01*
X157257669Y-117821464D01*
X157258982Y-117765600D01*
X157262883Y-117710449D01*
X157269316Y-117656063D01*
X157278223Y-117602492D01*
X157289547Y-117549789D01*
X157303233Y-117498006D01*
X157319223Y-117447194D01*
X157337460Y-117397405D01*
X157357887Y-117348690D01*
X157380448Y-117301102D01*
X157405086Y-117254691D01*
X157431744Y-117209510D01*
X157460364Y-117165610D01*
X157490891Y-117123042D01*
X157523268Y-117081859D01*
X157557437Y-117042112D01*
X157553910Y-117038586D01*
X157737297Y-117038586D01*
X158425000Y-117726249D01*
X159116230Y-117038586D01*
X159081191Y-117008922D01*
X159044877Y-116980798D01*
X159007333Y-116954265D01*
X158968605Y-116929375D01*
X158928742Y-116906179D01*
X158887788Y-116884729D01*
X158845791Y-116865077D01*
X158802796Y-116847274D01*
X158758851Y-116831372D01*
X158714002Y-116817423D01*
X158668296Y-116805478D01*
X158621778Y-116795589D01*
X158574496Y-116787808D01*
X158526496Y-116782186D01*
X158477824Y-116778775D01*
X158428527Y-116777626D01*
X158379190Y-116778775D01*
X158330407Y-116782186D01*
X158282233Y-116787808D01*
X158234725Y-116795589D01*
X158187940Y-116805478D01*
X158141936Y-116817423D01*
X158096768Y-116831372D01*
X158052495Y-116847274D01*
X158009171Y-116865077D01*
X157966855Y-116884729D01*
X157925604Y-116906179D01*
X157885473Y-116929375D01*
X157846520Y-116954265D01*
X157808802Y-116980798D01*
X157772376Y-117008922D01*
X157737297Y-117038586D01*
X157553910Y-117038586D01*
X157225929Y-116710623D01*
X157317622Y-116618935D01*
X157649130Y-116950424D01*
X157688298Y-116916257D01*
X157729052Y-116883882D01*
X157771325Y-116853357D01*
X157815050Y-116824738D01*
X157860159Y-116798082D01*
X157906585Y-116773445D01*
X157954262Y-116750886D01*
X158003121Y-116730459D01*
X158053097Y-116712223D01*
X158104121Y-116696235D01*
X158156126Y-116682550D01*
X158209046Y-116671226D01*
X158262814Y-116662319D01*
X158317361Y-116655887D01*
X158372621Y-116651986D01*
X158428527Y-116650673D01*
X158484394Y-116651986D01*
X158539549Y-116655887D01*
X158593938Y-116662319D01*
X158647512Y-116671226D01*
X158700218Y-116682550D01*
X158752004Y-116696235D01*
X158802819Y-116712224D01*
X158852611Y-116730460D01*
X158901328Y-116750886D01*
X158948919Y-116773445D01*
X158995333Y-116798082D01*
X159040517Y-116824738D01*
X159084419Y-116853357D01*
X159126989Y-116883882D01*
X159168175Y-116916257D01*
X159207924Y-116950424D01*
X159539432Y-116618935D01*
X159631126Y-116710623D01*
G36*
X159631126Y-116710623D02*
G01*
X159299617Y-117042112D01*
X159333786Y-117081278D01*
X159366163Y-117122030D01*
X159396690Y-117164300D01*
X159425311Y-117208022D01*
X159451968Y-117253129D01*
X159476606Y-117299552D01*
X159499167Y-117347226D01*
X159519594Y-117396083D01*
X159537831Y-117446055D01*
X159553821Y-117497076D01*
X159567507Y-117549079D01*
X159578831Y-117601996D01*
X159587739Y-117655760D01*
X159594171Y-117710305D01*
X159598072Y-117765562D01*
X159599385Y-117821464D01*
X159598072Y-117877328D01*
X159594171Y-117932480D01*
X159587739Y-117986866D01*
X159578831Y-118040437D01*
X159567507Y-118093139D01*
X159553821Y-118144922D01*
X159537831Y-118195734D01*
X159519594Y-118245524D01*
X159499167Y-118294238D01*
X159476606Y-118341827D01*
X159451968Y-118388238D01*
X159425311Y-118433419D01*
X159396690Y-118477319D01*
X159366163Y-118519887D01*
X159333786Y-118561070D01*
X159299617Y-118600817D01*
X159631126Y-118932305D01*
X159539432Y-119023994D01*
X159207924Y-118692505D01*
X159168756Y-118726672D01*
X159128002Y-118759047D01*
X159085729Y-118789572D01*
X159042004Y-118818191D01*
X158996895Y-118844847D01*
X158950469Y-118869484D01*
X158902793Y-118892043D01*
X158853933Y-118912469D01*
X158803958Y-118930705D01*
X158752934Y-118946694D01*
X158700928Y-118960379D01*
X158648008Y-118971703D01*
X158594241Y-118980610D01*
X158539693Y-118987042D01*
X158484433Y-118990943D01*
X158428527Y-118992256D01*
X158372660Y-118990943D01*
X158317506Y-118987042D01*
X158263116Y-118980610D01*
X158209542Y-118971703D01*
X158156837Y-118960379D01*
X158105050Y-118946694D01*
X158054236Y-118930705D01*
X158004444Y-118912469D01*
X157955726Y-118892043D01*
X157908135Y-118869483D01*
X157861721Y-118844847D01*
X157816538Y-118818191D01*
X157772635Y-118789572D01*
X157730065Y-118759047D01*
X157688880Y-118726672D01*
X157649130Y-118692505D01*
X157317622Y-119023994D01*
X157225929Y-118932305D01*
X157557437Y-118600817D01*
X157740824Y-118600817D01*
X157775863Y-118630480D01*
X157812177Y-118658604D01*
X157849722Y-118685137D01*
X157888449Y-118710027D01*
X157928313Y-118733223D01*
X157969266Y-118754673D01*
X158011264Y-118774325D01*
X158054258Y-118792128D01*
X158098203Y-118808030D01*
X158143052Y-118821979D01*
X158188758Y-118833924D01*
X158235276Y-118843813D01*
X158282558Y-118851595D01*
X158330558Y-118857217D01*
X158379230Y-118860628D01*
X158428527Y-118861776D01*
X158432054Y-118861776D01*
X158480770Y-118860628D01*
X158529010Y-118857217D01*
X158576713Y-118851595D01*
X158623817Y-118843813D01*
X158670260Y-118833924D01*
X158715979Y-118821979D01*
X158760913Y-118808030D01*
X158805000Y-118792128D01*
X158848178Y-118774325D01*
X158890385Y-118754673D01*
X158931558Y-118733223D01*
X158971636Y-118710027D01*
X159010557Y-118685137D01*
X159048259Y-118658604D01*
X159084679Y-118630480D01*
X159119757Y-118600817D01*
X158428527Y-117913153D01*
X157740824Y-118600817D01*
X157557437Y-118600817D01*
X157523268Y-118561651D01*
X157490891Y-118520899D01*
X157460364Y-118478629D01*
X157431744Y-118434907D01*
X157405086Y-118389800D01*
X157380448Y-118343377D01*
X157357887Y-118295703D01*
X157337460Y-118246846D01*
X157319223Y-118196874D01*
X157303233Y-118145852D01*
X157289547Y-118093850D01*
X157278223Y-118040933D01*
X157269316Y-117987169D01*
X157262883Y-117932624D01*
X157258982Y-117877367D01*
X157257669Y-117821465D01*
X157388156Y-117821465D01*
X157389305Y-117870178D01*
X157392716Y-117918415D01*
X157398338Y-117966116D01*
X157406120Y-118013217D01*
X157416010Y-118059657D01*
X157427955Y-118105374D01*
X157441905Y-118150305D01*
X157457808Y-118194390D01*
X157475612Y-118237565D01*
X157495265Y-118279769D01*
X157516716Y-118320940D01*
X157539913Y-118361016D01*
X157564805Y-118399935D01*
X157591340Y-118437634D01*
X157619465Y-118474053D01*
X157649130Y-118509128D01*
X158336834Y-117821465D01*
X158333307Y-117817938D01*
X158520221Y-117817938D01*
X159211451Y-118509128D01*
X159241116Y-118473471D01*
X159269241Y-118436615D01*
X159295776Y-118398602D01*
X159320668Y-118359473D01*
X159343865Y-118319270D01*
X159365316Y-118278034D01*
X159384969Y-118235805D01*
X159402773Y-118192627D01*
X159418676Y-118148539D01*
X159432626Y-118103583D01*
X159444571Y-118057801D01*
X159454461Y-118011233D01*
X159462243Y-117963922D01*
X159467865Y-117915908D01*
X159471276Y-117867233D01*
X159472425Y-117817938D01*
X159472425Y-117814412D01*
X159471276Y-117765699D01*
X159467865Y-117717461D01*
X159462243Y-117669761D01*
X159454461Y-117622659D01*
X159444571Y-117576219D01*
X159432626Y-117530503D01*
X159418676Y-117485571D01*
X159402773Y-117441487D01*
X159384969Y-117398311D01*
X159365316Y-117356107D01*
X159343865Y-117314936D01*
X159320668Y-117274860D01*
X159295776Y-117235942D01*
X159269241Y-117198242D01*
X159241116Y-117161823D01*
X159211451Y-117126748D01*
X158520221Y-117817938D01*
X158333307Y-117817938D01*
X157649130Y-117133801D01*
X157619465Y-117168876D01*
X157591340Y-117205295D01*
X157564805Y-117242995D01*
X157539913Y-117281913D01*
X157516716Y-117321989D01*
X157495265Y-117363160D01*
X157475612Y-117405364D01*
X157457808Y-117448539D01*
X157441905Y-117492624D01*
X157427955Y-117537556D01*
X157416010Y-117583272D01*
X157406120Y-117629712D01*
X157398338Y-117676814D01*
X157392716Y-117724514D01*
X157389305Y-117772752D01*
X157388156Y-117821465D01*
X157257669Y-117821465D01*
X157257669Y-117821464D01*
X157258982Y-117765600D01*
X157262883Y-117710449D01*
X157269316Y-117656063D01*
X157278223Y-117602492D01*
X157289547Y-117549789D01*
X157303233Y-117498006D01*
X157319223Y-117447194D01*
X157337460Y-117397405D01*
X157357887Y-117348690D01*
X157380448Y-117301102D01*
X157405086Y-117254691D01*
X157431744Y-117209510D01*
X157460364Y-117165610D01*
X157490891Y-117123042D01*
X157523268Y-117081859D01*
X157557437Y-117042112D01*
X157553910Y-117038586D01*
X157737297Y-117038586D01*
X158425000Y-117726249D01*
X159116230Y-117038586D01*
X159081191Y-117008922D01*
X159044877Y-116980798D01*
X159007333Y-116954265D01*
X158968605Y-116929375D01*
X158928742Y-116906179D01*
X158887788Y-116884729D01*
X158845791Y-116865077D01*
X158802796Y-116847274D01*
X158758851Y-116831372D01*
X158714002Y-116817423D01*
X158668296Y-116805478D01*
X158621778Y-116795589D01*
X158574496Y-116787808D01*
X158526496Y-116782186D01*
X158477824Y-116778775D01*
X158428527Y-116777626D01*
X158379190Y-116778775D01*
X158330407Y-116782186D01*
X158282233Y-116787808D01*
X158234725Y-116795589D01*
X158187940Y-116805478D01*
X158141936Y-116817423D01*
X158096768Y-116831372D01*
X158052495Y-116847274D01*
X158009171Y-116865077D01*
X157966855Y-116884729D01*
X157925604Y-116906179D01*
X157885473Y-116929375D01*
X157846520Y-116954265D01*
X157808802Y-116980798D01*
X157772376Y-117008922D01*
X157737297Y-117038586D01*
X157553910Y-117038586D01*
X157225929Y-116710623D01*
X157317622Y-116618935D01*
X157649130Y-116950424D01*
X157688298Y-116916257D01*
X157729052Y-116883882D01*
X157771325Y-116853357D01*
X157815050Y-116824738D01*
X157860159Y-116798082D01*
X157906585Y-116773445D01*
X157954262Y-116750886D01*
X158003121Y-116730459D01*
X158053097Y-116712223D01*
X158104121Y-116696235D01*
X158156126Y-116682550D01*
X158209046Y-116671226D01*
X158262814Y-116662319D01*
X158317361Y-116655887D01*
X158372621Y-116651986D01*
X158428527Y-116650673D01*
X158484394Y-116651986D01*
X158539549Y-116655887D01*
X158593938Y-116662319D01*
X158647512Y-116671226D01*
X158700218Y-116682550D01*
X158752004Y-116696235D01*
X158802819Y-116712224D01*
X158852611Y-116730460D01*
X158901328Y-116750886D01*
X158948919Y-116773445D01*
X158995333Y-116798082D01*
X159040517Y-116824738D01*
X159084419Y-116853357D01*
X159126989Y-116883882D01*
X159168175Y-116916257D01*
X159207924Y-116950424D01*
X159539432Y-116618935D01*
X159631126Y-116710623D01*
G37*
D10*
X111605027Y-54732866D02*
X111593181Y-54889430D01*
X111558807Y-55038581D01*
X111503648Y-55178575D01*
X111400786Y-55347975D01*
X111268208Y-55493860D01*
X111110049Y-55612097D01*
X110930443Y-55698551D01*
X110784150Y-55740047D01*
X110629863Y-55759596D01*
X110576959Y-55760934D01*
X108486554Y-55795204D02*
X107972519Y-54732866D01*
X108829242Y-55760935D02*
X109617428Y-55760935D01*
D11*
X162910940Y-118995782D02*
X160565696Y-118995782D01*
X160565696Y-118865302D01*
X160692657Y-118865302D01*
X161204026Y-118865302D01*
X161163489Y-118843365D01*
X161123904Y-118819899D01*
X161085310Y-118794945D01*
X161047750Y-118768545D01*
X161011264Y-118740739D01*
X160975893Y-118711570D01*
X160941681Y-118681078D01*
X160908666Y-118649306D01*
X160876892Y-118616293D01*
X160846398Y-118582082D01*
X160817227Y-118546714D01*
X160789420Y-118510230D01*
X160763018Y-118472672D01*
X160738063Y-118434080D01*
X160714595Y-118394497D01*
X160692657Y-118353963D01*
X160692657Y-118865302D01*
X160565696Y-118865302D01*
X160565696Y-118353963D01*
X160565696Y-117821464D01*
X160692657Y-117821464D01*
X160694020Y-117875032D01*
X160698065Y-117927914D01*
X160704725Y-117980043D01*
X160713934Y-118031352D01*
X160725625Y-118081775D01*
X160739732Y-118131246D01*
X160756189Y-118179698D01*
X160774928Y-118227065D01*
X160795883Y-118273279D01*
X160818988Y-118318275D01*
X160844176Y-118361986D01*
X160871381Y-118404346D01*
X160900536Y-118445288D01*
X160931575Y-118484745D01*
X160964431Y-118522651D01*
X160999037Y-118558940D01*
X161035328Y-118593544D01*
X161073236Y-118626398D01*
X161112696Y-118657435D01*
X161153640Y-118686588D01*
X161196002Y-118713792D01*
X161239715Y-118738979D01*
X161284714Y-118762082D01*
X161330931Y-118783036D01*
X161378301Y-118801774D01*
X161426755Y-118818230D01*
X161476229Y-118832336D01*
X161526655Y-118844026D01*
X161577968Y-118853235D01*
X161630099Y-118859895D01*
X161682984Y-118863939D01*
X161736555Y-118865302D01*
X162269084Y-118865302D01*
X162780453Y-118865302D01*
X162780453Y-118353963D01*
X162758514Y-118394497D01*
X162735047Y-118434080D01*
X162710091Y-118472672D01*
X162683689Y-118510230D01*
X162655882Y-118546714D01*
X162626711Y-118582082D01*
X162596218Y-118616293D01*
X162564443Y-118649306D01*
X162531429Y-118681078D01*
X162497216Y-118711570D01*
X162461846Y-118740739D01*
X162425360Y-118768545D01*
X162387799Y-118794945D01*
X162349206Y-118819899D01*
X162309620Y-118843365D01*
X162269084Y-118865302D01*
X161736555Y-118865302D01*
X161790126Y-118863939D01*
X161843011Y-118859895D01*
X161895142Y-118853235D01*
X161946455Y-118844026D01*
X161996881Y-118832336D01*
X162046355Y-118818230D01*
X162094809Y-118801774D01*
X162142178Y-118783036D01*
X162188396Y-118762082D01*
X162233394Y-118738979D01*
X162277108Y-118713792D01*
X162319470Y-118686588D01*
X162360414Y-118657435D01*
X162399873Y-118626398D01*
X162437782Y-118593544D01*
X162474072Y-118558940D01*
X162508679Y-118522651D01*
X162541535Y-118484745D01*
X162572573Y-118445288D01*
X162601728Y-118404346D01*
X162628933Y-118361986D01*
X162654122Y-118318275D01*
X162677227Y-118273279D01*
X162698182Y-118227065D01*
X162716921Y-118179698D01*
X162733377Y-118131246D01*
X162747484Y-118081775D01*
X162759175Y-118031352D01*
X162768384Y-117980043D01*
X162775045Y-117927914D01*
X162779090Y-117875032D01*
X162780453Y-117821464D01*
X162779090Y-117767896D01*
X162775045Y-117715015D01*
X162768384Y-117662886D01*
X162759175Y-117611577D01*
X162747484Y-117561154D01*
X162733377Y-117511683D01*
X162716921Y-117463231D01*
X162698182Y-117415864D01*
X162677227Y-117369650D01*
X162654122Y-117324653D01*
X162628933Y-117280942D01*
X162601728Y-117238583D01*
X162572573Y-117197641D01*
X162541535Y-117158184D01*
X162508679Y-117120278D01*
X162474072Y-117083989D01*
X162437782Y-117049385D01*
X162399873Y-117016531D01*
X162360414Y-116985494D01*
X162319470Y-116956340D01*
X162277108Y-116929137D01*
X162233394Y-116903950D01*
X162188396Y-116880847D01*
X162142178Y-116859893D01*
X162094809Y-116841155D01*
X162046355Y-116824699D01*
X161996881Y-116810593D01*
X161946455Y-116798902D01*
X161895142Y-116789694D01*
X161843011Y-116783034D01*
X161790126Y-116778989D01*
X161736555Y-116777626D01*
X162269084Y-116777626D01*
X162309620Y-116799564D01*
X162349206Y-116823030D01*
X162387799Y-116847984D01*
X162425360Y-116874384D01*
X162461846Y-116902189D01*
X162497216Y-116931359D01*
X162531429Y-116961850D01*
X162564443Y-116993623D01*
X162596218Y-117026636D01*
X162626711Y-117060847D01*
X162655882Y-117096215D01*
X162683689Y-117132699D01*
X162710091Y-117170257D01*
X162735047Y-117208849D01*
X162758514Y-117248432D01*
X162780453Y-117288966D01*
X162780453Y-116777626D01*
X162269084Y-116777626D01*
X161736555Y-116777626D01*
X161682984Y-116778989D01*
X161630099Y-116783034D01*
X161577968Y-116789694D01*
X161526655Y-116798902D01*
X161476229Y-116810593D01*
X161426755Y-116824699D01*
X161378301Y-116841155D01*
X161330931Y-116859893D01*
X161284714Y-116880847D01*
X161239715Y-116903950D01*
X161196002Y-116929137D01*
X161153640Y-116956340D01*
X161112696Y-116985494D01*
X161073236Y-117016531D01*
X161035328Y-117049385D01*
X160999037Y-117083989D01*
X160964431Y-117120278D01*
X160931575Y-117158184D01*
X160900536Y-117197641D01*
X160871381Y-117238583D01*
X160844176Y-117280942D01*
X160818988Y-117324653D01*
X160795883Y-117369650D01*
X160774928Y-117415864D01*
X160756189Y-117463231D01*
X160739732Y-117511683D01*
X160725625Y-117561154D01*
X160713934Y-117611577D01*
X160704725Y-117662886D01*
X160698065Y-117715015D01*
X160694020Y-117767896D01*
X160692657Y-117821464D01*
X160565696Y-117821464D01*
X160565696Y-117288966D01*
X160565696Y-116777626D01*
X160692657Y-116777626D01*
X160692657Y-117288966D01*
X160714595Y-117248432D01*
X160738063Y-117208849D01*
X160763018Y-117170257D01*
X160789420Y-117132699D01*
X160817227Y-117096215D01*
X160846398Y-117060847D01*
X160876892Y-117026636D01*
X160908666Y-116993623D01*
X160941681Y-116961850D01*
X160975893Y-116931359D01*
X161011264Y-116902189D01*
X161047750Y-116874384D01*
X161085310Y-116847984D01*
X161123904Y-116823030D01*
X161163489Y-116799564D01*
X161204026Y-116777626D01*
X160692657Y-116777626D01*
X160565696Y-116777626D01*
X160565696Y-116650673D01*
X162910940Y-116650673D01*
X162910940Y-118995782D01*
G36*
X162910940Y-118995782D02*
G01*
X160565696Y-118995782D01*
X160565696Y-118865302D01*
X160692657Y-118865302D01*
X161204026Y-118865302D01*
X161163489Y-118843365D01*
X161123904Y-118819899D01*
X161085310Y-118794945D01*
X161047750Y-118768545D01*
X161011264Y-118740739D01*
X160975893Y-118711570D01*
X160941681Y-118681078D01*
X160908666Y-118649306D01*
X160876892Y-118616293D01*
X160846398Y-118582082D01*
X160817227Y-118546714D01*
X160789420Y-118510230D01*
X160763018Y-118472672D01*
X160738063Y-118434080D01*
X160714595Y-118394497D01*
X160692657Y-118353963D01*
X160692657Y-118865302D01*
X160565696Y-118865302D01*
X160565696Y-118353963D01*
X160565696Y-117821464D01*
X160692657Y-117821464D01*
X160694020Y-117875032D01*
X160698065Y-117927914D01*
X160704725Y-117980043D01*
X160713934Y-118031352D01*
X160725625Y-118081775D01*
X160739732Y-118131246D01*
X160756189Y-118179698D01*
X160774928Y-118227065D01*
X160795883Y-118273279D01*
X160818988Y-118318275D01*
X160844176Y-118361986D01*
X160871381Y-118404346D01*
X160900536Y-118445288D01*
X160931575Y-118484745D01*
X160964431Y-118522651D01*
X160999037Y-118558940D01*
X161035328Y-118593544D01*
X161073236Y-118626398D01*
X161112696Y-118657435D01*
X161153640Y-118686588D01*
X161196002Y-118713792D01*
X161239715Y-118738979D01*
X161284714Y-118762082D01*
X161330931Y-118783036D01*
X161378301Y-118801774D01*
X161426755Y-118818230D01*
X161476229Y-118832336D01*
X161526655Y-118844026D01*
X161577968Y-118853235D01*
X161630099Y-118859895D01*
X161682984Y-118863939D01*
X161736555Y-118865302D01*
X162269084Y-118865302D01*
X162780453Y-118865302D01*
X162780453Y-118353963D01*
X162758514Y-118394497D01*
X162735047Y-118434080D01*
X162710091Y-118472672D01*
X162683689Y-118510230D01*
X162655882Y-118546714D01*
X162626711Y-118582082D01*
X162596218Y-118616293D01*
X162564443Y-118649306D01*
X162531429Y-118681078D01*
X162497216Y-118711570D01*
X162461846Y-118740739D01*
X162425360Y-118768545D01*
X162387799Y-118794945D01*
X162349206Y-118819899D01*
X162309620Y-118843365D01*
X162269084Y-118865302D01*
X161736555Y-118865302D01*
X161790126Y-118863939D01*
X161843011Y-118859895D01*
X161895142Y-118853235D01*
X161946455Y-118844026D01*
X161996881Y-118832336D01*
X162046355Y-118818230D01*
X162094809Y-118801774D01*
X162142178Y-118783036D01*
X162188396Y-118762082D01*
X162233394Y-118738979D01*
X162277108Y-118713792D01*
X162319470Y-118686588D01*
X162360414Y-118657435D01*
X162399873Y-118626398D01*
X162437782Y-118593544D01*
X162474072Y-118558940D01*
X162508679Y-118522651D01*
X162541535Y-118484745D01*
X162572573Y-118445288D01*
X162601728Y-118404346D01*
X162628933Y-118361986D01*
X162654122Y-118318275D01*
X162677227Y-118273279D01*
X162698182Y-118227065D01*
X162716921Y-118179698D01*
X162733377Y-118131246D01*
X162747484Y-118081775D01*
X162759175Y-118031352D01*
X162768384Y-117980043D01*
X162775045Y-117927914D01*
X162779090Y-117875032D01*
X162780453Y-117821464D01*
X162779090Y-117767896D01*
X162775045Y-117715015D01*
X162768384Y-117662886D01*
X162759175Y-117611577D01*
X162747484Y-117561154D01*
X162733377Y-117511683D01*
X162716921Y-117463231D01*
X162698182Y-117415864D01*
X162677227Y-117369650D01*
X162654122Y-117324653D01*
X162628933Y-117280942D01*
X162601728Y-117238583D01*
X162572573Y-117197641D01*
X162541535Y-117158184D01*
X162508679Y-117120278D01*
X162474072Y-117083989D01*
X162437782Y-117049385D01*
X162399873Y-117016531D01*
X162360414Y-116985494D01*
X162319470Y-116956340D01*
X162277108Y-116929137D01*
X162233394Y-116903950D01*
X162188396Y-116880847D01*
X162142178Y-116859893D01*
X162094809Y-116841155D01*
X162046355Y-116824699D01*
X161996881Y-116810593D01*
X161946455Y-116798902D01*
X161895142Y-116789694D01*
X161843011Y-116783034D01*
X161790126Y-116778989D01*
X161736555Y-116777626D01*
X162269084Y-116777626D01*
X162309620Y-116799564D01*
X162349206Y-116823030D01*
X162387799Y-116847984D01*
X162425360Y-116874384D01*
X162461846Y-116902189D01*
X162497216Y-116931359D01*
X162531429Y-116961850D01*
X162564443Y-116993623D01*
X162596218Y-117026636D01*
X162626711Y-117060847D01*
X162655882Y-117096215D01*
X162683689Y-117132699D01*
X162710091Y-117170257D01*
X162735047Y-117208849D01*
X162758514Y-117248432D01*
X162780453Y-117288966D01*
X162780453Y-116777626D01*
X162269084Y-116777626D01*
X161736555Y-116777626D01*
X161682984Y-116778989D01*
X161630099Y-116783034D01*
X161577968Y-116789694D01*
X161526655Y-116798902D01*
X161476229Y-116810593D01*
X161426755Y-116824699D01*
X161378301Y-116841155D01*
X161330931Y-116859893D01*
X161284714Y-116880847D01*
X161239715Y-116903950D01*
X161196002Y-116929137D01*
X161153640Y-116956340D01*
X161112696Y-116985494D01*
X161073236Y-117016531D01*
X161035328Y-117049385D01*
X160999037Y-117083989D01*
X160964431Y-117120278D01*
X160931575Y-117158184D01*
X160900536Y-117197641D01*
X160871381Y-117238583D01*
X160844176Y-117280942D01*
X160818988Y-117324653D01*
X160795883Y-117369650D01*
X160774928Y-117415864D01*
X160756189Y-117463231D01*
X160739732Y-117511683D01*
X160725625Y-117561154D01*
X160713934Y-117611577D01*
X160704725Y-117662886D01*
X160698065Y-117715015D01*
X160694020Y-117767896D01*
X160692657Y-117821464D01*
X160565696Y-117821464D01*
X160565696Y-117288966D01*
X160565696Y-116777626D01*
X160692657Y-116777626D01*
X160692657Y-117288966D01*
X160714595Y-117248432D01*
X160738063Y-117208849D01*
X160763018Y-117170257D01*
X160789420Y-117132699D01*
X160817227Y-117096215D01*
X160846398Y-117060847D01*
X160876892Y-117026636D01*
X160908666Y-116993623D01*
X160941681Y-116961850D01*
X160975893Y-116931359D01*
X161011264Y-116902189D01*
X161047750Y-116874384D01*
X161085310Y-116847984D01*
X161123904Y-116823030D01*
X161163489Y-116799564D01*
X161204026Y-116777626D01*
X160692657Y-116777626D01*
X160565696Y-116777626D01*
X160565696Y-116650673D01*
X162910940Y-116650673D01*
X162910940Y-118995782D01*
G37*
D10*
X111879180Y-53739067D02*
X112907248Y-53739067D01*
X111605027Y-54732866D02*
X111605027Y-54732866D01*
D11*
X161748703Y-117589014D02*
X161760673Y-117589897D01*
X161772450Y-117591352D01*
X161784020Y-117593366D01*
X161795372Y-117595925D01*
X161806490Y-117599015D01*
X161817362Y-117602623D01*
X161827973Y-117606735D01*
X161838311Y-117611338D01*
X161848361Y-117616418D01*
X161858110Y-117621962D01*
X161867545Y-117627956D01*
X161876652Y-117634386D01*
X161885417Y-117641239D01*
X161893827Y-117648502D01*
X161901868Y-117656161D01*
X161909527Y-117664202D01*
X161916790Y-117672611D01*
X161923644Y-117681376D01*
X161930075Y-117690482D01*
X161936069Y-117699916D01*
X161941613Y-117709665D01*
X161946693Y-117719714D01*
X161951297Y-117730051D01*
X161955409Y-117740662D01*
X161959017Y-117751533D01*
X161962108Y-117762651D01*
X161964666Y-117774002D01*
X161966680Y-117785572D01*
X161968135Y-117797348D01*
X161969019Y-117809317D01*
X161969316Y-117821464D01*
X161969019Y-117833612D01*
X161968135Y-117845581D01*
X161966680Y-117857357D01*
X161964666Y-117868927D01*
X161962108Y-117880278D01*
X161959017Y-117891396D01*
X161955409Y-117902267D01*
X161951297Y-117912877D01*
X161946693Y-117923214D01*
X161941613Y-117933264D01*
X161936069Y-117943013D01*
X161930075Y-117952447D01*
X161923644Y-117961553D01*
X161916790Y-117970318D01*
X161909527Y-117978727D01*
X161901868Y-117986768D01*
X161893827Y-117994427D01*
X161885417Y-118001689D01*
X161876652Y-118008543D01*
X161867545Y-118014973D01*
X161858110Y-118020967D01*
X161848361Y-118026511D01*
X161838311Y-118031591D01*
X161827973Y-118036194D01*
X161817362Y-118040306D01*
X161806490Y-118043914D01*
X161795372Y-118047004D01*
X161784020Y-118049563D01*
X161772450Y-118051576D01*
X161760673Y-118053032D01*
X161748703Y-118053915D01*
X161736555Y-118054212D01*
X161724407Y-118053915D01*
X161712437Y-118053032D01*
X161700660Y-118051576D01*
X161689089Y-118049563D01*
X161677738Y-118047004D01*
X161666620Y-118043914D01*
X161655748Y-118040306D01*
X161645137Y-118036194D01*
X161634799Y-118031591D01*
X161624749Y-118026511D01*
X161615000Y-118020967D01*
X161605565Y-118014973D01*
X161596458Y-118008543D01*
X161587693Y-118001689D01*
X161579283Y-117994427D01*
X161571242Y-117986768D01*
X161563583Y-117978727D01*
X161556320Y-117970318D01*
X161549466Y-117961553D01*
X161543035Y-117952447D01*
X161537041Y-117943013D01*
X161531497Y-117933264D01*
X161526416Y-117923214D01*
X161521813Y-117912877D01*
X161517701Y-117902267D01*
X161514093Y-117891396D01*
X161511002Y-117880278D01*
X161508444Y-117868927D01*
X161506430Y-117857357D01*
X161504975Y-117845581D01*
X161504091Y-117833612D01*
X161503794Y-117821464D01*
X161504091Y-117809627D01*
X161504975Y-117797929D01*
X161506430Y-117786386D01*
X161508444Y-117775014D01*
X161511002Y-117763828D01*
X161514093Y-117752843D01*
X161517701Y-117742075D01*
X161521813Y-117731539D01*
X161526416Y-117721252D01*
X161531497Y-117711228D01*
X161537041Y-117701482D01*
X161543035Y-117692032D01*
X161549466Y-117682891D01*
X161556320Y-117674076D01*
X161563583Y-117665601D01*
X161571242Y-117657483D01*
X161579283Y-117649737D01*
X161587693Y-117642379D01*
X161596458Y-117635423D01*
X161605565Y-117628886D01*
X161615000Y-117622782D01*
X161624749Y-117617128D01*
X161634799Y-117611939D01*
X161645137Y-117607231D01*
X161655748Y-117603018D01*
X161666620Y-117599317D01*
X161677738Y-117596143D01*
X161689089Y-117593511D01*
X161700660Y-117591437D01*
X161712437Y-117589936D01*
X161724407Y-117589024D01*
X161736555Y-117588717D01*
X161748703Y-117589014D01*
G36*
X161748703Y-117589014D02*
G01*
X161760673Y-117589897D01*
X161772450Y-117591352D01*
X161784020Y-117593366D01*
X161795372Y-117595925D01*
X161806490Y-117599015D01*
X161817362Y-117602623D01*
X161827973Y-117606735D01*
X161838311Y-117611338D01*
X161848361Y-117616418D01*
X161858110Y-117621962D01*
X161867545Y-117627956D01*
X161876652Y-117634386D01*
X161885417Y-117641239D01*
X161893827Y-117648502D01*
X161901868Y-117656161D01*
X161909527Y-117664202D01*
X161916790Y-117672611D01*
X161923644Y-117681376D01*
X161930075Y-117690482D01*
X161936069Y-117699916D01*
X161941613Y-117709665D01*
X161946693Y-117719714D01*
X161951297Y-117730051D01*
X161955409Y-117740662D01*
X161959017Y-117751533D01*
X161962108Y-117762651D01*
X161964666Y-117774002D01*
X161966680Y-117785572D01*
X161968135Y-117797348D01*
X161969019Y-117809317D01*
X161969316Y-117821464D01*
X161969019Y-117833612D01*
X161968135Y-117845581D01*
X161966680Y-117857357D01*
X161964666Y-117868927D01*
X161962108Y-117880278D01*
X161959017Y-117891396D01*
X161955409Y-117902267D01*
X161951297Y-117912877D01*
X161946693Y-117923214D01*
X161941613Y-117933264D01*
X161936069Y-117943013D01*
X161930075Y-117952447D01*
X161923644Y-117961553D01*
X161916790Y-117970318D01*
X161909527Y-117978727D01*
X161901868Y-117986768D01*
X161893827Y-117994427D01*
X161885417Y-118001689D01*
X161876652Y-118008543D01*
X161867545Y-118014973D01*
X161858110Y-118020967D01*
X161848361Y-118026511D01*
X161838311Y-118031591D01*
X161827973Y-118036194D01*
X161817362Y-118040306D01*
X161806490Y-118043914D01*
X161795372Y-118047004D01*
X161784020Y-118049563D01*
X161772450Y-118051576D01*
X161760673Y-118053032D01*
X161748703Y-118053915D01*
X161736555Y-118054212D01*
X161724407Y-118053915D01*
X161712437Y-118053032D01*
X161700660Y-118051576D01*
X161689089Y-118049563D01*
X161677738Y-118047004D01*
X161666620Y-118043914D01*
X161655748Y-118040306D01*
X161645137Y-118036194D01*
X161634799Y-118031591D01*
X161624749Y-118026511D01*
X161615000Y-118020967D01*
X161605565Y-118014973D01*
X161596458Y-118008543D01*
X161587693Y-118001689D01*
X161579283Y-117994427D01*
X161571242Y-117986768D01*
X161563583Y-117978727D01*
X161556320Y-117970318D01*
X161549466Y-117961553D01*
X161543035Y-117952447D01*
X161537041Y-117943013D01*
X161531497Y-117933264D01*
X161526416Y-117923214D01*
X161521813Y-117912877D01*
X161517701Y-117902267D01*
X161514093Y-117891396D01*
X161511002Y-117880278D01*
X161508444Y-117868927D01*
X161506430Y-117857357D01*
X161504975Y-117845581D01*
X161504091Y-117833612D01*
X161503794Y-117821464D01*
X161504091Y-117809627D01*
X161504975Y-117797929D01*
X161506430Y-117786386D01*
X161508444Y-117775014D01*
X161511002Y-117763828D01*
X161514093Y-117752843D01*
X161517701Y-117742075D01*
X161521813Y-117731539D01*
X161526416Y-117721252D01*
X161531497Y-117711228D01*
X161537041Y-117701482D01*
X161543035Y-117692032D01*
X161549466Y-117682891D01*
X161556320Y-117674076D01*
X161563583Y-117665601D01*
X161571242Y-117657483D01*
X161579283Y-117649737D01*
X161587693Y-117642379D01*
X161596458Y-117635423D01*
X161605565Y-117628886D01*
X161615000Y-117622782D01*
X161624749Y-117617128D01*
X161634799Y-117611939D01*
X161645137Y-117607231D01*
X161655748Y-117603018D01*
X161666620Y-117599317D01*
X161677738Y-117596143D01*
X161689089Y-117593511D01*
X161700660Y-117591437D01*
X161712437Y-117589936D01*
X161724407Y-117589024D01*
X161736555Y-117588717D01*
X161748703Y-117589014D01*
G37*
D10*
X111879180Y-54767135D02*
X111879180Y-53739067D01*
X112941516Y-55795204D02*
X112427481Y-54767135D01*
X112907248Y-53739067D02*
X112907248Y-54767135D01*
X110576959Y-55760934D02*
X110420394Y-55749088D01*
X110271242Y-55714714D01*
X110131248Y-55659555D01*
X109961848Y-55556693D01*
X109815963Y-55424115D01*
X109697726Y-55265956D01*
X109611272Y-55086350D01*
X109569776Y-54940057D01*
X109550227Y-54785770D01*
X109548890Y-54732866D01*
D12*
G36*
X99324569Y-87454956D02*
G01*
X100543538Y-87047045D01*
X100995447Y-87434925D01*
X99117965Y-88060928D01*
X99117964Y-88060929D01*
X100995448Y-87434925D01*
X100458872Y-89319287D01*
X100435047Y-89321942D01*
X100458864Y-89319324D01*
X100119145Y-90341914D01*
X100120620Y-90341420D01*
X100458864Y-89319324D01*
X100413884Y-90243284D01*
X100738271Y-90134732D01*
X100738271Y-90134203D01*
X101184889Y-90540074D01*
X100391635Y-90797915D01*
X100391635Y-90797916D01*
X101184889Y-90540075D01*
X100121793Y-92408562D01*
X100116120Y-92420128D01*
X99775135Y-93443671D01*
X99133880Y-95316890D01*
X98057402Y-94695641D01*
X98026293Y-95225846D01*
X95555614Y-95386712D01*
X95559540Y-95289345D01*
X95650863Y-95289345D01*
X97941097Y-95140120D01*
X97966497Y-94704616D01*
X95664622Y-94943800D01*
X95650863Y-95289345D01*
X95559540Y-95289345D01*
X95576780Y-94861779D01*
X95577504Y-94861704D01*
X96244431Y-94603600D01*
X96258633Y-94598104D01*
X95163501Y-93925682D01*
X95165466Y-93875941D01*
X95256105Y-93875941D01*
X96267872Y-94497183D01*
X96654164Y-94347957D01*
X95271947Y-93483080D01*
X95256105Y-93875941D01*
X95165466Y-93875941D01*
X95187312Y-93323008D01*
X95187387Y-93323008D01*
X96855254Y-94367210D01*
X96855776Y-94367008D01*
X95570425Y-93562695D01*
X96907143Y-93562695D01*
X97067443Y-93690749D01*
X97848481Y-93533033D01*
X97857989Y-93378520D01*
X97857989Y-93377991D01*
X96907143Y-93562695D01*
X95570425Y-93562695D01*
X95187387Y-93323008D01*
X95187312Y-93323008D01*
X95187314Y-93322962D01*
X95223308Y-93307091D01*
X99133880Y-93307091D01*
X99133880Y-93323008D01*
X99367062Y-92618485D01*
X99358483Y-92631191D01*
X99133880Y-93307091D01*
X95223308Y-93307091D01*
X95465970Y-93200092D01*
X93797839Y-92237393D01*
X94953951Y-93161566D01*
X94953952Y-93161567D01*
X94953951Y-93161567D01*
X94917439Y-93783867D01*
X92446760Y-93944733D01*
X92450588Y-93847367D01*
X92541480Y-93847367D01*
X94831714Y-93698141D01*
X94857114Y-93262637D01*
X92555239Y-93501821D01*
X92541480Y-93847367D01*
X92450588Y-93847367D01*
X92467397Y-93419799D01*
X93148830Y-93156192D01*
X92053589Y-92483703D01*
X92055533Y-92434491D01*
X92146193Y-92434491D01*
X93158489Y-93055204D01*
X93544780Y-92905979D01*
X92162068Y-92040791D01*
X92146193Y-92434491D01*
X92055533Y-92434491D01*
X92077401Y-91880983D01*
X93745544Y-92925357D01*
X93746393Y-92925029D01*
X92460635Y-92120716D01*
X93797772Y-92120716D01*
X93958072Y-92248770D01*
X94739110Y-92091054D01*
X94748618Y-91936541D01*
X94748618Y-91936012D01*
X93797772Y-92120716D01*
X92460635Y-92120716D01*
X92077402Y-91880983D01*
X93541560Y-91235572D01*
X93541560Y-90139532D01*
X93825780Y-90139532D01*
X99082513Y-93188028D01*
X99391454Y-92254575D01*
X99503196Y-92254575D01*
X99871497Y-91709533D01*
X99871496Y-91709533D01*
X99653479Y-91753453D01*
X99652950Y-91753453D01*
X99503196Y-92254575D01*
X99391454Y-92254575D01*
X99567236Y-91723456D01*
X99581512Y-91675666D01*
X99583165Y-91675326D01*
X99583308Y-91674896D01*
X98355964Y-91922258D01*
X97902468Y-91494691D01*
X97910612Y-91483578D01*
X98022589Y-91483578D01*
X98340089Y-91783087D01*
X98426584Y-91655005D01*
X99682769Y-91655005D01*
X99686126Y-91654327D01*
X99686180Y-91654162D01*
X99682824Y-91654839D01*
X99682769Y-91655005D01*
X98426584Y-91655005D01*
X98768553Y-91148616D01*
X98768554Y-91148615D01*
X99312698Y-91148615D01*
X99312698Y-91148616D01*
X99811105Y-90986613D01*
X99811106Y-90986611D01*
X99312698Y-91148615D01*
X98768554Y-91148615D01*
X98774653Y-91139584D01*
X99315773Y-91139584D01*
X99361361Y-91005741D01*
X99457158Y-91005741D01*
X99621290Y-90952430D01*
X99916269Y-90952430D01*
X99918602Y-90951672D01*
X99918603Y-90951670D01*
X99916270Y-90952428D01*
X99916269Y-90952430D01*
X99621290Y-90952430D01*
X101008145Y-90501974D01*
X100716575Y-90237391D01*
X100716575Y-90236861D01*
X99590508Y-90613628D01*
X99457158Y-91005741D01*
X99361361Y-91005741D01*
X99519071Y-90542720D01*
X100012710Y-90377531D01*
X100328121Y-89424641D01*
X99398370Y-89526861D01*
X99755080Y-89850570D01*
X99754016Y-89852146D01*
X99315773Y-91139584D01*
X98774653Y-91139584D01*
X99635488Y-89864858D01*
X99379372Y-89632553D01*
X98022589Y-91483578D01*
X97910612Y-91483578D01*
X98734959Y-90358819D01*
X98715359Y-90346318D01*
X98684242Y-90328665D01*
X98651510Y-90312137D01*
X98617261Y-90296765D01*
X98581595Y-90282576D01*
X98544609Y-90269599D01*
X98506403Y-90257861D01*
X98467076Y-90247392D01*
X98426725Y-90238218D01*
X98385451Y-90230369D01*
X98343350Y-90223873D01*
X98300523Y-90218758D01*
X98257068Y-90215053D01*
X98213083Y-90212785D01*
X98168668Y-90211983D01*
X98133270Y-90212451D01*
X98098256Y-90213838D01*
X98063666Y-90216126D01*
X98029538Y-90219294D01*
X97995912Y-90223324D01*
X97962826Y-90228195D01*
X97930320Y-90233888D01*
X97898431Y-90240383D01*
X97867200Y-90247662D01*
X97836665Y-90255705D01*
X97806865Y-90264492D01*
X97777840Y-90274004D01*
X97749627Y-90284221D01*
X97722266Y-90295123D01*
X97695797Y-90306692D01*
X97670257Y-90318908D01*
X97645686Y-90331751D01*
X97622123Y-90345202D01*
X97599606Y-90359241D01*
X97578176Y-90373850D01*
X97557870Y-90389007D01*
X97538728Y-90404695D01*
X97520788Y-90420893D01*
X97504090Y-90437582D01*
X97488672Y-90454742D01*
X97474574Y-90472355D01*
X97461835Y-90490400D01*
X97450492Y-90508858D01*
X97440587Y-90527709D01*
X97432156Y-90546935D01*
X97425240Y-90566515D01*
X97419877Y-90586431D01*
X97416825Y-90576896D01*
X97414153Y-90567328D01*
X97411861Y-90557731D01*
X97409950Y-90548108D01*
X97408421Y-90538463D01*
X97407275Y-90528800D01*
X97406511Y-90519121D01*
X97406130Y-90509432D01*
X97406360Y-90498762D01*
X97407053Y-90488124D01*
X97408206Y-90477522D01*
X97409816Y-90466960D01*
X97411879Y-90456444D01*
X97414392Y-90445976D01*
X97420756Y-90425207D01*
X97428882Y-90404688D01*
X97438745Y-90384455D01*
X97450319Y-90364542D01*
X97463579Y-90344985D01*
X97478498Y-90325819D01*
X97495052Y-90307080D01*
X97513214Y-90288802D01*
X97532959Y-90271021D01*
X97554261Y-90253771D01*
X97577095Y-90237089D01*
X97601435Y-90221010D01*
X97627255Y-90205568D01*
X97654388Y-90190873D01*
X97682642Y-90177020D01*
X97711955Y-90164024D01*
X97742265Y-90151900D01*
X97773510Y-90140662D01*
X97805629Y-90130324D01*
X97838559Y-90120901D01*
X97872238Y-90112409D01*
X97906605Y-90104860D01*
X97941598Y-90098271D01*
X97977154Y-90092655D01*
X98013212Y-90088028D01*
X98049711Y-90084403D01*
X98086587Y-90081795D01*
X98123779Y-90080220D01*
X98161226Y-90079691D01*
X98213367Y-90080717D01*
X98264820Y-90083752D01*
X98315435Y-90088746D01*
X98365059Y-90095645D01*
X98413544Y-90104399D01*
X98460737Y-90114955D01*
X98506488Y-90127263D01*
X98550646Y-90141270D01*
X98593061Y-90156925D01*
X98633581Y-90174176D01*
X98672056Y-90192972D01*
X98708335Y-90213260D01*
X98742267Y-90234989D01*
X98773701Y-90258108D01*
X98795313Y-90276470D01*
X99340006Y-89533278D01*
X93825780Y-90139532D01*
X93541560Y-90139532D01*
X93541560Y-90079691D01*
X95190526Y-89898433D01*
X95252815Y-89796066D01*
X95358764Y-89796066D01*
X95597418Y-89769608D01*
X96038214Y-88973741D01*
X96038213Y-88973212D01*
X95834485Y-89014487D01*
X95358764Y-89796066D01*
X95252815Y-89796066D01*
X95777334Y-88934054D01*
X96212309Y-88846212D01*
X94497810Y-89191758D01*
X94044314Y-88764191D01*
X94052458Y-88753079D01*
X94164964Y-88753079D01*
X94482464Y-89052587D01*
X95777864Y-87134358D01*
X95521747Y-86902054D01*
X94164964Y-88753079D01*
X94052458Y-88753079D01*
X95507989Y-86767116D01*
X95896926Y-87120070D01*
X95895859Y-87121651D01*
X95454543Y-88417587D01*
X95503028Y-88275241D01*
X95599006Y-88275241D01*
X97149993Y-87771475D01*
X96858422Y-87506891D01*
X96858422Y-87506362D01*
X95732355Y-87883129D01*
X95599006Y-88275241D01*
X95503028Y-88275241D01*
X95660918Y-87811691D01*
X96880118Y-87403704D01*
X96880118Y-87403175D01*
X97326735Y-87809045D01*
X95454984Y-88417444D01*
X97326735Y-87809575D01*
X96775872Y-89709812D01*
X96772473Y-89724541D01*
X98884398Y-89492394D01*
X98949174Y-89385962D01*
X99054993Y-89385962D01*
X99291001Y-89358445D01*
X99701634Y-88617083D01*
X99701634Y-88616554D01*
X99497905Y-88657829D01*
X99054993Y-89385962D01*
X98949174Y-89385962D01*
X99441284Y-88577395D01*
X99867601Y-88491302D01*
X99875291Y-88491302D01*
X99876261Y-88489554D01*
X99876259Y-88489554D01*
X99875291Y-88491302D01*
X99867601Y-88491302D01*
X99875107Y-88489787D01*
X98161231Y-88835100D01*
X98780917Y-87917525D01*
X99262955Y-87917525D01*
X100815000Y-87400000D01*
X100523430Y-87149704D01*
X100523429Y-87149704D01*
X99395775Y-87526999D01*
X99262955Y-87917525D01*
X98780917Y-87917525D01*
X99560348Y-86763413D01*
X99324569Y-87454956D01*
G37*
D11*
X162431222Y-113362313D02*
X162438322Y-113362561D01*
X162453462Y-113363553D01*
X162470751Y-113365206D01*
X162491264Y-113367520D01*
X162512948Y-113370566D01*
X162534350Y-113374403D01*
X162555455Y-113379017D01*
X162576249Y-113384395D01*
X162596717Y-113390522D01*
X162616845Y-113397384D01*
X162636619Y-113404966D01*
X162656026Y-113413254D01*
X162675050Y-113422235D01*
X162693678Y-113431894D01*
X162729687Y-113453189D01*
X162763939Y-113477025D01*
X162796322Y-113503290D01*
X162826721Y-113531868D01*
X162855022Y-113562648D01*
X162881112Y-113595514D01*
X162904878Y-113630353D01*
X162926205Y-113667052D01*
X162944980Y-113705498D01*
X162961089Y-113745575D01*
X162968109Y-113766191D01*
X162974419Y-113787171D01*
X162979076Y-113802214D01*
X162980960Y-113809302D01*
X162982575Y-113816265D01*
X162983942Y-113823228D01*
X162985082Y-113830316D01*
X162986016Y-113837651D01*
X162986763Y-113845358D01*
X162987782Y-113862385D01*
X162988306Y-113882386D01*
X162988526Y-113935284D01*
X162988347Y-113965086D01*
X162988108Y-113977785D01*
X162987755Y-113989228D01*
X162987278Y-113999576D01*
X162986667Y-114008988D01*
X162985911Y-114017626D01*
X162985000Y-114025650D01*
X162983924Y-114033218D01*
X162982672Y-114040493D01*
X162981234Y-114047633D01*
X162979600Y-114054798D01*
X162975701Y-114069848D01*
X162970893Y-114086922D01*
X162964221Y-114108071D01*
X162957352Y-114128000D01*
X162950173Y-114146897D01*
X162942570Y-114164946D01*
X162934430Y-114182334D01*
X162925639Y-114199246D01*
X162916084Y-114215870D01*
X162905650Y-114232390D01*
X162894224Y-114248992D01*
X162881693Y-114265864D01*
X162867943Y-114283189D01*
X162852860Y-114301156D01*
X162836330Y-114319949D01*
X162818241Y-114339754D01*
X162776926Y-114383147D01*
X162744911Y-114417750D01*
X162719177Y-114445742D01*
X162695813Y-114471309D01*
X162699832Y-114474928D01*
X162705153Y-114479105D01*
X162711590Y-114483737D01*
X162718956Y-114488721D01*
X162735736Y-114499328D01*
X162754003Y-114510100D01*
X162772270Y-114520211D01*
X162789049Y-114528834D01*
X162796416Y-114532330D01*
X162802853Y-114535143D01*
X162808174Y-114537172D01*
X162812193Y-114538312D01*
X162817760Y-114539551D01*
X162823834Y-114540626D01*
X162830341Y-114541535D01*
X162837210Y-114542279D01*
X162844369Y-114542858D01*
X162851744Y-114543271D01*
X162859264Y-114543519D01*
X162866856Y-114543601D01*
X162874449Y-114543519D01*
X162881969Y-114543271D01*
X162889344Y-114542858D01*
X162896503Y-114542279D01*
X162903372Y-114541535D01*
X162909879Y-114540626D01*
X162915952Y-114539551D01*
X162921520Y-114538312D01*
X162925738Y-114537013D01*
X162931624Y-114534537D01*
X162938947Y-114531028D01*
X162947474Y-114526630D01*
X162967208Y-114515748D01*
X162988968Y-114503047D01*
X163010892Y-114489685D01*
X163031122Y-114476819D01*
X163047798Y-114465606D01*
X163054222Y-114460981D01*
X163059060Y-114457203D01*
X163059844Y-114456594D01*
X163060865Y-114454813D01*
X163063579Y-114448001D01*
X163067119Y-114437304D01*
X163071404Y-114423260D01*
X163094327Y-114344355D01*
X163107332Y-114300715D01*
X163119014Y-114262365D01*
X163128051Y-114233271D01*
X163133121Y-114217402D01*
X163135227Y-114213559D01*
X163137571Y-114209963D01*
X163140142Y-114206616D01*
X163142930Y-114203517D01*
X163145924Y-114200665D01*
X163149115Y-114198062D01*
X163152492Y-114195706D01*
X163156044Y-114193598D01*
X163159762Y-114191739D01*
X163163635Y-114190127D01*
X163167652Y-114188763D01*
X163171804Y-114187647D01*
X163176080Y-114186780D01*
X163180469Y-114186160D01*
X163184962Y-114185788D01*
X163187462Y-114185720D01*
X163188364Y-114185755D01*
X163190761Y-114186026D01*
X163193204Y-114186469D01*
X163195684Y-114187076D01*
X163198192Y-114187840D01*
X163200720Y-114188755D01*
X163203259Y-114189814D01*
X163205802Y-114191009D01*
X163208340Y-114192332D01*
X163210864Y-114193778D01*
X163215838Y-114197008D01*
X163220657Y-114200640D01*
X163225254Y-114204619D01*
X163229562Y-114208886D01*
X163233513Y-114213387D01*
X163235334Y-114215706D01*
X163237040Y-114218062D01*
X163238624Y-114220448D01*
X163240077Y-114222857D01*
X163241391Y-114225281D01*
X163242556Y-114227714D01*
X163243565Y-114230148D01*
X163244410Y-114232576D01*
X163245081Y-114234991D01*
X163245571Y-114237386D01*
X163245872Y-114239754D01*
X163245973Y-114242087D01*
X163228561Y-114315537D01*
X163180730Y-114501724D01*
X163020266Y-115102548D01*
X162794558Y-115948904D01*
X160678549Y-115948904D01*
X160667969Y-115913639D01*
X160409640Y-114957081D01*
X160327071Y-114644106D01*
X160459896Y-114644106D01*
X160461935Y-114656104D01*
X160470256Y-114690501D01*
X160503098Y-114816904D01*
X160615070Y-115233028D01*
X160773770Y-115821950D01*
X162695812Y-115821950D01*
X162854513Y-115236555D01*
X162858040Y-115233028D01*
X162920033Y-115006121D01*
X162970453Y-114819548D01*
X163004343Y-114692485D01*
X163016741Y-114644106D01*
X163016690Y-114643796D01*
X163016539Y-114643526D01*
X163016291Y-114643297D01*
X163015949Y-114643107D01*
X163014998Y-114642843D01*
X163013710Y-114642728D01*
X163012113Y-114642758D01*
X163010232Y-114642928D01*
X163008092Y-114643232D01*
X163005720Y-114643665D01*
X163003141Y-114644222D01*
X163000382Y-114644898D01*
X162994424Y-114646585D01*
X162988052Y-114648686D01*
X162984776Y-114649879D01*
X162981474Y-114651159D01*
X162976257Y-114653642D01*
X162971142Y-114655815D01*
X162966069Y-114657699D01*
X162960975Y-114659314D01*
X162955799Y-114660681D01*
X162950478Y-114661821D01*
X162944950Y-114662754D01*
X162939154Y-114663501D01*
X162933027Y-114664083D01*
X162926508Y-114664521D01*
X162912043Y-114665044D01*
X162895264Y-114665237D01*
X162875674Y-114665265D01*
X162859777Y-114665714D01*
X162845043Y-114665719D01*
X162831311Y-114665249D01*
X162818421Y-114664273D01*
X162806212Y-114662759D01*
X162794526Y-114660678D01*
X162783201Y-114657996D01*
X162772078Y-114654685D01*
X162760996Y-114650713D01*
X162749795Y-114646048D01*
X162738315Y-114640660D01*
X162726396Y-114634518D01*
X162713878Y-114627591D01*
X162700600Y-114619847D01*
X162671126Y-114601788D01*
X162659286Y-114594046D01*
X162647817Y-114586800D01*
X162637092Y-114580216D01*
X162627484Y-114574458D01*
X162619362Y-114569692D01*
X162613101Y-114566082D01*
X162607646Y-114562997D01*
X162504931Y-114663942D01*
X162262031Y-114905065D01*
X162177990Y-114988785D01*
X162105479Y-115060396D01*
X162044128Y-115120353D01*
X161993562Y-115169111D01*
X161953412Y-115207124D01*
X161923304Y-115234846D01*
X161902867Y-115252734D01*
X161896159Y-115258131D01*
X161891729Y-115261240D01*
X161884138Y-115264380D01*
X161875963Y-115267184D01*
X161867281Y-115269647D01*
X161858171Y-115271764D01*
X161848709Y-115273530D01*
X161838974Y-115274939D01*
X161829042Y-115275987D01*
X161818992Y-115276668D01*
X161808900Y-115276977D01*
X161798844Y-115276909D01*
X161788902Y-115276459D01*
X161779151Y-115275621D01*
X161769669Y-115274391D01*
X161760533Y-115272763D01*
X161751820Y-115270732D01*
X161743609Y-115268293D01*
X161739097Y-115266925D01*
X161734792Y-115265448D01*
X161730652Y-115263837D01*
X161726637Y-115262066D01*
X161722704Y-115260109D01*
X161718812Y-115257941D01*
X161714920Y-115255534D01*
X161710987Y-115252865D01*
X161706971Y-115249905D01*
X161702832Y-115246631D01*
X161698526Y-115243016D01*
X161694015Y-115239034D01*
X161689255Y-115234660D01*
X161684206Y-115229867D01*
X161673075Y-115218922D01*
X161634282Y-115180131D01*
X161595488Y-115215396D01*
X161592025Y-115219359D01*
X161588277Y-115223303D01*
X161584291Y-115227204D01*
X161580114Y-115231044D01*
X161575793Y-115234802D01*
X161571373Y-115238455D01*
X161566902Y-115241985D01*
X161562426Y-115245371D01*
X161557991Y-115248591D01*
X161553643Y-115251625D01*
X161545398Y-115257052D01*
X161538063Y-115261488D01*
X161534852Y-115263282D01*
X161532008Y-115264766D01*
X161525699Y-115267326D01*
X161518728Y-115269705D01*
X161511179Y-115271887D01*
X161503133Y-115273858D01*
X161494675Y-115275602D01*
X161485886Y-115277102D01*
X161476848Y-115278345D01*
X161467646Y-115279313D01*
X161458361Y-115279992D01*
X161449076Y-115280367D01*
X161439873Y-115280421D01*
X161430836Y-115280140D01*
X161422047Y-115279507D01*
X161413589Y-115278507D01*
X161405543Y-115277125D01*
X161397994Y-115275346D01*
X161394348Y-115274613D01*
X161390685Y-115273739D01*
X161383329Y-115271585D01*
X161375964Y-115268914D01*
X161368624Y-115265758D01*
X161361345Y-115262147D01*
X161354166Y-115258113D01*
X161347120Y-115253686D01*
X161340245Y-115248897D01*
X161333576Y-115243778D01*
X161327151Y-115238359D01*
X161321004Y-115232672D01*
X161315172Y-115226746D01*
X161309692Y-115220615D01*
X161304599Y-115214307D01*
X161299930Y-115207855D01*
X161295720Y-115201290D01*
X161274560Y-115169551D01*
X161256926Y-115180131D01*
X161254235Y-115181993D01*
X161251430Y-115183623D01*
X161248480Y-115185036D01*
X161245355Y-115186247D01*
X161242022Y-115187272D01*
X161238453Y-115188127D01*
X161234614Y-115188827D01*
X161230476Y-115189388D01*
X161226008Y-115189824D01*
X161221177Y-115190152D01*
X161210308Y-115190545D01*
X161197620Y-115190690D01*
X161182866Y-115190710D01*
X161174632Y-115190668D01*
X161167086Y-115190538D01*
X161160169Y-115190315D01*
X161153826Y-115189994D01*
X161148000Y-115189570D01*
X161142633Y-115189037D01*
X161137670Y-115188390D01*
X161133052Y-115187625D01*
X161128724Y-115186735D01*
X161124628Y-115185717D01*
X161120708Y-115184564D01*
X161116906Y-115183272D01*
X161113167Y-115181835D01*
X161109433Y-115180248D01*
X161105647Y-115178506D01*
X161101753Y-115176605D01*
X161093953Y-115172164D01*
X161086425Y-115167444D01*
X161079174Y-115162456D01*
X161072203Y-115157209D01*
X161065516Y-115151714D01*
X161059117Y-115145982D01*
X161047199Y-115133846D01*
X161036480Y-115120883D01*
X161026990Y-115107177D01*
X161018760Y-115092809D01*
X161011822Y-115077863D01*
X161006207Y-115062421D01*
X161001945Y-115046565D01*
X160999067Y-115030380D01*
X160997605Y-115013946D01*
X160997590Y-114997346D01*
X160998134Y-114989011D01*
X160999052Y-114980664D01*
X161000346Y-114972318D01*
X161002022Y-114963983D01*
X161004083Y-114955667D01*
X161006532Y-114947383D01*
X161007813Y-114944082D01*
X161009012Y-114940806D01*
X161010128Y-114937581D01*
X161011161Y-114934434D01*
X161012111Y-114931391D01*
X161012979Y-114928477D01*
X161014467Y-114923139D01*
X161015624Y-114918627D01*
X161016451Y-114915149D01*
X161017112Y-114912118D01*
X161011786Y-114909313D01*
X161006408Y-114906209D01*
X161001010Y-114902836D01*
X160995621Y-114899225D01*
X160990275Y-114895407D01*
X160985000Y-114891414D01*
X160979829Y-114887276D01*
X160974792Y-114883025D01*
X160969920Y-114878691D01*
X160965245Y-114874305D01*
X160960797Y-114869899D01*
X160956607Y-114865503D01*
X160952707Y-114861148D01*
X160949127Y-114856866D01*
X160945898Y-114852687D01*
X160943052Y-114848642D01*
X160938006Y-114841564D01*
X160933436Y-114834832D01*
X160929320Y-114828379D01*
X160925639Y-114822138D01*
X160922370Y-114816042D01*
X160919495Y-114810023D01*
X160916991Y-114804014D01*
X160914838Y-114797949D01*
X160913016Y-114791759D01*
X160911504Y-114785379D01*
X160910282Y-114778740D01*
X160909328Y-114771776D01*
X160908622Y-114764419D01*
X160908143Y-114756602D01*
X160907871Y-114748259D01*
X160907788Y-114739614D01*
X161029594Y-114739614D01*
X161029627Y-114743199D01*
X161029932Y-114746750D01*
X161030498Y-114750260D01*
X161031315Y-114753719D01*
X161032375Y-114757119D01*
X161033668Y-114760452D01*
X161035183Y-114763709D01*
X161036911Y-114766883D01*
X161038843Y-114769964D01*
X161040969Y-114772945D01*
X161043278Y-114775816D01*
X161045762Y-114778570D01*
X161048411Y-114781198D01*
X161051214Y-114783692D01*
X161054163Y-114786043D01*
X161057248Y-114788242D01*
X161060458Y-114790283D01*
X161063785Y-114792155D01*
X161067218Y-114793851D01*
X161070748Y-114795363D01*
X161074365Y-114796681D01*
X161078060Y-114797798D01*
X161081822Y-114798706D01*
X161085643Y-114799394D01*
X161089512Y-114799857D01*
X161093419Y-114800084D01*
X161097356Y-114800068D01*
X161101313Y-114799800D01*
X161105278Y-114799271D01*
X161108571Y-114797881D01*
X161113269Y-114794925D01*
X161127541Y-114783678D01*
X161149417Y-114764247D01*
X161180220Y-114735354D01*
X161273898Y-114644051D01*
X161419153Y-114499520D01*
X161715394Y-114203296D01*
X161757715Y-114245614D01*
X161762258Y-114249577D01*
X161766621Y-114253514D01*
X161770787Y-114257399D01*
X161774742Y-114261207D01*
X161778469Y-114264912D01*
X161781954Y-114268488D01*
X161785180Y-114271908D01*
X161788132Y-114275148D01*
X161790795Y-114278181D01*
X161793154Y-114280982D01*
X161795192Y-114283524D01*
X161796894Y-114285783D01*
X161798245Y-114287731D01*
X161799229Y-114289344D01*
X161799831Y-114290595D01*
X161799984Y-114291076D01*
X161800035Y-114291458D01*
X161793161Y-114299496D01*
X161773475Y-114320056D01*
X161701288Y-114393285D01*
X161465000Y-114630000D01*
X161334678Y-114760976D01*
X161226508Y-114871123D01*
X161184346Y-114914770D01*
X161152062Y-114948871D01*
X161131102Y-114971979D01*
X161125320Y-114978959D01*
X161122912Y-114982648D01*
X161121092Y-114986624D01*
X161119595Y-114990610D01*
X161118414Y-114994596D01*
X161117539Y-114998572D01*
X161116965Y-115002528D01*
X161116682Y-115006452D01*
X161116683Y-115010335D01*
X161116961Y-115014166D01*
X161117507Y-115017935D01*
X161118314Y-115021632D01*
X161119374Y-115025247D01*
X161120680Y-115028768D01*
X161122224Y-115032186D01*
X161123997Y-115035490D01*
X161125992Y-115038671D01*
X161128202Y-115041717D01*
X161130618Y-115044618D01*
X161133234Y-115047365D01*
X161136040Y-115049946D01*
X161139030Y-115052351D01*
X161142195Y-115054571D01*
X161145529Y-115056594D01*
X161149022Y-115058411D01*
X161152668Y-115060010D01*
X161156459Y-115061383D01*
X161160386Y-115062517D01*
X161164443Y-115063404D01*
X161168621Y-115064033D01*
X161172913Y-115064393D01*
X161177310Y-115064474D01*
X161181806Y-115064265D01*
X161186392Y-115063757D01*
X161191092Y-115062782D01*
X161196221Y-115060913D01*
X161202208Y-115057752D01*
X161209481Y-115052902D01*
X161229601Y-115036544D01*
X161260012Y-115008656D01*
X161304144Y-114966056D01*
X161365427Y-114905561D01*
X161553167Y-114718162D01*
X161895255Y-114376094D01*
X161941102Y-114421938D01*
X161986949Y-114467782D01*
X161687181Y-114767533D01*
X161591272Y-114863478D01*
X161552131Y-114902715D01*
X161518341Y-114936694D01*
X161489511Y-114965837D01*
X161465248Y-114990569D01*
X161445159Y-115011313D01*
X161436557Y-115020322D01*
X161428852Y-115028492D01*
X161421993Y-115035878D01*
X161415933Y-115042531D01*
X161410622Y-115048505D01*
X161406011Y-115053853D01*
X161402050Y-115058627D01*
X161398692Y-115062881D01*
X161395887Y-115066667D01*
X161393585Y-115070039D01*
X161391737Y-115073049D01*
X161390296Y-115075750D01*
X161389210Y-115078196D01*
X161388432Y-115080439D01*
X161387913Y-115082532D01*
X161387602Y-115084529D01*
X161387452Y-115086481D01*
X161387413Y-115088443D01*
X161387485Y-115092678D01*
X161387701Y-115096790D01*
X161388058Y-115100776D01*
X161388556Y-115104636D01*
X161389194Y-115108369D01*
X161389970Y-115111975D01*
X161390883Y-115115454D01*
X161391931Y-115118803D01*
X161393114Y-115122024D01*
X161394430Y-115125115D01*
X161395878Y-115128076D01*
X161397456Y-115130905D01*
X161399163Y-115133603D01*
X161400998Y-115136168D01*
X161402960Y-115138600D01*
X161405046Y-115140899D01*
X161407257Y-115143063D01*
X161409591Y-115145093D01*
X161412046Y-115146986D01*
X161414621Y-115148744D01*
X161417315Y-115150365D01*
X161420126Y-115151848D01*
X161423054Y-115153193D01*
X161426096Y-115154399D01*
X161429253Y-115155465D01*
X161432521Y-115156392D01*
X161435901Y-115157178D01*
X161439390Y-115157822D01*
X161442988Y-115158324D01*
X161446693Y-115158684D01*
X161450504Y-115158900D01*
X161454420Y-115158972D01*
X161457326Y-115158589D01*
X161460971Y-115157230D01*
X161471778Y-115150321D01*
X161489446Y-115135726D01*
X161516578Y-115110924D01*
X161555778Y-115073393D01*
X161609649Y-115020613D01*
X161771821Y-114859221D01*
X162071589Y-114559471D01*
X162117436Y-114605315D01*
X162163283Y-114651159D01*
X161951682Y-114862748D01*
X161743608Y-115074337D01*
X161743608Y-115099022D01*
X161744371Y-115103568D01*
X161745335Y-115107945D01*
X161746492Y-115112152D01*
X161747837Y-115116186D01*
X161749363Y-115120045D01*
X161751063Y-115123725D01*
X161752930Y-115127224D01*
X161754959Y-115130540D01*
X161757144Y-115133670D01*
X161759476Y-115136611D01*
X161761951Y-115139362D01*
X161764561Y-115141918D01*
X161767301Y-115144279D01*
X161770163Y-115146440D01*
X161773141Y-115148400D01*
X161776230Y-115150156D01*
X161779421Y-115151705D01*
X161782710Y-115153045D01*
X161786088Y-115154174D01*
X161789551Y-115155088D01*
X161793091Y-115155785D01*
X161796703Y-115156262D01*
X161800378Y-115156517D01*
X161804112Y-115156548D01*
X161807898Y-115156351D01*
X161811729Y-115155924D01*
X161815598Y-115155265D01*
X161819500Y-115154371D01*
X161823428Y-115153240D01*
X161827375Y-115151868D01*
X161831335Y-115150253D01*
X161835301Y-115148393D01*
X161848540Y-115137483D01*
X161879054Y-115108720D01*
X161984304Y-115005570D01*
X162318457Y-114672318D01*
X162536836Y-114453235D01*
X162619058Y-114370060D01*
X162684791Y-114302919D01*
X162735150Y-114250656D01*
X162771250Y-114212112D01*
X162784302Y-114197624D01*
X162794208Y-114186132D01*
X162801107Y-114177492D01*
X162805139Y-114171558D01*
X162817943Y-114147918D01*
X162829257Y-114123977D01*
X162839099Y-114099787D01*
X162847487Y-114075399D01*
X162854438Y-114050864D01*
X162859971Y-114026233D01*
X162864104Y-114001556D01*
X162866856Y-113976885D01*
X162868243Y-113952271D01*
X162868285Y-113927765D01*
X162866999Y-113903418D01*
X162864404Y-113879280D01*
X162860517Y-113855404D01*
X162855356Y-113831839D01*
X162848940Y-113808637D01*
X162841287Y-113785849D01*
X162832415Y-113763526D01*
X162822342Y-113741719D01*
X162811085Y-113720479D01*
X162798664Y-113699857D01*
X162785096Y-113679904D01*
X162770399Y-113660670D01*
X162754591Y-113642208D01*
X162737691Y-113624568D01*
X162719716Y-113607801D01*
X162700685Y-113591957D01*
X162680615Y-113577089D01*
X162659526Y-113563247D01*
X162637433Y-113550482D01*
X162614357Y-113538845D01*
X162590315Y-113528387D01*
X162565325Y-113519159D01*
X162552828Y-113514779D01*
X162539247Y-113510894D01*
X162524735Y-113507505D01*
X162509449Y-113504612D01*
X162493543Y-113502215D01*
X162477171Y-113500314D01*
X162460490Y-113498909D01*
X162443654Y-113498000D01*
X162426818Y-113497587D01*
X162410137Y-113497670D01*
X162393766Y-113498248D01*
X162377860Y-113499323D01*
X162362573Y-113500893D01*
X162348062Y-113502959D01*
X162334480Y-113505522D01*
X162321984Y-113508580D01*
X162288811Y-113517396D01*
X162263339Y-113526432D01*
X162223237Y-113542081D01*
X162073022Y-113603795D01*
X161785928Y-113723695D01*
X161634770Y-113785994D01*
X161574573Y-113810844D01*
X161523576Y-113831969D01*
X161480990Y-113849726D01*
X161446023Y-113864472D01*
X161431151Y-113870827D01*
X161417886Y-113876562D01*
X161406132Y-113881723D01*
X161395789Y-113886354D01*
X161386758Y-113890499D01*
X161378940Y-113894203D01*
X161372236Y-113897511D01*
X161366549Y-113900467D01*
X161361778Y-113903115D01*
X161357826Y-113905501D01*
X161354593Y-113907668D01*
X161351981Y-113909662D01*
X161349890Y-113911526D01*
X161348222Y-113913306D01*
X161346879Y-113915046D01*
X161345761Y-113916790D01*
X161341566Y-113924704D01*
X161340295Y-113927039D01*
X161339128Y-113929410D01*
X161338063Y-113931816D01*
X161337103Y-113934251D01*
X161336245Y-113936711D01*
X161335491Y-113939194D01*
X161334840Y-113941695D01*
X161334292Y-113944210D01*
X161333848Y-113946736D01*
X161333507Y-113949267D01*
X161333269Y-113951802D01*
X161333135Y-113954335D01*
X161333104Y-113956863D01*
X161333176Y-113959382D01*
X161333352Y-113961888D01*
X161333631Y-113964377D01*
X161334013Y-113966846D01*
X161334499Y-113969290D01*
X161335088Y-113971705D01*
X161335780Y-113974089D01*
X161336576Y-113976436D01*
X161337474Y-113978743D01*
X161338477Y-113981006D01*
X161339582Y-113983222D01*
X161340791Y-113985386D01*
X161342103Y-113987494D01*
X161343519Y-113989543D01*
X161345038Y-113991528D01*
X161346660Y-113993447D01*
X161348385Y-113995294D01*
X161350214Y-113997067D01*
X161352146Y-113998760D01*
X161363291Y-114007721D01*
X161368931Y-114010840D01*
X161375180Y-114012921D01*
X161382462Y-114013866D01*
X161391201Y-114013576D01*
X161401821Y-114011953D01*
X161414745Y-114008899D01*
X161430396Y-114004316D01*
X161449199Y-113998106D01*
X161497952Y-113980412D01*
X161651914Y-113921178D01*
X161747686Y-113883433D01*
X161828248Y-113851971D01*
X161860140Y-113839731D01*
X161885006Y-113830426D01*
X161901772Y-113824510D01*
X161906781Y-113822964D01*
X161909362Y-113822436D01*
X161902880Y-113830385D01*
X161879330Y-113855607D01*
X161788132Y-113950271D01*
X161649986Y-114091220D01*
X161479107Y-114263246D01*
X161479107Y-114266773D01*
X161278196Y-114468388D01*
X161201009Y-114546529D01*
X161138782Y-114610164D01*
X161091103Y-114659748D01*
X161057558Y-114695736D01*
X161045957Y-114708773D01*
X161037734Y-114718582D01*
X161032839Y-114725219D01*
X161031622Y-114727366D01*
X161031218Y-114728742D01*
X161030380Y-114732377D01*
X161029841Y-114736004D01*
X161029594Y-114739614D01*
X160907788Y-114739614D01*
X160907785Y-114739321D01*
X160907998Y-114727775D01*
X160908666Y-114716874D01*
X160909831Y-114706521D01*
X160911532Y-114696618D01*
X160913812Y-114687065D01*
X160916712Y-114677766D01*
X160920273Y-114668622D01*
X160924536Y-114659534D01*
X160929544Y-114650406D01*
X160935337Y-114641137D01*
X160941956Y-114631632D01*
X160949443Y-114621790D01*
X160957840Y-114611514D01*
X160967187Y-114600707D01*
X160977526Y-114589269D01*
X160988898Y-114577103D01*
X161006284Y-114558451D01*
X161013168Y-114550851D01*
X161018875Y-114544263D01*
X161021293Y-114541316D01*
X161023425Y-114538584D01*
X161025272Y-114536053D01*
X161026838Y-114533711D01*
X161028124Y-114531544D01*
X161029135Y-114529540D01*
X161029871Y-114527686D01*
X161030337Y-114525969D01*
X161030534Y-114524376D01*
X161030464Y-114522894D01*
X161030131Y-114521510D01*
X161029538Y-114520211D01*
X161028686Y-114518984D01*
X161027578Y-114517817D01*
X161026217Y-114516697D01*
X161024606Y-114515610D01*
X161022747Y-114514544D01*
X161020642Y-114513485D01*
X161018294Y-114512421D01*
X161015707Y-114511340D01*
X161009821Y-114509070D01*
X161003005Y-114506573D01*
X160997272Y-114504769D01*
X160991860Y-114503377D01*
X160986592Y-114502482D01*
X160981294Y-114502165D01*
X160975789Y-114502510D01*
X160969901Y-114503598D01*
X160963456Y-114505513D01*
X160956276Y-114508337D01*
X160948188Y-114512152D01*
X160939015Y-114517043D01*
X160928581Y-114523090D01*
X160916711Y-114530377D01*
X160887961Y-114549001D01*
X160851358Y-114573576D01*
X160808059Y-114601967D01*
X160789288Y-114613792D01*
X160772118Y-114624159D01*
X160756311Y-114633163D01*
X160741631Y-114640896D01*
X160727839Y-114647452D01*
X160714699Y-114652922D01*
X160701971Y-114657401D01*
X160689420Y-114660981D01*
X160676806Y-114663755D01*
X160663893Y-114665816D01*
X160650442Y-114667257D01*
X160636216Y-114668172D01*
X160620978Y-114668652D01*
X160604490Y-114668791D01*
X160584900Y-114668619D01*
X160576190Y-114668396D01*
X160568121Y-114668075D01*
X160560630Y-114667651D01*
X160553656Y-114667118D01*
X160547137Y-114666471D01*
X160541010Y-114665706D01*
X160535213Y-114664816D01*
X160529686Y-114663798D01*
X160524365Y-114662645D01*
X160519188Y-114661353D01*
X160514094Y-114659916D01*
X160509021Y-114658329D01*
X160503907Y-114656587D01*
X160498689Y-114654685D01*
X160494767Y-114653404D01*
X160490947Y-114652206D01*
X160487252Y-114651090D01*
X160483701Y-114650057D01*
X160477116Y-114648239D01*
X160471358Y-114646751D01*
X160466591Y-114645594D01*
X160462982Y-114644767D01*
X160459896Y-114644106D01*
X160327071Y-114644106D01*
X160220081Y-114238561D01*
X160220182Y-114236227D01*
X160220483Y-114233859D01*
X160220973Y-114231464D01*
X160221644Y-114229049D01*
X160222489Y-114226621D01*
X160223498Y-114224187D01*
X160224663Y-114221755D01*
X160225977Y-114219331D01*
X160227430Y-114216922D01*
X160229013Y-114214536D01*
X160232541Y-114209860D01*
X160236492Y-114205360D01*
X160240800Y-114201092D01*
X160245397Y-114197114D01*
X160250216Y-114193481D01*
X160255190Y-114190252D01*
X160260252Y-114187482D01*
X160262795Y-114186287D01*
X160265334Y-114185229D01*
X160267862Y-114184314D01*
X160270370Y-114183549D01*
X160272850Y-114182942D01*
X160275293Y-114182500D01*
X160277690Y-114182229D01*
X160280034Y-114182137D01*
X160282668Y-114182178D01*
X160285279Y-114182300D01*
X160287865Y-114182501D01*
X160290421Y-114182778D01*
X160292947Y-114183130D01*
X160295439Y-114183555D01*
X160297895Y-114184052D01*
X160300313Y-114184617D01*
X160302688Y-114185249D01*
X160305020Y-114185947D01*
X160307306Y-114186708D01*
X160309542Y-114187530D01*
X160311727Y-114188412D01*
X160313858Y-114189351D01*
X160315932Y-114190346D01*
X160317946Y-114191394D01*
X160319898Y-114192494D01*
X160321786Y-114193644D01*
X160323607Y-114194841D01*
X160325357Y-114196085D01*
X160327036Y-114197372D01*
X160328640Y-114198701D01*
X160330166Y-114200070D01*
X160331612Y-114201478D01*
X160332975Y-114202921D01*
X160334253Y-114204399D01*
X160335444Y-114205909D01*
X160336544Y-114207449D01*
X160337551Y-114209018D01*
X160338462Y-114210613D01*
X160339275Y-114212233D01*
X160339988Y-114213876D01*
X160344506Y-114229745D01*
X160352331Y-114258838D01*
X160362801Y-114297189D01*
X160375255Y-114340829D01*
X160381833Y-114362890D01*
X160388204Y-114383753D01*
X160399501Y-114419734D01*
X160410522Y-114453676D01*
X160410603Y-114454048D01*
X160410845Y-114454499D01*
X160411789Y-114455632D01*
X160413311Y-114457055D01*
X160415371Y-114458746D01*
X160420936Y-114462851D01*
X160428155Y-114467782D01*
X160436696Y-114473375D01*
X160446229Y-114479464D01*
X160466948Y-114492468D01*
X160478030Y-114499452D01*
X160488811Y-114505864D01*
X160499324Y-114511707D01*
X160509599Y-114516988D01*
X160519668Y-114521710D01*
X160529561Y-114525879D01*
X160539309Y-114529502D01*
X160548944Y-114532581D01*
X160558496Y-114535124D01*
X160567996Y-114537134D01*
X160577476Y-114538617D01*
X160586966Y-114539579D01*
X160596497Y-114540024D01*
X160606101Y-114539958D01*
X160615808Y-114539385D01*
X160625649Y-114538312D01*
X160641450Y-114535688D01*
X160648602Y-114534228D01*
X160655516Y-114532526D01*
X160662388Y-114530473D01*
X160669416Y-114527960D01*
X160676795Y-114524878D01*
X160684721Y-114521120D01*
X160693391Y-114516577D01*
X160703002Y-114511140D01*
X160713749Y-114504701D01*
X160725829Y-114497151D01*
X160754773Y-114478286D01*
X160791403Y-114453676D01*
X160829990Y-114428640D01*
X160846747Y-114418087D01*
X160862047Y-114408769D01*
X160876066Y-114400628D01*
X160888979Y-114393609D01*
X160900963Y-114387654D01*
X160912192Y-114382706D01*
X160922843Y-114378708D01*
X160928006Y-114377048D01*
X160933090Y-114375605D01*
X160938118Y-114374370D01*
X160943111Y-114373338D01*
X160948091Y-114372500D01*
X160953080Y-114371851D01*
X160963172Y-114371087D01*
X160973565Y-114370990D01*
X160984432Y-114371502D01*
X160995951Y-114372567D01*
X161003108Y-114373314D01*
X161010064Y-114374248D01*
X161016865Y-114375388D01*
X161023558Y-114376755D01*
X161030189Y-114378370D01*
X161036804Y-114380254D01*
X161043450Y-114382427D01*
X161050173Y-114384910D01*
X161057021Y-114387723D01*
X161064039Y-114390888D01*
X161071274Y-114394425D01*
X161078773Y-114398355D01*
X161086581Y-114402697D01*
X161094746Y-114407474D01*
X161103314Y-114412705D01*
X161112331Y-114418411D01*
X161114888Y-114419579D01*
X161117415Y-114420312D01*
X161120127Y-114420426D01*
X161123242Y-114419734D01*
X161126977Y-114418050D01*
X161131549Y-114415188D01*
X161137175Y-114410962D01*
X161144071Y-114405187D01*
X161162545Y-114388243D01*
X161188706Y-114362869D01*
X161271032Y-114280879D01*
X161415626Y-114132766D01*
X161376832Y-114132766D01*
X161367989Y-114131920D01*
X161359317Y-114130710D01*
X161350822Y-114129141D01*
X161342509Y-114127222D01*
X161334385Y-114124959D01*
X161326456Y-114122360D01*
X161318727Y-114119432D01*
X161311203Y-114116181D01*
X161303892Y-114112615D01*
X161296798Y-114108741D01*
X161289927Y-114104567D01*
X161283286Y-114100098D01*
X161276880Y-114095343D01*
X161270714Y-114090308D01*
X161264796Y-114085001D01*
X161259130Y-114079428D01*
X161253722Y-114073598D01*
X161248578Y-114067515D01*
X161243704Y-114061189D01*
X161239106Y-114054626D01*
X161234789Y-114047833D01*
X161230760Y-114040817D01*
X161227024Y-114033586D01*
X161223587Y-114026146D01*
X161220455Y-114018504D01*
X161217633Y-114010668D01*
X161215128Y-114002645D01*
X161212945Y-113994442D01*
X161211090Y-113986065D01*
X161209569Y-113977523D01*
X161208388Y-113968822D01*
X161207552Y-113959969D01*
X161207260Y-113947493D01*
X161207697Y-113935208D01*
X161208846Y-113923140D01*
X161210693Y-113911315D01*
X161213222Y-113899758D01*
X161216417Y-113888496D01*
X161220263Y-113877554D01*
X161224744Y-113866958D01*
X161229846Y-113856734D01*
X161235552Y-113846908D01*
X161241847Y-113837506D01*
X161248715Y-113828552D01*
X161256141Y-113820075D01*
X161264110Y-113812098D01*
X161272605Y-113804648D01*
X161281612Y-113797751D01*
X161331000Y-113774670D01*
X161441966Y-113726836D01*
X161768294Y-113590129D01*
X162099912Y-113454084D01*
X162276136Y-113385153D01*
X162284829Y-113382370D01*
X162294762Y-113379422D01*
X162305521Y-113376474D01*
X162316693Y-113373692D01*
X162327865Y-113371240D01*
X162338625Y-113369284D01*
X162343720Y-113368543D01*
X162348557Y-113367989D01*
X162353084Y-113367641D01*
X162357250Y-113367520D01*
X162377763Y-113365206D01*
X162395052Y-113363553D01*
X162410191Y-113362561D01*
X162417291Y-113362313D01*
X162424257Y-113362231D01*
X162431222Y-113362313D01*
G36*
X162431222Y-113362313D02*
G01*
X162438322Y-113362561D01*
X162453462Y-113363553D01*
X162470751Y-113365206D01*
X162491264Y-113367520D01*
X162512948Y-113370566D01*
X162534350Y-113374403D01*
X162555455Y-113379017D01*
X162576249Y-113384395D01*
X162596717Y-113390522D01*
X162616845Y-113397384D01*
X162636619Y-113404966D01*
X162656026Y-113413254D01*
X162675050Y-113422235D01*
X162693678Y-113431894D01*
X162729687Y-113453189D01*
X162763939Y-113477025D01*
X162796322Y-113503290D01*
X162826721Y-113531868D01*
X162855022Y-113562648D01*
X162881112Y-113595514D01*
X162904878Y-113630353D01*
X162926205Y-113667052D01*
X162944980Y-113705498D01*
X162961089Y-113745575D01*
X162968109Y-113766191D01*
X162974419Y-113787171D01*
X162979076Y-113802214D01*
X162980960Y-113809302D01*
X162982575Y-113816265D01*
X162983942Y-113823228D01*
X162985082Y-113830316D01*
X162986016Y-113837651D01*
X162986763Y-113845358D01*
X162987782Y-113862385D01*
X162988306Y-113882386D01*
X162988526Y-113935284D01*
X162988347Y-113965086D01*
X162988108Y-113977785D01*
X162987755Y-113989228D01*
X162987278Y-113999576D01*
X162986667Y-114008988D01*
X162985911Y-114017626D01*
X162985000Y-114025650D01*
X162983924Y-114033218D01*
X162982672Y-114040493D01*
X162981234Y-114047633D01*
X162979600Y-114054798D01*
X162975701Y-114069848D01*
X162970893Y-114086922D01*
X162964221Y-114108071D01*
X162957352Y-114128000D01*
X162950173Y-114146897D01*
X162942570Y-114164946D01*
X162934430Y-114182334D01*
X162925639Y-114199246D01*
X162916084Y-114215870D01*
X162905650Y-114232390D01*
X162894224Y-114248992D01*
X162881693Y-114265864D01*
X162867943Y-114283189D01*
X162852860Y-114301156D01*
X162836330Y-114319949D01*
X162818241Y-114339754D01*
X162776926Y-114383147D01*
X162744911Y-114417750D01*
X162719177Y-114445742D01*
X162695813Y-114471309D01*
X162699832Y-114474928D01*
X162705153Y-114479105D01*
X162711590Y-114483737D01*
X162718956Y-114488721D01*
X162735736Y-114499328D01*
X162754003Y-114510100D01*
X162772270Y-114520211D01*
X162789049Y-114528834D01*
X162796416Y-114532330D01*
X162802853Y-114535143D01*
X162808174Y-114537172D01*
X162812193Y-114538312D01*
X162817760Y-114539551D01*
X162823834Y-114540626D01*
X162830341Y-114541535D01*
X162837210Y-114542279D01*
X162844369Y-114542858D01*
X162851744Y-114543271D01*
X162859264Y-114543519D01*
X162866856Y-114543601D01*
X162874449Y-114543519D01*
X162881969Y-114543271D01*
X162889344Y-114542858D01*
X162896503Y-114542279D01*
X162903372Y-114541535D01*
X162909879Y-114540626D01*
X162915952Y-114539551D01*
X162921520Y-114538312D01*
X162925738Y-114537013D01*
X162931624Y-114534537D01*
X162938947Y-114531028D01*
X162947474Y-114526630D01*
X162967208Y-114515748D01*
X162988968Y-114503047D01*
X163010892Y-114489685D01*
X163031122Y-114476819D01*
X163047798Y-114465606D01*
X163054222Y-114460981D01*
X163059060Y-114457203D01*
X163059844Y-114456594D01*
X163060865Y-114454813D01*
X163063579Y-114448001D01*
X163067119Y-114437304D01*
X163071404Y-114423260D01*
X163094327Y-114344355D01*
X163107332Y-114300715D01*
X163119014Y-114262365D01*
X163128051Y-114233271D01*
X163133121Y-114217402D01*
X163135227Y-114213559D01*
X163137571Y-114209963D01*
X163140142Y-114206616D01*
X163142930Y-114203517D01*
X163145924Y-114200665D01*
X163149115Y-114198062D01*
X163152492Y-114195706D01*
X163156044Y-114193598D01*
X163159762Y-114191739D01*
X163163635Y-114190127D01*
X163167652Y-114188763D01*
X163171804Y-114187647D01*
X163176080Y-114186780D01*
X163180469Y-114186160D01*
X163184962Y-114185788D01*
X163187462Y-114185720D01*
X163188364Y-114185755D01*
X163190761Y-114186026D01*
X163193204Y-114186469D01*
X163195684Y-114187076D01*
X163198192Y-114187840D01*
X163200720Y-114188755D01*
X163203259Y-114189814D01*
X163205802Y-114191009D01*
X163208340Y-114192332D01*
X163210864Y-114193778D01*
X163215838Y-114197008D01*
X163220657Y-114200640D01*
X163225254Y-114204619D01*
X163229562Y-114208886D01*
X163233513Y-114213387D01*
X163235334Y-114215706D01*
X163237040Y-114218062D01*
X163238624Y-114220448D01*
X163240077Y-114222857D01*
X163241391Y-114225281D01*
X163242556Y-114227714D01*
X163243565Y-114230148D01*
X163244410Y-114232576D01*
X163245081Y-114234991D01*
X163245571Y-114237386D01*
X163245872Y-114239754D01*
X163245973Y-114242087D01*
X163228561Y-114315537D01*
X163180730Y-114501724D01*
X163020266Y-115102548D01*
X162794558Y-115948904D01*
X160678549Y-115948904D01*
X160667969Y-115913639D01*
X160409640Y-114957081D01*
X160327071Y-114644106D01*
X160459896Y-114644106D01*
X160461935Y-114656104D01*
X160470256Y-114690501D01*
X160503098Y-114816904D01*
X160615070Y-115233028D01*
X160773770Y-115821950D01*
X162695812Y-115821950D01*
X162854513Y-115236555D01*
X162858040Y-115233028D01*
X162920033Y-115006121D01*
X162970453Y-114819548D01*
X163004343Y-114692485D01*
X163016741Y-114644106D01*
X163016690Y-114643796D01*
X163016539Y-114643526D01*
X163016291Y-114643297D01*
X163015949Y-114643107D01*
X163014998Y-114642843D01*
X163013710Y-114642728D01*
X163012113Y-114642758D01*
X163010232Y-114642928D01*
X163008092Y-114643232D01*
X163005720Y-114643665D01*
X163003141Y-114644222D01*
X163000382Y-114644898D01*
X162994424Y-114646585D01*
X162988052Y-114648686D01*
X162984776Y-114649879D01*
X162981474Y-114651159D01*
X162976257Y-114653642D01*
X162971142Y-114655815D01*
X162966069Y-114657699D01*
X162960975Y-114659314D01*
X162955799Y-114660681D01*
X162950478Y-114661821D01*
X162944950Y-114662754D01*
X162939154Y-114663501D01*
X162933027Y-114664083D01*
X162926508Y-114664521D01*
X162912043Y-114665044D01*
X162895264Y-114665237D01*
X162875674Y-114665265D01*
X162859777Y-114665714D01*
X162845043Y-114665719D01*
X162831311Y-114665249D01*
X162818421Y-114664273D01*
X162806212Y-114662759D01*
X162794526Y-114660678D01*
X162783201Y-114657996D01*
X162772078Y-114654685D01*
X162760996Y-114650713D01*
X162749795Y-114646048D01*
X162738315Y-114640660D01*
X162726396Y-114634518D01*
X162713878Y-114627591D01*
X162700600Y-114619847D01*
X162671126Y-114601788D01*
X162659286Y-114594046D01*
X162647817Y-114586800D01*
X162637092Y-114580216D01*
X162627484Y-114574458D01*
X162619362Y-114569692D01*
X162613101Y-114566082D01*
X162607646Y-114562997D01*
X162504931Y-114663942D01*
X162262031Y-114905065D01*
X162177990Y-114988785D01*
X162105479Y-115060396D01*
X162044128Y-115120353D01*
X161993562Y-115169111D01*
X161953412Y-115207124D01*
X161923304Y-115234846D01*
X161902867Y-115252734D01*
X161896159Y-115258131D01*
X161891729Y-115261240D01*
X161884138Y-115264380D01*
X161875963Y-115267184D01*
X161867281Y-115269647D01*
X161858171Y-115271764D01*
X161848709Y-115273530D01*
X161838974Y-115274939D01*
X161829042Y-115275987D01*
X161818992Y-115276668D01*
X161808900Y-115276977D01*
X161798844Y-115276909D01*
X161788902Y-115276459D01*
X161779151Y-115275621D01*
X161769669Y-115274391D01*
X161760533Y-115272763D01*
X161751820Y-115270732D01*
X161743609Y-115268293D01*
X161739097Y-115266925D01*
X161734792Y-115265448D01*
X161730652Y-115263837D01*
X161726637Y-115262066D01*
X161722704Y-115260109D01*
X161718812Y-115257941D01*
X161714920Y-115255534D01*
X161710987Y-115252865D01*
X161706971Y-115249905D01*
X161702832Y-115246631D01*
X161698526Y-115243016D01*
X161694015Y-115239034D01*
X161689255Y-115234660D01*
X161684206Y-115229867D01*
X161673075Y-115218922D01*
X161634282Y-115180131D01*
X161595488Y-115215396D01*
X161592025Y-115219359D01*
X161588277Y-115223303D01*
X161584291Y-115227204D01*
X161580114Y-115231044D01*
X161575793Y-115234802D01*
X161571373Y-115238455D01*
X161566902Y-115241985D01*
X161562426Y-115245371D01*
X161557991Y-115248591D01*
X161553643Y-115251625D01*
X161545398Y-115257052D01*
X161538063Y-115261488D01*
X161534852Y-115263282D01*
X161532008Y-115264766D01*
X161525699Y-115267326D01*
X161518728Y-115269705D01*
X161511179Y-115271887D01*
X161503133Y-115273858D01*
X161494675Y-115275602D01*
X161485886Y-115277102D01*
X161476848Y-115278345D01*
X161467646Y-115279313D01*
X161458361Y-115279992D01*
X161449076Y-115280367D01*
X161439873Y-115280421D01*
X161430836Y-115280140D01*
X161422047Y-115279507D01*
X161413589Y-115278507D01*
X161405543Y-115277125D01*
X161397994Y-115275346D01*
X161394348Y-115274613D01*
X161390685Y-115273739D01*
X161383329Y-115271585D01*
X161375964Y-115268914D01*
X161368624Y-115265758D01*
X161361345Y-115262147D01*
X161354166Y-115258113D01*
X161347120Y-115253686D01*
X161340245Y-115248897D01*
X161333576Y-115243778D01*
X161327151Y-115238359D01*
X161321004Y-115232672D01*
X161315172Y-115226746D01*
X161309692Y-115220615D01*
X161304599Y-115214307D01*
X161299930Y-115207855D01*
X161295720Y-115201290D01*
X161274560Y-115169551D01*
X161256926Y-115180131D01*
X161254235Y-115181993D01*
X161251430Y-115183623D01*
X161248480Y-115185036D01*
X161245355Y-115186247D01*
X161242022Y-115187272D01*
X161238453Y-115188127D01*
X161234614Y-115188827D01*
X161230476Y-115189388D01*
X161226008Y-115189824D01*
X161221177Y-115190152D01*
X161210308Y-115190545D01*
X161197620Y-115190690D01*
X161182866Y-115190710D01*
X161174632Y-115190668D01*
X161167086Y-115190538D01*
X161160169Y-115190315D01*
X161153826Y-115189994D01*
X161148000Y-115189570D01*
X161142633Y-115189037D01*
X161137670Y-115188390D01*
X161133052Y-115187625D01*
X161128724Y-115186735D01*
X161124628Y-115185717D01*
X161120708Y-115184564D01*
X161116906Y-115183272D01*
X161113167Y-115181835D01*
X161109433Y-115180248D01*
X161105647Y-115178506D01*
X161101753Y-115176605D01*
X161093953Y-115172164D01*
X161086425Y-115167444D01*
X161079174Y-115162456D01*
X161072203Y-115157209D01*
X161065516Y-115151714D01*
X161059117Y-115145982D01*
X161047199Y-115133846D01*
X161036480Y-115120883D01*
X161026990Y-115107177D01*
X161018760Y-115092809D01*
X161011822Y-115077863D01*
X161006207Y-115062421D01*
X161001945Y-115046565D01*
X160999067Y-115030380D01*
X160997605Y-115013946D01*
X160997590Y-114997346D01*
X160998134Y-114989011D01*
X160999052Y-114980664D01*
X161000346Y-114972318D01*
X161002022Y-114963983D01*
X161004083Y-114955667D01*
X161006532Y-114947383D01*
X161007813Y-114944082D01*
X161009012Y-114940806D01*
X161010128Y-114937581D01*
X161011161Y-114934434D01*
X161012111Y-114931391D01*
X161012979Y-114928477D01*
X161014467Y-114923139D01*
X161015624Y-114918627D01*
X161016451Y-114915149D01*
X161017112Y-114912118D01*
X161011786Y-114909313D01*
X161006408Y-114906209D01*
X161001010Y-114902836D01*
X160995621Y-114899225D01*
X160990275Y-114895407D01*
X160985000Y-114891414D01*
X160979829Y-114887276D01*
X160974792Y-114883025D01*
X160969920Y-114878691D01*
X160965245Y-114874305D01*
X160960797Y-114869899D01*
X160956607Y-114865503D01*
X160952707Y-114861148D01*
X160949127Y-114856866D01*
X160945898Y-114852687D01*
X160943052Y-114848642D01*
X160938006Y-114841564D01*
X160933436Y-114834832D01*
X160929320Y-114828379D01*
X160925639Y-114822138D01*
X160922370Y-114816042D01*
X160919495Y-114810023D01*
X160916991Y-114804014D01*
X160914838Y-114797949D01*
X160913016Y-114791759D01*
X160911504Y-114785379D01*
X160910282Y-114778740D01*
X160909328Y-114771776D01*
X160908622Y-114764419D01*
X160908143Y-114756602D01*
X160907871Y-114748259D01*
X160907788Y-114739614D01*
X161029594Y-114739614D01*
X161029627Y-114743199D01*
X161029932Y-114746750D01*
X161030498Y-114750260D01*
X161031315Y-114753719D01*
X161032375Y-114757119D01*
X161033668Y-114760452D01*
X161035183Y-114763709D01*
X161036911Y-114766883D01*
X161038843Y-114769964D01*
X161040969Y-114772945D01*
X161043278Y-114775816D01*
X161045762Y-114778570D01*
X161048411Y-114781198D01*
X161051214Y-114783692D01*
X161054163Y-114786043D01*
X161057248Y-114788242D01*
X161060458Y-114790283D01*
X161063785Y-114792155D01*
X161067218Y-114793851D01*
X161070748Y-114795363D01*
X161074365Y-114796681D01*
X161078060Y-114797798D01*
X161081822Y-114798706D01*
X161085643Y-114799394D01*
X161089512Y-114799857D01*
X161093419Y-114800084D01*
X161097356Y-114800068D01*
X161101313Y-114799800D01*
X161105278Y-114799271D01*
X161108571Y-114797881D01*
X161113269Y-114794925D01*
X161127541Y-114783678D01*
X161149417Y-114764247D01*
X161180220Y-114735354D01*
X161273898Y-114644051D01*
X161419153Y-114499520D01*
X161715394Y-114203296D01*
X161757715Y-114245614D01*
X161762258Y-114249577D01*
X161766621Y-114253514D01*
X161770787Y-114257399D01*
X161774742Y-114261207D01*
X161778469Y-114264912D01*
X161781954Y-114268488D01*
X161785180Y-114271908D01*
X161788132Y-114275148D01*
X161790795Y-114278181D01*
X161793154Y-114280982D01*
X161795192Y-114283524D01*
X161796894Y-114285783D01*
X161798245Y-114287731D01*
X161799229Y-114289344D01*
X161799831Y-114290595D01*
X161799984Y-114291076D01*
X161800035Y-114291458D01*
X161793161Y-114299496D01*
X161773475Y-114320056D01*
X161701288Y-114393285D01*
X161465000Y-114630000D01*
X161334678Y-114760976D01*
X161226508Y-114871123D01*
X161184346Y-114914770D01*
X161152062Y-114948871D01*
X161131102Y-114971979D01*
X161125320Y-114978959D01*
X161122912Y-114982648D01*
X161121092Y-114986624D01*
X161119595Y-114990610D01*
X161118414Y-114994596D01*
X161117539Y-114998572D01*
X161116965Y-115002528D01*
X161116682Y-115006452D01*
X161116683Y-115010335D01*
X161116961Y-115014166D01*
X161117507Y-115017935D01*
X161118314Y-115021632D01*
X161119374Y-115025247D01*
X161120680Y-115028768D01*
X161122224Y-115032186D01*
X161123997Y-115035490D01*
X161125992Y-115038671D01*
X161128202Y-115041717D01*
X161130618Y-115044618D01*
X161133234Y-115047365D01*
X161136040Y-115049946D01*
X161139030Y-115052351D01*
X161142195Y-115054571D01*
X161145529Y-115056594D01*
X161149022Y-115058411D01*
X161152668Y-115060010D01*
X161156459Y-115061383D01*
X161160386Y-115062517D01*
X161164443Y-115063404D01*
X161168621Y-115064033D01*
X161172913Y-115064393D01*
X161177310Y-115064474D01*
X161181806Y-115064265D01*
X161186392Y-115063757D01*
X161191092Y-115062782D01*
X161196221Y-115060913D01*
X161202208Y-115057752D01*
X161209481Y-115052902D01*
X161229601Y-115036544D01*
X161260012Y-115008656D01*
X161304144Y-114966056D01*
X161365427Y-114905561D01*
X161553167Y-114718162D01*
X161895255Y-114376094D01*
X161941102Y-114421938D01*
X161986949Y-114467782D01*
X161687181Y-114767533D01*
X161591272Y-114863478D01*
X161552131Y-114902715D01*
X161518341Y-114936694D01*
X161489511Y-114965837D01*
X161465248Y-114990569D01*
X161445159Y-115011313D01*
X161436557Y-115020322D01*
X161428852Y-115028492D01*
X161421993Y-115035878D01*
X161415933Y-115042531D01*
X161410622Y-115048505D01*
X161406011Y-115053853D01*
X161402050Y-115058627D01*
X161398692Y-115062881D01*
X161395887Y-115066667D01*
X161393585Y-115070039D01*
X161391737Y-115073049D01*
X161390296Y-115075750D01*
X161389210Y-115078196D01*
X161388432Y-115080439D01*
X161387913Y-115082532D01*
X161387602Y-115084529D01*
X161387452Y-115086481D01*
X161387413Y-115088443D01*
X161387485Y-115092678D01*
X161387701Y-115096790D01*
X161388058Y-115100776D01*
X161388556Y-115104636D01*
X161389194Y-115108369D01*
X161389970Y-115111975D01*
X161390883Y-115115454D01*
X161391931Y-115118803D01*
X161393114Y-115122024D01*
X161394430Y-115125115D01*
X161395878Y-115128076D01*
X161397456Y-115130905D01*
X161399163Y-115133603D01*
X161400998Y-115136168D01*
X161402960Y-115138600D01*
X161405046Y-115140899D01*
X161407257Y-115143063D01*
X161409591Y-115145093D01*
X161412046Y-115146986D01*
X161414621Y-115148744D01*
X161417315Y-115150365D01*
X161420126Y-115151848D01*
X161423054Y-115153193D01*
X161426096Y-115154399D01*
X161429253Y-115155465D01*
X161432521Y-115156392D01*
X161435901Y-115157178D01*
X161439390Y-115157822D01*
X161442988Y-115158324D01*
X161446693Y-115158684D01*
X161450504Y-115158900D01*
X161454420Y-115158972D01*
X161457326Y-115158589D01*
X161460971Y-115157230D01*
X161471778Y-115150321D01*
X161489446Y-115135726D01*
X161516578Y-115110924D01*
X161555778Y-115073393D01*
X161609649Y-115020613D01*
X161771821Y-114859221D01*
X162071589Y-114559471D01*
X162117436Y-114605315D01*
X162163283Y-114651159D01*
X161951682Y-114862748D01*
X161743608Y-115074337D01*
X161743608Y-115099022D01*
X161744371Y-115103568D01*
X161745335Y-115107945D01*
X161746492Y-115112152D01*
X161747837Y-115116186D01*
X161749363Y-115120045D01*
X161751063Y-115123725D01*
X161752930Y-115127224D01*
X161754959Y-115130540D01*
X161757144Y-115133670D01*
X161759476Y-115136611D01*
X161761951Y-115139362D01*
X161764561Y-115141918D01*
X161767301Y-115144279D01*
X161770163Y-115146440D01*
X161773141Y-115148400D01*
X161776230Y-115150156D01*
X161779421Y-115151705D01*
X161782710Y-115153045D01*
X161786088Y-115154174D01*
X161789551Y-115155088D01*
X161793091Y-115155785D01*
X161796703Y-115156262D01*
X161800378Y-115156517D01*
X161804112Y-115156548D01*
X161807898Y-115156351D01*
X161811729Y-115155924D01*
X161815598Y-115155265D01*
X161819500Y-115154371D01*
X161823428Y-115153240D01*
X161827375Y-115151868D01*
X161831335Y-115150253D01*
X161835301Y-115148393D01*
X161848540Y-115137483D01*
X161879054Y-115108720D01*
X161984304Y-115005570D01*
X162318457Y-114672318D01*
X162536836Y-114453235D01*
X162619058Y-114370060D01*
X162684791Y-114302919D01*
X162735150Y-114250656D01*
X162771250Y-114212112D01*
X162784302Y-114197624D01*
X162794208Y-114186132D01*
X162801107Y-114177492D01*
X162805139Y-114171558D01*
X162817943Y-114147918D01*
X162829257Y-114123977D01*
X162839099Y-114099787D01*
X162847487Y-114075399D01*
X162854438Y-114050864D01*
X162859971Y-114026233D01*
X162864104Y-114001556D01*
X162866856Y-113976885D01*
X162868243Y-113952271D01*
X162868285Y-113927765D01*
X162866999Y-113903418D01*
X162864404Y-113879280D01*
X162860517Y-113855404D01*
X162855356Y-113831839D01*
X162848940Y-113808637D01*
X162841287Y-113785849D01*
X162832415Y-113763526D01*
X162822342Y-113741719D01*
X162811085Y-113720479D01*
X162798664Y-113699857D01*
X162785096Y-113679904D01*
X162770399Y-113660670D01*
X162754591Y-113642208D01*
X162737691Y-113624568D01*
X162719716Y-113607801D01*
X162700685Y-113591957D01*
X162680615Y-113577089D01*
X162659526Y-113563247D01*
X162637433Y-113550482D01*
X162614357Y-113538845D01*
X162590315Y-113528387D01*
X162565325Y-113519159D01*
X162552828Y-113514779D01*
X162539247Y-113510894D01*
X162524735Y-113507505D01*
X162509449Y-113504612D01*
X162493543Y-113502215D01*
X162477171Y-113500314D01*
X162460490Y-113498909D01*
X162443654Y-113498000D01*
X162426818Y-113497587D01*
X162410137Y-113497670D01*
X162393766Y-113498248D01*
X162377860Y-113499323D01*
X162362573Y-113500893D01*
X162348062Y-113502959D01*
X162334480Y-113505522D01*
X162321984Y-113508580D01*
X162288811Y-113517396D01*
X162263339Y-113526432D01*
X162223237Y-113542081D01*
X162073022Y-113603795D01*
X161785928Y-113723695D01*
X161634770Y-113785994D01*
X161574573Y-113810844D01*
X161523576Y-113831969D01*
X161480990Y-113849726D01*
X161446023Y-113864472D01*
X161431151Y-113870827D01*
X161417886Y-113876562D01*
X161406132Y-113881723D01*
X161395789Y-113886354D01*
X161386758Y-113890499D01*
X161378940Y-113894203D01*
X161372236Y-113897511D01*
X161366549Y-113900467D01*
X161361778Y-113903115D01*
X161357826Y-113905501D01*
X161354593Y-113907668D01*
X161351981Y-113909662D01*
X161349890Y-113911526D01*
X161348222Y-113913306D01*
X161346879Y-113915046D01*
X161345761Y-113916790D01*
X161341566Y-113924704D01*
X161340295Y-113927039D01*
X161339128Y-113929410D01*
X161338063Y-113931816D01*
X161337103Y-113934251D01*
X161336245Y-113936711D01*
X161335491Y-113939194D01*
X161334840Y-113941695D01*
X161334292Y-113944210D01*
X161333848Y-113946736D01*
X161333507Y-113949267D01*
X161333269Y-113951802D01*
X161333135Y-113954335D01*
X161333104Y-113956863D01*
X161333176Y-113959382D01*
X161333352Y-113961888D01*
X161333631Y-113964377D01*
X161334013Y-113966846D01*
X161334499Y-113969290D01*
X161335088Y-113971705D01*
X161335780Y-113974089D01*
X161336576Y-113976436D01*
X161337474Y-113978743D01*
X161338477Y-113981006D01*
X161339582Y-113983222D01*
X161340791Y-113985386D01*
X161342103Y-113987494D01*
X161343519Y-113989543D01*
X161345038Y-113991528D01*
X161346660Y-113993447D01*
X161348385Y-113995294D01*
X161350214Y-113997067D01*
X161352146Y-113998760D01*
X161363291Y-114007721D01*
X161368931Y-114010840D01*
X161375180Y-114012921D01*
X161382462Y-114013866D01*
X161391201Y-114013576D01*
X161401821Y-114011953D01*
X161414745Y-114008899D01*
X161430396Y-114004316D01*
X161449199Y-113998106D01*
X161497952Y-113980412D01*
X161651914Y-113921178D01*
X161747686Y-113883433D01*
X161828248Y-113851971D01*
X161860140Y-113839731D01*
X161885006Y-113830426D01*
X161901772Y-113824510D01*
X161906781Y-113822964D01*
X161909362Y-113822436D01*
X161902880Y-113830385D01*
X161879330Y-113855607D01*
X161788132Y-113950271D01*
X161649986Y-114091220D01*
X161479107Y-114263246D01*
X161479107Y-114266773D01*
X161278196Y-114468388D01*
X161201009Y-114546529D01*
X161138782Y-114610164D01*
X161091103Y-114659748D01*
X161057558Y-114695736D01*
X161045957Y-114708773D01*
X161037734Y-114718582D01*
X161032839Y-114725219D01*
X161031622Y-114727366D01*
X161031218Y-114728742D01*
X161030380Y-114732377D01*
X161029841Y-114736004D01*
X161029594Y-114739614D01*
X160907788Y-114739614D01*
X160907785Y-114739321D01*
X160907998Y-114727775D01*
X160908666Y-114716874D01*
X160909831Y-114706521D01*
X160911532Y-114696618D01*
X160913812Y-114687065D01*
X160916712Y-114677766D01*
X160920273Y-114668622D01*
X160924536Y-114659534D01*
X160929544Y-114650406D01*
X160935337Y-114641137D01*
X160941956Y-114631632D01*
X160949443Y-114621790D01*
X160957840Y-114611514D01*
X160967187Y-114600707D01*
X160977526Y-114589269D01*
X160988898Y-114577103D01*
X161006284Y-114558451D01*
X161013168Y-114550851D01*
X161018875Y-114544263D01*
X161021293Y-114541316D01*
X161023425Y-114538584D01*
X161025272Y-114536053D01*
X161026838Y-114533711D01*
X161028124Y-114531544D01*
X161029135Y-114529540D01*
X161029871Y-114527686D01*
X161030337Y-114525969D01*
X161030534Y-114524376D01*
X161030464Y-114522894D01*
X161030131Y-114521510D01*
X161029538Y-114520211D01*
X161028686Y-114518984D01*
X161027578Y-114517817D01*
X161026217Y-114516697D01*
X161024606Y-114515610D01*
X161022747Y-114514544D01*
X161020642Y-114513485D01*
X161018294Y-114512421D01*
X161015707Y-114511340D01*
X161009821Y-114509070D01*
X161003005Y-114506573D01*
X160997272Y-114504769D01*
X160991860Y-114503377D01*
X160986592Y-114502482D01*
X160981294Y-114502165D01*
X160975789Y-114502510D01*
X160969901Y-114503598D01*
X160963456Y-114505513D01*
X160956276Y-114508337D01*
X160948188Y-114512152D01*
X160939015Y-114517043D01*
X160928581Y-114523090D01*
X160916711Y-114530377D01*
X160887961Y-114549001D01*
X160851358Y-114573576D01*
X160808059Y-114601967D01*
X160789288Y-114613792D01*
X160772118Y-114624159D01*
X160756311Y-114633163D01*
X160741631Y-114640896D01*
X160727839Y-114647452D01*
X160714699Y-114652922D01*
X160701971Y-114657401D01*
X160689420Y-114660981D01*
X160676806Y-114663755D01*
X160663893Y-114665816D01*
X160650442Y-114667257D01*
X160636216Y-114668172D01*
X160620978Y-114668652D01*
X160604490Y-114668791D01*
X160584900Y-114668619D01*
X160576190Y-114668396D01*
X160568121Y-114668075D01*
X160560630Y-114667651D01*
X160553656Y-114667118D01*
X160547137Y-114666471D01*
X160541010Y-114665706D01*
X160535213Y-114664816D01*
X160529686Y-114663798D01*
X160524365Y-114662645D01*
X160519188Y-114661353D01*
X160514094Y-114659916D01*
X160509021Y-114658329D01*
X160503907Y-114656587D01*
X160498689Y-114654685D01*
X160494767Y-114653404D01*
X160490947Y-114652206D01*
X160487252Y-114651090D01*
X160483701Y-114650057D01*
X160477116Y-114648239D01*
X160471358Y-114646751D01*
X160466591Y-114645594D01*
X160462982Y-114644767D01*
X160459896Y-114644106D01*
X160327071Y-114644106D01*
X160220081Y-114238561D01*
X160220182Y-114236227D01*
X160220483Y-114233859D01*
X160220973Y-114231464D01*
X160221644Y-114229049D01*
X160222489Y-114226621D01*
X160223498Y-114224187D01*
X160224663Y-114221755D01*
X160225977Y-114219331D01*
X160227430Y-114216922D01*
X160229013Y-114214536D01*
X160232541Y-114209860D01*
X160236492Y-114205360D01*
X160240800Y-114201092D01*
X160245397Y-114197114D01*
X160250216Y-114193481D01*
X160255190Y-114190252D01*
X160260252Y-114187482D01*
X160262795Y-114186287D01*
X160265334Y-114185229D01*
X160267862Y-114184314D01*
X160270370Y-114183549D01*
X160272850Y-114182942D01*
X160275293Y-114182500D01*
X160277690Y-114182229D01*
X160280034Y-114182137D01*
X160282668Y-114182178D01*
X160285279Y-114182300D01*
X160287865Y-114182501D01*
X160290421Y-114182778D01*
X160292947Y-114183130D01*
X160295439Y-114183555D01*
X160297895Y-114184052D01*
X160300313Y-114184617D01*
X160302688Y-114185249D01*
X160305020Y-114185947D01*
X160307306Y-114186708D01*
X160309542Y-114187530D01*
X160311727Y-114188412D01*
X160313858Y-114189351D01*
X160315932Y-114190346D01*
X160317946Y-114191394D01*
X160319898Y-114192494D01*
X160321786Y-114193644D01*
X160323607Y-114194841D01*
X160325357Y-114196085D01*
X160327036Y-114197372D01*
X160328640Y-114198701D01*
X160330166Y-114200070D01*
X160331612Y-114201478D01*
X160332975Y-114202921D01*
X160334253Y-114204399D01*
X160335444Y-114205909D01*
X160336544Y-114207449D01*
X160337551Y-114209018D01*
X160338462Y-114210613D01*
X160339275Y-114212233D01*
X160339988Y-114213876D01*
X160344506Y-114229745D01*
X160352331Y-114258838D01*
X160362801Y-114297189D01*
X160375255Y-114340829D01*
X160381833Y-114362890D01*
X160388204Y-114383753D01*
X160399501Y-114419734D01*
X160410522Y-114453676D01*
X160410603Y-114454048D01*
X160410845Y-114454499D01*
X160411789Y-114455632D01*
X160413311Y-114457055D01*
X160415371Y-114458746D01*
X160420936Y-114462851D01*
X160428155Y-114467782D01*
X160436696Y-114473375D01*
X160446229Y-114479464D01*
X160466948Y-114492468D01*
X160478030Y-114499452D01*
X160488811Y-114505864D01*
X160499324Y-114511707D01*
X160509599Y-114516988D01*
X160519668Y-114521710D01*
X160529561Y-114525879D01*
X160539309Y-114529502D01*
X160548944Y-114532581D01*
X160558496Y-114535124D01*
X160567996Y-114537134D01*
X160577476Y-114538617D01*
X160586966Y-114539579D01*
X160596497Y-114540024D01*
X160606101Y-114539958D01*
X160615808Y-114539385D01*
X160625649Y-114538312D01*
X160641450Y-114535688D01*
X160648602Y-114534228D01*
X160655516Y-114532526D01*
X160662388Y-114530473D01*
X160669416Y-114527960D01*
X160676795Y-114524878D01*
X160684721Y-114521120D01*
X160693391Y-114516577D01*
X160703002Y-114511140D01*
X160713749Y-114504701D01*
X160725829Y-114497151D01*
X160754773Y-114478286D01*
X160791403Y-114453676D01*
X160829990Y-114428640D01*
X160846747Y-114418087D01*
X160862047Y-114408769D01*
X160876066Y-114400628D01*
X160888979Y-114393609D01*
X160900963Y-114387654D01*
X160912192Y-114382706D01*
X160922843Y-114378708D01*
X160928006Y-114377048D01*
X160933090Y-114375605D01*
X160938118Y-114374370D01*
X160943111Y-114373338D01*
X160948091Y-114372500D01*
X160953080Y-114371851D01*
X160963172Y-114371087D01*
X160973565Y-114370990D01*
X160984432Y-114371502D01*
X160995951Y-114372567D01*
X161003108Y-114373314D01*
X161010064Y-114374248D01*
X161016865Y-114375388D01*
X161023558Y-114376755D01*
X161030189Y-114378370D01*
X161036804Y-114380254D01*
X161043450Y-114382427D01*
X161050173Y-114384910D01*
X161057021Y-114387723D01*
X161064039Y-114390888D01*
X161071274Y-114394425D01*
X161078773Y-114398355D01*
X161086581Y-114402697D01*
X161094746Y-114407474D01*
X161103314Y-114412705D01*
X161112331Y-114418411D01*
X161114888Y-114419579D01*
X161117415Y-114420312D01*
X161120127Y-114420426D01*
X161123242Y-114419734D01*
X161126977Y-114418050D01*
X161131549Y-114415188D01*
X161137175Y-114410962D01*
X161144071Y-114405187D01*
X161162545Y-114388243D01*
X161188706Y-114362869D01*
X161271032Y-114280879D01*
X161415626Y-114132766D01*
X161376832Y-114132766D01*
X161367989Y-114131920D01*
X161359317Y-114130710D01*
X161350822Y-114129141D01*
X161342509Y-114127222D01*
X161334385Y-114124959D01*
X161326456Y-114122360D01*
X161318727Y-114119432D01*
X161311203Y-114116181D01*
X161303892Y-114112615D01*
X161296798Y-114108741D01*
X161289927Y-114104567D01*
X161283286Y-114100098D01*
X161276880Y-114095343D01*
X161270714Y-114090308D01*
X161264796Y-114085001D01*
X161259130Y-114079428D01*
X161253722Y-114073598D01*
X161248578Y-114067515D01*
X161243704Y-114061189D01*
X161239106Y-114054626D01*
X161234789Y-114047833D01*
X161230760Y-114040817D01*
X161227024Y-114033586D01*
X161223587Y-114026146D01*
X161220455Y-114018504D01*
X161217633Y-114010668D01*
X161215128Y-114002645D01*
X161212945Y-113994442D01*
X161211090Y-113986065D01*
X161209569Y-113977523D01*
X161208388Y-113968822D01*
X161207552Y-113959969D01*
X161207260Y-113947493D01*
X161207697Y-113935208D01*
X161208846Y-113923140D01*
X161210693Y-113911315D01*
X161213222Y-113899758D01*
X161216417Y-113888496D01*
X161220263Y-113877554D01*
X161224744Y-113866958D01*
X161229846Y-113856734D01*
X161235552Y-113846908D01*
X161241847Y-113837506D01*
X161248715Y-113828552D01*
X161256141Y-113820075D01*
X161264110Y-113812098D01*
X161272605Y-113804648D01*
X161281612Y-113797751D01*
X161331000Y-113774670D01*
X161441966Y-113726836D01*
X161768294Y-113590129D01*
X162099912Y-113454084D01*
X162276136Y-113385153D01*
X162284829Y-113382370D01*
X162294762Y-113379422D01*
X162305521Y-113376474D01*
X162316693Y-113373692D01*
X162327865Y-113371240D01*
X162338625Y-113369284D01*
X162343720Y-113368543D01*
X162348557Y-113367989D01*
X162353084Y-113367641D01*
X162357250Y-113367520D01*
X162377763Y-113365206D01*
X162395052Y-113363553D01*
X162410191Y-113362561D01*
X162417291Y-113362313D01*
X162424257Y-113362231D01*
X162431222Y-113362313D01*
G37*
D10*
X114621303Y-54518318D02*
X114354636Y-54137365D01*
X114164160Y-54518318D02*
X114164160Y-53718318D01*
X114164160Y-53718318D02*
X114468922Y-53718318D01*
X114468922Y-53718318D02*
X114545112Y-53756413D01*
X114545112Y-53756413D02*
X114583207Y-53794508D01*
X114583207Y-53794508D02*
X114621303Y-53870699D01*
X114621303Y-53870699D02*
X114621303Y-53984984D01*
X114621303Y-53984984D02*
X114583207Y-54061175D01*
X114583207Y-54061175D02*
X114545112Y-54099270D01*
X114545112Y-54099270D02*
X114468922Y-54137365D01*
X114468922Y-54137365D02*
X114164160Y-54137365D01*
X114964160Y-54099270D02*
X115230826Y-54099270D01*
X115345112Y-54518318D02*
X114964160Y-54518318D01*
X114964160Y-54518318D02*
X114964160Y-53718318D01*
X114964160Y-53718318D02*
X115345112Y-53718318D01*
X115573684Y-53718318D02*
X115840351Y-54518318D01*
X115840351Y-54518318D02*
X116107017Y-53718318D01*
X116373684Y-54518318D02*
X116373684Y-53718318D01*
X116716540Y-54480223D02*
X116830826Y-54518318D01*
X116830826Y-54518318D02*
X117021302Y-54518318D01*
X117021302Y-54518318D02*
X117097493Y-54480223D01*
X117097493Y-54480223D02*
X117135588Y-54442127D01*
X117135588Y-54442127D02*
X117173683Y-54365937D01*
X117173683Y-54365937D02*
X117173683Y-54289746D01*
X117173683Y-54289746D02*
X117135588Y-54213556D01*
X117135588Y-54213556D02*
X117097493Y-54175461D01*
X117097493Y-54175461D02*
X117021302Y-54137365D01*
X117021302Y-54137365D02*
X116868921Y-54099270D01*
X116868921Y-54099270D02*
X116792731Y-54061175D01*
X116792731Y-54061175D02*
X116754636Y-54023080D01*
X116754636Y-54023080D02*
X116716540Y-53946889D01*
X116716540Y-53946889D02*
X116716540Y-53870699D01*
X116716540Y-53870699D02*
X116754636Y-53794508D01*
X116754636Y-53794508D02*
X116792731Y-53756413D01*
X116792731Y-53756413D02*
X116868921Y-53718318D01*
X116868921Y-53718318D02*
X117059398Y-53718318D01*
X117059398Y-53718318D02*
X117173683Y-53756413D01*
X117516541Y-54518318D02*
X117516541Y-53718318D01*
X118049874Y-53718318D02*
X118202255Y-53718318D01*
X118202255Y-53718318D02*
X118278445Y-53756413D01*
X118278445Y-53756413D02*
X118354636Y-53832603D01*
X118354636Y-53832603D02*
X118392731Y-53984984D01*
X118392731Y-53984984D02*
X118392731Y-54251651D01*
X118392731Y-54251651D02*
X118354636Y-54404032D01*
X118354636Y-54404032D02*
X118278445Y-54480223D01*
X118278445Y-54480223D02*
X118202255Y-54518318D01*
X118202255Y-54518318D02*
X118049874Y-54518318D01*
X118049874Y-54518318D02*
X117973683Y-54480223D01*
X117973683Y-54480223D02*
X117897493Y-54404032D01*
X117897493Y-54404032D02*
X117859397Y-54251651D01*
X117859397Y-54251651D02*
X117859397Y-53984984D01*
X117859397Y-53984984D02*
X117897493Y-53832603D01*
X117897493Y-53832603D02*
X117973683Y-53756413D01*
X117973683Y-53756413D02*
X118049874Y-53718318D01*
X118735588Y-54518318D02*
X118735588Y-53718318D01*
X118735588Y-53718318D02*
X119192731Y-54518318D01*
X119192731Y-54518318D02*
X119192731Y-53718318D01*
X120602254Y-54518318D02*
X120145111Y-54518318D01*
X120373683Y-54518318D02*
X120373683Y-53718318D01*
X120373683Y-53718318D02*
X120297492Y-53832603D01*
X120297492Y-53832603D02*
X120221302Y-53908794D01*
X120221302Y-53908794D02*
X120145111Y-53946889D01*
X120945112Y-54442127D02*
X120983207Y-54480223D01*
X120983207Y-54480223D02*
X120945112Y-54518318D01*
X120945112Y-54518318D02*
X120907016Y-54480223D01*
X120907016Y-54480223D02*
X120945112Y-54442127D01*
X120945112Y-54442127D02*
X120945112Y-54518318D01*
X121668921Y-53984984D02*
X121668921Y-54518318D01*
X121478445Y-53680223D02*
X121287968Y-54251651D01*
X121287968Y-54251651D02*
X121783207Y-54251651D01*
X114430826Y-55387225D02*
X114545112Y-55425320D01*
X114545112Y-55425320D02*
X114583207Y-55463416D01*
X114583207Y-55463416D02*
X114621303Y-55539606D01*
X114621303Y-55539606D02*
X114621303Y-55653892D01*
X114621303Y-55653892D02*
X114583207Y-55730082D01*
X114583207Y-55730082D02*
X114545112Y-55768178D01*
X114545112Y-55768178D02*
X114468922Y-55806273D01*
X114468922Y-55806273D02*
X114164160Y-55806273D01*
X114164160Y-55806273D02*
X114164160Y-55006273D01*
X114164160Y-55006273D02*
X114430826Y-55006273D01*
X114430826Y-55006273D02*
X114507017Y-55044368D01*
X114507017Y-55044368D02*
X114545112Y-55082463D01*
X114545112Y-55082463D02*
X114583207Y-55158654D01*
X114583207Y-55158654D02*
X114583207Y-55234844D01*
X114583207Y-55234844D02*
X114545112Y-55311035D01*
X114545112Y-55311035D02*
X114507017Y-55349130D01*
X114507017Y-55349130D02*
X114430826Y-55387225D01*
X114430826Y-55387225D02*
X114164160Y-55387225D01*
X115116541Y-55425320D02*
X115116541Y-55806273D01*
X114849874Y-55006273D02*
X115116541Y-55425320D01*
X115116541Y-55425320D02*
X115383207Y-55006273D01*
X116259398Y-55387225D02*
X116526064Y-55387225D01*
X116640350Y-55806273D02*
X116259398Y-55806273D01*
X116259398Y-55806273D02*
X116259398Y-55006273D01*
X116259398Y-55006273D02*
X116640350Y-55006273D01*
X117364160Y-55806273D02*
X116983208Y-55806273D01*
X116983208Y-55806273D02*
X116983208Y-55006273D01*
X117630827Y-55387225D02*
X117897493Y-55387225D01*
X118011779Y-55806273D02*
X117630827Y-55806273D01*
X117630827Y-55806273D02*
X117630827Y-55006273D01*
X117630827Y-55006273D02*
X118011779Y-55006273D01*
X118811780Y-55730082D02*
X118773684Y-55768178D01*
X118773684Y-55768178D02*
X118659399Y-55806273D01*
X118659399Y-55806273D02*
X118583208Y-55806273D01*
X118583208Y-55806273D02*
X118468922Y-55768178D01*
X118468922Y-55768178D02*
X118392732Y-55691987D01*
X118392732Y-55691987D02*
X118354637Y-55615797D01*
X118354637Y-55615797D02*
X118316541Y-55463416D01*
X118316541Y-55463416D02*
X118316541Y-55349130D01*
X118316541Y-55349130D02*
X118354637Y-55196749D01*
X118354637Y-55196749D02*
X118392732Y-55120558D01*
X118392732Y-55120558D02*
X118468922Y-55044368D01*
X118468922Y-55044368D02*
X118583208Y-55006273D01*
X118583208Y-55006273D02*
X118659399Y-55006273D01*
X118659399Y-55006273D02*
X118773684Y-55044368D01*
X118773684Y-55044368D02*
X118811780Y-55082463D01*
X119040351Y-55006273D02*
X119497494Y-55006273D01*
X119268922Y-55806273D02*
X119268922Y-55006273D01*
X120221304Y-55806273D02*
X119954637Y-55425320D01*
X119764161Y-55806273D02*
X119764161Y-55006273D01*
X119764161Y-55006273D02*
X120068923Y-55006273D01*
X120068923Y-55006273D02*
X120145113Y-55044368D01*
X120145113Y-55044368D02*
X120183208Y-55082463D01*
X120183208Y-55082463D02*
X120221304Y-55158654D01*
X120221304Y-55158654D02*
X120221304Y-55272939D01*
X120221304Y-55272939D02*
X120183208Y-55349130D01*
X120183208Y-55349130D02*
X120145113Y-55387225D01*
X120145113Y-55387225D02*
X120068923Y-55425320D01*
X120068923Y-55425320D02*
X119764161Y-55425320D01*
X120716542Y-55006273D02*
X120868923Y-55006273D01*
X120868923Y-55006273D02*
X120945113Y-55044368D01*
X120945113Y-55044368D02*
X121021304Y-55120558D01*
X121021304Y-55120558D02*
X121059399Y-55272939D01*
X121059399Y-55272939D02*
X121059399Y-55539606D01*
X121059399Y-55539606D02*
X121021304Y-55691987D01*
X121021304Y-55691987D02*
X120945113Y-55768178D01*
X120945113Y-55768178D02*
X120868923Y-55806273D01*
X120868923Y-55806273D02*
X120716542Y-55806273D01*
X120716542Y-55806273D02*
X120640351Y-55768178D01*
X120640351Y-55768178D02*
X120564161Y-55691987D01*
X120564161Y-55691987D02*
X120526065Y-55539606D01*
X120526065Y-55539606D02*
X120526065Y-55272939D01*
X120526065Y-55272939D02*
X120564161Y-55120558D01*
X120564161Y-55120558D02*
X120640351Y-55044368D01*
X120640351Y-55044368D02*
X120716542Y-55006273D01*
X121402256Y-55806273D02*
X121402256Y-55006273D01*
X121402256Y-55006273D02*
X121859399Y-55806273D01*
X121859399Y-55806273D02*
X121859399Y-55006273D01*
X122621303Y-55806273D02*
X122240351Y-55806273D01*
X122240351Y-55806273D02*
X122240351Y-55006273D01*
X122849874Y-55577701D02*
X123230827Y-55577701D01*
X122773684Y-55806273D02*
X123040351Y-55006273D01*
X123040351Y-55006273D02*
X123307017Y-55806273D01*
X123840350Y-55387225D02*
X123954636Y-55425320D01*
X123954636Y-55425320D02*
X123992731Y-55463416D01*
X123992731Y-55463416D02*
X124030827Y-55539606D01*
X124030827Y-55539606D02*
X124030827Y-55653892D01*
X124030827Y-55653892D02*
X123992731Y-55730082D01*
X123992731Y-55730082D02*
X123954636Y-55768178D01*
X123954636Y-55768178D02*
X123878446Y-55806273D01*
X123878446Y-55806273D02*
X123573684Y-55806273D01*
X123573684Y-55806273D02*
X123573684Y-55006273D01*
X123573684Y-55006273D02*
X123840350Y-55006273D01*
X123840350Y-55006273D02*
X123916541Y-55044368D01*
X123916541Y-55044368D02*
X123954636Y-55082463D01*
X123954636Y-55082463D02*
X123992731Y-55158654D01*
X123992731Y-55158654D02*
X123992731Y-55234844D01*
X123992731Y-55234844D02*
X123954636Y-55311035D01*
X123954636Y-55311035D02*
X123916541Y-55349130D01*
X123916541Y-55349130D02*
X123840350Y-55387225D01*
X123840350Y-55387225D02*
X123573684Y-55387225D01*
D13*
X81900000Y-107774620D03*
D14*
X81900000Y-109224620D03*
D15*
X81802898Y-156472102D03*
D16*
X82213019Y-156061981D03*
D17*
X80904872Y-153778026D03*
X80006846Y-151083949D03*
D18*
X85395000Y-152880000D03*
D17*
X83598949Y-147491846D03*
X86293025Y-148389871D03*
D16*
X88576981Y-149698019D03*
D15*
X88987102Y-149287898D03*
D19*
X91409592Y-155071868D03*
D20*
X87555860Y-158925600D03*
D19*
X86495200Y-157864940D03*
X90348932Y-154011208D03*
D21*
X88520412Y-146105917D03*
X77744105Y-153290122D03*
D15*
X137945000Y-128770000D03*
D16*
X138525000Y-128770000D03*
D17*
X139215000Y-126230000D03*
X140485000Y-123690000D03*
D18*
X143025000Y-128770000D03*
D17*
X145565000Y-123690000D03*
X146835000Y-126229999D03*
D16*
X147525000Y-128770000D03*
D15*
X148105000Y-128770000D03*
D22*
X145728074Y-134572844D03*
D23*
X140278074Y-134572844D03*
D22*
X140278074Y-133072844D03*
X145728074Y-133072844D03*
D24*
X150025000Y-126190000D03*
X137325000Y-123650000D03*
D15*
X175837375Y-69755637D03*
D16*
X176415962Y-69796096D03*
D17*
X177281462Y-67310415D03*
X178725550Y-64865193D03*
D18*
X180905000Y-70110000D03*
D17*
X183793176Y-65219556D03*
X184882901Y-67841956D03*
D16*
X185394038Y-70423904D03*
D15*
X185972625Y-70464363D03*
D25*
X183196704Y-76087263D03*
D26*
X177759979Y-75707093D03*
D25*
X177864614Y-74210747D03*
X183301338Y-74590919D03*
D27*
X188067920Y-68024580D03*
X175576038Y-64604860D03*
D28*
X181560000Y-122470000D03*
D29*
X191951654Y-110709596D03*
X195300000Y-111300000D03*
D30*
X135297000Y-96197000D03*
X138697000Y-96197000D03*
D31*
X172900000Y-116200000D03*
X176291718Y-116437172D03*
D13*
X92621000Y-101077000D03*
D14*
X92621000Y-102527000D03*
D15*
X117008097Y-132954801D03*
D16*
X117568334Y-132804686D03*
D17*
X117577422Y-130172649D03*
X118146748Y-127390497D03*
D18*
X121915000Y-131640000D03*
D17*
X123053651Y-126075696D03*
X124937777Y-128200447D03*
D16*
X126261666Y-130475314D03*
D15*
X126821903Y-130325199D03*
D32*
X126027856Y-136545510D03*
D33*
X120763560Y-137956074D03*
D32*
X120375331Y-136507185D03*
X125639627Y-135096621D03*
D34*
X128008728Y-127336178D03*
X115084069Y-128169728D03*
D28*
X83320000Y-55720000D03*
D15*
X154031399Y-78675260D03*
D16*
X154611399Y-78675260D03*
D17*
X155301399Y-76135260D03*
X156571399Y-73595260D03*
D18*
X159111399Y-78675260D03*
D17*
X161651399Y-73595260D03*
X162921399Y-76135259D03*
D16*
X163611399Y-78675260D03*
D15*
X164191399Y-78675260D03*
D22*
X161814473Y-84478104D03*
D23*
X156364473Y-84478104D03*
D22*
X156364473Y-82978104D03*
X161814473Y-82978104D03*
D24*
X166111399Y-76095260D03*
X153411399Y-73555260D03*
D35*
X137950000Y-118375000D03*
D36*
X137950000Y-116925000D03*
D15*
X213972177Y-100807867D03*
D16*
X214543365Y-100908583D03*
D17*
X215663949Y-98526989D03*
X217355721Y-96246110D03*
D18*
X218975000Y-101690000D03*
D17*
X222358544Y-97128243D03*
X223168184Y-99850187D03*
D16*
X223406635Y-102471417D03*
D15*
X223977823Y-102572133D03*
D37*
X220629355Y-107874070D03*
D38*
X215262153Y-106927687D03*
D37*
X215522625Y-105450475D03*
X220889827Y-106396858D03*
D39*
X226316667Y-100364733D03*
X214250674Y-95657990D03*
D40*
X115126992Y-139581074D03*
X114247008Y-136296926D03*
D41*
X153295000Y-116290000D03*
X166495000Y-116290000D03*
D42*
X193250000Y-75050000D03*
D15*
X173217375Y-107765637D03*
D16*
X173795962Y-107806096D03*
D17*
X174661462Y-105320415D03*
X176105550Y-102875193D03*
D18*
X178285000Y-108120000D03*
D17*
X181173176Y-103229556D03*
X182262901Y-105851956D03*
D16*
X182774038Y-108433904D03*
D15*
X183352625Y-108474363D03*
D25*
X180576704Y-114097263D03*
D26*
X175139979Y-113717093D03*
D25*
X175244614Y-112220747D03*
X180681338Y-112600919D03*
D27*
X185447920Y-106034580D03*
X172956038Y-102614860D03*
D15*
X115982031Y-90684740D03*
D16*
X116562031Y-90684740D03*
D17*
X117252031Y-88144740D03*
X118522031Y-85604740D03*
D18*
X121062031Y-90684740D03*
D17*
X123602031Y-85604740D03*
X124872031Y-88144739D03*
D16*
X125562031Y-90684740D03*
D15*
X126142031Y-90684740D03*
D22*
X123765105Y-96487584D03*
D23*
X118315105Y-96487584D03*
D22*
X118315105Y-94987584D03*
X123765105Y-94987584D03*
D24*
X128062031Y-88104740D03*
X115362031Y-85564740D03*
D35*
X140500000Y-118375000D03*
D36*
X140500000Y-116925000D03*
D30*
X153300000Y-106300000D03*
X156700000Y-106300000D03*
D43*
X88090000Y-111450000D03*
X88090000Y-116450000D03*
X88090000Y-113950000D03*
D44*
X95590000Y-108350000D03*
X95590000Y-119550000D03*
D43*
X102590000Y-116450000D03*
X102590000Y-111450000D03*
D45*
X100249110Y-98455000D03*
X97709110Y-98455000D03*
X95169110Y-98455000D03*
X92629110Y-98455000D03*
D46*
X82400000Y-129125000D03*
X89400000Y-129125000D03*
X82400000Y-127375000D03*
X89400000Y-127375000D03*
D47*
X91200000Y-131225000D03*
X91200000Y-125275000D03*
X87200000Y-131225000D03*
X87200000Y-125275000D03*
X84200000Y-131225000D03*
X84200000Y-125275000D03*
X92700000Y-129475000D03*
X92700000Y-127025000D03*
D15*
X210692177Y-119607867D03*
D16*
X211263365Y-119708583D03*
D17*
X212383949Y-117326989D03*
X214075721Y-115046110D03*
D18*
X215695000Y-120490000D03*
D17*
X219078544Y-115928243D03*
X219888184Y-118650187D03*
D16*
X220126635Y-121271417D03*
D15*
X220697823Y-121372133D03*
D37*
X217349355Y-126674070D03*
D38*
X211982153Y-125727687D03*
D37*
X212242625Y-124250475D03*
X217609827Y-125196858D03*
D39*
X223036667Y-119164733D03*
X210970674Y-114457990D03*
D30*
X115300000Y-99200000D03*
X118700000Y-99200000D03*
D13*
X97660000Y-101077000D03*
D14*
X97660000Y-102527000D03*
D15*
X115965000Y-109800000D03*
D16*
X116545000Y-109800000D03*
D17*
X117235000Y-107260000D03*
X118505000Y-104720000D03*
D18*
X121045000Y-109800000D03*
D17*
X123585000Y-104720000D03*
X124855000Y-107259999D03*
D16*
X125545000Y-109800000D03*
D15*
X126125000Y-109800000D03*
D22*
X123748074Y-115602844D03*
D23*
X118298074Y-115602844D03*
D22*
X118298074Y-114102844D03*
X123748074Y-114102844D03*
D24*
X128045000Y-107220000D03*
X115345000Y-104680000D03*
D28*
X83320000Y-135150000D03*
D13*
X95166000Y-101077000D03*
D14*
X95166000Y-102527000D03*
D28*
X188990000Y-56730000D03*
D29*
X195251654Y-91909596D03*
X198600000Y-92500000D03*
D35*
X145600000Y-118375000D03*
D36*
X145600000Y-116925000D03*
D48*
X97818000Y-149232486D03*
X96118000Y-146288000D03*
D15*
X116005000Y-71630000D03*
D16*
X116585000Y-71630000D03*
D17*
X117275000Y-69090000D03*
X118545000Y-66550000D03*
D18*
X121085000Y-71630000D03*
D17*
X123625000Y-66550000D03*
X124895000Y-69089999D03*
D16*
X125585000Y-71630000D03*
D15*
X126165000Y-71630000D03*
D22*
X123788074Y-77432844D03*
D23*
X118338074Y-77432844D03*
D22*
X118338074Y-75932844D03*
X123788074Y-75932844D03*
D24*
X128085000Y-69050000D03*
X115385000Y-66510000D03*
D49*
X82350000Y-104800000D03*
X82350000Y-102800000D03*
D35*
X202525000Y-59075000D03*
D36*
X202525000Y-57625000D03*
D15*
X174477375Y-88735637D03*
D16*
X175055962Y-88776096D03*
D17*
X175921462Y-86290415D03*
X177365550Y-83845193D03*
D18*
X179545000Y-89090000D03*
D17*
X182433176Y-84199556D03*
X183522901Y-86821956D03*
D16*
X184034038Y-89403904D03*
D15*
X184612625Y-89444363D03*
D25*
X181836704Y-95067263D03*
D26*
X176399979Y-94687093D03*
D25*
X176504614Y-93190747D03*
X181941338Y-93570919D03*
D27*
X186707920Y-87004580D03*
X174216038Y-83584860D03*
D50*
X82309995Y-118535008D03*
X82309995Y-122785008D03*
D51*
X83209995Y-119435008D03*
X83209995Y-121885008D03*
D52*
X83209995Y-120660008D03*
D53*
X81259995Y-118810008D03*
X81259995Y-122510008D03*
D35*
X194925000Y-59075000D03*
D36*
X194925000Y-57625000D03*
D29*
X212080827Y-108874798D03*
X215429173Y-109465202D03*
D28*
X174150000Y-55720000D03*
D30*
X134300000Y-77100000D03*
X137700000Y-77100000D03*
X153400000Y-68100000D03*
X156800000Y-68100000D03*
X153379000Y-87185000D03*
X156779000Y-87185000D03*
D29*
X188625827Y-129404798D03*
X191974173Y-129995202D03*
D30*
X99180000Y-106960000D03*
X102580000Y-106960000D03*
D15*
X154045000Y-59670000D03*
D16*
X154625000Y-59670000D03*
D17*
X155315000Y-57130000D03*
X156585000Y-54590000D03*
D18*
X159125000Y-59670000D03*
D17*
X161665000Y-54590000D03*
X162935000Y-57129999D03*
D16*
X163625000Y-59670000D03*
D15*
X164205000Y-59670000D03*
D22*
X161828074Y-65472844D03*
D23*
X156378074Y-65472844D03*
D22*
X156378074Y-63972844D03*
X161828074Y-63972844D03*
D24*
X166125000Y-57090000D03*
X153425000Y-54550000D03*
D54*
X149595000Y-79520000D03*
X168645000Y-98570000D03*
X130545000Y-98570000D03*
D15*
X97843437Y-142368264D03*
D16*
X98345732Y-142078264D03*
D17*
X97673289Y-139533559D03*
X97503141Y-136698855D03*
D18*
X102242846Y-139828264D03*
D17*
X101902551Y-134158855D03*
X104272402Y-135723559D03*
D16*
X106139960Y-137578264D03*
D15*
X106642255Y-137288264D03*
D55*
X107485199Y-143502137D03*
D56*
X102765360Y-146227137D03*
D55*
X102015360Y-144928099D03*
X106735199Y-142203099D03*
D57*
X107015024Y-134093918D03*
X94746501Y-138244214D03*
D13*
X100205000Y-101077000D03*
D14*
X100205000Y-102527000D03*
D15*
X191102177Y-121287867D03*
D16*
X191673365Y-121388583D03*
D17*
X192793949Y-119006989D03*
X194485721Y-116726110D03*
D18*
X196105000Y-122170000D03*
D17*
X199488544Y-117608243D03*
X200298184Y-120330187D03*
D16*
X200536635Y-122951417D03*
D15*
X201107823Y-123052133D03*
D37*
X197759355Y-128354070D03*
D38*
X192392153Y-127407687D03*
D37*
X192652625Y-125930475D03*
X198019827Y-126876858D03*
D39*
X203446667Y-120844733D03*
X191380674Y-116137990D03*
D28*
X169950000Y-121710000D03*
D31*
X172908282Y-97162828D03*
X176300000Y-97400000D03*
D28*
X167300000Y-88050000D03*
D15*
X134981399Y-106747857D03*
D16*
X135561399Y-106747857D03*
D17*
X136251399Y-104207857D03*
X137521399Y-101667857D03*
D18*
X140061399Y-106747857D03*
D17*
X142601399Y-101667857D03*
X143871399Y-104207856D03*
D16*
X144561399Y-106747857D03*
D15*
X145141399Y-106747857D03*
D22*
X142764473Y-112550701D03*
D23*
X137314473Y-112550701D03*
D22*
X137314473Y-111050701D03*
X142764473Y-111050701D03*
D24*
X147061399Y-104167857D03*
X134361399Y-101627857D03*
D15*
X134995000Y-87730000D03*
D16*
X135575000Y-87730000D03*
D17*
X136265000Y-85190000D03*
X137535000Y-82650000D03*
D18*
X140075000Y-87730000D03*
D17*
X142615000Y-82650000D03*
X143885000Y-85189999D03*
D16*
X144575000Y-87730000D03*
D15*
X145155000Y-87730000D03*
D22*
X142778074Y-93532844D03*
D23*
X137328074Y-93532844D03*
D22*
X137328074Y-92032844D03*
X142778074Y-92032844D03*
D24*
X147075000Y-85150000D03*
X134375000Y-82610000D03*
D31*
X174300000Y-78100000D03*
X177691718Y-78337172D03*
D58*
X83679164Y-163304164D03*
X81275000Y-160900000D03*
D59*
X147895000Y-109980000D03*
X147895000Y-106580000D03*
D60*
X82595000Y-111399951D03*
D43*
X82595000Y-115000000D03*
D15*
X197712177Y-83727867D03*
D16*
X198283365Y-83828583D03*
D17*
X199403949Y-81446989D03*
X201095721Y-79166110D03*
D18*
X202715000Y-84610000D03*
D17*
X206098544Y-80048243D03*
X206908184Y-82770187D03*
D16*
X207146635Y-85391417D03*
D15*
X207717823Y-85492133D03*
D37*
X204369355Y-90794070D03*
D38*
X199002153Y-89847687D03*
D37*
X199262625Y-88370475D03*
X204629827Y-89316858D03*
D39*
X210056667Y-83284733D03*
X197990674Y-78577990D03*
D30*
X115300000Y-80100000D03*
X118700000Y-80100000D03*
D50*
X82251228Y-65426228D03*
X82301228Y-62426228D03*
D61*
X84101228Y-61676228D03*
X84101228Y-64676228D03*
X84101228Y-66176228D03*
D62*
X82201228Y-60076228D03*
X82201228Y-68026228D03*
D28*
X145400000Y-55720000D03*
D13*
X84015000Y-107774620D03*
D14*
X84015000Y-109224620D03*
D35*
X205100000Y-59075000D03*
D36*
X205100000Y-57625000D03*
D30*
X115100000Y-118290000D03*
X118500000Y-118290000D03*
D29*
X208900827Y-127684798D03*
X212249173Y-128275202D03*
D63*
X137950000Y-120100000D03*
D64*
X140490000Y-120100000D03*
X143030000Y-120100000D03*
X145570000Y-120100000D03*
X148110000Y-120100000D03*
D15*
X154031399Y-97747857D03*
D16*
X154611399Y-97747857D03*
D17*
X155301399Y-95207857D03*
X156571399Y-92667857D03*
D18*
X159111399Y-97747857D03*
D17*
X161651399Y-92667857D03*
X162921399Y-95207856D03*
D16*
X163611399Y-97747857D03*
D15*
X164191399Y-97747857D03*
D22*
X161814473Y-103550701D03*
D23*
X156364473Y-103550701D03*
D22*
X156364473Y-102050701D03*
X161814473Y-102050701D03*
D24*
X166111399Y-95167857D03*
X153411399Y-92627857D03*
D15*
X194389242Y-102425421D03*
D16*
X194960430Y-102526137D03*
D17*
X196081014Y-100144543D03*
X197772786Y-97863664D03*
D18*
X199392065Y-103307554D03*
D17*
X202775609Y-98745797D03*
X203585249Y-101467741D03*
D16*
X203823700Y-104088971D03*
D15*
X204394888Y-104189687D03*
D37*
X201046420Y-109491624D03*
D38*
X195679218Y-108545241D03*
D37*
X195939690Y-107068029D03*
X201306892Y-108014412D03*
D39*
X206733732Y-101982287D03*
X194667739Y-97275544D03*
D65*
X88780000Y-56840000D03*
X105318815Y-58035745D03*
X88780000Y-59380000D03*
X105318815Y-60575745D03*
X88780000Y-61920000D03*
X105318815Y-63115745D03*
X88780000Y-64460000D03*
X105318815Y-65655745D03*
X88780000Y-67000000D03*
X105318815Y-68195745D03*
X88780000Y-69540000D03*
X105318815Y-70735745D03*
X88780000Y-72080000D03*
X105318815Y-73275745D03*
X88780000Y-74620000D03*
X105318815Y-75815745D03*
X88780000Y-77160000D03*
X105318815Y-78355745D03*
X88780000Y-79700000D03*
X105318815Y-80895745D03*
X88780000Y-82240000D03*
X105318815Y-83435745D03*
X88780000Y-84780000D03*
X105318815Y-85975745D03*
X90078815Y-85975745D03*
X104020000Y-84780000D03*
X90078815Y-83435745D03*
X104020000Y-82240000D03*
X90078815Y-80895745D03*
X104020000Y-79700000D03*
X90078815Y-78355745D03*
X104020000Y-77160000D03*
X90078815Y-75815745D03*
X104020000Y-74620000D03*
X90078815Y-73275745D03*
X104020000Y-72080000D03*
X90078815Y-70735745D03*
X104020000Y-69540000D03*
X90078815Y-68195745D03*
X104020000Y-67000000D03*
X90078815Y-65655745D03*
X104020000Y-64460000D03*
X90078815Y-63115745D03*
X104020000Y-61920000D03*
X90078815Y-60575745D03*
X104020000Y-59380000D03*
X90078815Y-58035745D03*
X104020000Y-56840000D03*
D15*
X135005000Y-68650000D03*
D16*
X135585000Y-68650000D03*
D17*
X136275000Y-66110000D03*
X137545000Y-63570000D03*
D18*
X140085000Y-68650000D03*
D17*
X142625000Y-63570000D03*
X143895000Y-66109999D03*
D16*
X144585000Y-68650000D03*
D15*
X145165000Y-68650000D03*
D22*
X142788074Y-74452844D03*
D23*
X137338074Y-74452844D03*
D22*
X137338074Y-72952844D03*
X142788074Y-72952844D03*
D24*
X147085000Y-66070000D03*
X134385000Y-63530000D03*
D59*
X134545000Y-134900000D03*
X134545000Y-131500000D03*
D16*
X194920000Y-55650000D03*
D66*
X197460000Y-55650000D03*
X200000000Y-55650000D03*
X202540000Y-55650000D03*
X205080000Y-55650000D03*
M02*
