M48
; DRILL file {KiCad 8.0.4-8.0.4-0~ubuntu22.04.1} date 2024-08-09T18:51:15+0200
; FORMAT={-:-/ absolute / metric / decimal}
; #@! TF.CreationDate,2024-08-09T18:51:15+02:00
; #@! TF.GenerationSoftware,Kicad,Pcbnew,8.0.4-8.0.4-0~ubuntu22.04.1
; #@! TF.FileFunction,NonPlated,1,2,NPTH
FMAT,2
METRIC
; #@! TA.AperFunction,NonPlated,NPTH,ComponentDrill
T1C0.700
; #@! TA.AperFunction,NonPlated,NPTH,ComponentDrill
T2C0.900
; #@! TA.AperFunction,NonPlated,NPTH,ComponentDrill
T3C1.200
; #@! TA.AperFunction,NonPlated,NPTH,ComponentDrill
T4C1.700
; #@! TA.AperFunction,NonPlated,NPTH,ComponentDrill
T5C1.900
; #@! TA.AperFunction,NonPlated,NPTH,ComponentDrill
T6C2.200
; #@! TA.AperFunction,NonPlated,NPTH,ComponentDrill
T7C3.000
; #@! TA.AperFunction,NonPlated,NPTH,ComponentDrill
T8C3.200
; #@! TA.AperFunction,NonPlated,NPTH,ComponentDrill
T9C4.100
%
G90
G05
T1
X82.251Y-65.426
X82.301Y-62.426
T2
X82.31Y-118.535
X82.31Y-122.785
T3
X82.4Y-127.375
X82.4Y-129.125
X89.4Y-127.375
X89.4Y-129.125
T4
X82.213Y-156.062
X88.577Y-149.698
X98.346Y-142.078
X106.14Y-137.578
X116.545Y-109.8
X116.562Y-90.685
X116.585Y-71.63
X117.568Y-132.805
X125.545Y-109.8
X125.562Y-90.685
X125.585Y-71.63
X126.262Y-130.475
X135.561Y-106.748
X135.575Y-87.73
X135.585Y-68.65
X138.525Y-128.77
X144.561Y-106.748
X144.575Y-87.73
X144.585Y-68.65
X147.525Y-128.77
X154.611Y-78.675
X154.611Y-97.748
X154.625Y-59.67
X163.611Y-78.675
X163.611Y-97.748
X163.625Y-59.67
X173.796Y-107.806
X175.056Y-88.776
X176.416Y-69.796
X182.774Y-108.434
X184.034Y-89.404
X185.394Y-70.424
X191.673Y-121.389
X194.96Y-102.526
X198.283Y-83.829
X200.537Y-122.951
X203.824Y-104.089
X207.147Y-85.391
X211.263Y-119.709
X214.543Y-100.909
X220.127Y-121.271
X223.407Y-102.471
T5
X81.803Y-156.472
X88.987Y-149.288
X97.843Y-142.368
X106.642Y-137.288
X115.965Y-109.8
X115.982Y-90.685
X116.005Y-71.63
X117.008Y-132.955
X126.125Y-109.8
X126.142Y-90.685
X126.165Y-71.63
X126.822Y-130.325
X134.981Y-106.748
X134.995Y-87.73
X135.005Y-68.65
X137.945Y-128.77
X145.141Y-106.748
X145.155Y-87.73
X145.165Y-68.65
X148.105Y-128.77
X154.031Y-78.675
X154.031Y-97.748
X154.045Y-59.67
X164.191Y-78.675
X164.191Y-97.748
X164.205Y-59.67
X173.217Y-107.766
X174.477Y-88.736
X175.837Y-69.756
X183.353Y-108.474
X184.613Y-89.444
X185.973Y-70.464
X191.102Y-121.288
X194.389Y-102.425
X197.712Y-83.728
X201.108Y-123.052
X204.395Y-104.19
X207.718Y-85.492
X210.692Y-119.608
X213.972Y-100.808
X220.698Y-121.372
X223.978Y-102.572
T6
X193.25Y-74.45
T7
X80.007Y-151.084
X80.905Y-153.778
X83.599Y-147.492
X86.293Y-148.39
X97.503Y-136.699
X97.673Y-139.534
X101.903Y-134.159
X104.272Y-135.724
X117.235Y-107.26
X117.252Y-88.145
X117.275Y-69.09
X117.577Y-130.173
X118.147Y-127.39
X118.505Y-104.72
X118.522Y-85.605
X118.545Y-66.55
X123.054Y-126.076
X123.585Y-104.72
X123.602Y-85.605
X123.625Y-66.55
X124.855Y-107.26
X124.872Y-88.145
X124.895Y-69.09
X124.938Y-128.2
X136.251Y-104.208
X136.265Y-85.19
X136.275Y-66.11
X137.521Y-101.668
X137.535Y-82.65
X137.545Y-63.57
X139.215Y-126.23
X140.485Y-123.69
X142.601Y-101.668
X142.615Y-82.65
X142.625Y-63.57
X143.871Y-104.208
X143.885Y-85.19
X143.895Y-66.11
X145.565Y-123.69
X146.835Y-126.23
X155.301Y-76.135
X155.301Y-95.208
X155.315Y-57.13
X156.571Y-73.595
X156.571Y-92.668
X156.585Y-54.59
X161.651Y-73.595
X161.651Y-92.668
X161.665Y-54.59
X162.921Y-76.135
X162.921Y-95.208
X162.935Y-57.13
X174.661Y-105.32
X175.921Y-86.29
X176.106Y-102.875
X177.281Y-67.31
X177.366Y-83.845
X178.726Y-64.865
X181.173Y-103.23
X182.263Y-105.852
X182.433Y-84.2
X183.523Y-86.822
X183.793Y-65.22
X184.883Y-67.842
X192.794Y-119.007
X194.486Y-116.726
X196.081Y-100.145
X197.773Y-97.864
X199.404Y-81.447
X199.489Y-117.608
X200.298Y-120.33
X201.096Y-79.166
X202.776Y-98.746
X203.585Y-101.468
X206.099Y-80.048
X206.908Y-82.77
X212.384Y-117.327
X214.076Y-115.046
X215.664Y-98.527
X217.356Y-96.246
X219.079Y-115.928
X219.888Y-118.65
X222.359Y-97.128
X223.168Y-99.85
T8
X83.32Y-55.72
X83.32Y-135.15
X145.4Y-55.72
X167.3Y-88.05
X169.95Y-121.71
X174.15Y-55.72
X181.56Y-122.47
X188.99Y-56.73
T9
X85.395Y-152.88
X102.243Y-139.828
X121.045Y-109.8
X121.062Y-90.685
X121.085Y-71.63
X121.915Y-131.64
X140.061Y-106.748
X140.075Y-87.73
X140.085Y-68.65
X143.025Y-128.77
X159.111Y-78.675
X159.111Y-97.748
X159.125Y-59.67
X178.285Y-108.12
X179.545Y-89.09
X180.905Y-70.11
X196.105Y-122.17
X199.392Y-103.308
X202.715Y-84.61
X215.695Y-120.49
X218.975Y-101.69
M30
