M48
; DRILL file {KiCad 8.0.4} date 2024-07-30T12:00:03+0200
; FORMAT={-:-/ absolute / inch / decimal}
; #@! TF.CreationDate,2024-07-30T12:00:03+02:00
; #@! TF.GenerationSoftware,Kicad,Pcbnew,8.0.4
; #@! TF.FileFunction,Plated,1,2,PTH
FMAT,2
INCH
; #@! TA.AperFunction,Plated,PTH,ComponentDrill
T1C0.0079
; #@! TA.AperFunction,Plated,PTH,ViaDrill
T2C0.0118
; #@! TA.AperFunction,Plated,PTH,ComponentDrill
T3C0.0157
; #@! TA.AperFunction,Plated,PTH,ComponentDrill
T4C0.0197
; #@! TA.AperFunction,Plated,PTH,ComponentDrill
T5C0.0295
; #@! TA.AperFunction,Plated,PTH,ComponentDrill
T6C0.0320
; #@! TA.AperFunction,Plated,PTH,ComponentDrill
T7C0.0335
; #@! TA.AperFunction,Plated,PTH,ComponentDrill
T8C0.0394
; #@! TA.AperFunction,Plated,PTH,ComponentDrill
T9C0.0591
; #@! TA.AperFunction,Plated,PTH,ComponentDrill
T10C0.0866
%
G90
G05
T1
X3.1992Y-4.6776
X3.1992Y-4.8232
X3.276Y-4.7022
X3.276Y-4.7504
X3.276Y-4.7986
T2
X2.8695Y-6.013
X3.0131Y-5.9898
X3.1962Y-2.5133
X3.201Y-2.6768
X3.2045Y-2.3646
X3.2264Y-4.1811
X3.2381Y-2.5157
X3.2441Y-3.9961
X3.2529Y-4.9513
X3.2707Y-4.2059
X3.2723Y-2.5155
X3.2756Y-5.7195
X3.2935Y-4.3327
X3.347Y-6.289
X3.3537Y-5.5945
X3.3762Y-6.2661
X3.3923Y-2.489
X3.4077Y-2.5567
X3.4105Y-4.8834
X3.4135Y-2.8584
X3.4138Y-2.8287
X3.4256Y-2.4175
X3.4305Y-2.8104
X3.4311Y-2.7421
X3.4463Y-2.3574
X3.4685Y-4.6654
X3.4797Y-5.3047
X3.4999Y-4.9465
X3.5274Y-4.9459
X3.5453Y-5.0492
X3.5561Y-3.939
X3.6104Y-6.0504
X3.6142Y-5.0492
X3.6337Y-6.0153
X3.6431Y-5.878
X3.696Y-5.3891
X3.7116Y-6.1488
X3.7699Y-2.6114
X3.775Y-2.8598
X3.7778Y-3.0594
X3.7954Y-4.0152
X3.7959Y-4.0496
X3.7992Y-3.939
X3.8057Y-3.2138
X3.8108Y-2.9622
X3.8108Y-3.013
X3.8116Y-2.8138
X3.8116Y-3.163
X3.8128Y-2.761
X3.8144Y-2.7134
X3.8152Y-2.9094
X3.8341Y-2.5358
X3.8415Y-3.1098
X3.8455Y-4.8598
X3.876Y-3.939
X3.8876Y-3.2614
X3.8884Y-3.3618
X3.8959Y-3.3087
X3.8974Y-2.6626
X3.8979Y-3.8457
X3.9004Y-3.8138
X3.9203Y-3.939
X3.9289Y-5.6575
X3.9443Y-4.076
X3.9486Y-5.7752
X3.9754Y-3.939
X3.9837Y-5.7559
X4.0213Y-2.4845
X4.0459Y-5.1985
X4.0514Y-2.6839
X4.0516Y-2.8841
X4.0522Y-2.9846
X4.0525Y-2.785
X4.0525Y-3.085
X4.0528Y-3.3852
X4.0531Y-3.1856
X4.0542Y-3.2867
X4.0778Y-3.939
X4.1246Y-4.9465
X4.1281Y-4.8138
X4.1745Y-2.7488
X4.1972Y-4.7478
X4.2219Y-5.4933
X4.2352Y-5.2673
X4.2636Y-4.7701
X4.2652Y-5.5976
X4.2904Y-3.4354
X4.2951Y-3.1602
X4.2982Y-5.5819
X4.3187Y-4.8858
X4.3317Y-3.0791
X4.3494Y-2.7303
X4.351Y-2.4713
X4.3817Y-4.5024
X4.3825Y-5.6575
X4.3833Y-3.6012
X4.3986Y-2.972
X4.4089Y-5.4409
X4.4136Y-3.3075
X4.4148Y-4.0181
X4.4656Y-2.2913
X4.5033Y-4.9378
X4.5041Y-5.1602
X4.5418Y-3.3687
X4.5616Y-5.3421
X4.5793Y-3.0185
X4.5801Y-4.5213
X4.5837Y-3.7693
X4.6124Y-3.0177
X4.6156Y-3.7677
X4.6156Y-4.5193
X4.6215Y-4.794
X4.6596Y-5.428
X4.6998Y-5.4154
X4.7321Y-4.7917
X4.7388Y-2.4744
X4.7522Y-5.0551
X4.76Y-4.9177
X4.7687Y-4.626
X4.8085Y-3.4409
X4.8199Y-3.2287
X4.8285Y-3.9173
X4.8652Y-2.2811
X4.8719Y-3.6689
X4.9262Y-4.5185
X4.9317Y-3.0177
X4.9323Y-3.7668
X4.9593Y-4.5217
X4.9628Y-4.4295
X4.9675Y-3.0177
X4.9681Y-3.7668
X4.9719Y-4.9252
X4.9892Y-2.6189
X4.9955Y-4.1177
X5.0026Y-5.3366
X5.027Y-3.1594
X5.0348Y-5.3283
X5.0392Y-4.8713
X5.0435Y-4.7031
X5.0533Y-2.7165
X5.0556Y-3.4697
X5.058Y-4.215
X5.0667Y-5.0161
X5.0671Y-5.3024
X5.0715Y-3.2677
X5.0848Y-2.8752
X5.0945Y-4.525
X5.1148Y-4.489
X5.1415Y-5.4614
X5.1636Y-4.9358
X5.1896Y-2.4756
X5.19Y-5.111
X5.2108Y-2.6122
X5.2144Y-3.3287
X5.2207Y-4.6957
X5.2348Y-4.0949
X5.2892Y-3.248
X5.2974Y-3.9299
X5.3148Y-2.1531
X5.3195Y-3.565
X5.3234Y-3.8654
X5.3313Y-2.8988
X5.3337Y-3.65
X5.3356Y-4.3988
X5.3451Y-4.6201
X5.36Y-5.0736
X5.3644Y-2.8996
X5.3659Y-3.6512
X5.3693Y-4.3985
X5.3817Y-2.7965
X5.412Y-4.8677
X5.4447Y-5.2681
X5.4805Y-5.2681
X5.5085Y-2.2827
X5.5104Y-2.5378
X5.5167Y-5.1331
X5.5274Y-3.8362
X5.5494Y-3.337
X5.5813Y-4.6374
X5.6384Y-3.5598
X5.664Y-4.6034
X5.673Y-2.9697
X5.6732Y-4.403
X5.6752Y-3.6518
X5.6785Y-2.8953
X5.6801Y-4.6752
X5.699Y-2.7929
X5.701Y-4.2772
X5.7022Y-3.1193
X5.709Y-4.403
X5.711Y-3.6518
X5.7187Y-2.8953
X5.738Y-2.4992
X5.751Y-3.9965
X5.7561Y-4.376
X5.7572Y-4.4512
X5.7758Y-3.5787
X5.7818Y-4.5905
X5.7953Y-5.2683
X5.7967Y-3.4224
X5.8037Y-2.5945
X5.8068Y-3.3512
X5.8311Y-5.2683
X5.888Y-4.6209
X5.8904Y-4.4406
X5.8939Y-2.4075
X5.8939Y-2.6016
X5.9261Y-4.9665
X5.9585Y-5.3665
X5.96Y-2.9693
X5.9608Y-2.2685
X6.0234Y-2.8913
X6.0364Y-3.6433
X6.0801Y-2.5441
X6.0817Y-4.0488
X6.0833Y-3.2965
X6.086Y-3.1886
X6.1063Y-2.6811
X6.114Y-2.5441
X6.114Y-4.0476
X6.1159Y-3.2965
X6.1195Y-2.4358
X6.2112Y-4.8512
X6.2608Y-2.8551
X6.2624Y-3.5957
X6.2774Y-2.2118
X6.3719Y-3.4051
X6.4085Y-4.3421
X6.422Y-3.2971
X6.4264Y-4.0482
X6.4271Y-2.5439
X6.4392Y-2.4409
X6.4579Y-3.2971
X6.4622Y-4.0482
X6.463Y-2.5439
X6.486Y-2.5956
X6.4892Y-2.1469
X6.5398Y-3.7468
X6.5451Y-3.0531
X6.5517Y-2.9949
X6.5529Y-2.2453
X6.5719Y-2.3752
X6.5722Y-3.2098
X6.647Y-2.1969
X6.6628Y-4.4685
X6.6781Y-4.2929
X6.6994Y-2.4402
X6.7018Y-3.15
X6.7616Y-3.6654
X6.7837Y-2.7382
X6.81Y-4.4398
X6.8439Y-4.4417
X6.8596Y-3.6913
X6.8947Y-4.8846
X6.8967Y-3.6937
X6.9128Y-2.9429
X6.9195Y-3.5681
X6.9553Y-2.9453
X6.9884Y-4.7272
X7.11Y-4.5406
X7.114Y-2.1547
X7.1447Y-4.3728
X7.1616Y-4.4654
X7.1797Y-2.2811
X7.1974Y-4.4689
X7.2163Y-3.7177
X7.2478Y-3.7201
X7.2656Y-4.0677
X7.2703Y-2.9669
X7.2785Y-3.5988
X7.2998Y-2.8579
X7.3041Y-2.9681
X7.3112Y-3.8224
X7.312Y-4.5961
X7.3132Y-4.1752
X7.3195Y-3.3161
X7.3411Y-3.0854
X7.3451Y-2.4366
X7.3722Y-4.9165
X7.3734Y-3.4252
X7.3774Y-2.5748
X7.3939Y-2.7362
X7.3998Y-3.6697
X7.4148Y-2.6736
X7.4289Y-2.5909
X7.4329Y-4.6469
X7.4427Y-2.9268
X7.4474Y-3.9665
X7.4533Y-4.287
X7.4608Y-3.7819
X7.4722Y-4.6902
X7.4888Y-3.4386
X7.4978Y-4.9701
X7.5207Y-3.0969
X7.5293Y-4.976
X7.5368Y-4.0488
X7.5565Y-3.7094
X7.5636Y-2.6043
X7.5675Y-3.2992
X7.6246Y-2.3185
X7.6254Y-4.2287
X7.66Y-4.235
X7.6967Y-4.1441
X7.7274Y-3.724
X7.7274Y-4.6858
X7.7329Y-2.9035
X7.7549Y-3.4886
X7.788Y-3.4941
X7.7904Y-4.9382
X7.7963Y-3.402
X7.8439Y-5.0323
X7.8561Y-4.3728
X7.877Y-5.0382
X7.8955Y-5.1894
X7.9246Y-2.3189
X7.9384Y-2.9992
X7.9762Y-4.2933
X7.977Y-4.65
X7.9825Y-4.5654
X7.9848Y-4.2524
X8.0085Y-4.178
X8.0179Y-3.6362
X8.0183Y-5.0551
X8.0713Y-2.3638
X8.0758Y-3.435
X8.0785Y-3.6976
X8.1081Y-3.5555
X8.1132Y-3.9098
X8.1207Y-4.3146
X8.123Y-4.4248
X8.127Y-2.3193
X8.1392Y-3.563
X8.1463Y-4.0197
X8.2085Y-4.6012
X8.2104Y-2.7858
X8.2388Y-2.2508
X8.2404Y-3.1669
X8.2447Y-3.6642
X8.2482Y-3.8035
X8.2707Y-4.911
X8.2754Y-3.2783
X8.2939Y-4.826
X8.3033Y-4.9165
X8.3057Y-3.5382
X8.3104Y-4.5079
X8.3703Y-3.0862
X8.4045Y-4.1709
X8.4191Y-3.6146
X8.4368Y-4.1764
X8.5522Y-4.6394
X8.612Y-4.974
X8.6392Y-4.8693
X8.6892Y-5.078
X8.6907Y-3.6638
X8.7459Y-4.2335
X8.7774Y-4.2394
X8.7789Y-4.9319
X8.7884Y-4.339
X8.7888Y-4.6937
X8.8191Y-4.4378
X8.8864Y-3.8508
X8.9167Y-3.9614
X8.9545Y-4.1083
X8.9789Y-3.7614
T3
X3.1998Y-6.3346
X3.2945Y-6.4293
X3.7842Y-5.7594
X3.8511Y-5.8753
X3.9047Y-4.211
X4.0386Y-4.211
X4.4979Y-5.366
X4.5315Y-4.6571
X4.5326Y-5.4953
X4.5394Y-3.1535
X4.5394Y-3.9055
X4.6654Y-4.6571
X4.6732Y-3.1535
X4.6732Y-3.9055
X5.2874Y-3.0354
X5.297Y-5.1772
X5.297Y-5.311
X5.3267Y-3.7873
X5.4213Y-3.0354
X5.4605Y-3.7873
X5.8226Y-4.1961
X5.8226Y-4.3299
X6.0354Y-4.185
X6.0385Y-3.4325
X6.0394Y-2.6811
X6.1693Y-4.185
X6.1724Y-3.4325
X6.1732Y-2.6811
X6.8071Y-4.5748
X6.8074Y-3.8253
X6.8622Y-3.0748
X6.9406Y-4.5841
X6.9409Y-3.8346
X6.9957Y-3.0841
X7.4262Y-5.0947
X7.5572Y-4.3586
X7.558Y-5.1179
X7.6871Y-3.6185
X7.689Y-4.3819
X7.8189Y-3.6417
X8.2244Y-5.027
X8.3496Y-4.2864
X8.3563Y-5.0502
X8.4815Y-4.3097
T4
X6.0352Y-4.5783
X6.5549Y-4.5783
T5
X3.2421Y-4.0472
X3.2421Y-4.126
T6
X3.4953Y-2.2378
X3.4953Y-2.3378
X3.4953Y-2.4378
X3.4953Y-2.5378
X3.4953Y-2.6378
X3.4953Y-2.7378
X3.4953Y-2.8378
X3.4953Y-2.9378
X3.4953Y-3.0378
X3.4953Y-3.1378
X3.4953Y-3.2378
X3.4953Y-3.3378
X3.5464Y-2.2849
X3.5464Y-2.3849
X3.5464Y-2.4849
X3.5464Y-2.5849
X3.5464Y-2.6849
X3.5464Y-2.7849
X3.5464Y-2.8849
X3.5464Y-2.9849
X3.5464Y-3.0849
X3.5464Y-3.1849
X3.5464Y-3.2849
X3.5464Y-3.3849
X4.0953Y-2.2378
X4.0953Y-2.3378
X4.0953Y-2.4378
X4.0953Y-2.5378
X4.0953Y-2.6378
X4.0953Y-2.7378
X4.0953Y-2.8378
X4.0953Y-2.9378
X4.0953Y-3.0378
X4.0953Y-3.1378
X4.0953Y-3.2378
X4.0953Y-3.3378
X4.1464Y-2.2849
X4.1464Y-2.3849
X4.1464Y-2.4849
X4.1464Y-2.5849
X4.1464Y-2.6849
X4.1464Y-2.7849
X4.1464Y-2.8849
X4.1464Y-2.9849
X4.1464Y-3.0849
X4.1464Y-3.1849
X4.1464Y-3.2849
X4.1464Y-3.3849
T7
X5.4311Y-4.7283
X5.5311Y-4.7283
X5.6311Y-4.7283
X5.7311Y-4.7283
X5.8311Y-4.7283
T8
X3.2518Y-4.3858
X3.2518Y-4.5276
X3.4681Y-4.3878
X3.4681Y-4.4862
X3.4681Y-4.5846
X3.6468Y-3.8762
X3.7468Y-3.8762
X3.8468Y-3.8762
X3.9468Y-3.8762
X4.039Y-4.3878
X4.039Y-4.5846
X7.674Y-2.1909
X7.774Y-2.1909
X7.874Y-2.1909
X7.974Y-2.1909
X8.074Y-2.1909
T10
X5.1396Y-3.8807
X5.8896Y-3.1307
X6.6396Y-3.8807
T8
G00X3.3051Y-4.9321
M15
G01X3.3248Y-4.9321
M16
G05
G00X3.3051Y-5.1663
M15
G01X3.3248Y-5.1663
M16
G05
G00X3.4232Y-4.9321
M15
G01X3.4429Y-4.9321
M16
G05
G00X3.4232Y-5.1663
M15
G01X3.4429Y-5.1663
M16
G05
G00X3.5807Y-4.9321
M15
G01X3.6004Y-4.9321
M16
G05
G00X3.5807Y-5.1663
M15
G01X3.6004Y-5.1663
M16
G05
G00X3.6398Y-5.001
M15
G01X3.6594Y-5.001
M16
G05
G00X3.6398Y-5.0974
M15
G01X3.6594Y-5.0974
M16
G05
T9
G00X3.7378Y-4.2657
M15
G01X3.789Y-4.2657
M16
G05
G00X3.7378Y-4.7067
M15
G01X3.789Y-4.7067
M16
G05
M30
