G04 #@! TF.GenerationSoftware,KiCad,Pcbnew,8.0.4-8.0.4-0~ubuntu22.04.1*
G04 #@! TF.CreationDate,2024-09-04T00:25:38+02:00*
G04 #@! TF.ProjectId,klor1_4_LP_KS33,6b6c6f72-315f-4345-9f4c-505f4b533333,v1.4.0 LP KS33*
G04 #@! TF.SameCoordinates,Original*
G04 #@! TF.FileFunction,Soldermask,Bot*
G04 #@! TF.FilePolarity,Negative*
%FSLAX46Y46*%
G04 Gerber Fmt 4.6, Leading zero omitted, Abs format (unit mm)*
G04 Created by KiCad (PCBNEW 8.0.4-8.0.4-0~ubuntu22.04.1) date 2024-09-04 00:25:38*
%MOMM*%
%LPD*%
G01*
G04 APERTURE LIST*
G04 Aperture macros list*
%AMRoundRect*
0 Rectangle with rounded corners*
0 $1 Rounding radius*
0 $2 $3 $4 $5 $6 $7 $8 $9 X,Y pos of 4 corners*
0 Add a 4 corners polygon primitive as box body*
4,1,4,$2,$3,$4,$5,$6,$7,$8,$9,$2,$3,0*
0 Add four circle primitives for the rounded corners*
1,1,$1+$1,$2,$3*
1,1,$1+$1,$4,$5*
1,1,$1+$1,$6,$7*
1,1,$1+$1,$8,$9*
0 Add four rect primitives between the rounded corners*
20,1,$1+$1,$2,$3,$4,$5,0*
20,1,$1+$1,$4,$5,$6,$7,0*
20,1,$1+$1,$6,$7,$8,$9,0*
20,1,$1+$1,$8,$9,$2,$3,0*%
%AMRotRect*
0 Rectangle, with rotation*
0 The origin of the aperture is its center*
0 $1 length*
0 $2 width*
0 $3 Rotation angle, in degrees counterclockwise*
0 Add horizontal line*
21,1,$1,$2,0,0,$3*%
%AMFreePoly0*
4,1,18,-0.410000,0.593000,-0.403758,0.624380,-0.385983,0.650983,-0.359380,0.668758,-0.328000,0.675000,0.000000,0.675000,0.410000,0.265000,0.410000,-0.593000,0.403758,-0.624380,0.385983,-0.650983,0.359380,-0.668758,0.328000,-0.675000,-0.328000,-0.675000,-0.359380,-0.668758,-0.385983,-0.650983,-0.403758,-0.624380,-0.410000,-0.593000,-0.410000,0.593000,-0.410000,0.593000,$1*%
%AMFreePoly1*
4,1,6,1.000000,0.000000,0.500000,-0.750000,-0.500000,-0.750000,-0.500000,0.750000,0.500000,0.750000,1.000000,0.000000,1.000000,0.000000,$1*%
%AMFreePoly2*
4,1,6,0.500000,-0.750000,-0.650000,-0.750000,-0.150000,0.000000,-0.650000,0.750000,0.500000,0.750000,0.500000,-0.750000,0.500000,-0.750000,$1*%
G04 Aperture macros list end*
%ADD10C,0.150000*%
%ADD11C,0.000000*%
%ADD12C,0.000001*%
%ADD13C,3.000000*%
%ADD14C,5.100000*%
%ADD15RoundRect,0.082000X0.651245X0.187383X0.187383X0.651245X-0.651245X-0.187383X-0.187383X-0.651245X0*%
%ADD16FreePoly0,135.000000*%
%ADD17RoundRect,0.255000X0.035355X1.477853X-1.477853X-0.035355X-0.035355X-1.477853X1.477853X0.035355X0*%
%ADD18RotRect,1.200000X2.550000X45.000000*%
%ADD19RotRect,1.200000X2.550000X225.000000*%
%ADD20RoundRect,0.082000X0.593000X-0.328000X0.593000X0.328000X-0.593000X0.328000X-0.593000X-0.328000X0*%
%ADD21FreePoly0,90.000000*%
%ADD22RoundRect,0.255000X1.070000X1.020000X-1.070000X1.020000X-1.070000X-1.020000X1.070000X-1.020000X0*%
%ADD23R,1.200000X2.550000*%
%ADD24RoundRect,0.082000X0.568675X-0.368567X0.614436X0.285835X-0.568675X0.368567X-0.614436X-0.285835X0*%
%ADD25FreePoly0,86.000000*%
%ADD26RoundRect,0.255000X1.138545X0.942876X-0.996242X1.092155X-1.138545X-0.942876X0.996242X-1.092155X0*%
%ADD27RotRect,1.200000X2.550000X356.000000*%
%ADD28RotRect,1.200000X2.550000X176.000000*%
%ADD29RoundRect,0.082000X0.657687X-0.163344X0.487901X0.470303X-0.657687X0.163344X-0.487901X-0.470303X0*%
%ADD30FreePoly0,105.000000*%
%ADD31RoundRect,0.255000X0.769545X1.262181X-1.297536X0.708308X-0.769545X-1.262181X1.297536X-0.708308X0*%
%ADD32RotRect,1.200000X2.550000X15.000000*%
%ADD33RotRect,1.200000X2.550000X195.000000*%
%ADD34RoundRect,0.082000X0.527034X-0.425990X0.640948X0.220044X-0.527034X0.425990X-0.640948X-0.220044X0*%
%ADD35FreePoly0,80.000000*%
%ADD36RoundRect,0.255000X1.230865X0.818700X-0.876623X1.190307X-1.230865X-0.818700X0.876623X-1.190307X0*%
%ADD37RotRect,1.200000X2.550000X350.000000*%
%ADD38RotRect,1.200000X2.550000X170.000000*%
%ADD39RoundRect,0.082000X0.677553X0.012444X0.349553X0.580556X-0.677553X-0.012444X-0.349553X-0.580556X0*%
%ADD40FreePoly0,120.000000*%
%ADD41RoundRect,0.255000X0.416647X1.418346X-1.436647X0.348346X-0.416647X-1.418346X1.436647X-0.348346X0*%
%ADD42RotRect,1.200000X2.550000X30.000000*%
%ADD43RotRect,1.200000X2.550000X210.000000*%
%ADD44C,3.200000*%
%ADD45RotRect,1.800000X1.500000X350.000000*%
%ADD46R,1.800000X1.500000*%
%ADD47RotRect,1.800000X1.500000X356.000000*%
%ADD48RotRect,1.800000X1.500000X105.000000*%
%ADD49R,2.200000X2.200000*%
%ADD50C,2.200000*%
%ADD51C,2.000000*%
%ADD52R,3.200000X2.000000*%
%ADD53O,1.600000X2.000000*%
%ADD54C,1.200000*%
%ADD55O,2.500000X1.700000*%
%ADD56RotRect,1.800000X1.500000X120.000000*%
%ADD57O,1.750000X1.200000*%
%ADD58C,0.900000*%
%ADD59RoundRect,0.187500X-0.712500X0.187500X-0.712500X-0.187500X0.712500X-0.187500X0.712500X0.187500X0*%
%ADD60RoundRect,0.150000X-0.750000X0.150000X-0.750000X-0.150000X0.750000X-0.150000X0.750000X0.150000X0*%
%ADD61RoundRect,0.225000X-0.225000X0.425000X-0.225000X-0.425000X0.225000X-0.425000X0.225000X0.425000X0*%
%ADD62C,4.400000*%
%ADD63RotRect,1.800000X1.500000X135.000000*%
%ADD64R,1.500000X1.800000*%
%ADD65RoundRect,0.142858X-0.857142X0.857142X-0.857142X-0.857142X0.857142X-0.857142X0.857142X0.857142X0*%
%ADD66R,1.000000X0.700000*%
%ADD67R,2.800000X1.000000*%
%ADD68R,1.524000X1.524000*%
%ADD69C,1.800000*%
%ADD70C,1.524000*%
%ADD71FreePoly1,270.000000*%
%ADD72FreePoly2,270.000000*%
%ADD73FreePoly1,90.000000*%
%ADD74FreePoly2,90.000000*%
%ADD75FreePoly1,210.000000*%
%ADD76FreePoly2,210.000000*%
%ADD77C,1.700000*%
%ADD78O,1.700000X1.700000*%
G04 APERTURE END LIST*
D10*
X110814594Y-54746932D02*
X110802748Y-54590367D01*
X110768374Y-54441215D01*
X110713215Y-54301221D01*
X110610353Y-54131821D01*
X110477775Y-53985936D01*
X110319616Y-53867699D01*
X110140009Y-53781245D01*
X109993716Y-53739749D01*
X109839429Y-53720200D01*
X109786525Y-53718863D01*
X112905000Y-55809270D02*
X112905000Y-53718864D01*
X107456236Y-54781201D02*
X107456236Y-53753133D01*
X109786525Y-53718863D02*
X109629960Y-53730708D01*
X109480809Y-53765082D01*
X109340815Y-53820241D01*
X109171415Y-53923103D01*
X109025530Y-54055681D01*
X108907293Y-54213840D01*
X108820839Y-54393447D01*
X108779343Y-54539740D01*
X108759794Y-54694027D01*
X108758457Y-54746932D01*
X107936003Y-54781201D02*
X107421968Y-55809270D01*
X108484304Y-54781201D02*
X108484304Y-55809270D01*
X108758457Y-54746932D02*
X108758457Y-54746932D01*
D11*
G36*
X95694784Y-88040876D02*
G01*
X93980908Y-87695563D01*
X93988414Y-87697078D01*
X94414731Y-87783171D01*
X94906841Y-88591738D01*
X94971617Y-88698170D01*
X97083542Y-88930317D01*
X97080143Y-88915588D01*
X96866762Y-88179517D01*
X97817801Y-88179517D01*
X98258597Y-88975384D01*
X98497251Y-89001842D01*
X98021530Y-88220263D01*
X97817802Y-88178988D01*
X97817801Y-88179517D01*
X96866762Y-88179517D01*
X96529280Y-87015351D01*
X98401031Y-87623220D01*
X96529280Y-87014821D01*
X96570622Y-86977251D01*
X96706022Y-86977251D01*
X98257009Y-87481017D01*
X98123660Y-87088905D01*
X96997593Y-86712138D01*
X96997593Y-86712667D01*
X96706022Y-86977251D01*
X96570622Y-86977251D01*
X96975897Y-86608951D01*
X96975897Y-86609480D01*
X98195097Y-87017467D01*
X98352987Y-87481017D01*
X98401472Y-87623363D01*
X97964483Y-86340134D01*
X98078151Y-86340134D01*
X99373551Y-88258363D01*
X99691051Y-87958855D01*
X98334268Y-86107830D01*
X98078151Y-86340134D01*
X97964483Y-86340134D01*
X97960156Y-86327427D01*
X97959089Y-86325846D01*
X98348026Y-85972892D01*
X99803557Y-87958855D01*
X99811701Y-87969967D01*
X99358205Y-88397534D01*
X97643706Y-88051988D01*
X98078681Y-88139830D01*
X98603200Y-89001842D01*
X98665489Y-89104209D01*
X100314455Y-89285467D01*
X100314455Y-89345308D01*
X100314455Y-90441348D01*
X101778613Y-91086759D01*
X101395380Y-91326492D01*
X100109622Y-92130805D01*
X100110471Y-92131133D01*
X100141423Y-92111755D01*
X100311235Y-92111755D01*
X100697526Y-92260980D01*
X101709822Y-91640267D01*
X101693947Y-91246567D01*
X100311235Y-92111755D01*
X100141423Y-92111755D01*
X101778614Y-91086759D01*
X101800482Y-91640267D01*
X101802426Y-91689479D01*
X100707185Y-92361968D01*
X101388618Y-92625575D01*
X101405427Y-93053143D01*
X101409255Y-93150509D01*
X98938576Y-92989643D01*
X98907994Y-92468413D01*
X98998901Y-92468413D01*
X99024301Y-92903917D01*
X101314535Y-93053143D01*
X101300776Y-92707597D01*
X98998901Y-92468413D01*
X98907994Y-92468413D01*
X98902064Y-92367343D01*
X98902063Y-92367343D01*
X98902064Y-92367342D01*
X100058176Y-91443169D01*
X98390045Y-92405868D01*
X98668701Y-92528738D01*
X98690549Y-93081717D01*
X98692514Y-93131458D01*
X97597382Y-93803880D01*
X97611584Y-93809376D01*
X98278511Y-94067480D01*
X98279235Y-94067555D01*
X98296475Y-94495121D01*
X98300401Y-94592488D01*
X95829722Y-94431622D01*
X95799140Y-93910392D01*
X95889518Y-93910392D01*
X95914918Y-94345896D01*
X98205152Y-94495121D01*
X98191393Y-94149576D01*
X95889518Y-93910392D01*
X95799140Y-93910392D01*
X95798613Y-93901417D01*
X94722135Y-94522666D01*
X94396964Y-93572784D01*
X97000239Y-93572784D01*
X97000761Y-93572986D01*
X97031513Y-93553733D01*
X97201851Y-93553733D01*
X97588143Y-93702959D01*
X98599910Y-93081717D01*
X98584068Y-92688856D01*
X97201851Y-93553733D01*
X97031513Y-93553733D01*
X98668628Y-92528784D01*
X98285590Y-92768471D01*
X97000239Y-93572784D01*
X94396964Y-93572784D01*
X94080880Y-92649447D01*
X94058999Y-92583767D01*
X95998026Y-92583767D01*
X95998026Y-92584296D01*
X96007534Y-92738809D01*
X96788572Y-92896525D01*
X96948872Y-92768471D01*
X95998026Y-92583767D01*
X94058999Y-92583767D01*
X93805976Y-91824261D01*
X94488953Y-91824261D01*
X94722135Y-92528784D01*
X94722135Y-92512867D01*
X94497532Y-91836967D01*
X94488953Y-91824261D01*
X93805976Y-91824261D01*
X93739895Y-91625904D01*
X93734222Y-91614338D01*
X93336502Y-90915309D01*
X93984518Y-90915309D01*
X94352819Y-91460351D01*
X94203065Y-90959229D01*
X94202536Y-90959229D01*
X93984519Y-90915309D01*
X93984518Y-90915309D01*
X93336502Y-90915309D01*
X93316795Y-90880672D01*
X94272707Y-90880672D01*
X94272850Y-90881102D01*
X94274503Y-90881442D01*
X94288779Y-90929232D01*
X94464561Y-91460351D01*
X94773502Y-92393804D01*
X96932440Y-91141788D01*
X99107397Y-91141788D01*
X99107397Y-91142317D01*
X99116905Y-91296830D01*
X99897943Y-91454546D01*
X100058243Y-91326492D01*
X99107397Y-91141788D01*
X96932440Y-91141788D01*
X100030235Y-89345308D01*
X94516009Y-88739054D01*
X95060702Y-89482246D01*
X95082314Y-89463884D01*
X95113748Y-89440765D01*
X95147680Y-89419036D01*
X95183959Y-89398748D01*
X95222434Y-89379952D01*
X95262954Y-89362701D01*
X95305369Y-89347046D01*
X95349527Y-89333039D01*
X95395278Y-89320731D01*
X95442471Y-89310175D01*
X95490956Y-89301421D01*
X95540580Y-89294522D01*
X95591195Y-89289528D01*
X95642648Y-89286493D01*
X95694789Y-89285467D01*
X95732236Y-89285996D01*
X95769428Y-89287571D01*
X95806304Y-89290179D01*
X95842803Y-89293804D01*
X95878861Y-89298431D01*
X95914417Y-89304047D01*
X95949410Y-89310636D01*
X95983777Y-89318185D01*
X96017456Y-89326677D01*
X96050386Y-89336100D01*
X96082505Y-89346438D01*
X96113750Y-89357676D01*
X96144060Y-89369800D01*
X96173373Y-89382796D01*
X96201627Y-89396649D01*
X96228760Y-89411344D01*
X96254580Y-89426786D01*
X96278920Y-89442865D01*
X96301754Y-89459547D01*
X96323056Y-89476797D01*
X96342801Y-89494578D01*
X96360963Y-89512856D01*
X96377517Y-89531595D01*
X96392436Y-89550761D01*
X96405696Y-89570318D01*
X96417270Y-89590231D01*
X96427133Y-89610464D01*
X96435259Y-89630983D01*
X96441623Y-89651752D01*
X96444136Y-89662220D01*
X96446199Y-89672736D01*
X96447809Y-89683298D01*
X96448962Y-89693900D01*
X96449655Y-89704538D01*
X96449885Y-89715208D01*
X96449504Y-89724897D01*
X96448740Y-89734576D01*
X96447594Y-89744239D01*
X96446065Y-89753884D01*
X96444154Y-89763507D01*
X96441862Y-89773104D01*
X96439190Y-89782672D01*
X96436138Y-89792207D01*
X96430775Y-89772291D01*
X96423859Y-89752711D01*
X96415428Y-89733485D01*
X96405523Y-89714634D01*
X96394180Y-89696176D01*
X96381441Y-89678131D01*
X96367343Y-89660518D01*
X96351925Y-89643358D01*
X96335227Y-89626669D01*
X96317287Y-89610471D01*
X96298145Y-89594783D01*
X96277839Y-89579626D01*
X96256409Y-89565017D01*
X96233892Y-89550978D01*
X96210329Y-89537527D01*
X96185758Y-89524684D01*
X96160218Y-89512468D01*
X96133749Y-89500899D01*
X96106388Y-89489997D01*
X96078175Y-89479780D01*
X96049150Y-89470268D01*
X96019350Y-89461481D01*
X95988815Y-89453438D01*
X95957584Y-89446159D01*
X95925695Y-89439664D01*
X95893189Y-89433971D01*
X95860103Y-89429100D01*
X95826477Y-89425070D01*
X95792349Y-89421902D01*
X95757759Y-89419614D01*
X95722745Y-89418227D01*
X95687347Y-89417759D01*
X95642932Y-89418561D01*
X95598947Y-89420829D01*
X95555492Y-89424534D01*
X95512665Y-89429649D01*
X95470564Y-89436145D01*
X95429290Y-89443994D01*
X95388939Y-89453168D01*
X95349612Y-89463637D01*
X95311406Y-89475375D01*
X95274420Y-89488352D01*
X95238754Y-89502541D01*
X95204505Y-89517913D01*
X95171773Y-89534441D01*
X95140656Y-89552094D01*
X95121056Y-89564595D01*
X95945403Y-90689354D01*
X95953547Y-90700467D01*
X95500051Y-91128034D01*
X94272707Y-90880672D01*
X93316795Y-90880672D01*
X93304998Y-90859938D01*
X94169835Y-90859938D01*
X94169889Y-90860103D01*
X94173246Y-90860781D01*
X94173191Y-90860615D01*
X94169835Y-90859938D01*
X93304998Y-90859938D01*
X92925187Y-90192387D01*
X94044909Y-90192387D01*
X94044910Y-90192389D01*
X94543317Y-90354392D01*
X94543317Y-90354391D01*
X94044909Y-90192387D01*
X92925187Y-90192387D01*
X92905307Y-90157446D01*
X93937412Y-90157446D01*
X93937413Y-90157448D01*
X93939746Y-90158206D01*
X93939745Y-90158204D01*
X93937412Y-90157446D01*
X92905307Y-90157446D01*
X92671126Y-89745851D01*
X93464380Y-90003692D01*
X93464380Y-90003691D01*
X92671126Y-89745850D01*
X92713051Y-89707750D01*
X92847870Y-89707750D01*
X94234725Y-90158206D01*
X94398857Y-90211517D01*
X94265507Y-89819404D01*
X93139440Y-89442637D01*
X93139440Y-89443167D01*
X92847870Y-89707750D01*
X92713051Y-89707750D01*
X93117744Y-89339979D01*
X93117744Y-89340508D01*
X93442131Y-89449060D01*
X93397151Y-88525100D01*
X93735395Y-89547196D01*
X93736870Y-89547690D01*
X93432139Y-88630417D01*
X93527894Y-88630417D01*
X93843305Y-89583307D01*
X94336944Y-89748496D01*
X94494654Y-90211517D01*
X94540242Y-90345360D01*
X94106326Y-89070634D01*
X94220527Y-89070634D01*
X95081362Y-90345360D01*
X95087462Y-90354392D01*
X95429431Y-90860781D01*
X95515926Y-90988863D01*
X95833426Y-90689354D01*
X94476643Y-88838329D01*
X94220527Y-89070634D01*
X94106326Y-89070634D01*
X94101999Y-89057922D01*
X94100935Y-89056346D01*
X94457645Y-88732637D01*
X93527894Y-88630417D01*
X93432139Y-88630417D01*
X93397151Y-88525100D01*
X93420968Y-88527718D01*
X93397143Y-88525063D01*
X93197038Y-87822330D01*
X94154381Y-87822330D01*
X94154381Y-87822859D01*
X94565014Y-88564221D01*
X94801022Y-88591738D01*
X94358110Y-87863605D01*
X94154381Y-87822330D01*
X93197038Y-87822330D01*
X93160875Y-87695330D01*
X93979754Y-87695330D01*
X93980724Y-87697078D01*
X93979756Y-87695330D01*
X93979754Y-87695330D01*
X93160875Y-87695330D01*
X92860567Y-86640701D01*
X94738051Y-87266705D01*
X94738050Y-87266704D01*
X92860568Y-86640701D01*
X92901258Y-86605776D01*
X93041015Y-86605776D01*
X94593060Y-87123301D01*
X94460240Y-86732775D01*
X93332586Y-86355480D01*
X93332585Y-86355480D01*
X93041015Y-86605776D01*
X92901258Y-86605776D01*
X93312477Y-86252821D01*
X94531446Y-86660732D01*
X94295667Y-85969189D01*
X95075098Y-87123301D01*
X95694784Y-88040876D01*
G37*
D10*
X107456236Y-53753133D02*
X108484304Y-53753133D01*
D11*
G36*
X96148281Y-87613309D02*
G01*
X95694785Y-88040876D01*
X94305318Y-85983476D01*
X94414731Y-85983476D01*
X95710131Y-87901705D01*
X96027631Y-87602196D01*
X94670848Y-85751171D01*
X94414731Y-85983476D01*
X94305318Y-85983476D01*
X94295669Y-85969188D01*
X94684606Y-85616234D01*
X96140136Y-87602196D01*
X96148281Y-87613309D01*
G37*
D10*
X111534242Y-55775001D02*
X111534242Y-53718864D01*
D12*
X158468562Y-117585385D02*
X158480532Y-117586297D01*
X158492309Y-117587798D01*
X158503880Y-117589872D01*
X158515231Y-117592504D01*
X158526349Y-117595678D01*
X158537221Y-117599379D01*
X158547832Y-117603592D01*
X158558170Y-117608300D01*
X158568220Y-117613489D01*
X158577969Y-117619143D01*
X158587404Y-117625247D01*
X158596511Y-117631784D01*
X158605276Y-117638740D01*
X158613686Y-117646098D01*
X158621727Y-117653844D01*
X158629386Y-117661962D01*
X158636649Y-117670437D01*
X158643503Y-117679252D01*
X158649934Y-117688393D01*
X158655928Y-117697843D01*
X158661472Y-117707589D01*
X158666553Y-117717613D01*
X158671156Y-117727900D01*
X158675268Y-117738436D01*
X158678876Y-117749204D01*
X158681967Y-117760189D01*
X158684525Y-117771375D01*
X158686539Y-117782747D01*
X158687994Y-117794290D01*
X158688878Y-117805988D01*
X158689175Y-117817825D01*
X158688878Y-117829973D01*
X158687994Y-117841942D01*
X158686539Y-117853718D01*
X158684525Y-117865288D01*
X158681967Y-117876639D01*
X158678876Y-117887757D01*
X158675268Y-117898628D01*
X158671156Y-117909238D01*
X158666553Y-117919575D01*
X158661472Y-117929625D01*
X158655928Y-117939374D01*
X158649934Y-117948808D01*
X158643503Y-117957914D01*
X158636649Y-117966679D01*
X158629386Y-117975088D01*
X158621727Y-117983129D01*
X158613686Y-117990788D01*
X158605276Y-117998050D01*
X158596511Y-118004904D01*
X158587404Y-118011334D01*
X158577969Y-118017328D01*
X158568220Y-118022872D01*
X158558170Y-118027952D01*
X158547832Y-118032555D01*
X158537221Y-118036667D01*
X158526349Y-118040275D01*
X158515231Y-118043365D01*
X158503880Y-118045924D01*
X158492309Y-118047937D01*
X158480532Y-118049393D01*
X158468562Y-118050276D01*
X158456414Y-118050573D01*
X158444266Y-118050276D01*
X158432296Y-118049393D01*
X158420519Y-118047937D01*
X158408949Y-118045924D01*
X158397597Y-118043365D01*
X158386479Y-118040275D01*
X158375607Y-118036667D01*
X158364996Y-118032555D01*
X158354658Y-118027952D01*
X158344608Y-118022872D01*
X158334859Y-118017328D01*
X158325424Y-118011334D01*
X158316317Y-118004904D01*
X158307552Y-117998050D01*
X158299142Y-117990788D01*
X158291101Y-117983129D01*
X158283442Y-117975088D01*
X158276179Y-117966679D01*
X158269325Y-117957914D01*
X158262894Y-117948808D01*
X158256900Y-117939374D01*
X158251356Y-117929625D01*
X158246276Y-117919575D01*
X158241672Y-117909238D01*
X158237560Y-117898628D01*
X158233952Y-117887757D01*
X158230861Y-117876639D01*
X158228303Y-117865288D01*
X158226289Y-117853718D01*
X158224834Y-117841942D01*
X158223950Y-117829973D01*
X158223653Y-117817825D01*
X158223950Y-117805678D01*
X158224834Y-117793709D01*
X158226289Y-117781933D01*
X158228303Y-117770363D01*
X158230861Y-117759012D01*
X158233952Y-117747894D01*
X158237560Y-117737023D01*
X158241672Y-117726412D01*
X158246276Y-117716075D01*
X158251356Y-117706026D01*
X158256900Y-117696277D01*
X158262894Y-117686843D01*
X158269325Y-117677737D01*
X158276179Y-117668972D01*
X158283442Y-117660563D01*
X158291101Y-117652522D01*
X158299142Y-117644863D01*
X158307552Y-117637600D01*
X158316317Y-117630747D01*
X158325424Y-117624317D01*
X158334859Y-117618323D01*
X158344608Y-117612779D01*
X158354658Y-117607699D01*
X158364996Y-117603096D01*
X158375607Y-117598984D01*
X158386479Y-117595376D01*
X158397597Y-117592286D01*
X158408949Y-117589727D01*
X158420519Y-117587713D01*
X158432296Y-117586258D01*
X158444266Y-117585375D01*
X158456414Y-117585078D01*
X158468562Y-117585385D01*
G36*
X158468562Y-117585385D02*
G01*
X158480532Y-117586297D01*
X158492309Y-117587798D01*
X158503880Y-117589872D01*
X158515231Y-117592504D01*
X158526349Y-117595678D01*
X158537221Y-117599379D01*
X158547832Y-117603592D01*
X158558170Y-117608300D01*
X158568220Y-117613489D01*
X158577969Y-117619143D01*
X158587404Y-117625247D01*
X158596511Y-117631784D01*
X158605276Y-117638740D01*
X158613686Y-117646098D01*
X158621727Y-117653844D01*
X158629386Y-117661962D01*
X158636649Y-117670437D01*
X158643503Y-117679252D01*
X158649934Y-117688393D01*
X158655928Y-117697843D01*
X158661472Y-117707589D01*
X158666553Y-117717613D01*
X158671156Y-117727900D01*
X158675268Y-117738436D01*
X158678876Y-117749204D01*
X158681967Y-117760189D01*
X158684525Y-117771375D01*
X158686539Y-117782747D01*
X158687994Y-117794290D01*
X158688878Y-117805988D01*
X158689175Y-117817825D01*
X158688878Y-117829973D01*
X158687994Y-117841942D01*
X158686539Y-117853718D01*
X158684525Y-117865288D01*
X158681967Y-117876639D01*
X158678876Y-117887757D01*
X158675268Y-117898628D01*
X158671156Y-117909238D01*
X158666553Y-117919575D01*
X158661472Y-117929625D01*
X158655928Y-117939374D01*
X158649934Y-117948808D01*
X158643503Y-117957914D01*
X158636649Y-117966679D01*
X158629386Y-117975088D01*
X158621727Y-117983129D01*
X158613686Y-117990788D01*
X158605276Y-117998050D01*
X158596511Y-118004904D01*
X158587404Y-118011334D01*
X158577969Y-118017328D01*
X158568220Y-118022872D01*
X158558170Y-118027952D01*
X158547832Y-118032555D01*
X158537221Y-118036667D01*
X158526349Y-118040275D01*
X158515231Y-118043365D01*
X158503880Y-118045924D01*
X158492309Y-118047937D01*
X158480532Y-118049393D01*
X158468562Y-118050276D01*
X158456414Y-118050573D01*
X158444266Y-118050276D01*
X158432296Y-118049393D01*
X158420519Y-118047937D01*
X158408949Y-118045924D01*
X158397597Y-118043365D01*
X158386479Y-118040275D01*
X158375607Y-118036667D01*
X158364996Y-118032555D01*
X158354658Y-118027952D01*
X158344608Y-118022872D01*
X158334859Y-118017328D01*
X158325424Y-118011334D01*
X158316317Y-118004904D01*
X158307552Y-117998050D01*
X158299142Y-117990788D01*
X158291101Y-117983129D01*
X158283442Y-117975088D01*
X158276179Y-117966679D01*
X158269325Y-117957914D01*
X158262894Y-117948808D01*
X158256900Y-117939374D01*
X158251356Y-117929625D01*
X158246276Y-117919575D01*
X158241672Y-117909238D01*
X158237560Y-117898628D01*
X158233952Y-117887757D01*
X158230861Y-117876639D01*
X158228303Y-117865288D01*
X158226289Y-117853718D01*
X158224834Y-117841942D01*
X158223950Y-117829973D01*
X158223653Y-117817825D01*
X158223950Y-117805678D01*
X158224834Y-117793709D01*
X158226289Y-117781933D01*
X158228303Y-117770363D01*
X158230861Y-117759012D01*
X158233952Y-117747894D01*
X158237560Y-117737023D01*
X158241672Y-117726412D01*
X158246276Y-117716075D01*
X158251356Y-117706026D01*
X158256900Y-117696277D01*
X158262894Y-117686843D01*
X158269325Y-117677737D01*
X158276179Y-117668972D01*
X158283442Y-117660563D01*
X158291101Y-117652522D01*
X158299142Y-117644863D01*
X158307552Y-117637600D01*
X158316317Y-117630747D01*
X158325424Y-117624317D01*
X158334859Y-117618323D01*
X158344608Y-117612779D01*
X158354658Y-117607699D01*
X158364996Y-117603096D01*
X158375607Y-117598984D01*
X158386479Y-117595376D01*
X158397597Y-117592286D01*
X158408949Y-117589727D01*
X158420519Y-117587713D01*
X158432296Y-117586258D01*
X158444266Y-117585375D01*
X158456414Y-117585078D01*
X158468562Y-117585385D01*
G37*
D10*
X108758457Y-54746932D02*
X108770302Y-54903496D01*
X108804676Y-55052647D01*
X108859835Y-55192641D01*
X108962697Y-55362041D01*
X109095275Y-55507926D01*
X109253434Y-55626163D01*
X109433040Y-55712617D01*
X109579333Y-55754113D01*
X109733620Y-55773662D01*
X109786525Y-55775000D01*
D12*
X159627273Y-117817825D02*
X159627273Y-118350324D01*
X159627273Y-118992143D01*
X157282029Y-118992143D01*
X157282029Y-118861663D01*
X157412516Y-118861663D01*
X157923885Y-118861663D01*
X157883349Y-118839726D01*
X157843763Y-118816260D01*
X157805170Y-118791306D01*
X157767609Y-118764906D01*
X157731123Y-118737100D01*
X157695753Y-118707931D01*
X157661540Y-118677439D01*
X157628526Y-118645667D01*
X157596751Y-118612654D01*
X157566258Y-118578443D01*
X157537087Y-118543075D01*
X157509280Y-118506591D01*
X157482878Y-118469033D01*
X157457922Y-118430441D01*
X157434455Y-118390858D01*
X157412516Y-118350324D01*
X157412516Y-118861663D01*
X157282029Y-118861663D01*
X157282029Y-117817825D01*
X157412516Y-117817825D01*
X157413879Y-117871393D01*
X157417924Y-117924275D01*
X157424585Y-117976404D01*
X157433794Y-118027713D01*
X157445485Y-118078136D01*
X157459592Y-118127607D01*
X157476048Y-118176059D01*
X157494787Y-118223426D01*
X157515742Y-118269640D01*
X157538847Y-118314636D01*
X157564036Y-118358347D01*
X157591241Y-118400707D01*
X157620396Y-118441649D01*
X157651434Y-118481106D01*
X157684290Y-118519012D01*
X157718897Y-118555301D01*
X157755187Y-118589905D01*
X157793096Y-118622759D01*
X157832555Y-118653796D01*
X157873499Y-118682949D01*
X157915861Y-118710153D01*
X157959575Y-118735340D01*
X158004573Y-118758443D01*
X158050791Y-118779397D01*
X158098160Y-118798135D01*
X158146614Y-118814591D01*
X158196088Y-118828697D01*
X158246514Y-118840387D01*
X158297827Y-118849596D01*
X158349958Y-118856256D01*
X158402843Y-118860300D01*
X158456414Y-118861663D01*
X158988943Y-118861663D01*
X159500312Y-118861663D01*
X159500312Y-118350324D01*
X159478374Y-118390858D01*
X159454906Y-118430441D01*
X159429951Y-118469033D01*
X159403549Y-118506591D01*
X159375742Y-118543075D01*
X159346571Y-118578443D01*
X159316077Y-118612654D01*
X159284303Y-118645667D01*
X159251288Y-118677439D01*
X159217076Y-118707931D01*
X159181705Y-118737100D01*
X159145219Y-118764906D01*
X159107659Y-118791306D01*
X159069065Y-118816260D01*
X159029480Y-118839726D01*
X158988943Y-118861663D01*
X158456414Y-118861663D01*
X158509985Y-118860300D01*
X158562870Y-118856256D01*
X158615001Y-118849596D01*
X158666314Y-118840387D01*
X158716740Y-118828697D01*
X158766214Y-118814591D01*
X158814668Y-118798135D01*
X158862038Y-118779397D01*
X158908255Y-118758443D01*
X158953254Y-118735340D01*
X158996967Y-118710153D01*
X159039329Y-118682949D01*
X159080273Y-118653796D01*
X159119733Y-118622759D01*
X159157641Y-118589905D01*
X159193932Y-118555301D01*
X159228538Y-118519012D01*
X159261394Y-118481106D01*
X159292433Y-118441649D01*
X159321588Y-118400707D01*
X159348793Y-118358347D01*
X159373981Y-118314636D01*
X159397086Y-118269640D01*
X159418041Y-118223426D01*
X159436780Y-118176059D01*
X159453237Y-118127607D01*
X159467344Y-118078136D01*
X159479035Y-118027713D01*
X159488244Y-117976404D01*
X159494904Y-117924275D01*
X159498949Y-117871393D01*
X159500312Y-117817825D01*
X159498949Y-117764257D01*
X159494904Y-117711376D01*
X159488244Y-117659247D01*
X159479035Y-117607938D01*
X159467344Y-117557515D01*
X159453237Y-117508044D01*
X159436780Y-117459592D01*
X159418041Y-117412225D01*
X159397086Y-117366011D01*
X159373981Y-117321014D01*
X159348793Y-117277303D01*
X159321588Y-117234944D01*
X159292433Y-117194002D01*
X159261394Y-117154545D01*
X159228538Y-117116639D01*
X159193932Y-117080350D01*
X159157641Y-117045746D01*
X159119733Y-117012892D01*
X159080273Y-116981855D01*
X159039329Y-116952701D01*
X158996967Y-116925498D01*
X158953254Y-116900311D01*
X158908255Y-116877208D01*
X158862038Y-116856254D01*
X158814668Y-116837516D01*
X158766214Y-116821060D01*
X158716740Y-116806954D01*
X158666314Y-116795263D01*
X158615001Y-116786055D01*
X158562870Y-116779395D01*
X158509985Y-116775350D01*
X158456414Y-116773987D01*
X158988943Y-116773987D01*
X159029480Y-116795925D01*
X159069065Y-116819391D01*
X159107659Y-116844345D01*
X159145219Y-116870745D01*
X159181705Y-116898550D01*
X159217076Y-116927720D01*
X159251288Y-116958211D01*
X159284303Y-116989984D01*
X159316077Y-117022997D01*
X159346571Y-117057208D01*
X159375742Y-117092576D01*
X159403549Y-117129060D01*
X159429951Y-117166618D01*
X159454906Y-117205210D01*
X159478374Y-117244793D01*
X159500312Y-117285327D01*
X159500312Y-116773987D01*
X158988943Y-116773987D01*
X158456414Y-116773987D01*
X158402843Y-116775350D01*
X158349958Y-116779395D01*
X158297827Y-116786055D01*
X158246514Y-116795263D01*
X158196088Y-116806954D01*
X158146614Y-116821060D01*
X158098160Y-116837516D01*
X158050791Y-116856254D01*
X158004573Y-116877208D01*
X157959575Y-116900311D01*
X157915861Y-116925498D01*
X157873499Y-116952701D01*
X157832555Y-116981855D01*
X157793096Y-117012892D01*
X157755187Y-117045746D01*
X157718897Y-117080350D01*
X157684290Y-117116639D01*
X157651434Y-117154545D01*
X157620396Y-117194002D01*
X157591241Y-117234944D01*
X157564036Y-117277303D01*
X157538847Y-117321014D01*
X157515742Y-117366011D01*
X157494787Y-117412225D01*
X157476048Y-117459592D01*
X157459592Y-117508044D01*
X157445485Y-117557515D01*
X157433794Y-117607938D01*
X157424585Y-117659247D01*
X157417924Y-117711376D01*
X157413879Y-117764257D01*
X157412516Y-117817825D01*
X157282029Y-117817825D01*
X157282029Y-117285327D01*
X157412516Y-117285327D01*
X157434455Y-117244793D01*
X157457922Y-117205210D01*
X157482878Y-117166618D01*
X157509280Y-117129060D01*
X157537087Y-117092576D01*
X157566258Y-117057208D01*
X157596751Y-117022997D01*
X157628526Y-116989984D01*
X157661540Y-116958211D01*
X157695753Y-116927720D01*
X157731123Y-116898550D01*
X157767609Y-116870745D01*
X157805170Y-116844345D01*
X157843763Y-116819391D01*
X157883349Y-116795925D01*
X157923885Y-116773987D01*
X157412516Y-116773987D01*
X157412516Y-117285327D01*
X157282029Y-117285327D01*
X157282029Y-116647034D01*
X159627273Y-116647034D01*
X159627273Y-117285327D01*
X159627273Y-117817825D01*
G36*
X159627273Y-117817825D02*
G01*
X159627273Y-118350324D01*
X159627273Y-118992143D01*
X157282029Y-118992143D01*
X157282029Y-118861663D01*
X157412516Y-118861663D01*
X157923885Y-118861663D01*
X157883349Y-118839726D01*
X157843763Y-118816260D01*
X157805170Y-118791306D01*
X157767609Y-118764906D01*
X157731123Y-118737100D01*
X157695753Y-118707931D01*
X157661540Y-118677439D01*
X157628526Y-118645667D01*
X157596751Y-118612654D01*
X157566258Y-118578443D01*
X157537087Y-118543075D01*
X157509280Y-118506591D01*
X157482878Y-118469033D01*
X157457922Y-118430441D01*
X157434455Y-118390858D01*
X157412516Y-118350324D01*
X157412516Y-118861663D01*
X157282029Y-118861663D01*
X157282029Y-117817825D01*
X157412516Y-117817825D01*
X157413879Y-117871393D01*
X157417924Y-117924275D01*
X157424585Y-117976404D01*
X157433794Y-118027713D01*
X157445485Y-118078136D01*
X157459592Y-118127607D01*
X157476048Y-118176059D01*
X157494787Y-118223426D01*
X157515742Y-118269640D01*
X157538847Y-118314636D01*
X157564036Y-118358347D01*
X157591241Y-118400707D01*
X157620396Y-118441649D01*
X157651434Y-118481106D01*
X157684290Y-118519012D01*
X157718897Y-118555301D01*
X157755187Y-118589905D01*
X157793096Y-118622759D01*
X157832555Y-118653796D01*
X157873499Y-118682949D01*
X157915861Y-118710153D01*
X157959575Y-118735340D01*
X158004573Y-118758443D01*
X158050791Y-118779397D01*
X158098160Y-118798135D01*
X158146614Y-118814591D01*
X158196088Y-118828697D01*
X158246514Y-118840387D01*
X158297827Y-118849596D01*
X158349958Y-118856256D01*
X158402843Y-118860300D01*
X158456414Y-118861663D01*
X158988943Y-118861663D01*
X159500312Y-118861663D01*
X159500312Y-118350324D01*
X159478374Y-118390858D01*
X159454906Y-118430441D01*
X159429951Y-118469033D01*
X159403549Y-118506591D01*
X159375742Y-118543075D01*
X159346571Y-118578443D01*
X159316077Y-118612654D01*
X159284303Y-118645667D01*
X159251288Y-118677439D01*
X159217076Y-118707931D01*
X159181705Y-118737100D01*
X159145219Y-118764906D01*
X159107659Y-118791306D01*
X159069065Y-118816260D01*
X159029480Y-118839726D01*
X158988943Y-118861663D01*
X158456414Y-118861663D01*
X158509985Y-118860300D01*
X158562870Y-118856256D01*
X158615001Y-118849596D01*
X158666314Y-118840387D01*
X158716740Y-118828697D01*
X158766214Y-118814591D01*
X158814668Y-118798135D01*
X158862038Y-118779397D01*
X158908255Y-118758443D01*
X158953254Y-118735340D01*
X158996967Y-118710153D01*
X159039329Y-118682949D01*
X159080273Y-118653796D01*
X159119733Y-118622759D01*
X159157641Y-118589905D01*
X159193932Y-118555301D01*
X159228538Y-118519012D01*
X159261394Y-118481106D01*
X159292433Y-118441649D01*
X159321588Y-118400707D01*
X159348793Y-118358347D01*
X159373981Y-118314636D01*
X159397086Y-118269640D01*
X159418041Y-118223426D01*
X159436780Y-118176059D01*
X159453237Y-118127607D01*
X159467344Y-118078136D01*
X159479035Y-118027713D01*
X159488244Y-117976404D01*
X159494904Y-117924275D01*
X159498949Y-117871393D01*
X159500312Y-117817825D01*
X159498949Y-117764257D01*
X159494904Y-117711376D01*
X159488244Y-117659247D01*
X159479035Y-117607938D01*
X159467344Y-117557515D01*
X159453237Y-117508044D01*
X159436780Y-117459592D01*
X159418041Y-117412225D01*
X159397086Y-117366011D01*
X159373981Y-117321014D01*
X159348793Y-117277303D01*
X159321588Y-117234944D01*
X159292433Y-117194002D01*
X159261394Y-117154545D01*
X159228538Y-117116639D01*
X159193932Y-117080350D01*
X159157641Y-117045746D01*
X159119733Y-117012892D01*
X159080273Y-116981855D01*
X159039329Y-116952701D01*
X158996967Y-116925498D01*
X158953254Y-116900311D01*
X158908255Y-116877208D01*
X158862038Y-116856254D01*
X158814668Y-116837516D01*
X158766214Y-116821060D01*
X158716740Y-116806954D01*
X158666314Y-116795263D01*
X158615001Y-116786055D01*
X158562870Y-116779395D01*
X158509985Y-116775350D01*
X158456414Y-116773987D01*
X158988943Y-116773987D01*
X159029480Y-116795925D01*
X159069065Y-116819391D01*
X159107659Y-116844345D01*
X159145219Y-116870745D01*
X159181705Y-116898550D01*
X159217076Y-116927720D01*
X159251288Y-116958211D01*
X159284303Y-116989984D01*
X159316077Y-117022997D01*
X159346571Y-117057208D01*
X159375742Y-117092576D01*
X159403549Y-117129060D01*
X159429951Y-117166618D01*
X159454906Y-117205210D01*
X159478374Y-117244793D01*
X159500312Y-117285327D01*
X159500312Y-116773987D01*
X158988943Y-116773987D01*
X158456414Y-116773987D01*
X158402843Y-116775350D01*
X158349958Y-116779395D01*
X158297827Y-116786055D01*
X158246514Y-116795263D01*
X158196088Y-116806954D01*
X158146614Y-116821060D01*
X158098160Y-116837516D01*
X158050791Y-116856254D01*
X158004573Y-116877208D01*
X157959575Y-116900311D01*
X157915861Y-116925498D01*
X157873499Y-116952701D01*
X157832555Y-116981855D01*
X157793096Y-117012892D01*
X157755187Y-117045746D01*
X157718897Y-117080350D01*
X157684290Y-117116639D01*
X157651434Y-117154545D01*
X157620396Y-117194002D01*
X157591241Y-117234944D01*
X157564036Y-117277303D01*
X157538847Y-117321014D01*
X157515742Y-117366011D01*
X157494787Y-117412225D01*
X157476048Y-117459592D01*
X157459592Y-117508044D01*
X157445485Y-117557515D01*
X157433794Y-117607938D01*
X157424585Y-117659247D01*
X157417924Y-117711376D01*
X157413879Y-117764257D01*
X157412516Y-117817825D01*
X157282029Y-117817825D01*
X157282029Y-117285327D01*
X157412516Y-117285327D01*
X157434455Y-117244793D01*
X157457922Y-117205210D01*
X157482878Y-117166618D01*
X157509280Y-117129060D01*
X157537087Y-117092576D01*
X157566258Y-117057208D01*
X157596751Y-117022997D01*
X157628526Y-116989984D01*
X157661540Y-116958211D01*
X157695753Y-116927720D01*
X157731123Y-116898550D01*
X157767609Y-116870745D01*
X157805170Y-116844345D01*
X157843763Y-116819391D01*
X157883349Y-116795925D01*
X157923885Y-116773987D01*
X157412516Y-116773987D01*
X157412516Y-117285327D01*
X157282029Y-117285327D01*
X157282029Y-116647034D01*
X159627273Y-116647034D01*
X159627273Y-117285327D01*
X159627273Y-117817825D01*
G37*
X157005507Y-114182081D02*
X157003421Y-114182025D01*
X157006949Y-114182025D01*
X157005507Y-114182081D01*
G36*
X157005507Y-114182081D02*
G01*
X157003421Y-114182025D01*
X157006949Y-114182025D01*
X157005507Y-114182081D01*
G37*
D10*
X109786525Y-55775000D02*
X109943089Y-55763154D01*
X110092241Y-55728780D01*
X110232235Y-55673621D01*
X110401635Y-55570759D01*
X110547520Y-55438181D01*
X110665757Y-55280022D01*
X110752211Y-55100416D01*
X110793707Y-54954123D01*
X110813256Y-54799836D01*
X110814594Y-54746932D01*
D12*
X162635532Y-117038473D02*
X162669701Y-117078220D01*
X162702078Y-117119403D01*
X162732605Y-117161971D01*
X162761225Y-117205871D01*
X162787883Y-117251052D01*
X162812521Y-117297463D01*
X162835082Y-117345051D01*
X162855509Y-117393766D01*
X162873746Y-117443555D01*
X162889736Y-117494367D01*
X162903422Y-117546150D01*
X162914746Y-117598853D01*
X162923653Y-117652424D01*
X162930086Y-117706810D01*
X162933987Y-117761961D01*
X162935300Y-117817825D01*
X162935300Y-117817826D01*
X162933987Y-117873728D01*
X162930086Y-117928985D01*
X162923653Y-117983530D01*
X162914746Y-118037294D01*
X162903422Y-118090211D01*
X162889736Y-118142213D01*
X162873746Y-118193235D01*
X162855509Y-118243207D01*
X162835082Y-118292064D01*
X162812521Y-118339738D01*
X162787883Y-118386161D01*
X162761225Y-118431268D01*
X162732605Y-118474990D01*
X162702078Y-118517260D01*
X162669701Y-118558012D01*
X162635532Y-118597178D01*
X162967040Y-118928666D01*
X162875347Y-119020355D01*
X162543839Y-118688866D01*
X162504089Y-118723033D01*
X162462904Y-118755408D01*
X162420334Y-118785933D01*
X162376431Y-118814552D01*
X162331248Y-118841208D01*
X162284834Y-118865844D01*
X162237243Y-118888404D01*
X162188525Y-118908830D01*
X162138733Y-118927066D01*
X162087919Y-118943055D01*
X162036132Y-118956740D01*
X161983427Y-118968064D01*
X161929853Y-118976971D01*
X161875463Y-118983403D01*
X161820309Y-118987304D01*
X161764442Y-118988617D01*
X161708536Y-118987304D01*
X161653276Y-118983403D01*
X161598728Y-118976971D01*
X161544961Y-118968064D01*
X161492041Y-118956740D01*
X161440035Y-118943055D01*
X161389011Y-118927066D01*
X161339036Y-118908830D01*
X161290176Y-118888404D01*
X161242500Y-118865845D01*
X161196074Y-118841208D01*
X161150965Y-118814552D01*
X161107240Y-118785933D01*
X161064967Y-118755408D01*
X161024213Y-118723033D01*
X160985045Y-118688866D01*
X160653537Y-119020355D01*
X160561843Y-118928666D01*
X160893352Y-118597178D01*
X161073212Y-118597178D01*
X161108290Y-118626841D01*
X161144710Y-118654965D01*
X161182412Y-118681498D01*
X161221333Y-118706388D01*
X161261411Y-118729584D01*
X161302584Y-118751034D01*
X161344791Y-118770686D01*
X161387969Y-118788489D01*
X161432056Y-118804391D01*
X161476990Y-118818340D01*
X161522709Y-118830285D01*
X161569152Y-118840174D01*
X161616256Y-118847956D01*
X161663959Y-118853578D01*
X161712199Y-118856989D01*
X161760915Y-118858137D01*
X161764442Y-118858137D01*
X161813739Y-118856989D01*
X161862411Y-118853578D01*
X161910411Y-118847956D01*
X161957693Y-118840174D01*
X162004211Y-118830285D01*
X162049917Y-118818340D01*
X162094766Y-118804391D01*
X162138711Y-118788489D01*
X162181705Y-118770686D01*
X162223703Y-118751034D01*
X162264656Y-118729584D01*
X162304520Y-118706388D01*
X162343247Y-118681498D01*
X162380792Y-118654965D01*
X162417106Y-118626841D01*
X162452145Y-118597178D01*
X161764442Y-117909514D01*
X161073212Y-118597178D01*
X160893352Y-118597178D01*
X160859183Y-118557431D01*
X160826806Y-118516248D01*
X160796279Y-118473680D01*
X160767658Y-118429780D01*
X160741001Y-118384599D01*
X160716363Y-118338188D01*
X160693802Y-118290599D01*
X160673375Y-118241885D01*
X160655138Y-118192095D01*
X160639148Y-118141283D01*
X160625462Y-118089500D01*
X160614138Y-118036798D01*
X160605230Y-117983227D01*
X160598798Y-117928841D01*
X160594897Y-117873689D01*
X160593584Y-117817825D01*
X160593750Y-117810773D01*
X160720544Y-117810773D01*
X160720544Y-117814299D01*
X160721693Y-117863594D01*
X160725104Y-117912269D01*
X160730726Y-117960283D01*
X160738508Y-118007594D01*
X160748398Y-118054162D01*
X160760343Y-118099944D01*
X160774293Y-118144900D01*
X160790196Y-118188988D01*
X160808000Y-118232166D01*
X160827653Y-118274395D01*
X160849104Y-118315631D01*
X160872301Y-118355834D01*
X160897193Y-118394963D01*
X160923728Y-118432976D01*
X160951853Y-118469832D01*
X160981518Y-118505489D01*
X161669221Y-117817826D01*
X161856135Y-117817826D01*
X162543839Y-118505489D01*
X162573504Y-118470414D01*
X162601629Y-118433995D01*
X162628164Y-118396296D01*
X162653056Y-118357377D01*
X162676253Y-118317301D01*
X162697704Y-118276130D01*
X162717357Y-118233926D01*
X162735161Y-118190751D01*
X162751064Y-118146666D01*
X162765014Y-118101735D01*
X162776959Y-118056018D01*
X162786849Y-118009578D01*
X162794631Y-117962477D01*
X162800253Y-117914776D01*
X162803664Y-117866539D01*
X162804813Y-117817826D01*
X162803664Y-117769113D01*
X162800253Y-117720875D01*
X162794631Y-117673175D01*
X162786849Y-117626073D01*
X162776959Y-117579633D01*
X162765014Y-117533917D01*
X162751064Y-117488985D01*
X162735161Y-117444900D01*
X162717357Y-117401725D01*
X162697704Y-117359521D01*
X162676253Y-117318350D01*
X162653056Y-117278274D01*
X162628164Y-117239356D01*
X162601629Y-117201656D01*
X162573504Y-117165237D01*
X162543839Y-117130162D01*
X161859662Y-117814299D01*
X161856135Y-117817826D01*
X161669221Y-117817826D01*
X161672748Y-117814299D01*
X160981518Y-117123109D01*
X160951853Y-117158184D01*
X160923728Y-117194603D01*
X160897193Y-117232303D01*
X160872301Y-117271221D01*
X160849104Y-117311297D01*
X160827653Y-117352468D01*
X160808000Y-117394672D01*
X160790196Y-117437848D01*
X160774293Y-117481932D01*
X160760343Y-117526864D01*
X160748398Y-117572580D01*
X160738508Y-117619020D01*
X160730726Y-117666122D01*
X160725104Y-117713822D01*
X160721693Y-117762060D01*
X160720544Y-117810773D01*
X160593750Y-117810773D01*
X160594897Y-117761923D01*
X160598798Y-117706666D01*
X160605230Y-117652121D01*
X160614138Y-117598357D01*
X160625462Y-117545440D01*
X160639148Y-117493437D01*
X160655138Y-117442416D01*
X160673375Y-117392444D01*
X160693802Y-117343587D01*
X160716363Y-117295913D01*
X160741001Y-117249490D01*
X160767658Y-117204383D01*
X160796279Y-117160661D01*
X160826806Y-117118391D01*
X160859183Y-117077639D01*
X160893352Y-117038473D01*
X160889826Y-117034947D01*
X161076739Y-117034947D01*
X161767969Y-117722610D01*
X162455672Y-117034947D01*
X162420593Y-117005283D01*
X162384167Y-116977159D01*
X162346449Y-116950626D01*
X162307496Y-116925736D01*
X162267365Y-116902540D01*
X162226114Y-116881090D01*
X162183798Y-116861438D01*
X162140474Y-116843635D01*
X162096201Y-116827733D01*
X162051033Y-116813784D01*
X162005029Y-116801839D01*
X161958244Y-116791950D01*
X161910736Y-116784169D01*
X161862562Y-116778547D01*
X161813779Y-116775136D01*
X161764442Y-116773987D01*
X161715145Y-116775136D01*
X161666473Y-116778547D01*
X161618473Y-116784169D01*
X161571191Y-116791950D01*
X161524673Y-116801839D01*
X161478967Y-116813784D01*
X161434118Y-116827733D01*
X161390173Y-116843635D01*
X161347178Y-116861438D01*
X161305181Y-116881090D01*
X161264227Y-116902540D01*
X161224364Y-116925736D01*
X161185636Y-116950626D01*
X161148092Y-116977159D01*
X161111778Y-117005283D01*
X161076739Y-117034947D01*
X160889826Y-117034947D01*
X160561843Y-116706984D01*
X160653537Y-116615296D01*
X160985045Y-116946785D01*
X161024794Y-116912618D01*
X161065980Y-116880243D01*
X161108550Y-116849718D01*
X161152452Y-116821099D01*
X161197636Y-116794443D01*
X161244050Y-116769806D01*
X161291641Y-116747247D01*
X161340358Y-116726821D01*
X161390150Y-116708585D01*
X161440965Y-116692596D01*
X161492751Y-116678911D01*
X161545457Y-116667587D01*
X161599031Y-116658680D01*
X161653420Y-116652248D01*
X161708575Y-116648347D01*
X161764442Y-116647034D01*
X161820348Y-116648347D01*
X161875608Y-116652248D01*
X161930155Y-116658680D01*
X161983923Y-116667587D01*
X162036843Y-116678911D01*
X162088848Y-116692596D01*
X162139872Y-116708584D01*
X162189848Y-116726820D01*
X162238707Y-116747247D01*
X162286384Y-116769806D01*
X162332810Y-116794443D01*
X162377919Y-116821099D01*
X162421644Y-116849718D01*
X162463917Y-116880243D01*
X162504671Y-116912618D01*
X162543839Y-116946785D01*
X162875347Y-116615296D01*
X162967040Y-116706984D01*
X162639059Y-117034947D01*
X162635532Y-117038473D01*
G36*
X162635532Y-117038473D02*
G01*
X162669701Y-117078220D01*
X162702078Y-117119403D01*
X162732605Y-117161971D01*
X162761225Y-117205871D01*
X162787883Y-117251052D01*
X162812521Y-117297463D01*
X162835082Y-117345051D01*
X162855509Y-117393766D01*
X162873746Y-117443555D01*
X162889736Y-117494367D01*
X162903422Y-117546150D01*
X162914746Y-117598853D01*
X162923653Y-117652424D01*
X162930086Y-117706810D01*
X162933987Y-117761961D01*
X162935300Y-117817825D01*
X162935300Y-117817826D01*
X162933987Y-117873728D01*
X162930086Y-117928985D01*
X162923653Y-117983530D01*
X162914746Y-118037294D01*
X162903422Y-118090211D01*
X162889736Y-118142213D01*
X162873746Y-118193235D01*
X162855509Y-118243207D01*
X162835082Y-118292064D01*
X162812521Y-118339738D01*
X162787883Y-118386161D01*
X162761225Y-118431268D01*
X162732605Y-118474990D01*
X162702078Y-118517260D01*
X162669701Y-118558012D01*
X162635532Y-118597178D01*
X162967040Y-118928666D01*
X162875347Y-119020355D01*
X162543839Y-118688866D01*
X162504089Y-118723033D01*
X162462904Y-118755408D01*
X162420334Y-118785933D01*
X162376431Y-118814552D01*
X162331248Y-118841208D01*
X162284834Y-118865844D01*
X162237243Y-118888404D01*
X162188525Y-118908830D01*
X162138733Y-118927066D01*
X162087919Y-118943055D01*
X162036132Y-118956740D01*
X161983427Y-118968064D01*
X161929853Y-118976971D01*
X161875463Y-118983403D01*
X161820309Y-118987304D01*
X161764442Y-118988617D01*
X161708536Y-118987304D01*
X161653276Y-118983403D01*
X161598728Y-118976971D01*
X161544961Y-118968064D01*
X161492041Y-118956740D01*
X161440035Y-118943055D01*
X161389011Y-118927066D01*
X161339036Y-118908830D01*
X161290176Y-118888404D01*
X161242500Y-118865845D01*
X161196074Y-118841208D01*
X161150965Y-118814552D01*
X161107240Y-118785933D01*
X161064967Y-118755408D01*
X161024213Y-118723033D01*
X160985045Y-118688866D01*
X160653537Y-119020355D01*
X160561843Y-118928666D01*
X160893352Y-118597178D01*
X161073212Y-118597178D01*
X161108290Y-118626841D01*
X161144710Y-118654965D01*
X161182412Y-118681498D01*
X161221333Y-118706388D01*
X161261411Y-118729584D01*
X161302584Y-118751034D01*
X161344791Y-118770686D01*
X161387969Y-118788489D01*
X161432056Y-118804391D01*
X161476990Y-118818340D01*
X161522709Y-118830285D01*
X161569152Y-118840174D01*
X161616256Y-118847956D01*
X161663959Y-118853578D01*
X161712199Y-118856989D01*
X161760915Y-118858137D01*
X161764442Y-118858137D01*
X161813739Y-118856989D01*
X161862411Y-118853578D01*
X161910411Y-118847956D01*
X161957693Y-118840174D01*
X162004211Y-118830285D01*
X162049917Y-118818340D01*
X162094766Y-118804391D01*
X162138711Y-118788489D01*
X162181705Y-118770686D01*
X162223703Y-118751034D01*
X162264656Y-118729584D01*
X162304520Y-118706388D01*
X162343247Y-118681498D01*
X162380792Y-118654965D01*
X162417106Y-118626841D01*
X162452145Y-118597178D01*
X161764442Y-117909514D01*
X161073212Y-118597178D01*
X160893352Y-118597178D01*
X160859183Y-118557431D01*
X160826806Y-118516248D01*
X160796279Y-118473680D01*
X160767658Y-118429780D01*
X160741001Y-118384599D01*
X160716363Y-118338188D01*
X160693802Y-118290599D01*
X160673375Y-118241885D01*
X160655138Y-118192095D01*
X160639148Y-118141283D01*
X160625462Y-118089500D01*
X160614138Y-118036798D01*
X160605230Y-117983227D01*
X160598798Y-117928841D01*
X160594897Y-117873689D01*
X160593584Y-117817825D01*
X160593750Y-117810773D01*
X160720544Y-117810773D01*
X160720544Y-117814299D01*
X160721693Y-117863594D01*
X160725104Y-117912269D01*
X160730726Y-117960283D01*
X160738508Y-118007594D01*
X160748398Y-118054162D01*
X160760343Y-118099944D01*
X160774293Y-118144900D01*
X160790196Y-118188988D01*
X160808000Y-118232166D01*
X160827653Y-118274395D01*
X160849104Y-118315631D01*
X160872301Y-118355834D01*
X160897193Y-118394963D01*
X160923728Y-118432976D01*
X160951853Y-118469832D01*
X160981518Y-118505489D01*
X161669221Y-117817826D01*
X161856135Y-117817826D01*
X162543839Y-118505489D01*
X162573504Y-118470414D01*
X162601629Y-118433995D01*
X162628164Y-118396296D01*
X162653056Y-118357377D01*
X162676253Y-118317301D01*
X162697704Y-118276130D01*
X162717357Y-118233926D01*
X162735161Y-118190751D01*
X162751064Y-118146666D01*
X162765014Y-118101735D01*
X162776959Y-118056018D01*
X162786849Y-118009578D01*
X162794631Y-117962477D01*
X162800253Y-117914776D01*
X162803664Y-117866539D01*
X162804813Y-117817826D01*
X162803664Y-117769113D01*
X162800253Y-117720875D01*
X162794631Y-117673175D01*
X162786849Y-117626073D01*
X162776959Y-117579633D01*
X162765014Y-117533917D01*
X162751064Y-117488985D01*
X162735161Y-117444900D01*
X162717357Y-117401725D01*
X162697704Y-117359521D01*
X162676253Y-117318350D01*
X162653056Y-117278274D01*
X162628164Y-117239356D01*
X162601629Y-117201656D01*
X162573504Y-117165237D01*
X162543839Y-117130162D01*
X161859662Y-117814299D01*
X161856135Y-117817826D01*
X161669221Y-117817826D01*
X161672748Y-117814299D01*
X160981518Y-117123109D01*
X160951853Y-117158184D01*
X160923728Y-117194603D01*
X160897193Y-117232303D01*
X160872301Y-117271221D01*
X160849104Y-117311297D01*
X160827653Y-117352468D01*
X160808000Y-117394672D01*
X160790196Y-117437848D01*
X160774293Y-117481932D01*
X160760343Y-117526864D01*
X160748398Y-117572580D01*
X160738508Y-117619020D01*
X160730726Y-117666122D01*
X160725104Y-117713822D01*
X160721693Y-117762060D01*
X160720544Y-117810773D01*
X160593750Y-117810773D01*
X160594897Y-117761923D01*
X160598798Y-117706666D01*
X160605230Y-117652121D01*
X160614138Y-117598357D01*
X160625462Y-117545440D01*
X160639148Y-117493437D01*
X160655138Y-117442416D01*
X160673375Y-117392444D01*
X160693802Y-117343587D01*
X160716363Y-117295913D01*
X160741001Y-117249490D01*
X160767658Y-117204383D01*
X160796279Y-117160661D01*
X160826806Y-117118391D01*
X160859183Y-117077639D01*
X160893352Y-117038473D01*
X160889826Y-117034947D01*
X161076739Y-117034947D01*
X161767969Y-117722610D01*
X162455672Y-117034947D01*
X162420593Y-117005283D01*
X162384167Y-116977159D01*
X162346449Y-116950626D01*
X162307496Y-116925736D01*
X162267365Y-116902540D01*
X162226114Y-116881090D01*
X162183798Y-116861438D01*
X162140474Y-116843635D01*
X162096201Y-116827733D01*
X162051033Y-116813784D01*
X162005029Y-116801839D01*
X161958244Y-116791950D01*
X161910736Y-116784169D01*
X161862562Y-116778547D01*
X161813779Y-116775136D01*
X161764442Y-116773987D01*
X161715145Y-116775136D01*
X161666473Y-116778547D01*
X161618473Y-116784169D01*
X161571191Y-116791950D01*
X161524673Y-116801839D01*
X161478967Y-116813784D01*
X161434118Y-116827733D01*
X161390173Y-116843635D01*
X161347178Y-116861438D01*
X161305181Y-116881090D01*
X161264227Y-116902540D01*
X161224364Y-116925736D01*
X161185636Y-116950626D01*
X161148092Y-116977159D01*
X161111778Y-117005283D01*
X161076739Y-117034947D01*
X160889826Y-117034947D01*
X160561843Y-116706984D01*
X160653537Y-116615296D01*
X160985045Y-116946785D01*
X161024794Y-116912618D01*
X161065980Y-116880243D01*
X161108550Y-116849718D01*
X161152452Y-116821099D01*
X161197636Y-116794443D01*
X161244050Y-116769806D01*
X161291641Y-116747247D01*
X161340358Y-116726821D01*
X161390150Y-116708585D01*
X161440965Y-116692596D01*
X161492751Y-116678911D01*
X161545457Y-116667587D01*
X161599031Y-116658680D01*
X161653420Y-116652248D01*
X161708575Y-116648347D01*
X161764442Y-116647034D01*
X161820348Y-116648347D01*
X161875608Y-116652248D01*
X161930155Y-116658680D01*
X161983923Y-116667587D01*
X162036843Y-116678911D01*
X162088848Y-116692596D01*
X162139872Y-116708584D01*
X162189848Y-116726820D01*
X162238707Y-116747247D01*
X162286384Y-116769806D01*
X162332810Y-116794443D01*
X162377919Y-116821099D01*
X162421644Y-116849718D01*
X162463917Y-116880243D01*
X162504671Y-116912618D01*
X162543839Y-116946785D01*
X162875347Y-116615296D01*
X162967040Y-116706984D01*
X162639059Y-117034947D01*
X162635532Y-117038473D01*
G37*
X162145324Y-114457090D02*
X162191603Y-114465399D01*
X162237171Y-114475745D01*
X162281979Y-114488081D01*
X162325976Y-114502356D01*
X162369114Y-114518522D01*
X162411341Y-114536529D01*
X162452609Y-114556329D01*
X162484630Y-114573464D01*
X162492867Y-114577872D01*
X162532066Y-114601110D01*
X162570157Y-114625993D01*
X162607089Y-114652472D01*
X162642813Y-114680498D01*
X162677279Y-114710023D01*
X162710437Y-114740996D01*
X162742238Y-114773369D01*
X162772632Y-114807093D01*
X162801569Y-114842119D01*
X162829000Y-114878398D01*
X162854874Y-114915880D01*
X162879142Y-114954517D01*
X162901754Y-114994259D01*
X162922662Y-115035058D01*
X162941813Y-115076864D01*
X162959160Y-115119628D01*
X162974653Y-115163301D01*
X162988241Y-115207834D01*
X162999875Y-115253179D01*
X163009505Y-115299285D01*
X163017082Y-115346105D01*
X163022556Y-115393588D01*
X163024853Y-115426872D01*
X163025876Y-115441685D01*
X163026994Y-115490349D01*
X163026994Y-115553825D01*
X162667272Y-115553825D01*
X162970567Y-115857103D01*
X162878873Y-115948791D01*
X162483885Y-115553825D01*
X161796182Y-115553825D01*
X161796182Y-115423346D01*
X162353398Y-115423346D01*
X161764442Y-114834424D01*
X161175486Y-115423346D01*
X161789129Y-115423346D01*
X161789129Y-115553825D01*
X161044999Y-115553825D01*
X160650010Y-115948791D01*
X160558317Y-115857103D01*
X160861611Y-115553825D01*
X160579477Y-115553825D01*
X160579477Y-114573464D01*
X160709964Y-114573464D01*
X160709964Y-115423346D01*
X160992099Y-115423346D01*
X161665713Y-114746262D01*
X161859662Y-114746262D01*
X162540312Y-115426872D01*
X162896507Y-115426872D01*
X162896507Y-115423346D01*
X162892537Y-115380643D01*
X162886609Y-115338524D01*
X162878769Y-115297036D01*
X162869065Y-115256224D01*
X162857542Y-115216135D01*
X162844247Y-115176816D01*
X162829227Y-115138313D01*
X162812528Y-115100673D01*
X162794196Y-115063942D01*
X162774278Y-115028166D01*
X162752821Y-114993393D01*
X162729871Y-114959669D01*
X162705474Y-114927039D01*
X162679678Y-114895552D01*
X162652528Y-114865252D01*
X162624071Y-114836187D01*
X162594353Y-114808403D01*
X162563421Y-114781947D01*
X162531322Y-114756864D01*
X162498102Y-114733203D01*
X162463807Y-114711008D01*
X162428484Y-114690327D01*
X162392180Y-114671206D01*
X162354941Y-114653691D01*
X162316813Y-114637830D01*
X162277843Y-114623668D01*
X162238077Y-114611252D01*
X162197563Y-114600629D01*
X162156345Y-114591845D01*
X162114472Y-114584946D01*
X162071989Y-114579979D01*
X162028943Y-114576990D01*
X161863189Y-114742735D01*
X161859662Y-114746262D01*
X161665713Y-114746262D01*
X161669222Y-114742735D01*
X161499940Y-114573464D01*
X161683328Y-114573464D01*
X161764442Y-114654573D01*
X161845556Y-114573464D01*
X161683328Y-114573464D01*
X161499940Y-114573464D01*
X160709964Y-114573464D01*
X160579477Y-114573464D01*
X160579477Y-114182025D01*
X160713491Y-114182025D01*
X160713491Y-114446511D01*
X161372980Y-114446511D01*
X160854558Y-113928118D01*
X160839025Y-113938486D01*
X160824196Y-113949732D01*
X160810109Y-113961825D01*
X160796809Y-113974734D01*
X160784334Y-113988428D01*
X160772728Y-114002877D01*
X160767263Y-114010374D01*
X160762031Y-114018049D01*
X160757036Y-114025896D01*
X160752284Y-114033913D01*
X160747780Y-114042095D01*
X160743530Y-114050438D01*
X160739537Y-114058939D01*
X160735808Y-114067593D01*
X160732348Y-114076398D01*
X160729161Y-114085348D01*
X160726253Y-114094440D01*
X160723630Y-114103671D01*
X160721296Y-114113036D01*
X160719256Y-114122531D01*
X160717516Y-114132153D01*
X160716081Y-114141897D01*
X160714955Y-114151761D01*
X160714145Y-114161739D01*
X160713655Y-114171828D01*
X160713491Y-114182025D01*
X160579477Y-114182025D01*
X160579477Y-114178498D01*
X160580295Y-114152224D01*
X160582721Y-114126331D01*
X160586706Y-114100873D01*
X160592206Y-114075900D01*
X160599172Y-114051464D01*
X160607559Y-114027617D01*
X160617320Y-114004411D01*
X160628409Y-113981897D01*
X160640779Y-113960127D01*
X160654384Y-113939152D01*
X160669177Y-113919025D01*
X160685112Y-113899796D01*
X160702142Y-113881518D01*
X160720220Y-113864242D01*
X160739301Y-113848020D01*
X160759337Y-113832903D01*
X160561843Y-113635420D01*
X160653537Y-113543732D01*
X160882771Y-113772953D01*
X160890086Y-113770391D01*
X160897484Y-113767994D01*
X160904965Y-113765762D01*
X160912528Y-113763696D01*
X160920173Y-113761795D01*
X160927902Y-113760059D01*
X160935713Y-113758489D01*
X160943607Y-113757084D01*
X160951583Y-113755844D01*
X160959642Y-113754770D01*
X160967784Y-113753861D01*
X160976008Y-113753117D01*
X160984315Y-113752538D01*
X160992704Y-113752125D01*
X161001177Y-113751877D01*
X161009732Y-113751794D01*
X162296971Y-113751794D01*
X162296971Y-113882274D01*
X160995625Y-113882274D01*
X161556368Y-114442984D01*
X161976043Y-114442984D01*
X162878873Y-113543732D01*
X162970567Y-113635420D01*
X162155949Y-114446511D01*
X162145324Y-114457090D01*
G36*
X162145324Y-114457090D02*
G01*
X162191603Y-114465399D01*
X162237171Y-114475745D01*
X162281979Y-114488081D01*
X162325976Y-114502356D01*
X162369114Y-114518522D01*
X162411341Y-114536529D01*
X162452609Y-114556329D01*
X162484630Y-114573464D01*
X162492867Y-114577872D01*
X162532066Y-114601110D01*
X162570157Y-114625993D01*
X162607089Y-114652472D01*
X162642813Y-114680498D01*
X162677279Y-114710023D01*
X162710437Y-114740996D01*
X162742238Y-114773369D01*
X162772632Y-114807093D01*
X162801569Y-114842119D01*
X162829000Y-114878398D01*
X162854874Y-114915880D01*
X162879142Y-114954517D01*
X162901754Y-114994259D01*
X162922662Y-115035058D01*
X162941813Y-115076864D01*
X162959160Y-115119628D01*
X162974653Y-115163301D01*
X162988241Y-115207834D01*
X162999875Y-115253179D01*
X163009505Y-115299285D01*
X163017082Y-115346105D01*
X163022556Y-115393588D01*
X163024853Y-115426872D01*
X163025876Y-115441685D01*
X163026994Y-115490349D01*
X163026994Y-115553825D01*
X162667272Y-115553825D01*
X162970567Y-115857103D01*
X162878873Y-115948791D01*
X162483885Y-115553825D01*
X161796182Y-115553825D01*
X161796182Y-115423346D01*
X162353398Y-115423346D01*
X161764442Y-114834424D01*
X161175486Y-115423346D01*
X161789129Y-115423346D01*
X161789129Y-115553825D01*
X161044999Y-115553825D01*
X160650010Y-115948791D01*
X160558317Y-115857103D01*
X160861611Y-115553825D01*
X160579477Y-115553825D01*
X160579477Y-114573464D01*
X160709964Y-114573464D01*
X160709964Y-115423346D01*
X160992099Y-115423346D01*
X161665713Y-114746262D01*
X161859662Y-114746262D01*
X162540312Y-115426872D01*
X162896507Y-115426872D01*
X162896507Y-115423346D01*
X162892537Y-115380643D01*
X162886609Y-115338524D01*
X162878769Y-115297036D01*
X162869065Y-115256224D01*
X162857542Y-115216135D01*
X162844247Y-115176816D01*
X162829227Y-115138313D01*
X162812528Y-115100673D01*
X162794196Y-115063942D01*
X162774278Y-115028166D01*
X162752821Y-114993393D01*
X162729871Y-114959669D01*
X162705474Y-114927039D01*
X162679678Y-114895552D01*
X162652528Y-114865252D01*
X162624071Y-114836187D01*
X162594353Y-114808403D01*
X162563421Y-114781947D01*
X162531322Y-114756864D01*
X162498102Y-114733203D01*
X162463807Y-114711008D01*
X162428484Y-114690327D01*
X162392180Y-114671206D01*
X162354941Y-114653691D01*
X162316813Y-114637830D01*
X162277843Y-114623668D01*
X162238077Y-114611252D01*
X162197563Y-114600629D01*
X162156345Y-114591845D01*
X162114472Y-114584946D01*
X162071989Y-114579979D01*
X162028943Y-114576990D01*
X161863189Y-114742735D01*
X161859662Y-114746262D01*
X161665713Y-114746262D01*
X161669222Y-114742735D01*
X161499940Y-114573464D01*
X161683328Y-114573464D01*
X161764442Y-114654573D01*
X161845556Y-114573464D01*
X161683328Y-114573464D01*
X161499940Y-114573464D01*
X160709964Y-114573464D01*
X160579477Y-114573464D01*
X160579477Y-114182025D01*
X160713491Y-114182025D01*
X160713491Y-114446511D01*
X161372980Y-114446511D01*
X160854558Y-113928118D01*
X160839025Y-113938486D01*
X160824196Y-113949732D01*
X160810109Y-113961825D01*
X160796809Y-113974734D01*
X160784334Y-113988428D01*
X160772728Y-114002877D01*
X160767263Y-114010374D01*
X160762031Y-114018049D01*
X160757036Y-114025896D01*
X160752284Y-114033913D01*
X160747780Y-114042095D01*
X160743530Y-114050438D01*
X160739537Y-114058939D01*
X160735808Y-114067593D01*
X160732348Y-114076398D01*
X160729161Y-114085348D01*
X160726253Y-114094440D01*
X160723630Y-114103671D01*
X160721296Y-114113036D01*
X160719256Y-114122531D01*
X160717516Y-114132153D01*
X160716081Y-114141897D01*
X160714955Y-114151761D01*
X160714145Y-114161739D01*
X160713655Y-114171828D01*
X160713491Y-114182025D01*
X160579477Y-114182025D01*
X160579477Y-114178498D01*
X160580295Y-114152224D01*
X160582721Y-114126331D01*
X160586706Y-114100873D01*
X160592206Y-114075900D01*
X160599172Y-114051464D01*
X160607559Y-114027617D01*
X160617320Y-114004411D01*
X160628409Y-113981897D01*
X160640779Y-113960127D01*
X160654384Y-113939152D01*
X160669177Y-113919025D01*
X160685112Y-113899796D01*
X160702142Y-113881518D01*
X160720220Y-113864242D01*
X160739301Y-113848020D01*
X160759337Y-113832903D01*
X160561843Y-113635420D01*
X160653537Y-113543732D01*
X160882771Y-113772953D01*
X160890086Y-113770391D01*
X160897484Y-113767994D01*
X160904965Y-113765762D01*
X160912528Y-113763696D01*
X160920173Y-113761795D01*
X160927902Y-113760059D01*
X160935713Y-113758489D01*
X160943607Y-113757084D01*
X160951583Y-113755844D01*
X160959642Y-113754770D01*
X160967784Y-113753861D01*
X160976008Y-113753117D01*
X160984315Y-113752538D01*
X160992704Y-113752125D01*
X161001177Y-113751877D01*
X161009732Y-113751794D01*
X162296971Y-113751794D01*
X162296971Y-113882274D01*
X160995625Y-113882274D01*
X161556368Y-114442984D01*
X161976043Y-114442984D01*
X162878873Y-113543732D01*
X162970567Y-113635420D01*
X162155949Y-114446511D01*
X162145324Y-114457090D01*
G37*
D10*
X111876931Y-53718864D02*
X112905000Y-55809270D01*
X108484304Y-53753133D02*
X108484304Y-54781201D01*
X110746056Y-55775001D02*
X111534242Y-55775001D01*
D12*
X159783329Y-114953442D02*
X159525000Y-115910000D01*
X159514420Y-115945265D01*
X157398411Y-115945265D01*
X157172703Y-115098909D01*
X157050265Y-114640467D01*
X157176228Y-114640467D01*
X157188626Y-114688846D01*
X157222516Y-114815909D01*
X157272936Y-115002482D01*
X157334929Y-115229389D01*
X157338456Y-115232916D01*
X157497157Y-115818311D01*
X159419199Y-115818311D01*
X159577899Y-115229389D01*
X159689871Y-114813265D01*
X159722713Y-114686862D01*
X159731034Y-114652465D01*
X159733073Y-114640467D01*
X159729987Y-114641128D01*
X159726378Y-114641955D01*
X159721611Y-114643112D01*
X159715853Y-114644600D01*
X159709268Y-114646418D01*
X159705717Y-114647451D01*
X159702022Y-114648567D01*
X159698202Y-114649765D01*
X159694280Y-114651046D01*
X159689062Y-114652948D01*
X159683948Y-114654690D01*
X159678875Y-114656277D01*
X159673781Y-114657714D01*
X159668604Y-114659006D01*
X159663283Y-114660159D01*
X159657756Y-114661177D01*
X159651959Y-114662067D01*
X159645832Y-114662832D01*
X159639313Y-114663479D01*
X159632339Y-114664012D01*
X159624848Y-114664436D01*
X159616779Y-114664757D01*
X159608069Y-114664980D01*
X159588479Y-114665152D01*
X159571991Y-114665013D01*
X159556753Y-114664533D01*
X159542527Y-114663618D01*
X159529076Y-114662177D01*
X159516163Y-114660116D01*
X159503549Y-114657342D01*
X159490998Y-114653762D01*
X159478270Y-114649283D01*
X159465130Y-114643813D01*
X159451338Y-114637257D01*
X159436658Y-114629524D01*
X159420851Y-114620520D01*
X159403681Y-114610153D01*
X159384910Y-114598328D01*
X159341611Y-114569937D01*
X159305008Y-114545362D01*
X159276258Y-114526738D01*
X159264388Y-114519451D01*
X159253954Y-114513404D01*
X159244781Y-114508513D01*
X159236693Y-114504698D01*
X159229513Y-114501874D01*
X159223068Y-114499959D01*
X159217180Y-114498871D01*
X159211675Y-114498526D01*
X159206377Y-114498843D01*
X159201109Y-114499738D01*
X159195697Y-114501130D01*
X159189964Y-114502934D01*
X159183148Y-114505431D01*
X159177262Y-114507701D01*
X159174675Y-114508782D01*
X159172327Y-114509846D01*
X159170222Y-114510905D01*
X159168363Y-114511971D01*
X159166752Y-114513058D01*
X159165391Y-114514178D01*
X159164283Y-114515345D01*
X159163431Y-114516572D01*
X159162838Y-114517871D01*
X159162505Y-114519255D01*
X159162435Y-114520737D01*
X159162632Y-114522330D01*
X159163098Y-114524047D01*
X159163834Y-114525901D01*
X159164845Y-114527905D01*
X159166131Y-114530072D01*
X159167697Y-114532414D01*
X159169544Y-114534945D01*
X159171676Y-114537677D01*
X159174094Y-114540624D01*
X159179801Y-114547212D01*
X159186685Y-114554812D01*
X159204071Y-114573464D01*
X159215443Y-114585630D01*
X159225782Y-114597068D01*
X159235129Y-114607875D01*
X159243526Y-114618151D01*
X159251013Y-114627993D01*
X159257632Y-114637498D01*
X159263425Y-114646767D01*
X159268433Y-114655895D01*
X159272696Y-114664983D01*
X159276257Y-114674127D01*
X159279157Y-114683426D01*
X159281437Y-114692979D01*
X159283138Y-114702882D01*
X159284303Y-114713235D01*
X159284971Y-114724136D01*
X159285184Y-114735682D01*
X159285181Y-114735975D01*
X159285098Y-114744620D01*
X159284826Y-114752963D01*
X159284347Y-114760780D01*
X159283641Y-114768137D01*
X159282687Y-114775101D01*
X159281465Y-114781740D01*
X159279953Y-114788120D01*
X159278131Y-114794310D01*
X159275978Y-114800375D01*
X159273474Y-114806384D01*
X159270599Y-114812403D01*
X159267330Y-114818499D01*
X159263649Y-114824740D01*
X159259533Y-114831193D01*
X159254963Y-114837925D01*
X159249917Y-114845003D01*
X159247071Y-114849048D01*
X159243842Y-114853227D01*
X159240262Y-114857509D01*
X159236362Y-114861864D01*
X159232172Y-114866260D01*
X159227724Y-114870666D01*
X159223049Y-114875052D01*
X159218177Y-114879386D01*
X159213140Y-114883637D01*
X159207969Y-114887775D01*
X159202694Y-114891768D01*
X159197348Y-114895586D01*
X159191959Y-114899197D01*
X159186561Y-114902570D01*
X159181183Y-114905674D01*
X159175857Y-114908479D01*
X159176518Y-114911510D01*
X159177345Y-114914988D01*
X159178502Y-114919500D01*
X159179990Y-114924838D01*
X159180858Y-114927752D01*
X159181808Y-114930795D01*
X159182841Y-114933942D01*
X159183957Y-114937167D01*
X159185156Y-114940443D01*
X159186437Y-114943744D01*
X159188886Y-114952028D01*
X159190947Y-114960344D01*
X159192623Y-114968679D01*
X159193917Y-114977025D01*
X159194835Y-114985372D01*
X159195379Y-114993707D01*
X159195364Y-115010307D01*
X159193902Y-115026741D01*
X159191024Y-115042926D01*
X159186762Y-115058782D01*
X159181147Y-115074224D01*
X159174209Y-115089170D01*
X159165979Y-115103538D01*
X159156489Y-115117244D01*
X159145770Y-115130207D01*
X159133852Y-115142343D01*
X159127453Y-115148075D01*
X159120766Y-115153570D01*
X159113795Y-115158817D01*
X159106544Y-115163805D01*
X159099016Y-115168525D01*
X159091216Y-115172966D01*
X159087322Y-115174867D01*
X159083536Y-115176609D01*
X159079802Y-115178196D01*
X159076063Y-115179633D01*
X159072261Y-115180925D01*
X159068341Y-115182078D01*
X159064245Y-115183096D01*
X159059917Y-115183986D01*
X159055299Y-115184751D01*
X159050336Y-115185398D01*
X159044969Y-115185931D01*
X159039143Y-115186355D01*
X159032800Y-115186676D01*
X159025883Y-115186899D01*
X159018337Y-115187029D01*
X159010103Y-115187071D01*
X158995349Y-115187051D01*
X158982661Y-115186906D01*
X158971792Y-115186513D01*
X158966961Y-115186185D01*
X158962493Y-115185749D01*
X158958355Y-115185188D01*
X158954516Y-115184488D01*
X158950947Y-115183633D01*
X158947614Y-115182608D01*
X158944489Y-115181397D01*
X158941539Y-115179984D01*
X158938734Y-115178354D01*
X158936043Y-115176492D01*
X158918409Y-115165912D01*
X158897249Y-115197651D01*
X158893039Y-115204216D01*
X158888370Y-115210668D01*
X158883277Y-115216976D01*
X158877797Y-115223107D01*
X158871965Y-115229033D01*
X158865818Y-115234720D01*
X158859393Y-115240139D01*
X158852724Y-115245258D01*
X158845849Y-115250047D01*
X158838803Y-115254474D01*
X158831624Y-115258508D01*
X158824345Y-115262119D01*
X158817005Y-115265275D01*
X158809640Y-115267946D01*
X158802284Y-115270100D01*
X158798621Y-115270974D01*
X158794975Y-115271707D01*
X158787426Y-115273486D01*
X158779380Y-115274868D01*
X158770922Y-115275868D01*
X158762133Y-115276501D01*
X158753096Y-115276782D01*
X158743893Y-115276728D01*
X158734608Y-115276353D01*
X158725323Y-115275674D01*
X158716121Y-115274706D01*
X158707083Y-115273463D01*
X158698294Y-115271963D01*
X158689836Y-115270219D01*
X158681790Y-115268248D01*
X158674241Y-115266066D01*
X158667270Y-115263687D01*
X158660961Y-115261127D01*
X158658117Y-115259643D01*
X158654906Y-115257849D01*
X158647571Y-115253413D01*
X158639326Y-115247986D01*
X158634978Y-115244952D01*
X158630543Y-115241732D01*
X158626067Y-115238346D01*
X158621596Y-115234816D01*
X158617176Y-115231163D01*
X158612855Y-115227405D01*
X158608678Y-115223565D01*
X158604692Y-115219664D01*
X158600944Y-115215720D01*
X158597481Y-115211757D01*
X158558687Y-115176492D01*
X158519894Y-115215283D01*
X158508763Y-115226228D01*
X158503714Y-115231021D01*
X158498954Y-115235395D01*
X158494443Y-115239377D01*
X158490137Y-115242992D01*
X158485998Y-115246266D01*
X158481982Y-115249226D01*
X158478049Y-115251895D01*
X158474157Y-115254302D01*
X158470265Y-115256470D01*
X158466332Y-115258427D01*
X158462317Y-115260198D01*
X158458177Y-115261809D01*
X158453872Y-115263286D01*
X158449360Y-115264654D01*
X158441149Y-115267093D01*
X158432436Y-115269124D01*
X158423300Y-115270752D01*
X158413818Y-115271982D01*
X158404067Y-115272820D01*
X158394125Y-115273270D01*
X158384069Y-115273338D01*
X158373977Y-115273029D01*
X158363927Y-115272348D01*
X158353995Y-115271300D01*
X158344260Y-115269891D01*
X158334798Y-115268125D01*
X158325688Y-115266008D01*
X158317006Y-115263545D01*
X158308831Y-115260741D01*
X158301240Y-115257601D01*
X158296810Y-115254492D01*
X158290102Y-115249095D01*
X158269665Y-115231207D01*
X158239557Y-115203485D01*
X158199407Y-115165472D01*
X158148841Y-115116714D01*
X158087490Y-115056757D01*
X158014979Y-114985146D01*
X157930938Y-114901426D01*
X157688038Y-114660303D01*
X157585323Y-114559358D01*
X157579868Y-114562443D01*
X157573607Y-114566053D01*
X157565485Y-114570819D01*
X157555877Y-114576577D01*
X157545152Y-114583161D01*
X157533683Y-114590407D01*
X157521843Y-114598149D01*
X157492369Y-114616208D01*
X157479091Y-114623952D01*
X157466573Y-114630879D01*
X157454654Y-114637021D01*
X157443174Y-114642409D01*
X157431973Y-114647074D01*
X157420891Y-114651046D01*
X157409768Y-114654357D01*
X157398443Y-114657039D01*
X157386757Y-114659120D01*
X157374548Y-114660634D01*
X157361658Y-114661610D01*
X157347926Y-114662080D01*
X157333192Y-114662075D01*
X157317295Y-114661626D01*
X157297705Y-114661598D01*
X157280926Y-114661405D01*
X157266461Y-114660882D01*
X157259942Y-114660444D01*
X157253815Y-114659862D01*
X157248019Y-114659115D01*
X157242491Y-114658182D01*
X157237170Y-114657042D01*
X157231994Y-114655675D01*
X157226900Y-114654060D01*
X157221827Y-114652176D01*
X157216712Y-114650003D01*
X157211495Y-114647520D01*
X157208193Y-114646240D01*
X157204917Y-114645047D01*
X157198545Y-114642946D01*
X157192587Y-114641259D01*
X157189828Y-114640583D01*
X157187249Y-114640026D01*
X157184877Y-114639593D01*
X157182737Y-114639289D01*
X157180856Y-114639119D01*
X157179259Y-114639089D01*
X157177971Y-114639204D01*
X157177020Y-114639468D01*
X157176678Y-114639658D01*
X157176430Y-114639887D01*
X157176279Y-114640157D01*
X157176228Y-114640467D01*
X157050265Y-114640467D01*
X157012239Y-114498085D01*
X156964408Y-114311898D01*
X156946996Y-114238448D01*
X156947097Y-114236115D01*
X156947398Y-114233747D01*
X156947888Y-114231352D01*
X156948559Y-114228937D01*
X156949404Y-114226509D01*
X156950413Y-114224075D01*
X156951578Y-114221642D01*
X156952892Y-114219218D01*
X156954345Y-114216809D01*
X156955929Y-114214423D01*
X156957635Y-114212067D01*
X156959456Y-114209748D01*
X156963407Y-114205247D01*
X156967715Y-114200980D01*
X156972312Y-114197001D01*
X156977131Y-114193369D01*
X156982105Y-114190139D01*
X156984629Y-114188693D01*
X156987167Y-114187370D01*
X156989710Y-114186175D01*
X156992249Y-114185116D01*
X156994777Y-114184201D01*
X156997285Y-114183437D01*
X156999765Y-114182830D01*
X157002208Y-114182387D01*
X157004605Y-114182116D01*
X157005507Y-114182081D01*
X157008007Y-114182149D01*
X157012500Y-114182521D01*
X157016889Y-114183141D01*
X157021165Y-114184008D01*
X157025317Y-114185124D01*
X157029334Y-114186488D01*
X157033207Y-114188100D01*
X157036925Y-114189959D01*
X157040477Y-114192067D01*
X157043854Y-114194423D01*
X157047045Y-114197026D01*
X157050039Y-114199878D01*
X157052827Y-114202977D01*
X157055398Y-114206324D01*
X157057742Y-114209920D01*
X157059848Y-114213763D01*
X157064918Y-114229632D01*
X157073955Y-114258726D01*
X157085637Y-114297076D01*
X157098642Y-114340716D01*
X157121565Y-114419621D01*
X157125850Y-114433665D01*
X157129390Y-114444362D01*
X157132104Y-114451174D01*
X157133125Y-114452955D01*
X157133909Y-114453564D01*
X157138747Y-114457342D01*
X157145171Y-114461967D01*
X157161847Y-114473180D01*
X157182077Y-114486046D01*
X157204001Y-114499408D01*
X157225761Y-114512109D01*
X157245495Y-114522991D01*
X157254022Y-114527389D01*
X157261345Y-114530898D01*
X157267231Y-114533374D01*
X157271449Y-114534673D01*
X157277017Y-114535912D01*
X157283090Y-114536987D01*
X157289597Y-114537896D01*
X157296466Y-114538640D01*
X157303625Y-114539219D01*
X157311000Y-114539632D01*
X157318520Y-114539880D01*
X157326113Y-114539962D01*
X157333705Y-114539880D01*
X157341225Y-114539632D01*
X157348600Y-114539219D01*
X157355759Y-114538640D01*
X157362628Y-114537896D01*
X157369135Y-114536987D01*
X157375209Y-114535912D01*
X157380776Y-114534673D01*
X157384795Y-114533533D01*
X157390116Y-114531504D01*
X157396553Y-114528691D01*
X157403920Y-114525195D01*
X157420699Y-114516572D01*
X157438966Y-114506461D01*
X157457233Y-114495689D01*
X157474013Y-114485082D01*
X157481379Y-114480098D01*
X157487816Y-114475466D01*
X157493137Y-114471289D01*
X157497156Y-114467670D01*
X157473792Y-114442103D01*
X157448058Y-114414111D01*
X157416043Y-114379508D01*
X157374728Y-114336115D01*
X157356639Y-114316310D01*
X157340109Y-114297517D01*
X157325026Y-114279550D01*
X157311276Y-114262225D01*
X157298745Y-114245353D01*
X157287319Y-114228751D01*
X157276885Y-114212231D01*
X157267330Y-114195607D01*
X157258539Y-114178695D01*
X157250399Y-114161307D01*
X157242796Y-114143258D01*
X157235617Y-114124361D01*
X157228748Y-114104432D01*
X157222076Y-114083283D01*
X157217268Y-114066209D01*
X157213369Y-114051159D01*
X157211735Y-114043994D01*
X157210297Y-114036854D01*
X157209045Y-114029579D01*
X157207969Y-114022011D01*
X157207058Y-114013987D01*
X157206302Y-114005349D01*
X157205691Y-113995937D01*
X157205214Y-113985589D01*
X157204861Y-113974146D01*
X157204622Y-113961447D01*
X157204443Y-113931645D01*
X157204474Y-113924126D01*
X157324684Y-113924126D01*
X157324726Y-113948632D01*
X157326113Y-113973246D01*
X157328865Y-113997917D01*
X157332998Y-114022594D01*
X157338531Y-114047225D01*
X157345482Y-114071760D01*
X157353870Y-114096148D01*
X157363712Y-114120338D01*
X157375026Y-114144279D01*
X157387830Y-114167919D01*
X157391862Y-114173853D01*
X157398761Y-114182493D01*
X157408667Y-114193985D01*
X157421719Y-114208473D01*
X157457819Y-114247017D01*
X157508178Y-114299280D01*
X157573911Y-114366421D01*
X157656133Y-114449596D01*
X157874512Y-114668679D01*
X158208665Y-115001931D01*
X158313915Y-115105081D01*
X158344429Y-115133844D01*
X158357668Y-115144754D01*
X158361634Y-115146614D01*
X158365594Y-115148229D01*
X158369541Y-115149601D01*
X158373469Y-115150732D01*
X158377371Y-115151626D01*
X158381240Y-115152285D01*
X158385071Y-115152712D01*
X158388857Y-115152909D01*
X158392591Y-115152878D01*
X158396266Y-115152623D01*
X158399878Y-115152146D01*
X158403418Y-115151449D01*
X158406881Y-115150535D01*
X158410259Y-115149406D01*
X158413548Y-115148066D01*
X158416739Y-115146517D01*
X158419828Y-115144761D01*
X158422806Y-115142801D01*
X158425668Y-115140640D01*
X158428408Y-115138279D01*
X158431018Y-115135723D01*
X158433493Y-115132972D01*
X158435825Y-115130031D01*
X158438010Y-115126901D01*
X158440039Y-115123585D01*
X158441906Y-115120086D01*
X158443606Y-115116406D01*
X158445132Y-115112547D01*
X158446477Y-115108513D01*
X158447634Y-115104306D01*
X158448598Y-115099929D01*
X158449361Y-115095383D01*
X158449361Y-115070698D01*
X158241287Y-114859109D01*
X158029686Y-114647520D01*
X158075533Y-114601676D01*
X158121380Y-114555832D01*
X158421148Y-114855582D01*
X158583320Y-115016974D01*
X158637191Y-115069754D01*
X158676391Y-115107285D01*
X158703523Y-115132087D01*
X158721191Y-115146682D01*
X158731998Y-115153591D01*
X158735643Y-115154950D01*
X158738549Y-115155333D01*
X158742465Y-115155261D01*
X158746276Y-115155045D01*
X158749981Y-115154685D01*
X158753579Y-115154183D01*
X158757068Y-115153539D01*
X158760448Y-115152753D01*
X158763716Y-115151826D01*
X158766873Y-115150760D01*
X158769915Y-115149554D01*
X158772843Y-115148209D01*
X158775654Y-115146726D01*
X158778348Y-115145105D01*
X158780923Y-115143347D01*
X158783378Y-115141454D01*
X158785712Y-115139424D01*
X158787923Y-115137260D01*
X158790009Y-115134961D01*
X158791971Y-115132529D01*
X158793806Y-115129964D01*
X158795513Y-115127266D01*
X158797091Y-115124437D01*
X158798539Y-115121476D01*
X158799855Y-115118385D01*
X158801038Y-115115164D01*
X158802086Y-115111815D01*
X158802999Y-115108336D01*
X158803775Y-115104730D01*
X158804413Y-115100997D01*
X158804911Y-115097137D01*
X158805268Y-115093151D01*
X158805484Y-115089039D01*
X158805556Y-115084804D01*
X158805517Y-115082842D01*
X158805367Y-115080890D01*
X158805056Y-115078893D01*
X158804537Y-115076800D01*
X158803759Y-115074557D01*
X158802673Y-115072111D01*
X158801232Y-115069410D01*
X158799384Y-115066400D01*
X158797082Y-115063028D01*
X158794277Y-115059242D01*
X158790919Y-115054988D01*
X158786958Y-115050214D01*
X158782347Y-115044866D01*
X158777036Y-115038892D01*
X158770976Y-115032239D01*
X158764117Y-115024853D01*
X158756412Y-115016683D01*
X158747810Y-115007674D01*
X158727721Y-114986930D01*
X158703458Y-114962198D01*
X158674628Y-114933055D01*
X158640838Y-114899076D01*
X158601697Y-114859839D01*
X158505788Y-114763894D01*
X158206020Y-114464143D01*
X158251867Y-114418299D01*
X158297714Y-114372455D01*
X158639802Y-114714523D01*
X158827542Y-114901922D01*
X158888825Y-114962417D01*
X158932957Y-115005017D01*
X158963368Y-115032905D01*
X158983488Y-115049263D01*
X158990761Y-115054113D01*
X158996748Y-115057274D01*
X159001877Y-115059143D01*
X159006577Y-115060118D01*
X159011163Y-115060626D01*
X159015659Y-115060835D01*
X159020056Y-115060754D01*
X159024348Y-115060394D01*
X159028526Y-115059765D01*
X159032583Y-115058878D01*
X159036510Y-115057744D01*
X159040301Y-115056371D01*
X159043947Y-115054772D01*
X159047440Y-115052955D01*
X159050774Y-115050932D01*
X159053939Y-115048712D01*
X159056929Y-115046307D01*
X159059735Y-115043726D01*
X159062351Y-115040979D01*
X159064767Y-115038078D01*
X159066977Y-115035032D01*
X159068972Y-115031851D01*
X159070745Y-115028547D01*
X159072289Y-115025129D01*
X159073595Y-115021608D01*
X159074655Y-115017993D01*
X159075462Y-115014296D01*
X159076008Y-115010527D01*
X159076286Y-115006696D01*
X159076287Y-115002813D01*
X159076004Y-114998889D01*
X159075430Y-114994933D01*
X159074555Y-114990957D01*
X159073374Y-114986971D01*
X159071877Y-114982985D01*
X159070057Y-114979009D01*
X159067649Y-114975320D01*
X159061867Y-114968340D01*
X159040907Y-114945232D01*
X159008623Y-114911131D01*
X158966461Y-114867484D01*
X158858291Y-114757337D01*
X158727969Y-114626361D01*
X158491681Y-114389646D01*
X158419494Y-114316417D01*
X158399808Y-114295857D01*
X158392934Y-114287819D01*
X158392985Y-114287437D01*
X158393138Y-114286956D01*
X158393740Y-114285705D01*
X158394724Y-114284092D01*
X158396075Y-114282144D01*
X158397777Y-114279885D01*
X158399815Y-114277343D01*
X158402174Y-114274542D01*
X158404837Y-114271509D01*
X158407789Y-114268269D01*
X158411015Y-114264849D01*
X158414500Y-114261273D01*
X158418227Y-114257568D01*
X158422182Y-114253760D01*
X158426348Y-114249875D01*
X158430711Y-114245938D01*
X158435254Y-114241975D01*
X158477575Y-114199657D01*
X158773816Y-114495881D01*
X158919071Y-114640412D01*
X159012749Y-114731715D01*
X159043552Y-114760608D01*
X159065428Y-114780039D01*
X159079700Y-114791286D01*
X159084398Y-114794242D01*
X159087691Y-114795632D01*
X159091656Y-114796161D01*
X159095613Y-114796429D01*
X159099550Y-114796445D01*
X159103457Y-114796218D01*
X159107326Y-114795755D01*
X159111147Y-114795067D01*
X159114909Y-114794159D01*
X159118604Y-114793042D01*
X159122221Y-114791724D01*
X159125751Y-114790212D01*
X159129184Y-114788516D01*
X159132511Y-114786644D01*
X159135721Y-114784603D01*
X159138806Y-114782404D01*
X159141755Y-114780053D01*
X159144558Y-114777559D01*
X159147207Y-114774931D01*
X159149691Y-114772177D01*
X159152000Y-114769306D01*
X159154126Y-114766325D01*
X159156058Y-114763244D01*
X159157786Y-114760070D01*
X159159301Y-114756813D01*
X159160594Y-114753480D01*
X159161654Y-114750080D01*
X159162471Y-114746621D01*
X159163037Y-114743111D01*
X159163342Y-114739560D01*
X159163375Y-114735975D01*
X159163128Y-114732365D01*
X159162589Y-114728738D01*
X159161751Y-114725103D01*
X159161347Y-114723727D01*
X159160130Y-114721580D01*
X159155235Y-114714943D01*
X159147012Y-114705134D01*
X159135411Y-114692097D01*
X159101866Y-114656109D01*
X159054187Y-114606525D01*
X158991960Y-114542890D01*
X158914773Y-114464749D01*
X158713862Y-114263134D01*
X158713862Y-114259607D01*
X158542983Y-114087581D01*
X158404837Y-113946632D01*
X158313639Y-113851968D01*
X158290089Y-113826746D01*
X158283607Y-113818797D01*
X158286188Y-113819325D01*
X158291197Y-113820871D01*
X158307963Y-113826787D01*
X158332829Y-113836092D01*
X158364721Y-113848332D01*
X158445283Y-113879794D01*
X158541055Y-113917539D01*
X158695017Y-113976773D01*
X158743770Y-113994467D01*
X158762573Y-114000677D01*
X158778224Y-114005260D01*
X158791148Y-114008314D01*
X158801768Y-114009937D01*
X158810507Y-114010227D01*
X158817789Y-114009282D01*
X158824038Y-114007201D01*
X158829678Y-114004082D01*
X158840823Y-113995121D01*
X158842755Y-113993428D01*
X158844584Y-113991655D01*
X158846309Y-113989808D01*
X158847931Y-113987889D01*
X158849450Y-113985904D01*
X158850866Y-113983855D01*
X158852178Y-113981747D01*
X158853387Y-113979583D01*
X158854492Y-113977367D01*
X158855495Y-113975104D01*
X158856393Y-113972797D01*
X158857189Y-113970450D01*
X158857881Y-113968066D01*
X158858470Y-113965651D01*
X158858956Y-113963207D01*
X158859338Y-113960738D01*
X158859617Y-113958249D01*
X158859793Y-113955743D01*
X158859865Y-113953224D01*
X158859834Y-113950696D01*
X158859700Y-113948163D01*
X158859462Y-113945628D01*
X158859121Y-113943097D01*
X158858677Y-113940571D01*
X158858129Y-113938056D01*
X158857478Y-113935555D01*
X158856724Y-113933072D01*
X158855866Y-113930612D01*
X158854906Y-113928177D01*
X158853841Y-113925771D01*
X158852674Y-113923400D01*
X158851403Y-113921065D01*
X158847208Y-113913151D01*
X158846090Y-113911407D01*
X158844747Y-113909667D01*
X158843079Y-113907887D01*
X158840988Y-113906023D01*
X158838376Y-113904029D01*
X158835143Y-113901862D01*
X158831191Y-113899476D01*
X158826420Y-113896828D01*
X158820733Y-113893872D01*
X158814029Y-113890564D01*
X158806211Y-113886860D01*
X158797180Y-113882715D01*
X158786837Y-113878084D01*
X158775083Y-113872923D01*
X158761818Y-113867188D01*
X158746946Y-113860833D01*
X158711979Y-113846087D01*
X158669393Y-113828330D01*
X158618396Y-113807205D01*
X158558199Y-113782355D01*
X158407041Y-113720056D01*
X158119947Y-113600156D01*
X157969732Y-113538442D01*
X157929630Y-113522793D01*
X157904158Y-113513757D01*
X157870985Y-113504941D01*
X157858489Y-113501883D01*
X157844907Y-113499320D01*
X157830396Y-113497254D01*
X157815109Y-113495684D01*
X157799203Y-113494609D01*
X157782832Y-113494031D01*
X157766151Y-113493948D01*
X157749315Y-113494361D01*
X157732479Y-113495270D01*
X157715798Y-113496675D01*
X157699426Y-113498576D01*
X157683520Y-113500973D01*
X157668234Y-113503866D01*
X157653722Y-113507255D01*
X157640141Y-113511140D01*
X157627644Y-113515520D01*
X157602654Y-113524748D01*
X157578612Y-113535206D01*
X157555536Y-113546843D01*
X157533443Y-113559608D01*
X157512354Y-113573450D01*
X157492284Y-113588318D01*
X157473253Y-113604162D01*
X157455278Y-113620929D01*
X157438378Y-113638569D01*
X157422570Y-113657031D01*
X157407873Y-113676265D01*
X157394305Y-113696218D01*
X157381884Y-113716840D01*
X157370627Y-113738080D01*
X157360554Y-113759887D01*
X157351682Y-113782210D01*
X157344029Y-113804998D01*
X157337613Y-113828200D01*
X157332452Y-113851765D01*
X157328565Y-113875641D01*
X157325970Y-113899779D01*
X157324684Y-113924126D01*
X157204474Y-113924126D01*
X157204663Y-113878747D01*
X157205187Y-113858746D01*
X157206206Y-113841719D01*
X157206953Y-113834012D01*
X157207887Y-113826677D01*
X157209027Y-113819589D01*
X157210394Y-113812626D01*
X157212009Y-113805663D01*
X157213893Y-113798575D01*
X157218550Y-113783532D01*
X157224860Y-113762552D01*
X157231880Y-113741936D01*
X157247989Y-113701859D01*
X157266764Y-113663413D01*
X157288091Y-113626714D01*
X157311857Y-113591875D01*
X157337947Y-113559009D01*
X157366248Y-113528229D01*
X157396647Y-113499651D01*
X157429030Y-113473386D01*
X157463282Y-113449550D01*
X157499291Y-113428255D01*
X157517919Y-113418596D01*
X157536943Y-113409615D01*
X157556350Y-113401327D01*
X157576124Y-113393745D01*
X157596252Y-113386883D01*
X157616720Y-113380756D01*
X157637514Y-113375378D01*
X157658619Y-113370764D01*
X157680021Y-113366927D01*
X157701705Y-113363881D01*
X157722218Y-113361567D01*
X157739507Y-113359914D01*
X157754647Y-113358922D01*
X157761747Y-113358674D01*
X157768712Y-113358592D01*
X157775678Y-113358674D01*
X157782778Y-113358922D01*
X157797917Y-113359914D01*
X157815206Y-113361567D01*
X157835719Y-113363881D01*
X157839885Y-113364002D01*
X157844412Y-113364350D01*
X157849249Y-113364904D01*
X157854344Y-113365645D01*
X157865104Y-113367601D01*
X157876276Y-113370053D01*
X157887448Y-113372835D01*
X157898207Y-113375783D01*
X157908140Y-113378731D01*
X157916833Y-113381514D01*
X158093057Y-113450445D01*
X158424675Y-113586490D01*
X158751003Y-113723197D01*
X158861969Y-113771031D01*
X158911357Y-113794112D01*
X158920364Y-113801009D01*
X158928859Y-113808459D01*
X158936828Y-113816436D01*
X158944254Y-113824913D01*
X158951122Y-113833867D01*
X158957417Y-113843269D01*
X158963123Y-113853095D01*
X158968225Y-113863319D01*
X158972706Y-113873915D01*
X158976552Y-113884857D01*
X158979747Y-113896119D01*
X158982276Y-113907676D01*
X158984123Y-113919501D01*
X158985272Y-113931569D01*
X158985709Y-113943854D01*
X158985417Y-113956330D01*
X158984581Y-113965183D01*
X158983400Y-113973884D01*
X158981879Y-113982426D01*
X158980024Y-113990803D01*
X158977841Y-113999006D01*
X158975336Y-114007029D01*
X158972514Y-114014865D01*
X158969382Y-114022507D01*
X158965945Y-114029947D01*
X158962209Y-114037178D01*
X158958180Y-114044194D01*
X158953863Y-114050987D01*
X158949265Y-114057550D01*
X158944391Y-114063876D01*
X158939247Y-114069959D01*
X158933839Y-114075789D01*
X158928173Y-114081362D01*
X158922255Y-114086669D01*
X158916089Y-114091704D01*
X158909683Y-114096459D01*
X158903042Y-114100928D01*
X158896171Y-114105102D01*
X158889077Y-114108976D01*
X158881766Y-114112542D01*
X158874242Y-114115793D01*
X158866513Y-114118721D01*
X158858584Y-114121320D01*
X158850460Y-114123583D01*
X158842147Y-114125502D01*
X158833652Y-114127071D01*
X158824980Y-114128281D01*
X158816137Y-114129127D01*
X158777343Y-114129127D01*
X158921937Y-114277240D01*
X159004263Y-114359230D01*
X159030424Y-114384604D01*
X159048898Y-114401548D01*
X159055794Y-114407323D01*
X159061420Y-114411549D01*
X159065992Y-114414411D01*
X159069727Y-114416095D01*
X159072842Y-114416787D01*
X159075554Y-114416673D01*
X159078081Y-114415940D01*
X159080638Y-114414772D01*
X159089655Y-114409066D01*
X159098223Y-114403835D01*
X159106388Y-114399058D01*
X159114196Y-114394716D01*
X159121695Y-114390786D01*
X159128930Y-114387249D01*
X159135948Y-114384084D01*
X159142796Y-114381271D01*
X159149519Y-114378788D01*
X159156165Y-114376615D01*
X159162780Y-114374731D01*
X159169411Y-114373116D01*
X159176104Y-114371749D01*
X159182905Y-114370609D01*
X159189861Y-114369675D01*
X159197018Y-114368928D01*
X159208537Y-114367863D01*
X159219404Y-114367351D01*
X159229797Y-114367448D01*
X159239889Y-114368212D01*
X159244878Y-114368861D01*
X159249858Y-114369699D01*
X159254851Y-114370731D01*
X159259879Y-114371966D01*
X159264963Y-114373409D01*
X159270126Y-114375069D01*
X159280777Y-114379067D01*
X159292006Y-114384015D01*
X159303990Y-114389970D01*
X159316903Y-114396989D01*
X159330922Y-114405130D01*
X159346222Y-114414448D01*
X159362979Y-114425001D01*
X159401566Y-114450037D01*
X159438196Y-114474647D01*
X159467140Y-114493512D01*
X159479220Y-114501062D01*
X159489967Y-114507501D01*
X159499578Y-114512938D01*
X159508248Y-114517481D01*
X159516174Y-114521239D01*
X159523553Y-114524321D01*
X159530581Y-114526834D01*
X159537453Y-114528887D01*
X159544367Y-114530589D01*
X159551519Y-114532049D01*
X159567320Y-114534673D01*
X159577161Y-114535746D01*
X159586868Y-114536319D01*
X159596472Y-114536385D01*
X159606003Y-114535940D01*
X159615493Y-114534978D01*
X159624973Y-114533495D01*
X159634473Y-114531485D01*
X159644025Y-114528942D01*
X159653660Y-114525863D01*
X159663408Y-114522240D01*
X159673301Y-114518071D01*
X159683370Y-114513349D01*
X159693645Y-114508068D01*
X159704158Y-114502225D01*
X159714939Y-114495813D01*
X159726021Y-114488829D01*
X159746740Y-114475825D01*
X159756273Y-114469736D01*
X159764814Y-114464143D01*
X159772033Y-114459212D01*
X159777598Y-114455107D01*
X159779658Y-114453416D01*
X159781180Y-114451993D01*
X159782124Y-114450860D01*
X159782366Y-114450409D01*
X159782447Y-114450037D01*
X159793468Y-114416095D01*
X159804765Y-114380114D01*
X159811136Y-114359251D01*
X159817714Y-114337190D01*
X159830168Y-114293550D01*
X159840638Y-114255199D01*
X159848463Y-114226106D01*
X159852981Y-114210237D01*
X159853694Y-114208594D01*
X159854507Y-114206974D01*
X159855418Y-114205379D01*
X159856425Y-114203810D01*
X159857525Y-114202270D01*
X159858716Y-114200760D01*
X159859994Y-114199282D01*
X159861357Y-114197839D01*
X159862803Y-114196431D01*
X159864329Y-114195062D01*
X159865933Y-114193733D01*
X159867612Y-114192446D01*
X159869362Y-114191202D01*
X159871183Y-114190005D01*
X159873071Y-114188855D01*
X159875023Y-114187755D01*
X159877037Y-114186707D01*
X159879111Y-114185712D01*
X159881242Y-114184773D01*
X159883427Y-114183891D01*
X159885663Y-114183069D01*
X159887949Y-114182308D01*
X159890281Y-114181610D01*
X159892656Y-114180978D01*
X159895074Y-114180413D01*
X159897530Y-114179916D01*
X159900022Y-114179491D01*
X159902548Y-114179139D01*
X159905104Y-114178862D01*
X159907690Y-114178661D01*
X159910301Y-114178539D01*
X159912935Y-114178498D01*
X159915279Y-114178590D01*
X159917676Y-114178861D01*
X159920119Y-114179303D01*
X159922599Y-114179910D01*
X159925107Y-114180675D01*
X159927635Y-114181590D01*
X159930174Y-114182648D01*
X159932717Y-114183843D01*
X159937779Y-114186613D01*
X159942753Y-114189842D01*
X159947572Y-114193475D01*
X159952169Y-114197453D01*
X159956477Y-114201721D01*
X159960428Y-114206221D01*
X159963956Y-114210897D01*
X159965539Y-114213283D01*
X159966992Y-114215692D01*
X159968306Y-114218116D01*
X159969471Y-114220548D01*
X159970480Y-114222982D01*
X159971325Y-114225410D01*
X159971996Y-114227825D01*
X159972486Y-114230220D01*
X159972787Y-114232588D01*
X159972888Y-114234922D01*
X159865898Y-114640467D01*
X159783329Y-114953442D01*
G36*
X159783329Y-114953442D02*
G01*
X159525000Y-115910000D01*
X159514420Y-115945265D01*
X157398411Y-115945265D01*
X157172703Y-115098909D01*
X157050265Y-114640467D01*
X157176228Y-114640467D01*
X157188626Y-114688846D01*
X157222516Y-114815909D01*
X157272936Y-115002482D01*
X157334929Y-115229389D01*
X157338456Y-115232916D01*
X157497157Y-115818311D01*
X159419199Y-115818311D01*
X159577899Y-115229389D01*
X159689871Y-114813265D01*
X159722713Y-114686862D01*
X159731034Y-114652465D01*
X159733073Y-114640467D01*
X159729987Y-114641128D01*
X159726378Y-114641955D01*
X159721611Y-114643112D01*
X159715853Y-114644600D01*
X159709268Y-114646418D01*
X159705717Y-114647451D01*
X159702022Y-114648567D01*
X159698202Y-114649765D01*
X159694280Y-114651046D01*
X159689062Y-114652948D01*
X159683948Y-114654690D01*
X159678875Y-114656277D01*
X159673781Y-114657714D01*
X159668604Y-114659006D01*
X159663283Y-114660159D01*
X159657756Y-114661177D01*
X159651959Y-114662067D01*
X159645832Y-114662832D01*
X159639313Y-114663479D01*
X159632339Y-114664012D01*
X159624848Y-114664436D01*
X159616779Y-114664757D01*
X159608069Y-114664980D01*
X159588479Y-114665152D01*
X159571991Y-114665013D01*
X159556753Y-114664533D01*
X159542527Y-114663618D01*
X159529076Y-114662177D01*
X159516163Y-114660116D01*
X159503549Y-114657342D01*
X159490998Y-114653762D01*
X159478270Y-114649283D01*
X159465130Y-114643813D01*
X159451338Y-114637257D01*
X159436658Y-114629524D01*
X159420851Y-114620520D01*
X159403681Y-114610153D01*
X159384910Y-114598328D01*
X159341611Y-114569937D01*
X159305008Y-114545362D01*
X159276258Y-114526738D01*
X159264388Y-114519451D01*
X159253954Y-114513404D01*
X159244781Y-114508513D01*
X159236693Y-114504698D01*
X159229513Y-114501874D01*
X159223068Y-114499959D01*
X159217180Y-114498871D01*
X159211675Y-114498526D01*
X159206377Y-114498843D01*
X159201109Y-114499738D01*
X159195697Y-114501130D01*
X159189964Y-114502934D01*
X159183148Y-114505431D01*
X159177262Y-114507701D01*
X159174675Y-114508782D01*
X159172327Y-114509846D01*
X159170222Y-114510905D01*
X159168363Y-114511971D01*
X159166752Y-114513058D01*
X159165391Y-114514178D01*
X159164283Y-114515345D01*
X159163431Y-114516572D01*
X159162838Y-114517871D01*
X159162505Y-114519255D01*
X159162435Y-114520737D01*
X159162632Y-114522330D01*
X159163098Y-114524047D01*
X159163834Y-114525901D01*
X159164845Y-114527905D01*
X159166131Y-114530072D01*
X159167697Y-114532414D01*
X159169544Y-114534945D01*
X159171676Y-114537677D01*
X159174094Y-114540624D01*
X159179801Y-114547212D01*
X159186685Y-114554812D01*
X159204071Y-114573464D01*
X159215443Y-114585630D01*
X159225782Y-114597068D01*
X159235129Y-114607875D01*
X159243526Y-114618151D01*
X159251013Y-114627993D01*
X159257632Y-114637498D01*
X159263425Y-114646767D01*
X159268433Y-114655895D01*
X159272696Y-114664983D01*
X159276257Y-114674127D01*
X159279157Y-114683426D01*
X159281437Y-114692979D01*
X159283138Y-114702882D01*
X159284303Y-114713235D01*
X159284971Y-114724136D01*
X159285184Y-114735682D01*
X159285181Y-114735975D01*
X159285098Y-114744620D01*
X159284826Y-114752963D01*
X159284347Y-114760780D01*
X159283641Y-114768137D01*
X159282687Y-114775101D01*
X159281465Y-114781740D01*
X159279953Y-114788120D01*
X159278131Y-114794310D01*
X159275978Y-114800375D01*
X159273474Y-114806384D01*
X159270599Y-114812403D01*
X159267330Y-114818499D01*
X159263649Y-114824740D01*
X159259533Y-114831193D01*
X159254963Y-114837925D01*
X159249917Y-114845003D01*
X159247071Y-114849048D01*
X159243842Y-114853227D01*
X159240262Y-114857509D01*
X159236362Y-114861864D01*
X159232172Y-114866260D01*
X159227724Y-114870666D01*
X159223049Y-114875052D01*
X159218177Y-114879386D01*
X159213140Y-114883637D01*
X159207969Y-114887775D01*
X159202694Y-114891768D01*
X159197348Y-114895586D01*
X159191959Y-114899197D01*
X159186561Y-114902570D01*
X159181183Y-114905674D01*
X159175857Y-114908479D01*
X159176518Y-114911510D01*
X159177345Y-114914988D01*
X159178502Y-114919500D01*
X159179990Y-114924838D01*
X159180858Y-114927752D01*
X159181808Y-114930795D01*
X159182841Y-114933942D01*
X159183957Y-114937167D01*
X159185156Y-114940443D01*
X159186437Y-114943744D01*
X159188886Y-114952028D01*
X159190947Y-114960344D01*
X159192623Y-114968679D01*
X159193917Y-114977025D01*
X159194835Y-114985372D01*
X159195379Y-114993707D01*
X159195364Y-115010307D01*
X159193902Y-115026741D01*
X159191024Y-115042926D01*
X159186762Y-115058782D01*
X159181147Y-115074224D01*
X159174209Y-115089170D01*
X159165979Y-115103538D01*
X159156489Y-115117244D01*
X159145770Y-115130207D01*
X159133852Y-115142343D01*
X159127453Y-115148075D01*
X159120766Y-115153570D01*
X159113795Y-115158817D01*
X159106544Y-115163805D01*
X159099016Y-115168525D01*
X159091216Y-115172966D01*
X159087322Y-115174867D01*
X159083536Y-115176609D01*
X159079802Y-115178196D01*
X159076063Y-115179633D01*
X159072261Y-115180925D01*
X159068341Y-115182078D01*
X159064245Y-115183096D01*
X159059917Y-115183986D01*
X159055299Y-115184751D01*
X159050336Y-115185398D01*
X159044969Y-115185931D01*
X159039143Y-115186355D01*
X159032800Y-115186676D01*
X159025883Y-115186899D01*
X159018337Y-115187029D01*
X159010103Y-115187071D01*
X158995349Y-115187051D01*
X158982661Y-115186906D01*
X158971792Y-115186513D01*
X158966961Y-115186185D01*
X158962493Y-115185749D01*
X158958355Y-115185188D01*
X158954516Y-115184488D01*
X158950947Y-115183633D01*
X158947614Y-115182608D01*
X158944489Y-115181397D01*
X158941539Y-115179984D01*
X158938734Y-115178354D01*
X158936043Y-115176492D01*
X158918409Y-115165912D01*
X158897249Y-115197651D01*
X158893039Y-115204216D01*
X158888370Y-115210668D01*
X158883277Y-115216976D01*
X158877797Y-115223107D01*
X158871965Y-115229033D01*
X158865818Y-115234720D01*
X158859393Y-115240139D01*
X158852724Y-115245258D01*
X158845849Y-115250047D01*
X158838803Y-115254474D01*
X158831624Y-115258508D01*
X158824345Y-115262119D01*
X158817005Y-115265275D01*
X158809640Y-115267946D01*
X158802284Y-115270100D01*
X158798621Y-115270974D01*
X158794975Y-115271707D01*
X158787426Y-115273486D01*
X158779380Y-115274868D01*
X158770922Y-115275868D01*
X158762133Y-115276501D01*
X158753096Y-115276782D01*
X158743893Y-115276728D01*
X158734608Y-115276353D01*
X158725323Y-115275674D01*
X158716121Y-115274706D01*
X158707083Y-115273463D01*
X158698294Y-115271963D01*
X158689836Y-115270219D01*
X158681790Y-115268248D01*
X158674241Y-115266066D01*
X158667270Y-115263687D01*
X158660961Y-115261127D01*
X158658117Y-115259643D01*
X158654906Y-115257849D01*
X158647571Y-115253413D01*
X158639326Y-115247986D01*
X158634978Y-115244952D01*
X158630543Y-115241732D01*
X158626067Y-115238346D01*
X158621596Y-115234816D01*
X158617176Y-115231163D01*
X158612855Y-115227405D01*
X158608678Y-115223565D01*
X158604692Y-115219664D01*
X158600944Y-115215720D01*
X158597481Y-115211757D01*
X158558687Y-115176492D01*
X158519894Y-115215283D01*
X158508763Y-115226228D01*
X158503714Y-115231021D01*
X158498954Y-115235395D01*
X158494443Y-115239377D01*
X158490137Y-115242992D01*
X158485998Y-115246266D01*
X158481982Y-115249226D01*
X158478049Y-115251895D01*
X158474157Y-115254302D01*
X158470265Y-115256470D01*
X158466332Y-115258427D01*
X158462317Y-115260198D01*
X158458177Y-115261809D01*
X158453872Y-115263286D01*
X158449360Y-115264654D01*
X158441149Y-115267093D01*
X158432436Y-115269124D01*
X158423300Y-115270752D01*
X158413818Y-115271982D01*
X158404067Y-115272820D01*
X158394125Y-115273270D01*
X158384069Y-115273338D01*
X158373977Y-115273029D01*
X158363927Y-115272348D01*
X158353995Y-115271300D01*
X158344260Y-115269891D01*
X158334798Y-115268125D01*
X158325688Y-115266008D01*
X158317006Y-115263545D01*
X158308831Y-115260741D01*
X158301240Y-115257601D01*
X158296810Y-115254492D01*
X158290102Y-115249095D01*
X158269665Y-115231207D01*
X158239557Y-115203485D01*
X158199407Y-115165472D01*
X158148841Y-115116714D01*
X158087490Y-115056757D01*
X158014979Y-114985146D01*
X157930938Y-114901426D01*
X157688038Y-114660303D01*
X157585323Y-114559358D01*
X157579868Y-114562443D01*
X157573607Y-114566053D01*
X157565485Y-114570819D01*
X157555877Y-114576577D01*
X157545152Y-114583161D01*
X157533683Y-114590407D01*
X157521843Y-114598149D01*
X157492369Y-114616208D01*
X157479091Y-114623952D01*
X157466573Y-114630879D01*
X157454654Y-114637021D01*
X157443174Y-114642409D01*
X157431973Y-114647074D01*
X157420891Y-114651046D01*
X157409768Y-114654357D01*
X157398443Y-114657039D01*
X157386757Y-114659120D01*
X157374548Y-114660634D01*
X157361658Y-114661610D01*
X157347926Y-114662080D01*
X157333192Y-114662075D01*
X157317295Y-114661626D01*
X157297705Y-114661598D01*
X157280926Y-114661405D01*
X157266461Y-114660882D01*
X157259942Y-114660444D01*
X157253815Y-114659862D01*
X157248019Y-114659115D01*
X157242491Y-114658182D01*
X157237170Y-114657042D01*
X157231994Y-114655675D01*
X157226900Y-114654060D01*
X157221827Y-114652176D01*
X157216712Y-114650003D01*
X157211495Y-114647520D01*
X157208193Y-114646240D01*
X157204917Y-114645047D01*
X157198545Y-114642946D01*
X157192587Y-114641259D01*
X157189828Y-114640583D01*
X157187249Y-114640026D01*
X157184877Y-114639593D01*
X157182737Y-114639289D01*
X157180856Y-114639119D01*
X157179259Y-114639089D01*
X157177971Y-114639204D01*
X157177020Y-114639468D01*
X157176678Y-114639658D01*
X157176430Y-114639887D01*
X157176279Y-114640157D01*
X157176228Y-114640467D01*
X157050265Y-114640467D01*
X157012239Y-114498085D01*
X156964408Y-114311898D01*
X156946996Y-114238448D01*
X156947097Y-114236115D01*
X156947398Y-114233747D01*
X156947888Y-114231352D01*
X156948559Y-114228937D01*
X156949404Y-114226509D01*
X156950413Y-114224075D01*
X156951578Y-114221642D01*
X156952892Y-114219218D01*
X156954345Y-114216809D01*
X156955929Y-114214423D01*
X156957635Y-114212067D01*
X156959456Y-114209748D01*
X156963407Y-114205247D01*
X156967715Y-114200980D01*
X156972312Y-114197001D01*
X156977131Y-114193369D01*
X156982105Y-114190139D01*
X156984629Y-114188693D01*
X156987167Y-114187370D01*
X156989710Y-114186175D01*
X156992249Y-114185116D01*
X156994777Y-114184201D01*
X156997285Y-114183437D01*
X156999765Y-114182830D01*
X157002208Y-114182387D01*
X157004605Y-114182116D01*
X157005507Y-114182081D01*
X157008007Y-114182149D01*
X157012500Y-114182521D01*
X157016889Y-114183141D01*
X157021165Y-114184008D01*
X157025317Y-114185124D01*
X157029334Y-114186488D01*
X157033207Y-114188100D01*
X157036925Y-114189959D01*
X157040477Y-114192067D01*
X157043854Y-114194423D01*
X157047045Y-114197026D01*
X157050039Y-114199878D01*
X157052827Y-114202977D01*
X157055398Y-114206324D01*
X157057742Y-114209920D01*
X157059848Y-114213763D01*
X157064918Y-114229632D01*
X157073955Y-114258726D01*
X157085637Y-114297076D01*
X157098642Y-114340716D01*
X157121565Y-114419621D01*
X157125850Y-114433665D01*
X157129390Y-114444362D01*
X157132104Y-114451174D01*
X157133125Y-114452955D01*
X157133909Y-114453564D01*
X157138747Y-114457342D01*
X157145171Y-114461967D01*
X157161847Y-114473180D01*
X157182077Y-114486046D01*
X157204001Y-114499408D01*
X157225761Y-114512109D01*
X157245495Y-114522991D01*
X157254022Y-114527389D01*
X157261345Y-114530898D01*
X157267231Y-114533374D01*
X157271449Y-114534673D01*
X157277017Y-114535912D01*
X157283090Y-114536987D01*
X157289597Y-114537896D01*
X157296466Y-114538640D01*
X157303625Y-114539219D01*
X157311000Y-114539632D01*
X157318520Y-114539880D01*
X157326113Y-114539962D01*
X157333705Y-114539880D01*
X157341225Y-114539632D01*
X157348600Y-114539219D01*
X157355759Y-114538640D01*
X157362628Y-114537896D01*
X157369135Y-114536987D01*
X157375209Y-114535912D01*
X157380776Y-114534673D01*
X157384795Y-114533533D01*
X157390116Y-114531504D01*
X157396553Y-114528691D01*
X157403920Y-114525195D01*
X157420699Y-114516572D01*
X157438966Y-114506461D01*
X157457233Y-114495689D01*
X157474013Y-114485082D01*
X157481379Y-114480098D01*
X157487816Y-114475466D01*
X157493137Y-114471289D01*
X157497156Y-114467670D01*
X157473792Y-114442103D01*
X157448058Y-114414111D01*
X157416043Y-114379508D01*
X157374728Y-114336115D01*
X157356639Y-114316310D01*
X157340109Y-114297517D01*
X157325026Y-114279550D01*
X157311276Y-114262225D01*
X157298745Y-114245353D01*
X157287319Y-114228751D01*
X157276885Y-114212231D01*
X157267330Y-114195607D01*
X157258539Y-114178695D01*
X157250399Y-114161307D01*
X157242796Y-114143258D01*
X157235617Y-114124361D01*
X157228748Y-114104432D01*
X157222076Y-114083283D01*
X157217268Y-114066209D01*
X157213369Y-114051159D01*
X157211735Y-114043994D01*
X157210297Y-114036854D01*
X157209045Y-114029579D01*
X157207969Y-114022011D01*
X157207058Y-114013987D01*
X157206302Y-114005349D01*
X157205691Y-113995937D01*
X157205214Y-113985589D01*
X157204861Y-113974146D01*
X157204622Y-113961447D01*
X157204443Y-113931645D01*
X157204474Y-113924126D01*
X157324684Y-113924126D01*
X157324726Y-113948632D01*
X157326113Y-113973246D01*
X157328865Y-113997917D01*
X157332998Y-114022594D01*
X157338531Y-114047225D01*
X157345482Y-114071760D01*
X157353870Y-114096148D01*
X157363712Y-114120338D01*
X157375026Y-114144279D01*
X157387830Y-114167919D01*
X157391862Y-114173853D01*
X157398761Y-114182493D01*
X157408667Y-114193985D01*
X157421719Y-114208473D01*
X157457819Y-114247017D01*
X157508178Y-114299280D01*
X157573911Y-114366421D01*
X157656133Y-114449596D01*
X157874512Y-114668679D01*
X158208665Y-115001931D01*
X158313915Y-115105081D01*
X158344429Y-115133844D01*
X158357668Y-115144754D01*
X158361634Y-115146614D01*
X158365594Y-115148229D01*
X158369541Y-115149601D01*
X158373469Y-115150732D01*
X158377371Y-115151626D01*
X158381240Y-115152285D01*
X158385071Y-115152712D01*
X158388857Y-115152909D01*
X158392591Y-115152878D01*
X158396266Y-115152623D01*
X158399878Y-115152146D01*
X158403418Y-115151449D01*
X158406881Y-115150535D01*
X158410259Y-115149406D01*
X158413548Y-115148066D01*
X158416739Y-115146517D01*
X158419828Y-115144761D01*
X158422806Y-115142801D01*
X158425668Y-115140640D01*
X158428408Y-115138279D01*
X158431018Y-115135723D01*
X158433493Y-115132972D01*
X158435825Y-115130031D01*
X158438010Y-115126901D01*
X158440039Y-115123585D01*
X158441906Y-115120086D01*
X158443606Y-115116406D01*
X158445132Y-115112547D01*
X158446477Y-115108513D01*
X158447634Y-115104306D01*
X158448598Y-115099929D01*
X158449361Y-115095383D01*
X158449361Y-115070698D01*
X158241287Y-114859109D01*
X158029686Y-114647520D01*
X158075533Y-114601676D01*
X158121380Y-114555832D01*
X158421148Y-114855582D01*
X158583320Y-115016974D01*
X158637191Y-115069754D01*
X158676391Y-115107285D01*
X158703523Y-115132087D01*
X158721191Y-115146682D01*
X158731998Y-115153591D01*
X158735643Y-115154950D01*
X158738549Y-115155333D01*
X158742465Y-115155261D01*
X158746276Y-115155045D01*
X158749981Y-115154685D01*
X158753579Y-115154183D01*
X158757068Y-115153539D01*
X158760448Y-115152753D01*
X158763716Y-115151826D01*
X158766873Y-115150760D01*
X158769915Y-115149554D01*
X158772843Y-115148209D01*
X158775654Y-115146726D01*
X158778348Y-115145105D01*
X158780923Y-115143347D01*
X158783378Y-115141454D01*
X158785712Y-115139424D01*
X158787923Y-115137260D01*
X158790009Y-115134961D01*
X158791971Y-115132529D01*
X158793806Y-115129964D01*
X158795513Y-115127266D01*
X158797091Y-115124437D01*
X158798539Y-115121476D01*
X158799855Y-115118385D01*
X158801038Y-115115164D01*
X158802086Y-115111815D01*
X158802999Y-115108336D01*
X158803775Y-115104730D01*
X158804413Y-115100997D01*
X158804911Y-115097137D01*
X158805268Y-115093151D01*
X158805484Y-115089039D01*
X158805556Y-115084804D01*
X158805517Y-115082842D01*
X158805367Y-115080890D01*
X158805056Y-115078893D01*
X158804537Y-115076800D01*
X158803759Y-115074557D01*
X158802673Y-115072111D01*
X158801232Y-115069410D01*
X158799384Y-115066400D01*
X158797082Y-115063028D01*
X158794277Y-115059242D01*
X158790919Y-115054988D01*
X158786958Y-115050214D01*
X158782347Y-115044866D01*
X158777036Y-115038892D01*
X158770976Y-115032239D01*
X158764117Y-115024853D01*
X158756412Y-115016683D01*
X158747810Y-115007674D01*
X158727721Y-114986930D01*
X158703458Y-114962198D01*
X158674628Y-114933055D01*
X158640838Y-114899076D01*
X158601697Y-114859839D01*
X158505788Y-114763894D01*
X158206020Y-114464143D01*
X158251867Y-114418299D01*
X158297714Y-114372455D01*
X158639802Y-114714523D01*
X158827542Y-114901922D01*
X158888825Y-114962417D01*
X158932957Y-115005017D01*
X158963368Y-115032905D01*
X158983488Y-115049263D01*
X158990761Y-115054113D01*
X158996748Y-115057274D01*
X159001877Y-115059143D01*
X159006577Y-115060118D01*
X159011163Y-115060626D01*
X159015659Y-115060835D01*
X159020056Y-115060754D01*
X159024348Y-115060394D01*
X159028526Y-115059765D01*
X159032583Y-115058878D01*
X159036510Y-115057744D01*
X159040301Y-115056371D01*
X159043947Y-115054772D01*
X159047440Y-115052955D01*
X159050774Y-115050932D01*
X159053939Y-115048712D01*
X159056929Y-115046307D01*
X159059735Y-115043726D01*
X159062351Y-115040979D01*
X159064767Y-115038078D01*
X159066977Y-115035032D01*
X159068972Y-115031851D01*
X159070745Y-115028547D01*
X159072289Y-115025129D01*
X159073595Y-115021608D01*
X159074655Y-115017993D01*
X159075462Y-115014296D01*
X159076008Y-115010527D01*
X159076286Y-115006696D01*
X159076287Y-115002813D01*
X159076004Y-114998889D01*
X159075430Y-114994933D01*
X159074555Y-114990957D01*
X159073374Y-114986971D01*
X159071877Y-114982985D01*
X159070057Y-114979009D01*
X159067649Y-114975320D01*
X159061867Y-114968340D01*
X159040907Y-114945232D01*
X159008623Y-114911131D01*
X158966461Y-114867484D01*
X158858291Y-114757337D01*
X158727969Y-114626361D01*
X158491681Y-114389646D01*
X158419494Y-114316417D01*
X158399808Y-114295857D01*
X158392934Y-114287819D01*
X158392985Y-114287437D01*
X158393138Y-114286956D01*
X158393740Y-114285705D01*
X158394724Y-114284092D01*
X158396075Y-114282144D01*
X158397777Y-114279885D01*
X158399815Y-114277343D01*
X158402174Y-114274542D01*
X158404837Y-114271509D01*
X158407789Y-114268269D01*
X158411015Y-114264849D01*
X158414500Y-114261273D01*
X158418227Y-114257568D01*
X158422182Y-114253760D01*
X158426348Y-114249875D01*
X158430711Y-114245938D01*
X158435254Y-114241975D01*
X158477575Y-114199657D01*
X158773816Y-114495881D01*
X158919071Y-114640412D01*
X159012749Y-114731715D01*
X159043552Y-114760608D01*
X159065428Y-114780039D01*
X159079700Y-114791286D01*
X159084398Y-114794242D01*
X159087691Y-114795632D01*
X159091656Y-114796161D01*
X159095613Y-114796429D01*
X159099550Y-114796445D01*
X159103457Y-114796218D01*
X159107326Y-114795755D01*
X159111147Y-114795067D01*
X159114909Y-114794159D01*
X159118604Y-114793042D01*
X159122221Y-114791724D01*
X159125751Y-114790212D01*
X159129184Y-114788516D01*
X159132511Y-114786644D01*
X159135721Y-114784603D01*
X159138806Y-114782404D01*
X159141755Y-114780053D01*
X159144558Y-114777559D01*
X159147207Y-114774931D01*
X159149691Y-114772177D01*
X159152000Y-114769306D01*
X159154126Y-114766325D01*
X159156058Y-114763244D01*
X159157786Y-114760070D01*
X159159301Y-114756813D01*
X159160594Y-114753480D01*
X159161654Y-114750080D01*
X159162471Y-114746621D01*
X159163037Y-114743111D01*
X159163342Y-114739560D01*
X159163375Y-114735975D01*
X159163128Y-114732365D01*
X159162589Y-114728738D01*
X159161751Y-114725103D01*
X159161347Y-114723727D01*
X159160130Y-114721580D01*
X159155235Y-114714943D01*
X159147012Y-114705134D01*
X159135411Y-114692097D01*
X159101866Y-114656109D01*
X159054187Y-114606525D01*
X158991960Y-114542890D01*
X158914773Y-114464749D01*
X158713862Y-114263134D01*
X158713862Y-114259607D01*
X158542983Y-114087581D01*
X158404837Y-113946632D01*
X158313639Y-113851968D01*
X158290089Y-113826746D01*
X158283607Y-113818797D01*
X158286188Y-113819325D01*
X158291197Y-113820871D01*
X158307963Y-113826787D01*
X158332829Y-113836092D01*
X158364721Y-113848332D01*
X158445283Y-113879794D01*
X158541055Y-113917539D01*
X158695017Y-113976773D01*
X158743770Y-113994467D01*
X158762573Y-114000677D01*
X158778224Y-114005260D01*
X158791148Y-114008314D01*
X158801768Y-114009937D01*
X158810507Y-114010227D01*
X158817789Y-114009282D01*
X158824038Y-114007201D01*
X158829678Y-114004082D01*
X158840823Y-113995121D01*
X158842755Y-113993428D01*
X158844584Y-113991655D01*
X158846309Y-113989808D01*
X158847931Y-113987889D01*
X158849450Y-113985904D01*
X158850866Y-113983855D01*
X158852178Y-113981747D01*
X158853387Y-113979583D01*
X158854492Y-113977367D01*
X158855495Y-113975104D01*
X158856393Y-113972797D01*
X158857189Y-113970450D01*
X158857881Y-113968066D01*
X158858470Y-113965651D01*
X158858956Y-113963207D01*
X158859338Y-113960738D01*
X158859617Y-113958249D01*
X158859793Y-113955743D01*
X158859865Y-113953224D01*
X158859834Y-113950696D01*
X158859700Y-113948163D01*
X158859462Y-113945628D01*
X158859121Y-113943097D01*
X158858677Y-113940571D01*
X158858129Y-113938056D01*
X158857478Y-113935555D01*
X158856724Y-113933072D01*
X158855866Y-113930612D01*
X158854906Y-113928177D01*
X158853841Y-113925771D01*
X158852674Y-113923400D01*
X158851403Y-113921065D01*
X158847208Y-113913151D01*
X158846090Y-113911407D01*
X158844747Y-113909667D01*
X158843079Y-113907887D01*
X158840988Y-113906023D01*
X158838376Y-113904029D01*
X158835143Y-113901862D01*
X158831191Y-113899476D01*
X158826420Y-113896828D01*
X158820733Y-113893872D01*
X158814029Y-113890564D01*
X158806211Y-113886860D01*
X158797180Y-113882715D01*
X158786837Y-113878084D01*
X158775083Y-113872923D01*
X158761818Y-113867188D01*
X158746946Y-113860833D01*
X158711979Y-113846087D01*
X158669393Y-113828330D01*
X158618396Y-113807205D01*
X158558199Y-113782355D01*
X158407041Y-113720056D01*
X158119947Y-113600156D01*
X157969732Y-113538442D01*
X157929630Y-113522793D01*
X157904158Y-113513757D01*
X157870985Y-113504941D01*
X157858489Y-113501883D01*
X157844907Y-113499320D01*
X157830396Y-113497254D01*
X157815109Y-113495684D01*
X157799203Y-113494609D01*
X157782832Y-113494031D01*
X157766151Y-113493948D01*
X157749315Y-113494361D01*
X157732479Y-113495270D01*
X157715798Y-113496675D01*
X157699426Y-113498576D01*
X157683520Y-113500973D01*
X157668234Y-113503866D01*
X157653722Y-113507255D01*
X157640141Y-113511140D01*
X157627644Y-113515520D01*
X157602654Y-113524748D01*
X157578612Y-113535206D01*
X157555536Y-113546843D01*
X157533443Y-113559608D01*
X157512354Y-113573450D01*
X157492284Y-113588318D01*
X157473253Y-113604162D01*
X157455278Y-113620929D01*
X157438378Y-113638569D01*
X157422570Y-113657031D01*
X157407873Y-113676265D01*
X157394305Y-113696218D01*
X157381884Y-113716840D01*
X157370627Y-113738080D01*
X157360554Y-113759887D01*
X157351682Y-113782210D01*
X157344029Y-113804998D01*
X157337613Y-113828200D01*
X157332452Y-113851765D01*
X157328565Y-113875641D01*
X157325970Y-113899779D01*
X157324684Y-113924126D01*
X157204474Y-113924126D01*
X157204663Y-113878747D01*
X157205187Y-113858746D01*
X157206206Y-113841719D01*
X157206953Y-113834012D01*
X157207887Y-113826677D01*
X157209027Y-113819589D01*
X157210394Y-113812626D01*
X157212009Y-113805663D01*
X157213893Y-113798575D01*
X157218550Y-113783532D01*
X157224860Y-113762552D01*
X157231880Y-113741936D01*
X157247989Y-113701859D01*
X157266764Y-113663413D01*
X157288091Y-113626714D01*
X157311857Y-113591875D01*
X157337947Y-113559009D01*
X157366248Y-113528229D01*
X157396647Y-113499651D01*
X157429030Y-113473386D01*
X157463282Y-113449550D01*
X157499291Y-113428255D01*
X157517919Y-113418596D01*
X157536943Y-113409615D01*
X157556350Y-113401327D01*
X157576124Y-113393745D01*
X157596252Y-113386883D01*
X157616720Y-113380756D01*
X157637514Y-113375378D01*
X157658619Y-113370764D01*
X157680021Y-113366927D01*
X157701705Y-113363881D01*
X157722218Y-113361567D01*
X157739507Y-113359914D01*
X157754647Y-113358922D01*
X157761747Y-113358674D01*
X157768712Y-113358592D01*
X157775678Y-113358674D01*
X157782778Y-113358922D01*
X157797917Y-113359914D01*
X157815206Y-113361567D01*
X157835719Y-113363881D01*
X157839885Y-113364002D01*
X157844412Y-113364350D01*
X157849249Y-113364904D01*
X157854344Y-113365645D01*
X157865104Y-113367601D01*
X157876276Y-113370053D01*
X157887448Y-113372835D01*
X157898207Y-113375783D01*
X157908140Y-113378731D01*
X157916833Y-113381514D01*
X158093057Y-113450445D01*
X158424675Y-113586490D01*
X158751003Y-113723197D01*
X158861969Y-113771031D01*
X158911357Y-113794112D01*
X158920364Y-113801009D01*
X158928859Y-113808459D01*
X158936828Y-113816436D01*
X158944254Y-113824913D01*
X158951122Y-113833867D01*
X158957417Y-113843269D01*
X158963123Y-113853095D01*
X158968225Y-113863319D01*
X158972706Y-113873915D01*
X158976552Y-113884857D01*
X158979747Y-113896119D01*
X158982276Y-113907676D01*
X158984123Y-113919501D01*
X158985272Y-113931569D01*
X158985709Y-113943854D01*
X158985417Y-113956330D01*
X158984581Y-113965183D01*
X158983400Y-113973884D01*
X158981879Y-113982426D01*
X158980024Y-113990803D01*
X158977841Y-113999006D01*
X158975336Y-114007029D01*
X158972514Y-114014865D01*
X158969382Y-114022507D01*
X158965945Y-114029947D01*
X158962209Y-114037178D01*
X158958180Y-114044194D01*
X158953863Y-114050987D01*
X158949265Y-114057550D01*
X158944391Y-114063876D01*
X158939247Y-114069959D01*
X158933839Y-114075789D01*
X158928173Y-114081362D01*
X158922255Y-114086669D01*
X158916089Y-114091704D01*
X158909683Y-114096459D01*
X158903042Y-114100928D01*
X158896171Y-114105102D01*
X158889077Y-114108976D01*
X158881766Y-114112542D01*
X158874242Y-114115793D01*
X158866513Y-114118721D01*
X158858584Y-114121320D01*
X158850460Y-114123583D01*
X158842147Y-114125502D01*
X158833652Y-114127071D01*
X158824980Y-114128281D01*
X158816137Y-114129127D01*
X158777343Y-114129127D01*
X158921937Y-114277240D01*
X159004263Y-114359230D01*
X159030424Y-114384604D01*
X159048898Y-114401548D01*
X159055794Y-114407323D01*
X159061420Y-114411549D01*
X159065992Y-114414411D01*
X159069727Y-114416095D01*
X159072842Y-114416787D01*
X159075554Y-114416673D01*
X159078081Y-114415940D01*
X159080638Y-114414772D01*
X159089655Y-114409066D01*
X159098223Y-114403835D01*
X159106388Y-114399058D01*
X159114196Y-114394716D01*
X159121695Y-114390786D01*
X159128930Y-114387249D01*
X159135948Y-114384084D01*
X159142796Y-114381271D01*
X159149519Y-114378788D01*
X159156165Y-114376615D01*
X159162780Y-114374731D01*
X159169411Y-114373116D01*
X159176104Y-114371749D01*
X159182905Y-114370609D01*
X159189861Y-114369675D01*
X159197018Y-114368928D01*
X159208537Y-114367863D01*
X159219404Y-114367351D01*
X159229797Y-114367448D01*
X159239889Y-114368212D01*
X159244878Y-114368861D01*
X159249858Y-114369699D01*
X159254851Y-114370731D01*
X159259879Y-114371966D01*
X159264963Y-114373409D01*
X159270126Y-114375069D01*
X159280777Y-114379067D01*
X159292006Y-114384015D01*
X159303990Y-114389970D01*
X159316903Y-114396989D01*
X159330922Y-114405130D01*
X159346222Y-114414448D01*
X159362979Y-114425001D01*
X159401566Y-114450037D01*
X159438196Y-114474647D01*
X159467140Y-114493512D01*
X159479220Y-114501062D01*
X159489967Y-114507501D01*
X159499578Y-114512938D01*
X159508248Y-114517481D01*
X159516174Y-114521239D01*
X159523553Y-114524321D01*
X159530581Y-114526834D01*
X159537453Y-114528887D01*
X159544367Y-114530589D01*
X159551519Y-114532049D01*
X159567320Y-114534673D01*
X159577161Y-114535746D01*
X159586868Y-114536319D01*
X159596472Y-114536385D01*
X159606003Y-114535940D01*
X159615493Y-114534978D01*
X159624973Y-114533495D01*
X159634473Y-114531485D01*
X159644025Y-114528942D01*
X159653660Y-114525863D01*
X159663408Y-114522240D01*
X159673301Y-114518071D01*
X159683370Y-114513349D01*
X159693645Y-114508068D01*
X159704158Y-114502225D01*
X159714939Y-114495813D01*
X159726021Y-114488829D01*
X159746740Y-114475825D01*
X159756273Y-114469736D01*
X159764814Y-114464143D01*
X159772033Y-114459212D01*
X159777598Y-114455107D01*
X159779658Y-114453416D01*
X159781180Y-114451993D01*
X159782124Y-114450860D01*
X159782366Y-114450409D01*
X159782447Y-114450037D01*
X159793468Y-114416095D01*
X159804765Y-114380114D01*
X159811136Y-114359251D01*
X159817714Y-114337190D01*
X159830168Y-114293550D01*
X159840638Y-114255199D01*
X159848463Y-114226106D01*
X159852981Y-114210237D01*
X159853694Y-114208594D01*
X159854507Y-114206974D01*
X159855418Y-114205379D01*
X159856425Y-114203810D01*
X159857525Y-114202270D01*
X159858716Y-114200760D01*
X159859994Y-114199282D01*
X159861357Y-114197839D01*
X159862803Y-114196431D01*
X159864329Y-114195062D01*
X159865933Y-114193733D01*
X159867612Y-114192446D01*
X159869362Y-114191202D01*
X159871183Y-114190005D01*
X159873071Y-114188855D01*
X159875023Y-114187755D01*
X159877037Y-114186707D01*
X159879111Y-114185712D01*
X159881242Y-114184773D01*
X159883427Y-114183891D01*
X159885663Y-114183069D01*
X159887949Y-114182308D01*
X159890281Y-114181610D01*
X159892656Y-114180978D01*
X159895074Y-114180413D01*
X159897530Y-114179916D01*
X159900022Y-114179491D01*
X159902548Y-114179139D01*
X159905104Y-114178862D01*
X159907690Y-114178661D01*
X159910301Y-114178539D01*
X159912935Y-114178498D01*
X159915279Y-114178590D01*
X159917676Y-114178861D01*
X159920119Y-114179303D01*
X159922599Y-114179910D01*
X159925107Y-114180675D01*
X159927635Y-114181590D01*
X159930174Y-114182648D01*
X159932717Y-114183843D01*
X159937779Y-114186613D01*
X159942753Y-114189842D01*
X159947572Y-114193475D01*
X159952169Y-114197453D01*
X159956477Y-114201721D01*
X159960428Y-114206221D01*
X159963956Y-114210897D01*
X159965539Y-114213283D01*
X159966992Y-114215692D01*
X159968306Y-114218116D01*
X159969471Y-114220548D01*
X159970480Y-114222982D01*
X159971325Y-114225410D01*
X159971996Y-114227825D01*
X159972486Y-114230220D01*
X159972787Y-114232588D01*
X159972888Y-114234922D01*
X159865898Y-114640467D01*
X159783329Y-114953442D01*
G37*
D10*
X112390965Y-54746932D02*
X111876930Y-55809270D01*
X108450035Y-54781201D02*
X107456236Y-54781201D01*
X127038780Y-54518318D02*
X127305447Y-54137365D01*
X127495923Y-54518318D02*
X127495923Y-53718318D01*
X127495923Y-53718318D02*
X127191161Y-53718318D01*
X127191161Y-53718318D02*
X127114971Y-53756413D01*
X127114971Y-53756413D02*
X127076876Y-53794508D01*
X127076876Y-53794508D02*
X127038780Y-53870699D01*
X127038780Y-53870699D02*
X127038780Y-53984984D01*
X127038780Y-53984984D02*
X127076876Y-54061175D01*
X127076876Y-54061175D02*
X127114971Y-54099270D01*
X127114971Y-54099270D02*
X127191161Y-54137365D01*
X127191161Y-54137365D02*
X127495923Y-54137365D01*
X126695923Y-54099270D02*
X126429257Y-54099270D01*
X126314971Y-54518318D02*
X126695923Y-54518318D01*
X126695923Y-54518318D02*
X126695923Y-53718318D01*
X126695923Y-53718318D02*
X126314971Y-53718318D01*
X126086399Y-53718318D02*
X125819732Y-54518318D01*
X125819732Y-54518318D02*
X125553066Y-53718318D01*
X125286399Y-54518318D02*
X125286399Y-53718318D01*
X124943543Y-54480223D02*
X124829257Y-54518318D01*
X124829257Y-54518318D02*
X124638781Y-54518318D01*
X124638781Y-54518318D02*
X124562590Y-54480223D01*
X124562590Y-54480223D02*
X124524495Y-54442127D01*
X124524495Y-54442127D02*
X124486400Y-54365937D01*
X124486400Y-54365937D02*
X124486400Y-54289746D01*
X124486400Y-54289746D02*
X124524495Y-54213556D01*
X124524495Y-54213556D02*
X124562590Y-54175461D01*
X124562590Y-54175461D02*
X124638781Y-54137365D01*
X124638781Y-54137365D02*
X124791162Y-54099270D01*
X124791162Y-54099270D02*
X124867352Y-54061175D01*
X124867352Y-54061175D02*
X124905447Y-54023080D01*
X124905447Y-54023080D02*
X124943543Y-53946889D01*
X124943543Y-53946889D02*
X124943543Y-53870699D01*
X124943543Y-53870699D02*
X124905447Y-53794508D01*
X124905447Y-53794508D02*
X124867352Y-53756413D01*
X124867352Y-53756413D02*
X124791162Y-53718318D01*
X124791162Y-53718318D02*
X124600685Y-53718318D01*
X124600685Y-53718318D02*
X124486400Y-53756413D01*
X124143542Y-54518318D02*
X124143542Y-53718318D01*
X123610209Y-53718318D02*
X123457828Y-53718318D01*
X123457828Y-53718318D02*
X123381638Y-53756413D01*
X123381638Y-53756413D02*
X123305447Y-53832603D01*
X123305447Y-53832603D02*
X123267352Y-53984984D01*
X123267352Y-53984984D02*
X123267352Y-54251651D01*
X123267352Y-54251651D02*
X123305447Y-54404032D01*
X123305447Y-54404032D02*
X123381638Y-54480223D01*
X123381638Y-54480223D02*
X123457828Y-54518318D01*
X123457828Y-54518318D02*
X123610209Y-54518318D01*
X123610209Y-54518318D02*
X123686400Y-54480223D01*
X123686400Y-54480223D02*
X123762590Y-54404032D01*
X123762590Y-54404032D02*
X123800686Y-54251651D01*
X123800686Y-54251651D02*
X123800686Y-53984984D01*
X123800686Y-53984984D02*
X123762590Y-53832603D01*
X123762590Y-53832603D02*
X123686400Y-53756413D01*
X123686400Y-53756413D02*
X123610209Y-53718318D01*
X122924495Y-54518318D02*
X122924495Y-53718318D01*
X122924495Y-53718318D02*
X122467352Y-54518318D01*
X122467352Y-54518318D02*
X122467352Y-53718318D01*
X121057829Y-54518318D02*
X121514972Y-54518318D01*
X121286400Y-54518318D02*
X121286400Y-53718318D01*
X121286400Y-53718318D02*
X121362591Y-53832603D01*
X121362591Y-53832603D02*
X121438781Y-53908794D01*
X121438781Y-53908794D02*
X121514972Y-53946889D01*
X120714971Y-54442127D02*
X120676876Y-54480223D01*
X120676876Y-54480223D02*
X120714971Y-54518318D01*
X120714971Y-54518318D02*
X120753067Y-54480223D01*
X120753067Y-54480223D02*
X120714971Y-54442127D01*
X120714971Y-54442127D02*
X120714971Y-54518318D01*
X119991162Y-53984984D02*
X119991162Y-54518318D01*
X120181638Y-53680223D02*
X120372115Y-54251651D01*
X120372115Y-54251651D02*
X119876876Y-54251651D01*
X118581638Y-54518318D02*
X118962590Y-54518318D01*
X118962590Y-54518318D02*
X118962590Y-53718318D01*
X118314971Y-54518318D02*
X118314971Y-53718318D01*
X118314971Y-53718318D02*
X118010209Y-53718318D01*
X118010209Y-53718318D02*
X117934019Y-53756413D01*
X117934019Y-53756413D02*
X117895924Y-53794508D01*
X117895924Y-53794508D02*
X117857828Y-53870699D01*
X117857828Y-53870699D02*
X117857828Y-53984984D01*
X117857828Y-53984984D02*
X117895924Y-54061175D01*
X117895924Y-54061175D02*
X117934019Y-54099270D01*
X117934019Y-54099270D02*
X118010209Y-54137365D01*
X118010209Y-54137365D02*
X118314971Y-54137365D01*
X116905447Y-54518318D02*
X116905447Y-53718318D01*
X116448304Y-54518318D02*
X116791162Y-54061175D01*
X116448304Y-53718318D02*
X116905447Y-54175461D01*
X116143543Y-54480223D02*
X116029257Y-54518318D01*
X116029257Y-54518318D02*
X115838781Y-54518318D01*
X115838781Y-54518318D02*
X115762590Y-54480223D01*
X115762590Y-54480223D02*
X115724495Y-54442127D01*
X115724495Y-54442127D02*
X115686400Y-54365937D01*
X115686400Y-54365937D02*
X115686400Y-54289746D01*
X115686400Y-54289746D02*
X115724495Y-54213556D01*
X115724495Y-54213556D02*
X115762590Y-54175461D01*
X115762590Y-54175461D02*
X115838781Y-54137365D01*
X115838781Y-54137365D02*
X115991162Y-54099270D01*
X115991162Y-54099270D02*
X116067352Y-54061175D01*
X116067352Y-54061175D02*
X116105447Y-54023080D01*
X116105447Y-54023080D02*
X116143543Y-53946889D01*
X116143543Y-53946889D02*
X116143543Y-53870699D01*
X116143543Y-53870699D02*
X116105447Y-53794508D01*
X116105447Y-53794508D02*
X116067352Y-53756413D01*
X116067352Y-53756413D02*
X115991162Y-53718318D01*
X115991162Y-53718318D02*
X115800685Y-53718318D01*
X115800685Y-53718318D02*
X115686400Y-53756413D01*
X115419733Y-53718318D02*
X114924495Y-53718318D01*
X114924495Y-53718318D02*
X115191161Y-54023080D01*
X115191161Y-54023080D02*
X115076876Y-54023080D01*
X115076876Y-54023080D02*
X115000685Y-54061175D01*
X115000685Y-54061175D02*
X114962590Y-54099270D01*
X114962590Y-54099270D02*
X114924495Y-54175461D01*
X114924495Y-54175461D02*
X114924495Y-54365937D01*
X114924495Y-54365937D02*
X114962590Y-54442127D01*
X114962590Y-54442127D02*
X115000685Y-54480223D01*
X115000685Y-54480223D02*
X115076876Y-54518318D01*
X115076876Y-54518318D02*
X115305447Y-54518318D01*
X115305447Y-54518318D02*
X115381638Y-54480223D01*
X115381638Y-54480223D02*
X115419733Y-54442127D01*
X114657828Y-53718318D02*
X114162590Y-53718318D01*
X114162590Y-53718318D02*
X114429256Y-54023080D01*
X114429256Y-54023080D02*
X114314971Y-54023080D01*
X114314971Y-54023080D02*
X114238780Y-54061175D01*
X114238780Y-54061175D02*
X114200685Y-54099270D01*
X114200685Y-54099270D02*
X114162590Y-54175461D01*
X114162590Y-54175461D02*
X114162590Y-54365937D01*
X114162590Y-54365937D02*
X114200685Y-54442127D01*
X114200685Y-54442127D02*
X114238780Y-54480223D01*
X114238780Y-54480223D02*
X114314971Y-54518318D01*
X114314971Y-54518318D02*
X114543542Y-54518318D01*
X114543542Y-54518318D02*
X114619733Y-54480223D01*
X114619733Y-54480223D02*
X114657828Y-54442127D01*
X123762590Y-55387225D02*
X123648304Y-55425320D01*
X123648304Y-55425320D02*
X123610209Y-55463416D01*
X123610209Y-55463416D02*
X123572113Y-55539606D01*
X123572113Y-55539606D02*
X123572113Y-55653892D01*
X123572113Y-55653892D02*
X123610209Y-55730082D01*
X123610209Y-55730082D02*
X123648304Y-55768178D01*
X123648304Y-55768178D02*
X123724494Y-55806273D01*
X123724494Y-55806273D02*
X124029256Y-55806273D01*
X124029256Y-55806273D02*
X124029256Y-55006273D01*
X124029256Y-55006273D02*
X123762590Y-55006273D01*
X123762590Y-55006273D02*
X123686399Y-55044368D01*
X123686399Y-55044368D02*
X123648304Y-55082463D01*
X123648304Y-55082463D02*
X123610209Y-55158654D01*
X123610209Y-55158654D02*
X123610209Y-55234844D01*
X123610209Y-55234844D02*
X123648304Y-55311035D01*
X123648304Y-55311035D02*
X123686399Y-55349130D01*
X123686399Y-55349130D02*
X123762590Y-55387225D01*
X123762590Y-55387225D02*
X124029256Y-55387225D01*
X123076875Y-55425320D02*
X123076875Y-55806273D01*
X123343542Y-55006273D02*
X123076875Y-55425320D01*
X123076875Y-55425320D02*
X122810209Y-55006273D01*
X121934018Y-55387225D02*
X121667352Y-55387225D01*
X121553066Y-55806273D02*
X121934018Y-55806273D01*
X121934018Y-55806273D02*
X121934018Y-55006273D01*
X121934018Y-55006273D02*
X121553066Y-55006273D01*
X120829256Y-55806273D02*
X121210208Y-55806273D01*
X121210208Y-55806273D02*
X121210208Y-55006273D01*
X120562589Y-55387225D02*
X120295923Y-55387225D01*
X120181637Y-55806273D02*
X120562589Y-55806273D01*
X120562589Y-55806273D02*
X120562589Y-55006273D01*
X120562589Y-55006273D02*
X120181637Y-55006273D01*
X119381636Y-55730082D02*
X119419732Y-55768178D01*
X119419732Y-55768178D02*
X119534017Y-55806273D01*
X119534017Y-55806273D02*
X119610208Y-55806273D01*
X119610208Y-55806273D02*
X119724494Y-55768178D01*
X119724494Y-55768178D02*
X119800684Y-55691987D01*
X119800684Y-55691987D02*
X119838779Y-55615797D01*
X119838779Y-55615797D02*
X119876875Y-55463416D01*
X119876875Y-55463416D02*
X119876875Y-55349130D01*
X119876875Y-55349130D02*
X119838779Y-55196749D01*
X119838779Y-55196749D02*
X119800684Y-55120558D01*
X119800684Y-55120558D02*
X119724494Y-55044368D01*
X119724494Y-55044368D02*
X119610208Y-55006273D01*
X119610208Y-55006273D02*
X119534017Y-55006273D01*
X119534017Y-55006273D02*
X119419732Y-55044368D01*
X119419732Y-55044368D02*
X119381636Y-55082463D01*
X119153065Y-55006273D02*
X118695922Y-55006273D01*
X118924494Y-55806273D02*
X118924494Y-55006273D01*
X117972112Y-55806273D02*
X118238779Y-55425320D01*
X118429255Y-55806273D02*
X118429255Y-55006273D01*
X118429255Y-55006273D02*
X118124493Y-55006273D01*
X118124493Y-55006273D02*
X118048303Y-55044368D01*
X118048303Y-55044368D02*
X118010208Y-55082463D01*
X118010208Y-55082463D02*
X117972112Y-55158654D01*
X117972112Y-55158654D02*
X117972112Y-55272939D01*
X117972112Y-55272939D02*
X118010208Y-55349130D01*
X118010208Y-55349130D02*
X118048303Y-55387225D01*
X118048303Y-55387225D02*
X118124493Y-55425320D01*
X118124493Y-55425320D02*
X118429255Y-55425320D01*
X117476874Y-55006273D02*
X117324493Y-55006273D01*
X117324493Y-55006273D02*
X117248303Y-55044368D01*
X117248303Y-55044368D02*
X117172112Y-55120558D01*
X117172112Y-55120558D02*
X117134017Y-55272939D01*
X117134017Y-55272939D02*
X117134017Y-55539606D01*
X117134017Y-55539606D02*
X117172112Y-55691987D01*
X117172112Y-55691987D02*
X117248303Y-55768178D01*
X117248303Y-55768178D02*
X117324493Y-55806273D01*
X117324493Y-55806273D02*
X117476874Y-55806273D01*
X117476874Y-55806273D02*
X117553065Y-55768178D01*
X117553065Y-55768178D02*
X117629255Y-55691987D01*
X117629255Y-55691987D02*
X117667351Y-55539606D01*
X117667351Y-55539606D02*
X117667351Y-55272939D01*
X117667351Y-55272939D02*
X117629255Y-55120558D01*
X117629255Y-55120558D02*
X117553065Y-55044368D01*
X117553065Y-55044368D02*
X117476874Y-55006273D01*
X116791160Y-55806273D02*
X116791160Y-55006273D01*
X116791160Y-55006273D02*
X116334017Y-55806273D01*
X116334017Y-55806273D02*
X116334017Y-55006273D01*
X115572113Y-55806273D02*
X115953065Y-55806273D01*
X115953065Y-55806273D02*
X115953065Y-55006273D01*
X115343542Y-55577701D02*
X114962589Y-55577701D01*
X115419732Y-55806273D02*
X115153065Y-55006273D01*
X115153065Y-55006273D02*
X114886399Y-55806273D01*
X114353066Y-55387225D02*
X114238780Y-55425320D01*
X114238780Y-55425320D02*
X114200685Y-55463416D01*
X114200685Y-55463416D02*
X114162589Y-55539606D01*
X114162589Y-55539606D02*
X114162589Y-55653892D01*
X114162589Y-55653892D02*
X114200685Y-55730082D01*
X114200685Y-55730082D02*
X114238780Y-55768178D01*
X114238780Y-55768178D02*
X114314970Y-55806273D01*
X114314970Y-55806273D02*
X114619732Y-55806273D01*
X114619732Y-55806273D02*
X114619732Y-55006273D01*
X114619732Y-55006273D02*
X114353066Y-55006273D01*
X114353066Y-55006273D02*
X114276875Y-55044368D01*
X114276875Y-55044368D02*
X114238780Y-55082463D01*
X114238780Y-55082463D02*
X114200685Y-55158654D01*
X114200685Y-55158654D02*
X114200685Y-55234844D01*
X114200685Y-55234844D02*
X114238780Y-55311035D01*
X114238780Y-55311035D02*
X114276875Y-55349130D01*
X114276875Y-55349130D02*
X114353066Y-55387225D01*
X114353066Y-55387225D02*
X114619732Y-55387225D01*
D13*
X78960328Y-152667868D03*
X79490658Y-150652614D03*
D14*
X85395000Y-152880000D03*
X85395000Y-152880000D03*
D13*
X83167614Y-146975658D03*
X85182868Y-146445328D03*
D15*
X90348931Y-154011207D03*
D16*
X86495199Y-157864939D03*
D15*
X87555859Y-158925599D03*
X91409591Y-155071867D03*
D17*
X77196097Y-152947175D03*
D18*
X78394643Y-151748629D03*
D19*
X86278883Y-145349313D03*
D17*
X87477429Y-144150767D03*
D13*
X138625000Y-124070000D03*
X140425000Y-123020000D03*
D14*
X143025000Y-128770000D03*
X143025000Y-128770000D03*
D13*
X145625000Y-123020000D03*
X147425000Y-124070000D03*
D20*
X145728074Y-133072842D03*
D21*
X140278074Y-133072842D03*
D20*
X140278074Y-134572842D03*
X145728074Y-134572842D03*
D22*
X137180000Y-123020000D03*
D23*
X138875000Y-123020000D03*
X148975000Y-124070000D03*
D22*
X150670000Y-124070000D03*
D13*
X176843574Y-65114520D03*
X178712433Y-64192640D03*
D14*
X180905000Y-70110000D03*
X180905000Y-70110000D03*
D13*
X183899766Y-64555374D03*
X185622137Y-65728377D03*
D24*
X183301338Y-74590917D03*
D25*
X177864614Y-74210745D03*
D24*
X177759980Y-75707091D03*
X183196704Y-76087263D03*
D26*
X175475338Y-63966280D03*
D27*
X177166209Y-64084517D03*
D28*
X187168362Y-65836500D03*
D26*
X188859233Y-65954737D03*
D13*
X116448477Y-128238952D03*
X117915383Y-126758856D03*
D14*
X121915000Y-131640000D03*
X121915000Y-131640000D03*
D13*
X122938198Y-125412997D03*
X124948624Y-125961345D03*
D29*
X125639626Y-135096619D03*
D30*
X120375331Y-136507183D03*
D29*
X120763559Y-137956072D03*
X126027855Y-136545508D03*
D31*
X114780954Y-127598724D03*
D32*
X116418198Y-127160026D03*
D33*
X126445809Y-125560175D03*
D31*
X128083053Y-125121477D03*
D13*
X154711399Y-73975260D03*
X156511399Y-72925260D03*
D14*
X159111399Y-78675260D03*
X159111399Y-78675260D03*
D13*
X161711399Y-72925260D03*
X163511399Y-73975260D03*
D20*
X161814473Y-82978102D03*
D21*
X156364473Y-82978102D03*
D20*
X156364473Y-84478102D03*
X161814473Y-84478102D03*
D22*
X153266399Y-72925260D03*
D23*
X154961399Y-72925260D03*
X165061399Y-73975260D03*
D22*
X166756399Y-73975260D03*
D13*
X215457992Y-96297352D03*
X217412977Y-95575870D03*
D14*
X218975000Y-101690000D03*
X218975000Y-101690000D03*
D13*
X222533977Y-96478841D03*
X224124301Y-97825456D03*
D34*
X220889828Y-106396856D03*
D35*
X215522625Y-105450473D03*
D34*
X215262153Y-106927685D03*
X220629355Y-107874068D03*
D36*
X214217276Y-95012382D03*
D37*
X215886525Y-95306715D03*
D38*
X225650753Y-98094610D03*
D36*
X227320002Y-98388944D03*
D13*
X174223574Y-103124520D03*
X176092433Y-102202640D03*
D14*
X178285000Y-108120000D03*
X178285000Y-108120000D03*
D13*
X181279766Y-102565374D03*
X183002137Y-103738377D03*
D24*
X180681338Y-112600917D03*
D25*
X175244614Y-112220745D03*
D24*
X175139980Y-113717091D03*
X180576704Y-114097263D03*
D26*
X172855338Y-101976280D03*
D27*
X174546209Y-102094517D03*
D28*
X184548362Y-103846500D03*
D26*
X186239233Y-103964737D03*
D13*
X116662031Y-85984740D03*
X118462031Y-84934740D03*
D14*
X121062031Y-90684740D03*
X121062031Y-90684740D03*
D13*
X123662031Y-84934740D03*
X125462031Y-85984740D03*
D20*
X123765105Y-94987582D03*
D21*
X118315105Y-94987582D03*
D20*
X118315105Y-96487582D03*
X123765105Y-96487582D03*
D22*
X115217031Y-84934740D03*
D23*
X116912031Y-84934740D03*
X127012031Y-85984740D03*
D22*
X128707031Y-85984740D03*
D13*
X212177992Y-115097352D03*
X214132977Y-114375870D03*
D14*
X215695000Y-120490000D03*
X215695000Y-120490000D03*
D13*
X219253977Y-115278841D03*
X220844301Y-116625456D03*
D34*
X217609828Y-125196856D03*
D35*
X212242625Y-124250473D03*
D34*
X211982153Y-125727685D03*
X217349355Y-126674068D03*
D36*
X210937276Y-113812382D03*
D37*
X212606525Y-114106715D03*
D38*
X222370753Y-116894610D03*
D36*
X224040002Y-117188944D03*
D13*
X116645000Y-105100000D03*
X118445000Y-104050000D03*
D14*
X121045000Y-109800000D03*
X121045000Y-109800000D03*
D13*
X123645000Y-104050000D03*
X125445000Y-105100000D03*
D20*
X123748074Y-114102842D03*
D21*
X118298074Y-114102842D03*
D20*
X118298074Y-115602842D03*
X123748074Y-115602842D03*
D22*
X115200000Y-104050000D03*
D23*
X116895000Y-104050000D03*
X126995000Y-105100000D03*
D22*
X128690000Y-105100000D03*
D13*
X116685000Y-66930000D03*
X118485000Y-65880000D03*
D14*
X121085000Y-71630000D03*
X121085000Y-71630000D03*
D13*
X123685000Y-65880000D03*
X125485000Y-66930000D03*
D20*
X123788074Y-75932842D03*
D21*
X118338074Y-75932842D03*
D20*
X118338074Y-77432842D03*
X123788074Y-77432842D03*
D22*
X115240000Y-65880000D03*
D23*
X116935000Y-65880000D03*
X127035000Y-66930000D03*
D22*
X128730000Y-66930000D03*
D13*
X175483574Y-84094520D03*
X177352433Y-83172640D03*
D14*
X179545000Y-89090000D03*
X179545000Y-89090000D03*
D13*
X182539766Y-83535374D03*
X184262137Y-84708377D03*
D24*
X181941338Y-93570917D03*
D25*
X176504614Y-93190745D03*
D24*
X176399980Y-94687091D03*
X181836704Y-95067263D03*
D26*
X174115338Y-82946280D03*
D27*
X175806209Y-83064517D03*
D28*
X185808362Y-84816500D03*
D26*
X187499233Y-84934737D03*
D13*
X154725000Y-54970000D03*
X156525000Y-53920000D03*
D14*
X159125000Y-59670000D03*
X159125000Y-59670000D03*
D13*
X161725000Y-53920000D03*
X163525000Y-54970000D03*
D20*
X161828074Y-63972842D03*
D21*
X156378074Y-63972842D03*
D20*
X156378074Y-65472842D03*
X161828074Y-65472842D03*
D22*
X153280000Y-53920000D03*
D23*
X154975000Y-53920000D03*
X165075000Y-54970000D03*
D22*
X166770000Y-54970000D03*
D13*
X96082334Y-137957945D03*
X97116180Y-136148618D03*
D14*
X102242846Y-139828264D03*
X102242846Y-139828264D03*
D13*
X101619512Y-133548618D03*
X103703358Y-133557945D03*
D39*
X106735198Y-142203097D03*
D40*
X102015359Y-144928097D03*
D39*
X102765359Y-146227136D03*
X107485198Y-143502136D03*
D41*
X94305928Y-137771118D03*
D42*
X95773841Y-136923618D03*
D43*
X105045697Y-132782945D03*
D41*
X106513610Y-131935445D03*
D13*
X192587992Y-116777352D03*
X194542977Y-116055870D03*
D14*
X196105000Y-122170000D03*
X196105000Y-122170000D03*
D13*
X199663977Y-116958841D03*
X201254301Y-118305456D03*
D34*
X198019828Y-126876856D03*
D35*
X192652625Y-125930473D03*
D34*
X192392153Y-127407685D03*
X197759355Y-128354068D03*
D36*
X191347276Y-115492382D03*
D37*
X193016525Y-115786715D03*
D38*
X202780753Y-118574610D03*
D36*
X204450002Y-118868944D03*
D13*
X135661399Y-102047857D03*
X137461399Y-100997857D03*
D14*
X140061399Y-106747857D03*
X140061399Y-106747857D03*
D13*
X142661399Y-100997857D03*
X144461399Y-102047857D03*
D20*
X142764473Y-111050699D03*
D21*
X137314473Y-111050699D03*
D20*
X137314473Y-112550699D03*
X142764473Y-112550699D03*
D22*
X134216399Y-100997857D03*
D23*
X135911399Y-100997857D03*
X146011399Y-102047857D03*
D22*
X147706399Y-102047857D03*
D13*
X135675000Y-83030000D03*
X137475000Y-81980000D03*
D14*
X140075000Y-87730000D03*
X140075000Y-87730000D03*
D13*
X142675000Y-81980000D03*
X144475000Y-83030000D03*
D20*
X142778074Y-92032842D03*
D21*
X137328074Y-92032842D03*
D20*
X137328074Y-93532842D03*
X142778074Y-93532842D03*
D22*
X134230000Y-81980000D03*
D23*
X135925000Y-81980000D03*
X146025000Y-83030000D03*
D22*
X147720000Y-83030000D03*
D13*
X199197992Y-79217352D03*
X201152977Y-78495870D03*
D14*
X202715000Y-84610000D03*
X202715000Y-84610000D03*
D13*
X206273977Y-79398841D03*
X207864301Y-80745456D03*
D34*
X204629828Y-89316856D03*
D35*
X199262625Y-88370473D03*
D34*
X199002153Y-89847685D03*
X204369355Y-90794068D03*
D36*
X197957276Y-77932382D03*
D37*
X199626525Y-78226715D03*
D38*
X209390753Y-81014610D03*
D36*
X211060002Y-81308944D03*
D13*
X154711399Y-93047857D03*
X156511399Y-91997857D03*
D14*
X159111399Y-97747857D03*
X159111399Y-97747857D03*
D13*
X161711399Y-91997857D03*
X163511399Y-93047857D03*
D20*
X161814473Y-102050699D03*
D21*
X156364473Y-102050699D03*
D20*
X156364473Y-103550699D03*
X161814473Y-103550699D03*
D22*
X153266399Y-91997857D03*
D23*
X154961399Y-91997857D03*
X165061399Y-93047857D03*
D22*
X166756399Y-93047857D03*
D13*
X195875057Y-97914906D03*
X197830042Y-97193424D03*
D14*
X199392065Y-103307554D03*
X199392065Y-103307554D03*
D13*
X202951042Y-98096395D03*
X204541366Y-99443010D03*
D34*
X201306893Y-108014410D03*
D35*
X195939690Y-107068027D03*
D34*
X195679218Y-108545239D03*
X201046420Y-109491622D03*
D36*
X194634341Y-96629936D03*
D37*
X196303590Y-96924269D03*
D38*
X206067818Y-99712164D03*
D36*
X207737067Y-100006498D03*
D13*
X135685000Y-63950000D03*
X137485000Y-62900000D03*
D14*
X140085000Y-68650000D03*
X140085000Y-68650000D03*
D13*
X142685000Y-62900000D03*
X144485000Y-63950000D03*
D20*
X142788074Y-72952842D03*
D21*
X137338074Y-72952842D03*
D20*
X137338074Y-74452842D03*
X142788074Y-74452842D03*
D22*
X134240000Y-62900000D03*
D23*
X135935000Y-62900000D03*
X146035000Y-63950000D03*
D22*
X147730000Y-63950000D03*
D44*
X181560000Y-122470000D03*
D45*
X191951654Y-110709596D03*
X195300000Y-111300000D03*
D46*
X135297000Y-96197000D03*
X138697000Y-96197000D03*
D47*
X172900000Y-116200000D03*
X176291718Y-116437172D03*
D44*
X83320000Y-55720000D03*
D48*
X115126992Y-139581074D03*
X114247008Y-136296926D03*
D49*
X153295000Y-116290000D03*
X166495000Y-116290000D03*
D50*
X193250000Y-74450000D03*
D46*
X153300000Y-106300000D03*
X156700000Y-106300000D03*
D51*
X88090000Y-111450000D03*
X88090000Y-116450000D03*
X88090000Y-113950000D03*
D52*
X95590000Y-108350000D03*
X95590000Y-119550000D03*
D51*
X102590000Y-116450000D03*
X102590000Y-111450000D03*
D53*
X100249110Y-98455000D03*
X97709110Y-98455000D03*
X95169110Y-98455000D03*
X92629110Y-98455000D03*
D54*
X82400000Y-129125000D03*
X89400000Y-129125000D03*
X82400000Y-127375000D03*
X89400000Y-127375000D03*
D55*
X91200000Y-131225000D03*
X91200000Y-125275000D03*
X87200000Y-131225000D03*
X87200000Y-125275000D03*
X92700000Y-129475000D03*
X92700000Y-127025000D03*
X84200000Y-131225000D03*
X84200000Y-125275000D03*
D46*
X115300000Y-99200000D03*
X118700000Y-99200000D03*
D44*
X83320000Y-135150000D03*
X188990000Y-56730000D03*
D45*
X195251654Y-91909596D03*
X198600000Y-92500000D03*
D56*
X97818000Y-149232486D03*
X96118000Y-146288000D03*
D57*
X82350000Y-104800000D03*
X82350000Y-102800000D03*
D58*
X82309995Y-118535008D03*
X82309995Y-122785008D03*
D59*
X83209995Y-119435008D03*
X83209995Y-121885008D03*
D60*
X83209995Y-120660008D03*
D61*
X81259995Y-118810008D03*
X81259995Y-122510008D03*
D45*
X212080827Y-108874798D03*
X215429173Y-109465202D03*
D44*
X174150000Y-55720000D03*
D46*
X134300000Y-77100000D03*
X137700000Y-77100000D03*
X153400000Y-68100000D03*
X156800000Y-68100000D03*
X153379000Y-87185000D03*
X156779000Y-87185000D03*
D45*
X188625827Y-129404798D03*
X191974173Y-129995202D03*
D46*
X99180000Y-106960000D03*
X102580000Y-106960000D03*
D62*
X149575000Y-77810000D03*
X168625000Y-96860000D03*
X130525000Y-96860000D03*
D44*
X169950000Y-121710000D03*
D47*
X172908282Y-97162828D03*
X176300000Y-97400000D03*
D44*
X167300000Y-88050000D03*
D47*
X174300000Y-78100000D03*
X177691718Y-78337172D03*
D63*
X83679164Y-163304164D03*
X81275000Y-160900000D03*
D64*
X147895000Y-109980000D03*
X147895000Y-106580000D03*
D65*
X82595000Y-111399951D03*
D51*
X82595000Y-115000000D03*
D46*
X115300000Y-80100000D03*
X118700000Y-80100000D03*
D58*
X82251228Y-65426228D03*
X82301228Y-62426228D03*
D66*
X84101228Y-66176228D03*
X84101228Y-63176228D03*
X84101228Y-61676228D03*
D67*
X82201228Y-60076228D03*
X82201228Y-68026228D03*
D44*
X145400000Y-55720000D03*
D46*
X115100000Y-118290000D03*
X118500000Y-118290000D03*
D45*
X208900827Y-127684798D03*
X212249173Y-128275202D03*
D68*
X137950000Y-120100000D03*
D69*
X140490000Y-120100000D03*
X143030000Y-120100000D03*
X145570000Y-120100000D03*
X148110000Y-120100000D03*
D70*
X88780000Y-56840000D03*
X105318815Y-58035745D03*
X88780000Y-59380000D03*
X105318815Y-60575745D03*
X88780000Y-61920000D03*
X105318815Y-63115745D03*
X88780000Y-64460000D03*
X105318815Y-65655745D03*
X88780000Y-67000000D03*
X105318815Y-68195745D03*
X88780000Y-69540000D03*
X105318815Y-70735745D03*
X88780000Y-72080000D03*
X105318815Y-73275745D03*
X88780000Y-74620000D03*
X105318815Y-75815745D03*
X88780000Y-77160000D03*
X105318815Y-78355745D03*
X88780000Y-79700000D03*
X105318815Y-80895745D03*
X88780000Y-82240000D03*
X105318815Y-83435745D03*
X88780000Y-84780000D03*
X105318815Y-85975745D03*
X90078815Y-85975745D03*
X104020000Y-84780000D03*
X90078815Y-83435745D03*
X104020000Y-82240000D03*
X90078815Y-80895745D03*
X104020000Y-79700000D03*
X90078815Y-78355745D03*
X104020000Y-77160000D03*
X90078815Y-75815745D03*
X104020000Y-74620000D03*
X90078815Y-73275745D03*
X104020000Y-72080000D03*
X90078815Y-70735745D03*
X104020000Y-69540000D03*
X90078815Y-68195745D03*
X104020000Y-67000000D03*
X90078815Y-65655745D03*
X104020000Y-64460000D03*
X90078815Y-63115745D03*
X104020000Y-61920000D03*
X90078815Y-60575745D03*
X104020000Y-59380000D03*
X90078815Y-58035745D03*
X104020000Y-56840000D03*
D64*
X134545000Y-134900000D03*
X134545000Y-131500000D03*
D71*
X92629450Y-101077000D03*
D72*
X92629450Y-102527000D03*
D73*
X140500000Y-118375000D03*
D74*
X140500000Y-116925000D03*
D71*
X100213450Y-101077000D03*
D72*
X100213450Y-102527000D03*
D73*
X145600000Y-118375380D03*
D74*
X145600000Y-116925380D03*
D73*
X194925000Y-58475000D03*
D74*
X194925000Y-57025000D03*
D71*
X97668450Y-101077000D03*
D72*
X97668450Y-102527000D03*
D71*
X81900000Y-107775000D03*
D72*
X81900000Y-109225000D03*
D75*
X91644868Y-136246500D03*
D76*
X90389132Y-136971500D03*
D71*
X95166000Y-101077000D03*
D72*
X95166000Y-102527000D03*
D71*
X84005000Y-107775000D03*
D72*
X84005000Y-109225000D03*
D73*
X148100000Y-118375000D03*
D74*
X148100000Y-116925000D03*
D77*
X194920000Y-55050000D03*
D78*
X197460000Y-55050000D03*
X200000000Y-55050000D03*
X202540000Y-55050000D03*
X205080000Y-55050000D03*
D73*
X197425000Y-58475000D03*
D74*
X197425000Y-57025000D03*
D73*
X205100000Y-58475000D03*
D74*
X205100000Y-57025000D03*
M02*
